<mxfile host="app.diagrams.net" modified="2023-06-20T20:27:56.073Z" agent="Mozilla/5.0 (Windows NT 10.0; Win64; x64) AppleWebKit/537.36 (KHTML, like Gecko) Chrome/114.0.0.0 Safari/537.36" etag="tCumCnNGsTPO9BFZwg2h" version="21.1.9" type="github">
  <diagram name="Page-1" id="KWWYca8Ly0GU28QQrVWx">
    <mxGraphModel dx="1050" dy="669" grid="1" gridSize="10" guides="1" tooltips="1" connect="1" arrows="1" fold="1" page="1" pageScale="1" pageWidth="850" pageHeight="1100" math="0" shadow="0">
      <root>
        <mxCell id="0" />
        <mxCell id="1" parent="0" />
        <mxCell id="KAyXB3LFF11qL9irPbgj-5" value="M6x12 panhead screw" style="shape=image;verticalLabelPosition=bottom;labelBackgroundColor=none;verticalAlign=top;aspect=fixed;imageAspect=0;image=data:image/png,iVBORw0KGgoAAAANSUhEUgAAASwAAACRCAMAAABOgHVYAAAAAXNSR0IArs4c6QAAAARnQU1BAACxjwv8YQUAAAMAUExURf///729vTExMYyMjFpjWgAAABkhGa2trUI6QggQEJSclGtzc1pSWlJSUnt7hGtrY3N7e5SMlEJKQhkQEO/v5jo6Os7OzqWlnK21tSkpKWtaOnOcY3Na72taEHNaxUJazkJahJwQUpwQGRBCGRBazhBahL3FvaUZxXvF3qXOWqWUEKXOGaUQjDpaGRljUu+c5msxUmsxGYSUtUrv3kLvWkqt3kKtWkqtnEKtGUrvnELvGUIZ70IZpRCtWhCtGRAZ7xAZpRDvWhDvGXPvWnOUMXPvGXMxjErO3kLOWkrOnELOGRDOWhDOGToQUpxaOpxaEKVa76Vaxc7FEM5SEM6MEM4ZEJxaWkJa75xanEJapZwxUpylY5wxGRBjGRBa7xBapZxae5yEY6XvWqWUMaXvGaUxjM5rpc4ppc7vY87vpc5Kpc4IpToQEBAQOu/vIWtalObO1ubOtc7FMc5SMc6MMc4ZMc7Fc85r5s5Sc84p5s6ctc6Mc84ZcxmM7xmMre/FEO9SEO+MEO8ZEObOlM7FUs5K5s5SUs4I5s6clM6MUs4ZUhmMzhmMjKWE5nuE5ghCUs6M5loQUloQGe/vY+9rpe8ppe/vpe9Kpe8IpXvvrXMp7xAQWnvFrXMpxUqM70KMa0qMrUKMKUIpzkIphBCMaxCMKRApzhAphHPOa3OlEHPOKXMQnM7v3nvvjHMI73vFjHMIxUqMzkKMSkqMjEKMCEIIzkIIhBCMShCMCBAIzhAIhHPOSnOEEHPOCHMQe+/Fc+9r5u9Sc+/FMe9SMe8p5qXmre+cte+MMe8ZMe+Mc+8Zcxmt7xmtrRnv7xnvrRnO7xnOre/FUu9K5u9SUu8I5qXmjO+clO+MUu8ZUhmtzhmtjBnvzhnvjBnOzhnOjKWl5nul5ilCUs6t5nsQUnsQGaXv7+/O76Up73vv78XO76XF73OclM7vEKXvzqUI73vvzqXFzqWElM7vMToQMUJaWq2MtaW9lL3OnHN7WjoxEHNSWkI6Wmtac9bv///v/wAAABF7XRAAAAEAdFJOU////////////////////////////////////////////////////////////////////////////////////////////////////////////////////////////////////////////////////////////////////////////////////////////////////////////////////////////////////////////////////////////////////////////////////////////////////////////////////////////////////////////////////wBT9wclAAAACXBIWXMAABcRAAAXEQHKJvM/AAAQXklEQVR4Xu1cW27rOBaMRMmyaVGkXpS0AS+gd5QFNKD57TV5U/MTYDC/dsOAlWCqDuUkjX7PzEfssOLkOo/ra1Xq1KlD0vcpIiIiIiIiIiIiIiIiIiIiIiIiIiIiIiIiIiIiIiIiIiIiIiIiIiIiIiIi4pug84L5df084ncx62vaTlOapkbppFu/GvFrdKPrp95kpbXWWWsaO/j1WxG/hFenbdqYzIIrtzjnlKr2i4ry+hVmbVIwZaApu+z3zlVVVSs9KOd0VNdnzMW+AVNlCa4WaqqqlHquaz2ci3FwyxDFdUPiThQVjQqiIlVgSutB6/MwDkWRFKqKtUj4UH6lUGWri4JT1aoe6kFDVWQqSXyiXGRrHrI+3TarppZqz/JTSkNWo4hqTIgi8eOi39a/9C3RHVyfNteP8hOiYFQov6L4IVAV2IK4fPF9fb5L1DWdoCm2v5JUkSmKahiGgkY1kifhysu7duf5W5biC42qN6WkT2EqqApM6QIYYVSCAz+QLNwdlfp+E9A8ZtCUuUWqd02h/ooCBRiMaq2/QJRg1Hq8X2nNtN6ixtUWyWE+/iUD7kbbS/gkVUxUK1f0dGpq5WqlKigrWb9R1FavD3NfmEftmk0LTECbt2ljMfi+rN/+HRzqZgJTmGfKxa6JKlA1nIcCNym/kXHhQ1P4hRDwMmXVvD7S/aAbbJOCnlOZAQucJzNNP7VTj8n3dy+nG5d0SslUBlWRKvLE7lcgqENRYukrPqgCV+NwZkTFT1f31hL9fsp3LRdRtmj8oZ72KKnF2tOU9n2mf4OvzleNlF+JeYZEQVS1aIojTfFz0NSKWaoPDXEtQBCl6xo/XlmTrA94B+i8Pk2iqRLXbUwDwpqTsc7hhonOQWJNelLjL/vWXGRhSl7wFn5SNCXDH4JCMkJXwtNnrExBeriBKfw9c72bMfF1sOnU45JlAYX93im3lIY04F5FCrQDhQjlH/UyD/ueOYErL1kQVUWeUFkwKWbPwNOYHN6TAqccehWMiqICUwq/j+WCgeg+5p5uMLAcUNH3Pf4w9rIajmZ5IF/SgigY5aC53jihK1GnPj2F2W8PjiVR1Zj8JKevli7dD0ytTkVBiU8N4JTFqvB7gCQhS2PUnzSRL4FkCcu9bPt06MWYrQFfmuNuocGXyUADXeisXZnhx7QvOCVf2QFkjWr1dMZ0tL7hvfTCn+9UUVQM8vSpWsoPmpR/8tSk++P6hL4uusJs4FVgYDHLhdYjGkHNLW4YMbrNSaHKJlNnKbCicBhkrlPbnyyp3S+XYFRCFbiieG5BgfCBKn4N76ASP8X2R01xhRm6wr/dmGYyX74fdlWbpw25Elmxn10WXosealyIKvw8z94PYEgXbHA/j0N1sc6kTbmI+TNSiVNxnjnfDB103dSFe7jLyuQjSPcDUdUFTOEfpFDRO7Z923xxst6Ott2gnISssgRboIo1hfbPa6+d3Q/H7nXu5qQydmBdnkevF/SCpslEU8IVqWL/Q6T64OgW08WqqCp2PzH16kIRW4MeIqpqttv0y5M1qzzv8VyFLNgPDGRZCeCFsXR0JWu/3dNxrJYKNsZ1u0RDE2VvqvpZipNGFZofqcL7Ya2+d6qk+ujp1CIDCXyKTLHBgqk0nb48WdW06fFkmy2fNoQFulCG+2c6EPo/pJL4w+D2Ib3Pg7MDLh9k+KKyl7Lv99La4OgrVwT19Kn7AShAOB59CqKCdlF+QpTUH4gCVRis+i9NVuebfGqELT5xkLWgshamqkppsIWrHEfvfeL2YVlgVrYeD+AAxq8Wd2kaB+WA0zWmk65/rESRKb7T0qG+4FQsP3BVouNS0A1m75WrTVt+6fEwyfAsU5IF3yhvi1AX/PLF4aEGXCv04o/zqNYs6utqEN0c5hG8NimMbERtfvZzQhbZCTQKhKqamlpFhe6HuidV76qa2l3e6C+9qDX2nJAx1gRlYXDGG8oQ/Q0GzwU7cEUWkB+OQ1XcxKVHYcuLc6W24GdC1eGzqoAQ01l+6H3sfhQVNXUlUeJUwtQGXLX11w7wAwIW5pUt6MLcjKsIwnKLeNYamsbkJ1z8cX7xqvJyPclSgy3Qwr0ZWzZGz0LQPwJl7IfCFIMZex+oeq44jjOmA2AKXIUCJFFAnu/Krz1Iz/t2B656PHO5iMwyO+wXBmthq16lBWV50NUldRh2O1VSTT6ZE2Urk9rxAJmtIE8ENIXyQ/dD9UmiCp5+4lAlTEFRE4na7XZ5Pqmvrau3sWxbPGk8d5QhChE5K8sYyINr1foHRAJcNimQk0IvXitxrrmoNfjDl2FczqZNAW3xc5jXT+N4ZvmtiQpRjEYFOwRTLPieRHFdkRWI+oOq8r764qnh6eimzURlweHXbshGZaGsML7QmlmIgSv6VjeP4bBQB8MX4/LJGZPRFsPiaun4C9L9SBRURaJWo6KlbxvW3urpEBWZ2pV3sAA/W/xu+WumwweLNxnSA0K8e2YsrcEVyRJpHYStt65Yz74UtvYeJeoPGuEsNYNn1AIkfZIqVnPofphoaOlr8xNTp1Wh+vLN1xeV4Fi2Gzlbxpwl2iJV+72T7QZqS9c/MDyALTZE7488tOcrLWx55VB8+EYyuGxpTO1BFPOUritGqkslmpLfAVWFYkfJc33jQ1R3whTgT9yT4K+abHEZ2Zzg8MaifJbndeJDSwvKorRmBK75dR5qXuJbovQaRRXn6jIsKCBR1c+SqKgqLrui+71XH+sPPNHS8015R0dovKGyUIcStUIZGtuDP3PhXCINUZYSbi3xgEKcj8ilw5G7Y97aBMWHBqghoN6ogp7uuPJJUYmlX+lUSFTB1dn8Qvm1p/vaoJhP7Y+UFpPWalqLacRRpr68gCsuPYi6PmyL2upeQ1PsEq04KsLXMRqnkw1OZbnBsRZgw1wimpKHpVGRqskJ23cEb9ANKa0eYTooKzOolPXaSjZE7jvIAQXRVmiKoOt41hIhC6NCrjorEJMaJAWxdFbfFZUNpigpair4lDBVjihieQr3g+OCnBNMi52K2lqa8DkxpSWMmmvJ0NaNreDzczcr2RV7KZwTsgplrEm3FqZ+ywkozJUoioqaoqVvSv31F49/A7ObuEkY6nB1LToWYyq61i5PMy7/ohKZTM+3BRjSdZiPhT7gMZDlNSyLycpyZcpwAb80JzzaO1WfRNVLa7hHdIVBO8Tl8KKCa0nT6vtJVNAa7urUoSnK4POpFKGpgg/i0Qm5AgqPb5am7eFUTFSBqRtVnJPzPF3u+PTH25i1O1xN3qIdirLEYHBxSNX0FlgQfUsqMRiX+HzIXPOhZiV2SbkomW24acYdIilpeSBhah1okBPu+1RRp3b5hrbFHXtUojEpiQpMpY2MicwQcgyUCzYoR65cicCOCKUw6ievuWlG/TnEdEj0Y41qQ4XywXb9cpdG9QvoFmRNcCiWIhxnS6pQf+nJ1coaLpquCYJUSSmeMdSs5pUUquieOl83luNNXcGt4IBSyqH8QqRK3R2X3wfGf+JypgYug6tDyiZXEw8YwabUtbGcWcKmYIU5URIq+GJYIFd+dHp+ffOaO9YYvkEvkkcAiQqiKu9jU/7P4W2KnnfNTIY0yoNFacazCrhp7XpZCuR6fAjzVBfokm2cQFehlUamH+uyhBJBaom+CpJAVZho2r760svqfwtdckWVkBTGIrMHU+CJHbByZd8gimPCq+zNugDSFVYiYGAcCvXr7AsLETp7URaTjaT0kBPE0x4HLxnJQq83C4rvLLvqMB/YVVGYlFmc24hiXWALmmMpUmDnYeDWc2VrtMZiAVmXBcyiEU65iGpnH8KoPqNTyKVI6hXjAYmCU8OnXTI/+VIkx9MINC5Mx/g26lGfRV+rxGqnCl+gEWYLp+cSpsXya+42fP4RvJvy3ODSUWQkS+GS4UPzsfNsbmVJdS3VM7eRhS7yJfYlOA/WDjD8qtmSqsViXJpSd3jQl0wkKJu2dwOp0uhnoOplPh5fusQ1DbeoM6EL43EF60JJvvMVKFtsPRZDxUNc+FnbtO2peFCquPTAJj8ZXUBUphrn7uh9Nxf70iLQn1iJ3Ezk8ik8HL0xbMAqNkk6WLW36jzwjFtZ4gaD78NRt4eEz/Id6OpLVNlhfp2PL3OiMiPrpWa7LTNuj63gVumzo8LAGNiihVWZhd1Z08tS6xWp1N7RSdq/C8Z49PvJ+idwNR+GrDcLDR1UcN30KkeRFrRF0MUzp9z9kbMwwtaCcVtXjq/AlEXRqW0emKy5gsdjnJ5quProsmtGJlBnHIz5wgFk1W1zEn3xnCyTl+MOEFIYfs4ZU9UVz7ZxEQvRNp/u88USfw1HJFPMvO1UopoyJCpQ8Lw3kuh7rtikmw346rcwsGWPd9wqZnuZhC5IGu55MWkq61k9WD+vD/yQKE5tvmPyTjNUlqhFZjzyxKGYp7cNPj8tJRreDQxgsoODQnSOL0ZptvgL024a1sd9TIwp8gPY2iwMWiWMKqwIErh3Nae0gWWhziyil4QJgkShTZoGnEFZEF+6xTCePjZZnUp3uxZk9VxYXjcTuXpKqhrM2NvQ8RowZaAuMFZank8iZbQrDJcQoKDd9bKE+rh4UztoC4W4aVNZkOIKHkqqTU/ctHF64IZgw5cIhENv4Csz/ADSGphZiaGQdQuyHl1ZaIlqync/0rYCQBQvng3OVFrXPDVpJR6YE96ZJsgZX0CAiIWoj4AFaU2wrPaLH7T6P6CrdvmGa8z0dLyTKFx/mxoEda4bc8KG0yMdgC4hjOAGYdNz4Z0yBL8IbXfwQon/FZ3my+cQTulUbaMTK1pBXW24/IAJZzE8E4E3qI2HYkCTkNakW1hdKju20y5vxnt4Cc7/iK5mT9yhktpe+acEn5ErEsbEBQpT2QTipllQGG8Q2TZtrvS3Fj/W5nn5aOtYvw3ww9dmNnruug5xgkpZexwrTP4EUdw141kSskaZbdNeqrBFGYMs9z3IejouXA0u3l594gvDmvzMlyTUlC+zQ/gUrkRmIjkEjvbHaYOe+vj2vuLtqDYYfczgvS+c7D0wdd3oCmyFXI8PoEkoky+iC3LxPf/x+/y3RW/diEExb/tlGLWBgckO7CowULa2SnLFw6hhS5Xf4L72hmvv5vFb4Sd0Ds6FK7/a64YLXWCKbe6jIiV6rmMjIV+EqDAD5LkNJ+W/D3QDtsCXOPaGSRVUSS64YQ0VAdz75+4X/07/XQzrA7LCBamAAeGLb1KNwcLATqBMYkU4+79DG83b7HG2VP8GZNMHXFFWaHNCFni7VSM/yj2wRgHKnmre6m+QRn8TPmsl0O92G8Ynqovg+jN5kptwxjoVrk6PPj//EfyeNgSCeG4BH4QVoY1hPWiLshKudmZ82A2wvwYpRiGKbXEHmkRjwhhp4n0x9sk83F79f4GXf7MzghHIKgiMLoa7oSzxObT3yBuFfw9viWJMZbcLb1QY78gL3/I8rb57/f0S3TyUXE4gZyAt3OQzDIKx/H6Nt9fRnfoUogoq4+HKfRL/q/I/wNtx5Muef0iSf0VF/SmiPUVERERERERERERERERERERERERERERERERERERERDw9Pf0HWbkWWGz4h4oAAAAASUVORK5CYII=;clipPath=inset(23.1% 25.67% 15.52% 22.67%);strokeColor=#DDA15E;fontColor=#000000;fillColor=#BC6C25;" parent="1" vertex="1">
          <mxGeometry x="10" y="40" width="200" height="114.84" as="geometry" />
        </mxCell>
        <mxCell id="KAyXB3LFF11qL9irPbgj-6" value="M6 drop in nut" style="shape=image;verticalLabelPosition=bottom;labelBackgroundColor=none;verticalAlign=top;aspect=fixed;imageAspect=0;image=data:image/png,iVBORw0KGgoAAAANSUhEUgAAASwAAACQCAMAAACF3Kb9AAAAAXNSR0IArs4c6QAAAARnQU1BAACxjwv8YQUAAAMAUExURf////r6+vHx8fn5+dzc3La2trS0tLe3t8bGxvDw8N7e3oKCgmFhYZaWltfX187OzpeXl4qKipycnJubm46OjsDAwO7u7vv7+8LCwpmZmaSkpKKiopSUlHJycl1dXXFxcZ6ensPDw9HR0czMzMjIyLCwsJiYmIWFhZqamvj4+OPj4319faurq8vLy8HBwaenp35+fmlpaXV1dYiIiL29vcfHx5+fn3t7e39/f7Ozs9vb2+bm5snJybq6uru7u+rq6vz8/LGxsefn59TU1IyMjJWVlbKyslpaWmpqar+/v4aGhnl5eby8vOLi4nBwcFVVVUREREBAQDw8PENDQ15eXuTk5HR0dJCQkI2NjYSEhM/Pz8XFxXNzc2JiYtDQ0IuLi5KSkr6+vvLy8nZ2dj4+PjY2NlFRUa2traioqD8/P7W1te3t7ZOTk6GhoWRkZIODg6mpqbm5uc3NzcTExGVlZYGBga6urq+vr52dnaysrOnp6YCAgEdHR09PT6ampqOjo5GRkU1NTTo6OkVFRdjY2P7+/nx8fIeHh1xcXKCgoG1tbUFBQY+Pj2ZmZjs7O3p6emtra7i4uMrKyj09PSMjI19fX1ZWVkJCQm5ubmhoaGdnZzg4ODU1NXh4eDExMfT09O/v7/39/dbW1qWlpWBgYC8vLzQ0NEtLS1BQUKqqqjc3N9/f31NTU9XV1VtbW1hYWFRUVC4uLvX19YmJiVJSUmNjY05OTjk5OeXl5dPT0/b29uHh4W9vb1lZWdLS0uzs7NnZ2TMzM/Pz89ra2iYmJvf392xsbEhISDIyMiwsLCQkJB4eHiAgICUlJeDg4DAwMC0tLSkpKd3d3Xd3d0ZGRicnJyEhISgoKExMTBoaGklJSRgYGFdXVysrKyIiIg8PDxQUFAQEBBsbG0pKShYWFggICAcHBxkZGREREQkJCQ0NDR8fHxcXFxISEgwMDAUFBRUVFSoqKgAAAAYGBgsLC+jo6AoKChAQEBMTExwcHB0dHQ4ODuvr6wMDAwEBAQAAAHFGmZgAAAEAdFJOU////////////////////////////////////////////////////////////////////////////////////////////////////////////////////////////////////////////////////////////////////////////////////////////////////////////////////////////////////////////////////////////////////////////////////////////////////////////////////////////////////////////////////wBT9wclAAAACXBIWXMAABcRAAAXEQHKJvM/AAASo0lEQVR4Xu2cQZKzOBKF6xREsPYR2HMFuBgH4RhcAfasva4TzPdepgBX/x09HRMThauUZQshY7v0OTP1JLA/qlWrVq1atWrVqlWrVq1atWrVqlWrVq1atWrVqlWrVq3aHa3J7dr3/aPsVPujrd3Qrh8fj7br2rbt2r7y+lvr23Zu22nY2gfW92JW/evP1rTbDKO5m7ZuJgz569ttm/G1v1rDg78SZNO3c/PxIOxsj8e8DVPLVjt9t7X9F17rPA3LuIzD35D8wdZ0W4dtnfAIENtHu02TolG4SF9dnwdj/bYsYJrndgPY9KsS20qeAko7TQAIWOY1d9tAOBrXPBOOhvIAEEkNUhilXGz7De7VPNTLmUxlPATcRkYvuORnCkfymJs0OrbTuNCiccADpoC1E46mQfRH22Oa6DA9L+6k5A4vVdIIRxxO8Slyy77wDPsU5A7D7XCv6SenL7I6ORwWSuXiEnAcjpGsbFS6jQCV/0xdRF8hxaa417yN+9g98rV/kDWNss9j6wDBbSaV41xf6WSup2F9dONOZkqfurJSGRulr3H/ceHYdAxlytloqaAh/yIhBS8D7NsBN5J/SUcw5qG8lKcER2SCT/5h2dj9tPRlOdVuwyABmkYFb+oSlxrESADnTumoJCpvNjxxIHopBmzSqFBs1vHLdtEZ720zA578Ralcw2DyIVmh3CN99b0EPA4HKISnQkyWkCzKOjkT7fgncotH1B64+CDwxDdPXytySoVpyImY15CsDgMgPJIXd8JvjPCDjZxo20yDA9eVvHdo0WZdV15N3soH4Cc4HN9YrDYrGl3e89D6iwxebZkGcpOCgFcohb4bpBPwG6Q9pOReHChHkps5R9n94JYvDzHFrgZTPW1ansPbivvZQUfIbIeuMi/cS6lcO25wgDqn40Rk/mFEheI3YjaOSK1l2ff9yZ0RksNG837gaaK1rnqOebXosiFk/7tZ0xoWvqNU7mqY6FhrlaaHlMJATtdchvytqBpHs8lsHqmKxzNCRwAi9SEFa4zRYmCmhHuN+/Rmyb5pCb2LUHCyeqGjZYaS3EnrY6LSJJDJMpyU5mny4cr+Mg0TmAHpJUHmuZHfgjB2EDPnfqtc32gSMw3OROqiCi0qiI731CDtQIAaW8jPCWQdkZRTHDtScSnMTyvY0tANeFS8R8wreSK5vnufWOy7VoNV+M5BR8mK4e1ooMXJishT9u7wJXL8E42VEgsDlmkFpYOUyMjNuK3o2/BRHcQnxLMYVN/HuXr++aRDz/2x2yJZpcO5YcUb8LiuRwWQ2UElHyvLC6dXyWG0p+ekBa94EQaR0Cd4mpa9GC22HDPvbM3arAz3/s8vdHJfPY1wPJqIIxI6rMZBE2M8TKi42b2UyzUiLtxiKBxoyEWcIIb5Y+FF5VtC35LnoZX/0n3tQbLSnLgoK3pzWTF2A1qLHlljQY4wxBc2IOzLJlKCZc9ilkz6wlCqmDxPqHRXq32WaC+vug3Q4mPqRl6P5D/cf0WCdPVAIElmFucJOpdpsyoOUCQDI5jIaOFK2T2WmzU67J9PJTEEVz4lCps12LDspLf+xDVPG54FJ6MmErv8n+5qDemK3mjyJt85OuJw3Ao+TC341KZBQNMWrRxjcALU8oSUVGbod9sZ24bm6U5oh+NdIKi85lNFgnXzQEQzRJdMxzrbu2pQ8s1VPxst8jdJ707yXeTkUnB7Lggm3Ec5vST5YyzEeA1nLL0E/lVy4oO35EjQ83QC++YrqZo5Jw3RidSULdoWreUWgAILQsowi1ht6PZBCy6R3S9DYAElQHp6/lk5KNkFrlYuRbKT+AD7dO+s9ZiG1/VhrRiHe7m7tFzUBOm9azW0ybOIQlCNXvvUaKjEI48i5ys6tSIjlcYD0LOK5wX0KsZFcsd4IT0tYA3QuvXEZ+VTZjA6cNErpyaP9GcLn7n9os0wRJCSrEnZ0gWQCenAM9lnRHx+fjKL1o2aBkjNGO2gflXKdh9FC0TgBKphoUnu7Vn0lxG+TEBk9EfJXcoqm9gSJErMM46A2wBmQrgTiyPPD6VFZIJJM0Q/Hl4m00ioxQhluXLOjFcinfOyGkw3Pi0LNMDP5xLY/ezhmbCyNHQ8qEdfQiseuNSqmYnnQxQ4kVxS6hMHUyB5Ku2xjfjNhJUvZYcCj04oyo31No+VyRIyS2OEAl8zLZ8sQ3rcNsnLs5Rh+E8lzE/3QgU5lZy4qGmxfbP2luR+SqWTtMhPhBxeEyPh4VLnYIgJ16qA1vqo9vuZwY+YJlVpEq5J1P4cZg7pupuucOFZI7BCMBEGFzr0T+F4tkjlQwsNi49JHS1PTWimDWxChYNhCepwL5m8S6+HQ60I9j2inleRbhcrvQ/0nyPzeWk+3vSGvByGHr1CNE3S2OpVdNJZRak5GpAOSjx96Ps2aC27vCpA6a+wio1fJUyAuK/MAvZxxk95u8FLForEzVMAfzL6lOB1u4m1YPGhmpRnLsgBh2PQcv+ktaJFK1nDMhEr1vFzi3RnsJNK9RxIyBTQTASV7DFNFBkJdWqNV/CVlYKHd229TgzJRSUaFMoaQrWkyDvxJ16+zuI+toqNw9C8VDgcQ00EMWoRjl6J0pjFuMjgRT+Vg5SuUA4e8xbpBUKTo+QsKC3VGAZoVbgpDPWKay+JZlSEIIS20axG7Ubgg/Ru4dgwXZs8fhuVXEulRsfOzhSm0ZHQIwxjKYFOaFHYwn1i/rKJGqCUgDAp2uivn6uQxD3xMsZc+xeBxsgir+KtJgqzipyViVLPdLZv76O9mm4ZjcqU7FrGJXXuZJVGFy2FdHpCcx09RMDF1E4z6aeikRylRMXdVSd5IcOjJBhaya1JJ4Sc1iUYtE5BumIiLls0+XKilM7Tc6Vbu9ucLiPdlkA8Weme6SvcI/5zjtUqFY+qzwoUJWglLw5W4tHpUzNKamkioGWHFbmL3LD/2am0pozLGRRqH8/ym/HKs9QXNTvmH67C/C7bdgLRdEqRtCg9Wp24SF6RjWAT5yygRNRQi84rUfFUKYh4QvxBTyR1LHlIQ6bp6mg5JSNBwBp0KiAMjaGBwe+NmrhLODbtuCSkLI4diGl0J+ayD2iHgIU51euMKT02OLuYScp0HH8C4ieoRCZYZPBcJzyJjzC71j5ePhne0+nL701d6f4G7sWQyIcIHSMTp5OYSjwmr11DSSoOo/cMmxrj1JlIQjaij1J+5HHDt9AVfkCPRfhBLAZPhkr71efeeU4VpAKXp12ROpW+biHuO4amxHPhdGnyCKgsv+FZtOlOO+RiHEB5FV4Fmm6BJyFhdFdOpa2XJ7CQZHYsMpboaP6pT8ZGhYg9JmJKX9+tJlZl+USUhe/aeFvUxNrasexZGx2WmpTq1FTIY1tSsYEtyWmjPZEiFHmi1eyIZ6V+VcbSmAEdNJy86TyDIoGas/oSjt/Kq9kQz8mlFMWzKKImXm2rdBPG7NAjIA/geOqMwlG8YikwSZUtvOV7EBMfzcK9Dc/6JApngIuOtJa8KdzLiHoSo+WK9nmUjy3/8++wFb0FngIpaJWdsifP0DqKmvSQPcs14hRlqkUeIyHwglDhJZ1ut0OP2J3SimPtI/nPizc26EQ4ZvQJoHjFtIs2NPJ3jo4rbnIgykrZPRjajfJcBXtEoB5R1cNmLPKg5iU1IVVQRfixfSWFc3mPGJR0j/XYQodahGNp0carRualVPaNYrXpGLmNJeBo60Jl1GLXbgQuPIswPB8SR1yNjvhqBgsq+ZRSv3TCFonqariUWS0dT9JksAx9Nojohb6qCV5YLcDsvi8WH50ueRSEYBKbg4QecVWNmgdPOIrD8Dzo5OVwJO6kuRx+jH5AcaYKc40xEGDPgXRlGDH0wc27QUcOdxAUQI6xw7XfedHzmeXNJMkcRW59FxYtKkv7lyPiQWIHca/PXudtJTK0Pu/MZEZhwWx8MnmY9tAMhUUo0Vc6r9eKRThSzt8p6pt2WUq3o+9ZCw7Xiu84TR7hMjbi6DBtdckJqdgrNK/hV2wf22ZVZJUzGcGCiaHWc668tCJ0NNCk6J6+92SQTiOcvXZNNxVlL3Z9P4rYRrNLqS90roS8psmQSlc6itAMozIUmE6dboOKkrtT+dGiJcLkpefMw+fn8s3TxW7PeWIptL3ScDWgxC3upVJarCuQCxLqSepiz4WpEg/o2y7BQu51oSOACsfT4XRMai1amHftwPrmc7JNOxyRGJ3PnS/FtXKQCpJZ4AiqoUCT0BXZprmAlrZOFEz9fLayGJiuStQtMTpSWecRGfvdnoVvaUws3Y8iMVwKV45dmbfxWJSC5Wz/l3T13Df67a6nDLBlOL4GH+nr8hUreZXz/6PFsW4A62NedvX4QBE8rgWbL7t5ZFS9SydVmXT24jBxe+5eOJSzSKc7WRU6YsGT8nyvG2hB4l5csOkR+1oFuwWsZtY0xj3Orrv20hJYVAQ6t0WT27gNutZNAiM9S18m0JLy+BxeWUhcHCxoKckqG2hROOJNuWun+jSsO1xHMmuemDAKg6xEoZZL9SgurpU5S2d8AhY+NTL7k/5SrB19TzrsHy3hcPmtBcpoSX+cdYIRY+Y93WKtedU1Qdn16LtrUY/2C7qjeDleIoyaYWnke/KSdhcK+06BYx6+bu5oieSeK47ZEkp0fUwiJVjP7SbnMfrJV4wmiLhf66V8LYJiVJWzREzTnEEnzJ57q1/FyK7Lmy4saBELp69oSzqXAF375XPftiVOBOFX35+x0vCt8Az3v1SyquIEc0XkQ6JA3pqWBr/VpwO1gJcdh8U5bS50dFLtxeF4Etk+whF4cRoILxWr531YlUWI6Lk7Ty13ksZLNStsvKdCK1+T1um9qk5n/yIMrmt8amAWA92XcNTEMGfWm1bsTUqnGe91sS5TH8vTAKDKWfP9ZS9dTrWyhcSgy90QoNFz/v6QrKATMKKlTH3OBq2GIPU7rYWF3Y4VtukKG0N44UEZN++dLaWSFFVqyWu49NwsaM+BDoPFrEm3uGVjJKsT6TwBZ4hrUBLVeMNrT/vF51+vWv0oTObc/VOb7ySv8ZrKqWnJRc5U4EiJKtZUP1rgpS33TTNxrbDaqwjDz3tIhi/W6IqkIJUAivMUFMfun9rizvO1wuWvqBuFiITvBBttSe6hHcohkaykNTaDYmIpvSa3Wu76TeHHpqSjrpfOXwqRcFmKPxzlLaXOXp+RBQOPji/JXaNjadG5j43Bb2wnB59FrUMQAZL/2w1tnpipBJUrBXHItthRkfezTbc8Tqd3MrLSjlTuJjueFleLcm2XZ6hZTSeFih1NwW/MClv1lQin+uy2icTd5kq0XNu/PE5JOB7pi8J0UmuFEY4cRoN+ruWYJwUxLSLeSVv9ra0d/7nOf73iKjXK2D32So3KpYFCZ89etZaV6NmwtvIfUpjdSebrBvGqN/omNfpZ5wvda3X/WnPlbMvWrJfHXUBO7vWyqKATjXhT+tec2rOgklktvNfv1zTzEOkrfMUAjjJYuIg2F6of+3k0+7o8IlKTjRptymePdR7IVIdpcXVcNA98s18zkCl97TE6GsBRKTUVZ417NOROFtqH12Wio+tzSIy4F36lLwufFqdg8/3fzXr9ZJjDsRC41mh3wY5bjoeichZkL4ZHe5NhIad8FuiMPoj5vOz0nr8oktZYTWiFnS5nz114eylPZtSOejTQZLEaC+yPtYskRXG4lUTVm/72yos1GY7Zb5VHUWCU2tn2WmgTF12SvpglG9YZgE8U6U/5zbtG/dN1N/Q73Sb5HA1+yI8EIdfOglLnFnV9qb7jJEAFlcNv+1E/btowIdH36QuKwuyAAcqsvRSlQplXluhSiOSEQQr1+ZNIhaEmmOPS60LhAsUN5wP5sO9Z1VnrOAV0qnWl+fEbLyX6/5q+4+WLb+j0GYNZFDRRaP+8q6V4Fi8BJxTV8/NH/jjnxVJNJIZrofLcVelbaU5YiAh5lka/dxSf/9asJnJ0TBSmctZUlIpbVRgWFX/NgkT1a37fO8V9GzBM4+JCec8231QIlr6hCKs3m/v9z2Y1Eenrykll2bpOEVut0G/bqK/e/YLw+2rNLDVxkjETUfFemFq93xF9DINM/X4hqbBVakJz7cBzOpRTliqua6VG108Sfj9PUf0bO8NRfF5JsavtNI76nsXyG8PvqzX9hm6SghegKHILKl0XjqaC1O92qtN0zZmXvsKrkho5HdUe4fe7Rr9/Mv/4UywVpk/puxn68dfx7idpvsUeiPvjzBBOleGXj1b7aj7TESld52l+++j3T7a2Wqhy+P1eSfUvbG3xrJqo/mu788+IVatWrVq1atWqVatWrVq1atWqVatWrVq1atWqVav2E+zj4z/M5Kmb6nlzjwAAAABJRU5ErkJggg==;clipPath=inset(15.28% 17.33% 15.28% 17.33%);strokeColor=#DDA15E;fontColor=#000000;fillColor=#BC6C25;" parent="1" vertex="1">
          <mxGeometry x="270" y="52.8" width="200" height="102.04" as="geometry" />
        </mxCell>
        <mxCell id="KAyXB3LFF11qL9irPbgj-7" value="M6 lock washer" style="shape=image;verticalLabelPosition=bottom;labelBackgroundColor=none;verticalAlign=top;aspect=fixed;imageAspect=0;image=data:image/png,iVBORw0KGgoAAAANSUhEUgAAASwAAACQCAYAAACyAlbPAAAAAXNSR0IArs4c6QAAAARnQU1BAACxjwv8YQUAAAAJcEhZcwAAFxEAABcRAcom8z8AACSoSURBVHhe7d0JvOZj+cdxUlkS2YcSbYbssqWsqdRIaZMiW0pK0Z6yREqlfQ9JqURSyETWDCLKmn1szdCmPaK6/7/3fc41Pf/jzDgzc86c32+e6/t6Xa/nOc95lt9y35/fdV33dd+/BUoqlUp1RAmsVCrVGSWwUqlUZ5TASqVSnVECK5VKdUYJrFQq1RklsFKpVGeUwEqlUp1RAiuVSnVGCaxUKtUZJbBSqVRnlMBKpVKdUQIrlUp1RgmsVCrVGSWwUqlUZ5TASqVSnVECK5VKdUYJrFQq1RklsFKpVGeUwEqlUp1RAiuVSnVGCaxUKtUZJbBSqVRnlMBKpVKdUQIrlUp1RgmsVCrVGSWwUqlUZ5TASqVSnVECK5VKdUYJrFQq1RklsFKpVGeUwEqlUp1RAiuVSnVGCaxUKtUZJbBSqVRnlMBKzdB///vf8sADD5S///3v5S9/+Uv54x//WP7whz+Ue++9t1x++eXlRz/6UTnppJPKF7/4xfLud7+77L777mXnnXcuu+66a33++te/vrzuda8rr3zlK8ukSZPKVlttVTbddNOy8cYbV9tkk03KZpttVrbccsuy7bbblhe96EVlhx12KC9/+cvLTjvtVD+7yy671Me99tqrHHjggeXLX/5y+d73vldOPvnkcsopp5Rzzz233HTTTXW72J///Ody//33l3//+9+De5Gan5XA6jMB0u9+97va6X/xi1+U888/v/zgBz+oEHrXu95VXvWqV5VtttmmrLfeemXllVcuK6ywQll++eXLUkstVR7/+MeXJZdcstrjHve4sthii5VFF120mudh8doiiyxSFl544foYz8PitXhvWHze4+KLL16WWGKJ+nse4/eXXXbZul1srbXWKi972cvKvvvuWz70oQ+Vr33ta+XHP/5xufTSS8sVV1xRbrzxxvL73/9+cO9TXVcCaz7W1KlTy09/+tNy/PHHl8997nPVY+ENPf/5zy+rrbZahcKCCy5Y7VGPelR5zGMeU2ERoACppZdeesbjMsssUw0wlltuuQqy4SxgwiZMmPAw6/1/2HDf4zf8VvxumG1hT3jCE+p22g8QfPSjH133I/bFfjz1qU8tL3jBC8r+++9fPvOZz5RvfOMb5fTTTy9XXnll9c5S3VICaz6QkOj666+vYdOhhx5a3vjGN5ZXvOIVZcMNN6yA0IEXWGCBauDEsxnqqcxvFrCzn2DWu/8AvPrqq9ewdLfdditvf/vbq4fJ4/znP/85eFRTbVQCq0OSY/rb3/5W7r777vKTn/ykvP/976/ew/rrr189CR00OidIARMvhLey4oorzrBZeTrzm8W+xr47Frwz3hePLCDm7yc/+cn1WL7whS8s73vf+8qZZ55Z7rzzzvLXv/61/Oc//xk8C6nxVAKr5frNb35Tw5fvf//75R3veEdNWut0QqHIC0UYx3PgWUQnDRuuI/e7DT0+Qk05Mscycmz+djx5qvvtt18dcLjmmmvqgERqfJTAapkeeuihmiw++uijy9ve9rY6ugZGPKaFFlqoJrt5TTqYztTb+Xo7ZNrsW+9xdGwdYxcBxzxyY157yUteUj784Q/XXNj06dMHz1xqXiiB1RJdeOGF5eCDD64jXsK7yLm40uskCaXxtTj2LhYuHM4NL/fZz352zYGdeOKJ5a677ho8m6mxUgJrHCQfonGrK3rzm99cwzwd4rGPfWy9iruiR94pIdUucz7ivPC+nLOA18SJE+sorHo1ea/U6CuBNQ+lEJMn9Za3vKU85SlPqaGe4fcYtevNPw3XWdLaZb3niuflPErky30961nPKocddlj55S9/mSOPo6gE1hhL1fjPf/7z8vnPf77WP0no8qLASqjHk4rG39sZ0rplAS/n03mN8/zEJz6xzgDgTf/2t78dbBWpOVUCa4x0yy23lC984QvlpS99aa0YN3Tu6pv5qP6wOMdRnCt8fPGLX1y++tWvlttuu22wlaRmVwmsUZTc1LXXXls++MEPlnXWWWdGTZSclHCvX3JS0VlnZcN9bn4059yjHBePC8A233zz8ulPf7rcfPPNgy0nNVIlsEZB//rXv2opgjKEVVddtXpSclPyGhrr/NRJY190xF7zP4WrPIneuX9CX4/+9jpzXLyPxTQbnxVODf3u+eXY2Qf7Z9+jUHW77bYr3/rWt2raIDUyJbDmQg8++GCZMmVK2WeffWrn4k25guqA80NH690HHqLOxlsEY/s61PzPe4XABhWe8Yxn1CkwHp/2tKfVcg1AV1H+pCc9qeZ3Aky+H9iMugXweaiOJ8gJpYfbrq5ZbLt94nGBmInbpgWlHlkJrDnUZZddVpdYWWWVVWpn1bF4CV3rTLGtOo7tj0nFASY1R0wHAxwlGFZ0UHV/1FFH1eVf2DHHHFO+853v1OSyYf2wU089tdYoff3rXy9f+tKXyqc+9anykY98pBxyyCF1+ovveetb31r23nvv8trXvrYuNaMw0/SYLbbYoi5Js/baa9fjDFo8E9sGbjw02wx2tn/ovrXZop0YWdR+nv70p9dRRZX0qZkrgTWbMlXmK1/5Si0Y5Nrr1F0CVWynDq7D6/hgGwYKAGGwQIgLMN/97nfrOlS8gBtuuKFMmzat1hn1rkElf2f4/r777qvV33fccUdd2uXqq6+uo6SWsTE3D9C+/e1vl+OOO64ex89+9rPlE5/4RDnyyCPLEUccUSvIddyDDjqovOc976mrLKhV22OPPeraWwprjbaaAcB7W2mllep+RJgJuPbB/nXhnMS5AC3eJWg7VtIMqYcrgTUbssaSlRB0DO68zhGNbmhDbJNFx42wy1UdnPztym6RPQWPwBFLr4DNrbfeWsEDUBbxMyxvLS3m+T333FPhxIDce42O/vrXv66gAriLL764wu6MM86oq0l885vfrNOOeFsSz0AVgDKZG6Ssy8XzAivel7o1YRMDL96YBQNtsw6+44471sUC11xzzQow5yUg5nnAa7hj0wYLaPEctStzF3mnufzNw5XAGoF0Xp05wj+dPiAwXANsi8X2SXjzBEFKbskCfcArpOP1XHXVVeW6666rkPGcCU28Bj72H4gMx1u9AJxACrDCQM3/QI4X5vMGIi655JJy3nnn1UX1TOCWZBY+DgWWaUnW63rve99bQ23AMuUFrOQIbe8b3vCGuhJpwMrKpIDF82KeW7lU+YBQUuW5/Fgk+wG6recsoOVcyd1pazzOTMj/fyWwHkE6qU6iw0sGC/+igQ1tdG2waPg8CysPCDMkt4VRPBZhmKVpeD4/+9nPKkyYCnyvyc0Bza9+9asKHetsBbAsCNgWYFlKGaBe85rXVEjJq1kDTA7MEs3xt1zYRhttVBP9PC5AcA4do+GO33iacwewPC3phnXXXbeG5I5pakAJrJnI2lM6mCu1RG9UprcRVLFNIMWL0uBBiiel4ytglTeSAI9EOBP+nXXWWRUo4DW/AEueS+J+++23r4/M+vHPfe5zyxprrFGPV+S72gguBqq8edtq2efUgBJYw8jNDXQm88HkFHhXcfUbrnGNl8X2CHd4UzqghLlObH1zuSKAkDeyTDIDLuD44Q9/WPNKow2s2267tXn/DeXaa68pV145fsBycwvAEh7yspi6J/ac5zynllq4APG64kIU4B9vi+2IMJ53fMIJJ9R22e9KYPWIVyW5bN1va567woFB20AVnSvyHbZRolanlmsDA2Ydd0v/mg6irACwlB6MJbCmTr213HRTJN3bAyyd3pLIW2+9dfU8JemFXJL0kZxvW46L9ydfqh3aXncu6nclsHpkbfTDDz+8hlNG0jRkjaZNjdi2CGdceW2bMMfI2cc+9rF6k4VPfvKTFVoS6v4GLCHFWALr3nvvaa7+A6OE55xzZ+MN3FlOOeXWcsEF15RLL724XHjhua0ClvouXpZjJ79lIAKwohxiuOM+HuZca4OAZTRXCYhj78Lar0pgDcowvc6svkoDASxX37bAipenM/GqXHV1Mp30ox/9aF0JArAUZLKPf/zjFVwa+GgCywAEKFlTHrCi1IHdd58Sh2mNFzCtnHrq9OY3pjXfe0sNCy+77KJ69x75M0WktsM22W5gtc2g1Vva8M53vnPMgaWcA7A22GCDCgQXAsfXcW6DV63tyWUJ93l/8nCOnwtrvyqBNSgd2rQRozOutsM1oPEwjTa8KqDSgHU2I348KZ1dsSXzHMBGA1jWcRLWmcwNWEAFTH/6059q0ah1zeVUoh7r9tvvqHmryy+/pPn8JQ3srihTplxYTj75pPrbASjbbFvBiTdlP9RXgRKLeiv1V9ZRByzmb69HDdZoAkuu8pnPfGb1rMPTAojhzse8NvB0zl1AbZfZAf1cn9X3wHJjUQWOrt4xnKyhtMGzsg0arM5jlNL8O51SQl2nd0svz4WxowUsxwKkrCRw++231xAErLxuVNEV3p2YjTL6Dq+dffZZ5cwzT625vyOPPKEcccTkcvTRFzbh3xnN4zEz8mgGAWyL0gohodFLeTbbqubIdB1hoZDwTW9604w6KwACGXkc+68GyxpTHoFLDdarX/3qOQKW3J+bxrohq7wlz4qXJRSLczD0vMxL8/u2KZZlBux+vglG3wNLqOPKDQa9DbUNprHGCKAOteeee5YPfOAD1TuxhI3HOQGW6TGnnXZamTx5cjnnnHMqrEyfASX1WIDEG5JjAhafc8cYd4gOSKleV/kvbFTKMG3anTWXNW3a/eWqq0rz/aXxtAYP8gjl4sFrE3L6Xttlmor8l5FOOTn7716CILTZZpvVEF4SHZxUvDPAMrVIOcPsAEuhqTRAG4FlxBCwwNldu/tVfQ+sCy64oDZajUFDHe8GGsazEgYy+SodkPcBUMICz0cKLN6NuXtKGkyPASzG02I8H5+X+Ob9yDfxsphqd0AyR3Ckuvfe0kDGjTUMZAy+OEoSjvL4bJewFTh5abwt60xJpIMSiLlno7wPA62RAstFwnF3HtoCrJgkDbwuGO5P2Y/qW2CZuGsKiiSvaRCRu2pLslW+QpW6pVrkZySimbyPbX4kYElmAxZY8U4YeHkdzHyOl+Zvle8gYM15HWFOR6HAqXHSGq+tNN/nlmVKRQb/OYaKG8wKYSX27ZsQH6RMkpZUB7PwtGYFrAgJ2wYsXrY2Crq83H7NY/UtsMzR0pk1Wo1TjqgtdThgxcBK5zJCBlJyO6A1Mw9LHgi0QAichHNGD73fhGI5Lx6UUFDYNdpyr4XzziuNF1eKxTQffHDwH+Mkk7hB28ii0FGxKDjJhTmuMwNWGz2sAFZ4WP16V56+BZYrlBBIY1DTBBDCsOEazbyy6BxGA+VQdCQjYEbJ1CWBDmAN52GBlZomc894WT5jSRZeFDBLritDGEvxqCxXLhRkU6cOvDbesuyNHB3PU6hoNNgUHdOujBK6PX3bc1ix3LZK/bPPPrtv78TTt8AS/hhGN/oSU2/a0Dg9Gq0EUPkWAwKG/tUkqU0aCiz1S7wq5m+hkJEkkJK4HmtIDSeQEh4+8MC8CQlnR0Y9DTzICQIXr8t0JmZVVBctsHL8h56f8bAAVuSwnve856WH1W+S87BsihoejQCwNIrxBlaUMMilSbRPmjSp1h+B1VBgGS0T4oEUb0rY6G85HJAaj2po6/nhIy9r+vSBELFtwAopDRA2q8Fy7IXfcezbUoPFAli9IaER3gRWH0mC1lXKyQcs7nYbgKWjxNInChnVEvGwrPzZC6wobRAmmpbD2zLaZ2G98RRgSY2df35pvJhSpkwZ8LLaKqt6ynM5jpZ/lhoQjrcllxmmTcRqIQZg1M9l0r2P5OpqpMWIC2Bxt9sELM+tnils6QWWpDtY8ajktowYqptqW+O1qIA6LKOFbU+1GHyRAxQeBhTGO5cZpj1qE7ZLXk3YyuNWl9avKzf0JbD+8Y9/1KuUOp02Ast2aJwKIHlQgMW7MlXF4nQKSK2zPh75qVnJMuTXXVfKRReVcsMNLgzWeh/8Z8tkPp7w2fEEKG1A7sqxH+920GvaA1hpn0Y3jfhqu2079/NKfQksoYAqbUAALPVObQCWjqOBuspLAMthBaxMQTH9RPmCZUZmdpMCN4NQ6Kmo8q677hp8dd6ouQ5Ur+qUU0q5887BF1smFyvLQgu3eS7yl8JAx79NoGIxWmkEUzSgPRxwwAE1h5XA6jNZv8mwf5uS7gy0dCTPFToayTTZ1+ifim5TiYYTUAkPhYtWHuAx8NLkt0xxmRcKD2vyZDMIBopHe26sM64yQZtXaqDFcslxz8PwaIeeh/E27QBIbZtSBtORTDtyfnmGJp33o/oWWJZPkcBsU9I9fh+whIcGBUz+NU9OMehw02PU45hyw1vU+SLEVfzIc/R3TJqW/3APQUsYj5UAyqwR+X+ptfEMCZUwmIpkoEJle0xuj+PrnA89B+Npzj/jVTmHBgJ4gnHPRu0ggdWnMtFXJ24TsMKEhIBjiF0ooKZqaHhnIT2Tgc2d0xHth0efj32JR6GFjhrv0RF8jvdm1QXhxWgUIoITSMkHz+uSBh6moX7JaB1adbtQynG03+DtuAYUhh7z8bbYJtvrfJkuxrMCKGkBF1cTuV10Elh9KGs+tRVYLCCjkVo4j+RfLAEj8WoU0VVYOPtIyeLe/4EgD8M++7ywA8CMSKqKt6qDyc+Oj/mFs7NYXFS6n3VWKSedVIoVfWeSaptrgRNPUbhrFVMDEirXrWlln+ybkM+xEV7N6viMp8U28Y7ByrlRhW9pHeUWsQYYYJnEbRDGxPXMYfWZeoGl2l2jHtqYxss0YmDR6dZZZ5061cYSMZYWEd65MUYskTwnHTHe7/M6ik6to/BCfDdQ8sRMWdFx1HyZl2jZGTAzzUXh7cyG1nlXarFmd3mZofL9llKRm1OdbhssACgvZ90rxbXOnW227UBlX+xTnM/ZPTbjYcLTmB6mkp1HZRoWb8q6YIDlgmI+pP9pu/16v8K+BpZRN8BibZns2mu2RSMGLtvovoiuwl4f6+3U6UEMDOIYqbb2u0Yw3cDB1CFlAQYF9t9/33LwwYeUQw45phx22OkNZE9r7Ng6x/HQQw+pk7CFtnJKDHxihQlzIC3ep9ZMxT6THDeMbz5lJMljO3qPRZsuNLNrtj28QYsHao9Apb7OsYhVWHlVPG1eNVj369Iy1JfAsrSM0Epn0yEZMGhEbQOWRu0K7HFegKrX/JZQmfk7vDGdjEcgHI3c2EILMYvMbdRs7x5lhx12a7yF9RroDfx/scUG7u6z3HLLN/si5F2ydtRFFlm4AeEi1UNacMH/wTGgtOiiiw1+bqD6PLZpXh+L0bDYZufSPoEwj1moB1BgZICAFyV3BVQ8LCbhbqK2ye654mifyRVKtbCrlo4iX6QhCcMiMTtcg0sbsOh4/9+WaIC2TBNKbtbAZfey1lp7ltVXf2FzPCc2nXOl5nH5xqwztXi1ZZd1Y4Ulm8eVGjN3b5HmOxZtHldt/t66+d+mg9874PmusEJ3z4n9ANkAFVB7vuWWW1YwWTVE/lC9HXABlnAQsHibym9cXJk7DvXz7ev7ElhupGC5X5XuGg/PweRXYSFoDdfo0h7JeIISx8uXVVZ5Ztl880llgw32bDyyPRrvaqfmuILQGs37BsCz3HJPbV7bpnn/7s17dm3OwabN6ys2j+s2rx3QvLZbfd+KKy5Sv7urwArvlFfKo9LW4tZswmAT1nlWYKUo1MocASwwM6tBaYPCYWG0nJ4IoV/Vl8AywqRa2LAxDwuk5BCMlgk9eFwaVjS2tEe2CROEjMs0cFq88awmll133a1MmnRI01EPb0K9TzbHdN/m2K7deFlbNM/3b4C0c/N82wZO+zRh41HN+w5sPr9x43ms2pyP7Rt7QfVCJkwYqELvkvGoPGpLBi/k/lwQXSCBKBZcNJghBGRyV0OB5VHBqNFPdVhKcfpdfQksNUeWBRYSypPwrAwlMwleYSHTYYY2xjmxCJt8JxjKA8VvaNTxnqGf65Yt1RwvIfXEBjZ7N/A5vtm3g5rHTZq/t2xsUvO/9ZtjvV1zDPZrHl9dobTkkntV44Etu+xazXs2b47PLvV/A8AaqPpvs8X59TzyfHJ8YKVNmahuSSCjvQYZeFUmsStPkWCfGbDMbrBWvUENdxhSCNvv6ktgKTK0rEiUNYCIhdw0LmUEngdcItk7tJHOjul4AT9XWkvHGPFRM+Q3hAugOdBB/9f4u2W22Zr47p+3fuNVvKvZr12b15Zo9nOBZt9Wbl7fqunQGzavKTuw/tRaja3ZwGmbZv93bP63XvM6z2S1agPf246F9IYz54kXro04hzwpOSqrlkbYB1BWOgWrWL8MrBiIDQcsj3JZ5g6KApS0SGP08x2fQ30JLLLiqGpowHIlFBKuvvrqdf4daFkuV4PUAIWMcwMSINKofY/aIVNuXDklUa0tDpQavt9yZfbYTXjxFpdutn21Zl+3bQD07AqgCROWHPwf+DBL6DDP5QwtR8y8Fu8bWGanbRbnxPlxnoyUApXlaSTRhXDA5BZpcb9Fq8J6Tc4KsCTYZwasWONM+2CAZ+XY1ID6FljWkNJwXA0DJKDF+1Fj5OYE4MUj4m3xgObU2wpg+Z5o2MIEhaAKM5lCSOuN+125NO8FUldu2+c72HDf3yZbfnl5P2ZbB8LdgecPf2/bLc614y7Uc06iwNa5cZ6cM2UH8lLu5Ri335ejAiqmFGEkwIp1+4WA7qmoPs0k/fSs/qe+BZY8lltfSYSCksZplQOhGlCBlltEqX1RKAkaAa3exjwSmxmwmLDUtAvwckV1R2PPVTbzxADMZ3zWFZ3ZDuY1321bwob7/XlvAavugKr3GDpXjq9wHaDAyXMXN+3BeQMWYZ6ROwWx5nUCDI+IV8VAbKTA8lwYCFTOv7toZ87q4epbYBkadjNODUj4p1HysnqB5X52oOUOw/6OO6qExzNSSMwKWMJCwGIqnb1mCBu41N8Y1nbFVfkNrgAGoH7X9+lYvDAdC8x4Av4nxBzp9vWbxXGJY+SYRdlBeE/OsQEY05NcVADF8j5uOsvcLk0iXOgnRwVWABaJ9ZEAS9Ld9ypr4KU5x0oZTjzxxHFf7rqt6ltghcyNcyMCuSwN1Az/XmABhGFly5MAl3wT+ICDRh0dYGin6LXZBZYrrGFsoSKvS14EvMwpMxlWjgPEesNI22WGv9/Q4eRVQKx3bl101OG2cX623v0OOA1U1i84Y5SYd22unkS3i4RiTp6T+ZNu0+92/UDFowIut1OToxL+md9o6tHsAIv5DcteGw10vkHMlLHUzNX3wLr55psrBHgtOnzc9skctgAWL8tNN9092Pw2zyNMHAqEoZ2FzQ2wwtsCLZBiOpQKaEPfkag1FK7hu0qbxmE7bb/9sV3hQTAg00ltv21i9sE2MtvLhu5HdPyZ7edY2Kx+M44rs/2xL/bNBYU3HFOIgMmjz/GajL45loABMkbirIKg3MUsCIXFVoFQWQ5czFpivCo3Z50TYAEU8xywnD/n2cVIesJAUGrW6ntgPfDAA3U5YY1HY9bYAUujHgosV2DQMunXrHqeF8j5TICrt0OFjQWwwCkmCgsnQFcORAcUasiLgJllV4QZJtH6nN+J0BLMlFbYNtuvg+vonsffQMc877V4Xy/0mGMQAB+J9cLGd7E4nn7Db0ceCXwY75F5LbYtttNn7ZNzyPt0LAEdZCx0CErWkwKmCy64oK4Ecd5551VImZRtVQig4lEdd9xxFVhgNhrA8uhv5yW8Zt9x9dVXz9YyPv2svgdWSOPkNWn08lgzA5bQMDwti+sBl0SscDKu7DqfztjrGfhbZ5Tg9/nRAhZYxYx+YGLgC15qeiSH5UmEIkKS3o7DvOZq7z0+53d4aaaDqCUSLvM2lXzI8QE0i4EKsAnIBGgAhifHoxF6DTWvWxaG12NqFOD0ft73AZmcod8SrsXore1xDnhIjhEg81p0fIlqN2iwRpY1+619H6ZKnHkdqKQCQMoChiAGVnJHgHXCCSdUj2c0gMWMGPpbgh2kbLdjbjseasOtsTukBNagbr/99tpAeU86jc4JVmA0HLDUTzFXcZ2H+R+vRWcDLh1Ph9YhdWCPOr7RP3Biow0s0NGJhYgMtOJ+hjpMwAu0oiNJGOt8cjOSyccee2ztsDqwzsx0ZF4HKHi00J8bkeqw0VEj8ey7/RZYeuxNLsvTePS6R9sAAH43zHf7PZ7QueeeWy677LJai2TBPosZTp8+vSalPVpk0GtCe/+/9tpr6/LX4GTdLqty8KLOP//8+l1A5bb9kydPrnBzuzfhn/s6jiaw4njYP8feOXMeHXu/n6CaMyWweqQRaXwS2EI3YQVoCf2GA5bQDuBAC4TkjiJ/xCPgWfG2eGymASlV4JGB21BQzUtgubrzrMLT0ql0Lp3P8LxOqXPqqOAhRJJ85o3o5DocAPBWhNPXX399BQboG4oHE3VuVsWwSqoSEiGPO/0YnR1aV+Q1//Me7/U5n7eAn5U11SJZEnrq1KkzwOQ3jfIKpwDKdjBJa4C75JJLKqwuuuii6snYXqHfOeecM2bAcgyNGPrbsXXsnS/nxmgiTy9BNXdKYPVIR9JRNFhhkNBG1bvRwVkBC4SEhwyMhFMAJqSSLwIQ3ovGDEK+S2jj/Ub6wAuohGJhbQOWjmy0TOc2cVw4dfbZZ1cQTJkypXozYHHVVVdVkFiR1MoCAONOP249Bjg8IuvTAxsQhfn77rvvrv/zHvDzft4T8x2+D6x8N2sDsDyCUXiaPEjnROjnWDtm9qOfV1gYTSWwhpEOpDECldyUCnjPweqRgOXWXBZk89z/eFUgIkwALd+rYUu8+h+oRWhpSB2sAlBKGkArShvaBCz39hNegQEwgIT5mQDC+7nxxhtngApwhsJKOOfWW8zzXmjxpoZCqy3AUskOWI5RLNkszJPYV3Yid+gz9p93mRpdJbBmobidvSkYEr5CQ4AZCbC85v8gBCZyRa7EGjhPy3MNH8gARnGizwgnGc+M12W+I3PFTmCNH7CYOizHA7wcQ+fFOZCLc8yEyCbWp8ZOCaxZSF5Fp3DlNGLF0wqPCIzmBFhRFR0GYCDB+/K3KzUPS6jo+3yHRzfR5G0BFngBFlj57rAE1twDy81WA1pR2sAMMABTFO86dt5jRDLrp+adElgjkA6l8woHgUsiHkh4QnMLLBYjSuDF69I5gEOn0EF8h6S9pDxPTCjpeSTnQYyXBVQAxYQmCayZA8v2A9bpp59ezT7ZN7VavCqjlfJTIAVQjh+A+W77J9eZmvdKYI1Q8hGuyrybiRMnVuNpAdPcAisMMHQStTtAA0Ie5b0MzRs1Y67qvsu2RMJecj6AxhPjffHWdDSQ0vHisR+AZZsMBjhWtpE5hsxrTPEoj0qIJzfFyxWiO0bMMfB+2+PGDxnujb8SWLMpHYcHBEiKGhWXGhEMGw5YwAMKMwsJAcnrgCLUYwAnXNGRH0k6Mpj4nkgA+w4gM2LpNvYS90JGXhZQhVcXRY7zA7D8PmAxf/ufUUvlBMDDo+JBRf1YeLSS517jWdmXfr7JQ9uVwJpD6Qg6vVIHldjCRYlyZQ3Ct1l5WGp2osPwdIRyEulGDkHCd8+N1DEpoAQVkFHs6bdVhIOnmi/byBuzbbahF1g6L69DktlndXL5HdXgIKrjC6uEWDwVyWaFmsDhd0FFOUOACnh6YQVOQKXGyi3XPfbCK8DVCy/fBX7A5bsZgAW4mOcgpUBU8StPlTcJyvZJIl0tWYSBIGabUt1RAmsupXPyalTES8oDFw+LtyXHBQwgodP0Lu4mrwRSkuQ6E09lLG8/rg5IchhAdOqoBNeBwUw1OmAynhiQ8dR0eDCT05FkFkIFvFSiC5PlhXR+eSPejap08IgaLAY4wAVAvR6WR2AKKAWQeGg8tQCR4wzkfgdseH08QR4Sc0FwjIFWZb4asd7CVt8vnH7wwQcHj0iqi0pgjYIUnPIseCpKHlTKK4MALDkmyW+5Iv8HA7knc/p0PnfwGe+iQhXmtkMiOSrMeT5AAmzAxMvioQgVhZSAq0gywirwAF7/55nxcHhnYT4LdhFW+k6wBL+Y6sO816ic74zcmlDNKJ6w1PcAJKABIODdd999FcZMrsmE9tT8qQTWKEsnkjg3emh6j3CRt6VehyemU/IY5kcpA+ElCtUiTOPdhMVr4M54Yh6Feun9pEaiBNYYSdgjhBIC8hqMWLnzSSqVmnMlsFKpVGeUwEqlUp1RAiuVSnVGCaxUKtUZJbBSqVRnlMBKpVKdUQIrlUp1RgmsVCrVGSWwUqlUZ5TASqVSnVECK5VKdUYJrFQq1RklsFKpVGeUwEqlUp1RAiuVSnVGCaxUKtUZJbBSqVRnlMBKpVKdUQIrlUp1RgmsVCrVGSWwUqlUZ5TASqVSnVECK5VKdUYJrFQq1RklsFKpVGeUwEqlUp1RAiuVSnVGCaxUKtUZJbBSqVRnlMBKpVKdUQIrlUp1RgmsVCrVGSWwUqlUZ5TASqVSnVECK5VKdUYJrFQq1RklsFKpVEdUyv8B+OKUdHj225gAAAAASUVORK5CYII=;clipPath=inset(20.14% 19.33% 18.06% 19.67%);strokeColor=#DDA15E;fontColor=#000000;fillColor=#BC6C25;" parent="1" vertex="1">
          <mxGeometry x="540" y="58" width="200" height="97.27" as="geometry" />
        </mxCell>
        <mxCell id="KAyXB3LFF11qL9irPbgj-8" value="M5 nut" style="shape=image;verticalLabelPosition=bottom;labelBackgroundColor=none;verticalAlign=top;imageAspect=0;image=data:image/png,iVBORw0KGgoAAAANSUhEUgAAASwAAACQCAYAAACyAlbPAAAAAXNSR0IArs4c6QAAAARnQU1BAACxjwv8YQUAAAAJcEhZcwAAFxEAABcRAcom8z8AACh/SURBVHhe7d0HuFxV1cZx+URRwYYg2LsodrFhw4YdxYIVRUVRbNgFBFEQUUqABJAaEkJJSMHQuyBBEJEiTUQBBUSKIkVFQfe3f5u7YBwnyU24k3vnZr3Ps565d+bMmXMmOf/7rrXX3uc+JZVKpQZECaxUKjUwSmClUqmBUQIrlUoNjBJYqVRqYJTASqVSA6MEViqVGhglsFKp1MAogZVKpQZGCaxUKjUwSmClUqmBUQIrlUoNjBJYqVRqYJTASqVSA6MEViqVGhglsFKp1MAogZVKpQZGCaxUKjUwSmClUqmBUQIrlUoNjBJYqVRqYJTASqVSA6MEViqVGhglsFKp1MAogZVKpQZGCaxUKjUwSmClUqmBUQIrlUoNjBJYqcXSv//97/LPf/6z3HzzzeXqq68ul19+efntb39bLr744nLOOeeUs88+u8Uvf/nLcu6555bzzjuvPf7sZz8rP/3pT8sZZ5zxX897j8fzzz+/XHDBBeXCCy8sV155ZfnXv/419ImpVAIrtQDdeuut5YorrihnnXVWOeaYY8qcOXPKj3/84zJjxoyy3377lX333bdMmjSpfPvb3y7f/OY3y2abbVY+//nPl4985CPlgx/8YIv111+/fPSjHy0f//jHyyc/+cnymc98pmy88cbtccMNN2zPb7TRRu1327/mNa8pa6yxRnnrW99aNt988zJt2rQGs9tvv33oqFJLsxJYS7n+8Ic/lJNOOqkcdNBBDUB77bVX2Xnnnct2221Xvve975VtttmmbLnlluXLX/5y+exnP9uA5OdNN920bLXVVuX73/9+2WmnncrEiRPLHnvs0d6/zz77tH1F+F3svffed4fnp06dWg488MAyYcKEsskmmzSg2fcPf/jDcvDBBzcw+hkIAZL74uxSS68SWEuJbrvttnLppZeWuXPnlh122KGBh9P5yle+0hzSd77znQYgcAKIb33rW+W73/1u25aLChCBjZ/33HPP8qMf/ajsvvvuZbfddmthuwgAi8f4GdC8z3tA6hvf+EZzVRyYz7ZvLu6EE05ocdRRR5Ujjzyywcv2ALr//vu3lPE///nP0JmlliYlsMa51JZmzpzZgABSX//619uFD0Q/+MEPyo477tiAAiIAJEBFAIznO0G0KGG/QBYuixMDQ+nfhz70ofK5z32uvQ6ixx57bAuAknYedthh7dFrRx99dIMXl+XYuT/b3XDDDUNnmVpalMAah7rxxhvLySef3KDxhS98oYFh6623LrvuuuvdEOqMbtDc2wAhnwNUwMepffrTny4f+9jHWloJOtOnTy8nnnhiOe6448rhhx/ewARQvQK8vK6OBlTAZZ/285Of/GTorFNLgxJY40R/+9vfWnF88uTJLa371Kc+1epC6lGeA45ecBnJiBqWz5LCfelLX2op3wYbbNAcnnQOdIDKY8CoG1DzC9uCm3Rx1qxZd9e3fKb6Vmr8K4E1wNJWoKVA4Vqqx015VCjncqRhIBI1pH4EhwYYAqQU4z/xiU+0kUL1Ma9zRyAj5QMc4FkUUHWHOpcU0T7Vt6SIHNchhxzSBhFS41cJrAGTYvO1117b+pg4DGkWUHXXovqR6omoSwGUlM/nKNhzdB/+8IdbnYyrO/TQQxugpHzgAjT3BlLzC/WtI444osHZiKW0V59XtkGMTyWwBkR/+ctfWl0KLPQ8KVxLhwBECgYcXusFmZEInwOE6kcet91225ZySvf0Ukn5tEZI9YAKpBZUlxqpiDQx+sQ4SqOewPXrX/966NtLjRclsMa4fve737XhfvUg7uVrX/tag4ULk6sAqn6nfIDITXFO0jyQ4qikn14HJ8VvbmdJQKpXAJfjOP7441uzqUEGjafS5WuuuWbo20wNuhJYY0ymovz+979vjkHbwRe/+MUW0i4AAS8Oh5saaVDF/sAQpHyO3138utIV0DV2ci+aOtWQFNClZNxNP1K+RQmfL0CLy3MeBiDU1ubNm5dNp+NACawxInUpF7+LC6C0Imje5GrAQ4xkygdOASguCZy4KOF5RWyuTvFcnUwLgboUFwWm3MxIFND7EY7HsQGX9glFeedkHuMtt9wy9I2nBlEJrFGUwrDJv9zKV7/61VYLUpfaZZddmjsAETDphs3ihv0plnNpalHaDDz6DAV8kDLKp1dKyqcTXdrpwjd9Rw/UaKV8ixsBWK5QOu3c1bb+/ve/D/0rpAZJCaxRkLrU7NmzW/sBOBjlM8LlYgKUXk7KcxEAI0CtMwAp3FiACXCiD4vTACRpnaK9Ub33vve9Zb311muPr371q1so6nMop5xyShvlA6mx5qKGG45dgBa3xbWqAVoNIjV4SmAtAWlFkIqo+YAUN7XFFlu0n8FoypQpze2ASrggoIkUzc8BM693QirAxZW5EBWapZTm56277rrlLW95S3nTm97U4s1vfnN597vf3YrmeqUAKxo7rZjgOe/zM4BqzoxO9EEFVoRz4BCdh+9MbQvAbrrppnLnnXcO/UulxroSWH3WHXfc0fqC3v72t5cnPelJbdkUk46lW8Kom/YA9SLORlrmYvI852Vk0LQWKxmoJ73zne9sS7C87GUvK89+9rPL0572tLL66quXF77wheWlL31pef3rX98ckyK5zxEA5P0eY8UFUIvPFX426qd29sY3vrE5LhA97bTT7r7Qe4FgUMLxc1pSRL/7I2Agw/zG7JIfHCWw+iijUpdcckmrDwHMYx/72AYZ6z09//nPL8997nPbo98B5znPeU5ZbbXVyqMf/ejy4Ac/uDzgAQ8oD3rQg1r4/eEPf3h5xCMe0WLFFVe8O/y+0korlVVXXbVB0X6ldiD5gQ98oIEKAAGRuwMn0AInjwHGaJ2whpXJyQDmwjYKGBf6eAAXAEsRuVdpsjaIiy66qE1vSo1tJbD6KEV1w+tczstf/vIGpVe96lXNBUnP1llnneaY3vCGN7TXnvCEJzTwrLzyyg1u4POUpzylxZOf/OT2e4TfI+K5Jz7xieXxj398WWWVVcrDHvawBjjw48Ke97znlVe+8pXlPe95T3NZYARiIMVtBcDADNg4tLXXXrs9D1j6rOKC74bAoIbBBO0Y0miu1gBIamwrgdVHWbFTkZzbAYyXvOQl7WcgAK0Xv/jFDUYAA1KPecxjGng8FwBanAigeQSwRz3qUW3/ggsDRuBUuwIsrksEvDxKQ9///ve3bfRhmbMXHey9Lv5BDHWtqM+pDWrd8Ls5mqmxqQRWH/XXv/61TRMBoGc84xllrbXWKq997WtbCggsj3zkI1s87nGPa3CJ6AbQvY3O/QIY1yWV5OakoAryCu6gxV1xXgExjszrBgi0NnAl48VlOQ+AMrCgx8x8TH1vBkeuv/76oX/F1FhSAquPssCcFAuUgEFKpmYFUJH2hRPqhkw/IwAW6aMaGIi94AUvaCOLXJbhf4MC+rHUs8JpGTl0QYcz6QWCQQvnoUbHQQKWdNl5mr+ZI4hjSwmsPknBXU1El7iUjMMymgdUINHpekYz4hjAM9LGpz71qS1tVdMykqZvS80NzLQE6MhXuO518Q9qRL8WECvCSw+1keQ8xLGlBFafZKqN//jvete7mqPistSoBGfTDY7RDuDi9hwbaHFdwPW2t72tjSKClk58rRX6vdSygMvFPl6cljB6CFz64ywj7dwsM53zEMeGElh9knv0aeY0AshRPeQhD2kFb3AAhm5gjKUIcIEscD3zmc9s7RHSQ6OauuTB2MXNkbjAe138gxgAZVQUjE1bMgChtcMASmr0lcDqk04//fTWGgAAAavRqFctbnSmioALXnrIpIVqWnq7pEym76j9aA/oBYBBDADmIN28wzmaSeD3q666auhfNzVaSmD1SUbUdIu72DV9KmoPErAiHK8ALtB1HkY9jXgaTTzggAPaxRyp1HgqxDsnI4gaf52rwYbU6CqB1SdJJ6RVyy67bIOW3qdBg1VnxLGrwUVx3vmBshuimn4EXOOpngXAQsuDrngpPieZLQ+jpwRWnySN0G1+n/vcp8FqSdStwg1F9Nrm3kbsl9N66EMf2kZAzT1UoOZAdMSD1ngCl/NyPiasGzU1+pvNpaOjBFYf5C7L22+/fZsas8wyy7QLvB/AAg/7jX0bjQQSLsjPnovXxUiCLPYDyve///3b1CPQ4rKkUeNhwnQEl2VwgbtS07ISrHTR6rCpJasEVh9kGFyXuGK7lNCFHVC5t9EJnUjPomtd6snxqDUJhXKve0343etSuXsLrjgO7tE+nateMy5E/c4omwu9FwAGLYAXsHT5S3+tKaYf7YorrkintYSVwOqDrMluiouU6b73vW+7wO8tsMIhgZRWg1i5AaQ8Zxt9UzrqgUMrQoSG1Wc961nt0T7ADMiARjE9ACa6P3dhEe8LcPoMk725ESOl48lpCS0PHqX8erXOPffcoX/11JJQAqsP0oNlOV7p0r11WAGEmM4DCpyS343WPf3pT7+7ix6UtB6YaG2azYte9KI2wdrSNlI2U4NMvjbCZ+0sMLMf0BPgFZ/X61gWFM7P+y2JA4AmT7uxKaclRQSt8QCumMIj/eWiuUjL0mRj6ZJRAmuE5T+uNcP9ZwaY5ZZbbrFHCOM9kfpxVKBguRiQ6gSVtbQCVJaqASugClhZnQGsLP73ute9rhXKYzXSV7ziFW1f4bx8Xji67mMaTjjOFVZYoU3vsQqCojVocSf3Flpz53r/6IEvRg4tcS09tBoHN3ndddcN/Q9I9VMJrBGWmsY555zTprNwLRbfWxxg2V6AB1cFJrG6aC9IWQGCm+Kcejkqq0QAlc57IIklk0290Qxq6WS/Ax0oqnktDrhsy2FJNzlMLk56rEjNbUVKtegxpxx++JyaYnoMaC1ZeIVLBKxTTz21nZN1tKwSe9lllw39D0j1UwmsEZYZ/mb6A4DUTR0rLuTui3t+YVuQi6K551z40r2AVKxUClLW2QpIcUvcFEiFm7L2FkhxVaDEWQGVFUktIviOd7yjHa/13YXXfY7PB65FLdLbFui8n9PyaP+WXNavFU2mvaAQwUkdccScGlaHmFmOP35u2WyzX1bgXlm+/OVftG2OOWZ22677vSMdASnpIOjGwn9A5Xv3h8G6/DfeeOPQ/4JUv5TAGmH5T+uW7UDAYSmOx0XcfWHPLzqBxVmBlTSPk+p0Uy6WNddcs0Eq3BRIcVMgxU11Qsp68gEpcwLDWQkNoO973/vajSmsjWWZZPtQyI8RSMe1KOehxqZGxmVyWyBqSWLpodvug0B3ijh37pwaM8vMmbPLtGlHVcidXJ8/vcybd0Z9fl6ZNOmEMnnyERVkgNY/WIWb4gijv8wAgkK7uZS+a2k01+u79xygWWU21T8lsEZY//jHP9oNO821AxsOw8W7OMCSVrnguR2pXgRILSjlAykp34IgZWE+N6sAKSuLclZgZTUGa18pmktr3UXH50gTpaaRJvY67u6Ic3YuoKf1gTO08oPu8VNOkVYd2yB19NFc1IzqYOY0B3PIIfPKLrv8vOyww3llr73OrNsfXo46anrdblbfQQWkXCCogitnqCbJpXK5wh+L+OMQK8m696EevFT/lMAaYUXR3SghV/LABz5wkWtYIAUM3qdexU1FuheQCjfVK+UDKSlfpHsgZZmbcFJABVJWYDCRmZsCJmt3cVdWZRBcgwtV2I7L4/qAS5o4XHDZzjkBuPOyH8ew/fbbViAcVk499cQKpZPKJz/5q7LhhleU/fY7vzqak8uxx/64QeqII2ZUmJhc3d++Lg5KDxlQAaqUz3E6Xm6Ku/Wd+7597/HdS9E5UWvDW2U21T8lsEZY7kH4m9/8pgHLha0LHHiGc3GDmnBhA4OLJEb4FqUuBVLc1KJAKm4DBlJxKzAOK27/tdVWW7Vzsm/HBcYcYBxzr/O5J8JpmdJjTflHV6f4/Ho865WNN96qOroT6vFdUz/rt2WPPU4qs2eDx6zmvPpVVA8nBVJclNqU5lC3/eI0fe+creCm4vvmqCLC0XKNvgPfl5vkZotD/5TAGmEBlk53F7mC+6L0YcXFDwaA5XZdLhTReYG4cGKUL9xUgKq7LhWg6k75AlKclPRPs2fc9ssSyVYnEM7DKJ9b6FuFUw3KfhxnFOR7nctd4Zylt4+pKeXDKoiXr+95eFlttZdXYH63fs4+9di/Us/nIxWGm5c5c6aVM888vpxwwtH1ZzWk3rBZ3AApxfKoS3FSgOXO2NJUfxDUCzkpkOJiO7//7og/HFJCYPMdc2Z/+tOfhv43pEZaCaw+SCOh+WYxl3BRHRZYCX+5A0xRl5pfyhegiuJ5QIqbCkhZMdQaXZHucVIgxRnE3XJAipMCKVNQrO1uuo2baVjT3Xm5K7T3Oz5L5wDsf59fOK4V6/ms0F5bffW31tR2o+pcPlfWWOP99bm1KxjWqsf3ger61q0AeEV1hO9sq5keccSRbZ0tYAGYXvBZnDDPUfEcrIzqSeF8X87DDAHgAaHO6AWqzrCNVN17/XtoKL344ouH/iekRloJrD5JQ6GUcFFWawArj5Fu6YninMRwUj6g6k75gCogFSkfNxXpXiek3HQCpFzIASmrEwAVdxUOyzw6BWb7dLFLYVdZZdUht+UOQI+osWJZeeWXVvB+tay55n71OKfUi3ur6mBeW7d/aAXdcvUcV64AW7MdK5iCsovfMWs4VXyXqoENd9QNoOEEB6UzPUYlrW3lO+KguCku1mdyrdxrLygtLDixSN25VT1aqf4ogdUnueB0fAMWCC0OsPzVjpG9BY3yza8uFaDqTPkCVFIgxfTOlI+b0gipXqXg7NZeHA9HxVm52K1C4XZYEydOamt+bbbZphVazyorrLBcBdFK7fif8ISX13NYvzrMr1ZgbVye9rS3VzisVh73uIfX81qxvn7X92FlCU7SoAJIOUbwlZpxkQDqfogK4aADOL2gFBFQA6mAHZdmiWPnDigGMRTJAQtsQGp+Kd+iBGhJCzlgx5HqjxJYfZJ5dGohUiYtAVxWJ5x6RQBLs6gLWb8VSIFTQCrcFEh116Ui5YsCOgBI+7ohFSkfSMVdj7vdFFBxU0AFUlIdBekJEya0W2HtttuuZfLk3erjzq3+tO66b6su4zUVXltXKEyq5/Ha6rjASZ3L3EfF9mhAvSv1NWLoXPVrGUwAX7B1PuG2nKtjACLgktZ1QypApQ+KkwIqK6ECnjRaGwJQaQkBQ2kcSA0n5RtOgJ59GQk1IKENItUfJbD6JBcNuPhPHPPzAkjzC68L2wvD6YClHhV1qQWN8oWTilE+dSmgCifV6aa22OIuJxWQCjcVkOKmQIqbAqkJE3ZuaSBQTZq0Q/3Z74fU95xd08rfVCjOrW5uw5r+Pb3C9mEt3XvSk6SIAer/Pff4PsAZ1F38wOu8nJ9zBjJuyHfpWCK9M6IHVADmu5aGmd/nPIBdOm36EuhzVlE8HylIdUY4NK6Ry7KSgzpmauSVwOqTLrnkkgYC6YdObwDyH3pB0IrXbCstlCq5+Lgo0Qkpbqq7FSFSvs661PxSvq23/m6FjSL61hVM29TYtsYPKhS2rw7qhzXl+2EFk9RvQoXUhLLXXhPK3nvvVHbffdf63Iy6zbwKtXNrunhGfTyy7LnntPrzFvXCXaOmh/ev57BiPV+O6tH1nB5V47F3n2f3+aqBCfUwdboAs0fnzV1yRsAFYhyeovwZZ5zR0j9A9V1Iyzgcjkq/Wj8h1RnxGWpizsEfAa0t2d4w8kpg9Umm6EgL/XU3UmjEUOqzIGBFqF+p74CdC1iKJNXrrEsBVXe/VHddSrr3v3WprStYvlfhJPXbvr5/aoUCdzSzvr5Hc1Kbbz61AuDw6tbm1PcC0QFl001nV/dzQgXJT+vnnVr3d1J9PLluc0xNGWeWKVOOr/s7pV68u5eVVlq3uqbV6zmsVcH1iQojTvMFQ+dn7a7/To+lywr2XJZzVqdzzuAE2B4BzIBDNG5KFYHbttyUlI+bAhDpZLieJREBRKBUd/Q9+4N1xx13DP1vSI2UElh9UvRjcUUK76al6IYeDrBcvFJJ25qGYx+gJN3rbOwMSHWP8oWbAqm73FTUpb5f4fK9stNO21ag7d0g9c1vTq4ua2J1BXvX1/eqcNqzfsZhFU7Hl29/e05N+46q+/hFdXbnlXe846zq7E6pLmx62X//feuFeXj9vBPL5MkzqgM7th7LWXWfM8o662xcz+FVZfnlX1nh9cEKr89XaL2/gskCgiZzW775nu/BeTpf8w3By4goYIESdyWMiAKX59SM1AfD0UTKF7WkbqD0O3wmkBpx9O/luzbbIYE18kpg9VFWbuCGAMucwuE6rM4L2AJ90kAQAqjOlC+cVHcrwj1uqnuUb/uyyy4/qBDarr53SnUoR9btJ5cDD9ymHHTQNmXatO3rNtPK2mufV9PRP5UvfvGS+v7TKgiPqxfhrLr/Iys8z6ifd3x9z7Tq0o6sn3VCfe+MmirOrcd3Tt3u0nqs+1XH88Z63u+q6fAOFVib1PN5YT03oPpfh+V8gYqzdN5gpFgegwxgxUn52aN0D6i0EgQwuiGyJCM+P4AlJbzgggtyzfc+KIHVR91yyy0NGGpXHJa6lAtzYdCyvfTIe2zvgg1AcVLhpgJSohekFNA7WxF23HGnCqwdym677Vhf26vuZ3qF0qwKmjl1/0eVnXc+sUyadGZNv35XXcuvKxyPqfCZW9PM48p++x1cXdSMmj6eXZ//WQXWjLrfY+pnn1KBNavu84jqzM6px3RR3fcx1aFtVy/g99WU8PU1HV63wmidei7PrOe+Sj1Hxfj//Q58L85bOiy946zUsQw86D0DMI9G+xS3gWu0XFVnxOcbJFFnM9ihOdW/f2pklcDqoyzmZ56a9gM9Wfe73/2ag+C0ui/W7gAqF65HNRojgwDlr3eAKiAVKV83pDpbEdxTzyjfpEkTyx57TCr77LNr3W5KhcLpZa21Lq7p5k/KnntOL4ccMrWmeAfU7Q8pEyceWredWWE1o0Lp4NYTNW3aofXnQ8uMGdMrtGbVmFNmzZpZpk+fXfbd96gKtePr6z+p8eOy4YafaAMID3ygtobnVCBJibms/23xAKvozdJwu9pqq7WepoCUADD9aGAW8yw1fI4VYIGVcJz68P74xz8O/U9IjZQSWH3Wn//853YTTpCSGkp71LK6L9heEdDiOjRSghUQRStC9Et1gipaEYDKaBpQTZw4sa3jtPvuu1Uo7VYf96qp4KHVCRxTHw+rkNm/gmifGvuWqVMnVzDtXw49dEqNaTUOLDNnHtwAJWbPPqTGjAapOXNmlsMO82j6zOxy1FGzaswsp556fJk375R6PNuVl7zkRWXVVS3tzF3+d+2qVwB6gFpqCEjhsDz6HoyealnQpzWWHJaCO2AZINCLlXMKR14JrCWg888/v11obtBgQrSeLBfnglJDrwk9SlJD6Q9XxS0B1D11qXtSvk5I3eWmJtVUDaB2b3/x3VNv7733ru5q3+qa9i1TpuzbIHXggepYU2scWJ3RQc1JGeGcPn16ixkzZrRJvcJqqkLPE1B1zvW7qxN9bjn22ONak6f9bLLJl5pD5LTAekHnLOJ1bQ5ArSbEsYCVupbWBQ5L+HksAQtgHa/Ufd68edmL1QclsJaArJGkydGwvPWxhPRHdF+w3cFtWBXBiJh6jjQQjICpu/vc89xUJ6T23HPPBirTUzg9KxP46z916pRywAFTK7CmVVDdBSkRgOqE1MyZM+8GVUAqusuFJk5hGozQ3AlYAMYJuohBF3yd83BA7Zyl0SAQDstIHPhxWADu99GGlYhjiKK7NP3CCy/MonsflMBaQrrzzjub44n5hVoXFuY2hG2kR0YMvUcvFgABUdSm7kn5dm9d1t2QMucPqKxQYMoKSHU6KdEJKYAKSIWT6pwCE24qQKV5U+g6F6bIKDpr7LQ/bQruz+gchjtSCtQcGVADk31IAfU6KW6PFViJOA4DAYBl4CPbGvqjBNYSlGVHtB24CC3sJ01aWG9WvGZbDkWdRB8WNwVCANXppqR8nZC6y02Fk7on5etM93q5qc6Ub35uqhNUICUsLSwMNrh7kEnIBh20dSimO5/hAAuk71r94YmthUHqx1UBFoel72pJNocuKAJY2TjafyWwlrCuueaa1lcVvVnDbSa1jdqXydTSJBcF4ABTr5RvUd0UQC2qm+qElDQwIoD185//vDkt/WNG/TgmdSkw6nWO3QFY3uO9gGBU0M8cFoCJTnCMVgAnaPlDpFPfHyUOi6tOjawSWEtY/upyHebI6ctSzzIytrB6FmDZzhQfj4r4Ug9AAiGQEiDV6aR6uanulE90QgqgOiHV6abmB6lOWMXrCs+AZYAAXIDKOQ8nHfZ92C5WNZUOApbRwbHmsOI4/PEBLI731ltvHfoXT42kElijJHfWMQTOabmIh1OAd5HbTnpotFFPEkiBC0iBVzipTkh1OqlwU92pXiekonje6aQAaEGQiugEmgnKiu+OUe3NBa2OxWUtDFheB6pYyUFayFmaMyjtAsCxBizH6/i421R/lMAaJRk5BA0jYMsvv3xzWgGkXhdwhG2kSepBmiell1JCkACgcFTdoOp0U52wmp+b6gRVL0iJbkjF9hGxNhWYWvrGPfyMFg4HWIIjkwZzlGAXKRe3NRYdlnMCVS431R8lsEZZ4AI8erSGW99xYdjOxa9fCbRAAWhACJyGC6lwUwDV7aYiFgVSIvbDYUl/jWDqWHfcQAtAwwFWBOfiuzGvkruKEcKxMkpo6RsDAhyzSdsgneqPElijrBtuuKFd4JZE+b//+79hDf3Hay58KZO6lgtH/xVXA0AABVQg1QmqXimfCNh0wqkbUqIXpOI5Efvzs0X1AMuIpvmQ3KOa1HCBZRvv4bKkwFodOlsaxgKwHIPVItTXPFpRw+34U/1RAmsMyGiS9gTphD4tEOIqFnZRu5g5Le+JJksrN4AMWABUN6g6IdUJnm5IiU4YxXadEa917q/zdw7LdorugOyYh3tuwjbgDVTSZm5SwT1gNVaABVaOS0c+N2nxvlR/lMAaI7r55ptb0dwomEK8i3Q4k6Tjola41yYhbbJmlhpWjNKBVbeb6gUo0Q0jEc91RieYYjs/+xyfJ9xSCyRNVTGVhlNSfxtO2iu6geVR2qVmNJaAZfUItTUzEYzO5qTn/imBNYZ0/fXXt7/Q/mJLgaSHLtrhuhEgAC1uy2J3Gka5HG4LjAI+3ZCK17qjG1C9IiAFTOHopKNCeuo5ja76p2J+4KICC+QAy3vVirrvwDxaAVZGKzlbx+kPxa9+9avsv+qjElhjTNYB1/zpAleI5ypc4MOBVgQwGHVU7zHH0BQZbRQAEoDqBlEnnLpf63RR8XtAipMCKXWyqJtFwV/9ymCARfcAGEgd33DPxXbSXsAywOB39SuToHsBZElHAIu7cpwWU7Q6R6p/SmCNQWk61L9kPfcoxLsghnOhxzYucu+Thhmh0wWvGHz66ae3fXeCaEGg6oSVn3tBKkYltVFIRT1vG1OFrLuuN8nAgGNyHt3HvKBwPqANdtJdkLBOVi+AjEY4Hg7LPEKNvLloX3+VwBqj4rRc9JYFVp/iMIyuDaeuJQIM3Ja79tiHojCIqC1xXYbfFwYosTA3BVJCi4Y+sEgJLefsmLmr4aaBndHpsOzDzyAxloBlZFCrhbqagZPbbrtt6F8w1Q8lsMa4zjvvvLa0SizPYoSt18U9vwjHFeDyaH9aINS2zjzzzFaYD0DFYxTPoy41PzcldNbHdCCv6/SWHqk36cpf1FQwwvZjtYbFWem/Aiu/g7P5k1aZTfVPCawxrttvv73N/Hd3HNCyTAu3sjipleC0wnFJOa2npbbFcUXfFGCBFUhxUZ2Qiik/IAVQQBXzFz2aR+f+iNatAhoOa3HclegElmP2aERutEcJfa7aFXhKdz1nEcWLLroo70XYZyWwBkSWpnHjCVNULE2jARO0FtW1xHsizeS41GBMEdLDpdbFUYGWdJHT4rLCYUUqCF4BLStGWK7ZuvMK0PYtFtUNdkc3sOwTCAMaSxpYIOUzgUrflRYUx2n5HMDPBfv6rwTWAEkxHhxcNIrY6jqgMNy6VmeEQ1PQlrYBoGkzoMA1GNkDMKmjzxTW3NK1zk1YSx6k3M3HJGwFcamffSj0L+rIZq/wfsfpGJ0rcOnnAo8lCay40YXPNp/RRGwuz+3WpIH+XdyHMtV/JbAGUJdddlmbPwg04ZJc3IsDiM73gYwUDnCAh6vxGeY6ck4uVtsCh9etzeXzgaqz/WJxjmNBoXYV5wgaakf9BpZ9g5LPsvQxZ6tpVa2Ky8zm0NFRAmsApTHRQoDulAMSbh8GIiPhaiLsh7uxTzASQAZokeoFnEbqMzvDPn228wKrcJLSMI21I728TADQPt3cQsoH1MJIrSVyrNOeGl0lsAZY7spiVU+3ldJkqsvdhd0viCzJCFgaGQUsS9OAR6zYMFLAAin70pBqvz5DSmyBRCmvAYkbb7xx6BtPjbYSWONAl156abtXIfcT9z6MGtWgRjgsNTXuDqikZV5TeFdXAppeEFpYBKQ8umkEQAEVaLmrtrrUddddl3WpMagE1jiRKSFG7FyEWh+WW265dnEPKrg4xUhF/W6qkkdQNqq5OMDy3XifUT43jLBPdan11luvtWNcffXVQ99maqwqgTXOdMUVV7R7Aar1LLvssq04HiniIKSJjhFkpYGK+Qruiv0iiu+K4NLBhaWEACXid3Di1DgqkHLz2bzh6WApgTVOpbZlRItT0bcVaaIY6+ByzFJB9SuOihMSnlf4BxxTYrqBFBEwUzwHKSOLQKXpdPPNN2/fTdalBlMJrHEsaaLmTqsbGEnkuFz0RtvGWqoIoo6Li+IKtVN4Tt3K81G/EuADQmpOUYsCKj9L+YwiSvmAzc8bbLBBW2rn2muvzU70AVcCaymQ4Xj3MQQrRXn9VZwLEIjRdlzh+rhAoOKuHF+nI+z8WTFeishlgTFQcVSK8fYHVtZWd3OO888/PzvQx5ESWEuRpEIbbbRR62oHLmtmqQm5yAMKnSDpd/jMiGhWVbcKWNkGnGJbcPWzVNHz3FM0dgKYZZjV77QiZF1qfCqBtZTJjVwN26+//vrNaQGXHi6g6JxS0+loAjAjFQEpP/tMADXVKBpEBWh5jesCqJg+ZDvHC7a2Ayx3ljY5+6qrrho6y9R4VQJrKZWL2+3t1Xws3bLMMss0EFj0T0oGFqABCsASAFsUiAWYvCfSz3BJ2hU4KlN7YoqP4zBAoC1Dvc3ztrMPjaNSPX1T1sOyeoVVI9zwIZd0WXqUwFrKdeWVV7ZJzUbTgAK4FOi5L53zHA13Ex3niuIBo06IcWYBOAE0wMcVmbhsf2Bk/1xdhOft04RihXOLDFqllGsy9UhvmRVSzznnnNbMmVq6lcBKtZEzaznpSwINoOFuwvF0AkYAG6h5LYJb4soATmhDMB/PaJ4pL9becjOKzTbbrGy55ZZtrXkL/VkA0AKCBgbcozGVWpASWKn/kjv3WHvr7LPPLr/4xS/KWWed1dZ66gzNltaHP+2009oa8cL2RuQ8CosOXn755a2RVfp50003DX1CKrX4SmClUqmBUQIrlUoNjBJYqVRqYJTASqVSA6MEViqVGhglsFKp1MAogZVKpQZGCaxUKjUwSmClUqmBUQIrlUoNjBJYqVRqYJTASqVSA6MEViqVGhglsFKp1MAogZVKpQZGCaxUKjUwSmClUqmBUQIrlUoNjBJYqVRqYJTASqVSA6MEViqVGhglsFKp1MAogZVKpQZGCaxUKjUwSmClUqmBUQIrlUoNjBJYqVRqYJTASqVSA6JS/h8vUrm/SF/JGAAAAABJRU5ErkJggg==;clipPath=inset(17.36% 27.67% 18.75% 27.33%);aspect=fixed;" parent="1" vertex="1">
          <mxGeometry x="800" y="10.400000000000004" width="200" height="174.03" as="geometry" />
        </mxCell>
        <mxCell id="KAyXB3LFF11qL9irPbgj-9" value="M3x8 course screw" style="shape=image;verticalLabelPosition=bottom;labelBackgroundColor=none;verticalAlign=top;aspect=fixed;imageAspect=0;image=data:image/png,iVBORw0KGgoAAAANSUhEUgAAASwAAACQCAMAAACF3Kb9AAAAAXNSR0IArs4c6QAAAARnQU1BAACxjwv8YQUAAAL6UExURf////39/fX19e/v7+vr6+np6fT09Pf39+Li4t3d3d7e3uHh4eTk5Ozs7NPT09fX18/Pz8rKys3NzdTU1NDQ0MnJyczMzMPDw7m5uba2trq6ur29vb6+vs7OzsHBwbGxsfv7+7Kysre3t9nZ2cvLy62trY2NjXR0dGVlZYCAgLW1tcjIyKioqHh4eFpaWl1dXXFxcXZ2dmNjY15eXn9/f6urq8fHx8TExLi4uNjY2Pj4+P7+/ufn5/Dw8PPz85aWlvHx8a6urpiYmKCgoL+/v9XV1bOzs5WVlZSUlK+vr2xsbJCQkPz8/J6enrS0tHV1dWBgYFxcXKenp8LCwqampnd3d7u7u/r6+vn5+e7u7uXl5dHR0Zubm4aGhn5+fnp6eqWlpZGRkW1tbby8vNLS0qGhodra2pKSkuDg4Orq6ujo6KmpqWlpaVZWVqysrNvb29/f38bGxo6OjmpqaoSEhMDAwNzc3JycnJOTk2dnZ4uLi6SkpJqampeXl/Ly8qqqql9fXzs7O4+Pj29vb6Ojo2tra+bm5p2dnYKCgktLS0lJSXNzc3l5eYGBgXJycltbW2RkZJmZmUBAQHBwcMXFxdbW1nx8fENDQzY2NoyMjImJifb29oeHh0ZGRn19fWFhYYWFhYiIiIqKilFRUSkpKWJiYkpKSrCwsEVFRSQkJD09PZ+fn6KiokRERCUlJePj44ODg09PTxQUFBISEmhoaGZmZlJSUiMjIyIiIllZWe3t7UdHR0FBQSYmJh0dHT4+PlRUVDIyMlNTUz8/PyoqKjw8PCAgIEhISHt7ezU1NVBQUBERETg4OFhYWDMzMx8fHzc3N0JCQhkZGRgYGAoKCkxMTCgoKDAwMC4uLi8vLzExMTQ0NDk5OVVVVRsbG01NTVdXVzo6OiEhIQ4ODi0tLW5ubk5OThwcHCwsLCsrKw8PDycnJxoaGgwMDBYWFgQEBAkJCQYGBhMTEw0NDQcHBwICAggICAAAAB4eHgsLCwMDAxAQEAUFBQAAANkdeJkAAAD+dFJOU/////////////////////////////////////////////////////////////////////////////////////////////////////////////////////////////////////////////////////////////////////////////////////////////////////////////////////////////////////////////////////////////////////////////////////////////////////////////////////////////////////////////////8A2NkMcQAAAAlwSFlzAAAXEQAAFxEByibzPwAACn1JREFUeF7tnN2N4zgQhPeVCSgzCVA0jIEhMAA9ElAOApQB45jX+6rJseX59QF3wMrqGo9HluXZUV13dXVTuj8Oh8PhcDgcDofD4XA4HA6Hw+FwOBwOh8PhcDgcDofD4XA4HA6Hw+FwOBwOh8PxJOZ57luXRxDmACOztoZh0PcwTIJtgSkO/fDrQiTAT8yljHGIY61lLJVNqIrR2IJFDpyn6cLRBQXzlGKnYoawlKYwTClPcSzpMY500PBh30UwE09pHAkjQijcAmYOxJEoBPBlkdSYFAZYtMMuhTBBlAUReUb6ZTHUMRBdHBHTEKYxB/ZIyAg7Di41toOuA6iaREIHlOWS430XdLE9R1QrEkqm+dL3VGq+WhqG9Fl5QhpjHlPPx3mIka0JNRNxkCWtz3XPt/i7AFCkKdcSqW99zw0h5TTe8lHBp30RtrAOUJXysijgLgIIIJHKmDPPsHKXqYaZWpgiyaf9plmzPaPqfDLXZbwMVyFmBYsBtZ7GCjEf0hFOUPwYjZQhTzPGYoKwSOFcdhP7S2Di1PtmQxjQKNTroYuBUVxobI6BJMTH5xxRs3FZLqLtmKcsN9VfvoPdiHYdj5VRVipSHRWDCis2c0yl1HX8kLSvCBHCuS4LWnVwBx3Yd+LmWB1x8dgFUi9AJiLGq1yWdb+Adafww8Ykm0RCVfJOluAIqT6SdOBCwgVjsvVBmSqu1vLycYXeHIVKcp3IxweVkqdq7NyiTuVvDhl/RU7mPC7bdkZ/JSvN9+PZfos43gnoUEeY5aaOv2FINlq4lUZZUhpDmQu1QpW4OlsOkkpq5fSkAdP0SX+OQJYxRpiDQ8/XoUjKBR7vb8xxTHQ2mj4IHJIxYyj7NOBEl3Xsx50EKmf8/fz1zRsFDQc0ZmpvP0K6DFkJc0Sto/73/R1ko6n6nccZAnOSV7c2kJdZH1a/mNH2U/mrGQNZMYc6EYCQYKt1ijMB9oUNv5uEOczEGAn1yKq0S7TDTd8Dv5CvLqhBIbWrHoz7eirfPpA099MSNFgiw+wkLHtsr0Fn/XhyZrIwlo82S9pPON2DzooBHsumyfiHse64jXQufzU3qj5rOjWrdXEkVacLT5XKB09uIBhrPc6sZKeMGSm9yRRhpRmX+Xc0kSSsS63nmsmEWDL/oT+fPyCb4IuNILrwnmMRUKkvq6A06BBeVgN5SNVFdkh8fkSsbO5uZC3k4Ff/8F+KOVfq1PdmQZbS6MI92rKCqZRK2UNyAvJT9rS1fYZADQwhI99SKew66qaZBA2jfHvd13U5k29HSEieH40VdCmOULF7OKlPoRxOj2dqVl2h1F8TbaStJR2xK0uS9nUR0WILz5A/2Y6/GhG90ql8IVl3aFKgt4dDdZMGacreVK2DQqmSZzGHSpmURfI8NecWpnFH1MsIchzXevjo3w+ixZrfn7nScV2kjtVNQqbEQu/7Dh2oZidorMWvpPWDOZSOf8NCTiuGiHoVX7lu5yJLQoT1UWD1Pd+iLzEouPoeIKsJC4feeVbiKbpM3XiKo2TK8lMDvlKJLaOrnEvbIWssiQT5UbJuQLp4pkAehUqdcESL7hTiUQfylkbZ/CfGveyLWhvz7HC109/gGLbtXDNkjLtsj07qCbIkSByGfXqQKaJIoXRjCyWXn0XMMP8gpmXbyTp0HbtOz7zClig72ZzBjLey8KnIMpFSMAzE4+F46LCLFgg40yn8WLKRgkyWxgqLEg+Zovkc2RZT+8NvOAPQEzlEy5bn/nR4UA4qew+uVCuC86w9dpEMfR/aZM4VSNSVd0ZXWfYyWH72j54IOGrT92cEvoFqZ8Ilpbp3iOq8aWzIUvEeVBLLUs17Ji0yV8WT2NrXei5ndUcYl9E85NORJZqs/5vQur78J0AWTbNWLMS8liDKvtvAynTKJArA1ftS2dkwoz1Kw2YdLLaeKoqjTjiUGsxOtStgyDwVu6bqaBWOc600giJsXNZtW3d6m3bJzClBttD4vqehTiPW+nsDouUtjpnQLRP8xjNdIAzpSRE30fd1N0U3iJpL8A8qdz7cI0tpqBkKSfPM5QY4LegZlhKs/7FPE1GpLPw+2U/MhAYKslMFs7CfrfJ9AYqYCbx5B0RrzpVAw2/nH4fviq2odobYGuaU+LBCc4CrpY5qr7Mu8ZA/kKprCNM/d2YQWIqELlrqlgkKCOTHL7E1N78Vl5FgRKPMfkqc9mo9ss2K11WKvu711On3Dg2T1YOILPJq4lUxWf41a7Q8iN9SaDa2+RVaACPzbDaYs1krMXWyIcy3mCnq6nB1qqhO2jewjml8QmLkqXguCwRjP6RTaNZ7jzxiqJJU8DWIMgxlXax+YZ0Gav26rxQuJKe//xNaJkrHpVOSdVvTkp2Cr7otx277FSCypFAyR3nFCm1vi8zSM5lD4wNZIa3bjjsw84moq0cG64b09wNfBUPdYyy0eUOsysC2jGee83cEmx5P65tkylQd89mi82WE6oi57tMc616L6pjVQhnLJ2120HhroOxZ14eqL8STSuoLMgXmsmSKmJbt5btlJ9X6flyM/wZGFlxjEarcZ1m31N96RWhEIw9EONhARUzpGobnQqu11OgefkrmE6P+CobqW4RULBgGgkttIlGl0a8ixt7/BVMe8B8ynlZHn9O682LaFyqhjJVWiztdlZd9CvEzBhIWsnat2LyETf8Zoey0LI2WQdKlVCwqZs+wZWTll4+od8xT1Zy3v7DBKbFFSna6DO3dL6AFZ/Tu4zWkr4u4vtX3DKK0FcvEXIqt+/WO5c6XNg7UzJNGV9e5g4T2jkRkw4adMuJiS3Q1Z2mUvQOiGnkNxGK22ywP/L00Zmr/Nmp1zwYz0driRhdNTFuU6NwA27y/JgengaOuQhbNsLq593nfhGxZcCVd9qEZut1h2VbitdBlD/sSIGtKzaxdA4HG8HaX30RFbJlId6xpAj9MwIybRwx2FciUebt9+ArAP9zW0rUgaKFFhE26zYS+URcydn4abMFLyxxaLtRt4ddJQxhKlMTmljRYNwLayrOGVhqo2hLQAXqpb91LMn6+ceClETS3S1resf/bgmyp9tqtpgD119z4htumbuPNvWxeCHndFhNz3RpRq27PrbUiW1PQBcqQ9YCodVSexkqiXkjfO4b6tuMaoq7QtssYNf0UaLHVBh2BsWhQvVyudQu4gcZn00yZSDG25LK0BIjaC+a9NMWxpxvQ/2V/ZmT/apjjshZd9bLstkRjw+IeX3ajTnu0J+3h29YrXm1p4jkMZS/hT1g2rc8YW/qCr1tOHmB+te7nu/ftv8KMm89TLFp3b0taoqxJ2CNsH23l2S6i/U8RshZK+4pWuwxblDXSiDOpmf0U6o71v2pgGZCu7W2z1dJOmb4aZY8grN5ebi31X2Mqqy0jirG9U9YBRZaiAKqunIN3hAhfb9sqwm5YjDz7wSveP9dNlf8n5lT2t7dGmBZv9LCFnPbgrcsM358CvWIVK8rJ9r2utrW9va1O1Wfo0mO7FkkM6SHs5ULD0X8N3dCky9mXWj7dk+lwOBwOh8PhcDgcDofD4XA4HA6Hw+FwOBwOh8PxG/78+Qdp0jF7jCD1DQAAAABJRU5ErkJggg==;clipPath=inset(29.86% 26.33% 18.06% 21.67%);" parent="1" vertex="1">
          <mxGeometry x="1120" y="49.34000000000003" width="200" height="96.15" as="geometry" />
        </mxCell>
        <mxCell id="KAyXB3LFF11qL9irPbgj-10" value="M2.5x6 panhead screw" style="shape=image;verticalLabelPosition=bottom;labelBackgroundColor=none;verticalAlign=top;imageAspect=0;image=data:image/png,iVBORw0KGgoAAAANSUhEUgAAASwAAACQCAYAAACyAlbPAAAAAXNSR0IArs4c6QAAAARnQU1BAACxjwv8YQUAAAAJcEhZcwAAFxEAABcRAcom8z8AADp6SURBVHhe7Z0HWNRnuvbPOdf3ne+cPTlnz+4m2SRukt3sJtkUE1OMPWrsvYsdBVEEARuKIiqKBRRFioCAFJUmIE0FCyBWig1U7KLYey+x3N97PzjJZBxi1j7Z95frf41hhpn/jP7vuZ/yPu+/QKPRaCwELVgajcZi0IKl0WgsBi1YGo3GYtCCpdFoLAYtWBqNxmLQgqXRaCwGLVgajcZi0IKl0WgsBi1YGo3GYtCCpdFoLAYtWBqNxmLQgqXRaCwGLVgajcZi0IKl0WgsBi1YGo3GYtCCpdFoLAYtWBqNxmLQgqXRaCwGLVgajcZi0IKl0WgsBi1YGo3GYtCCpdFoLAYtWBqNxmLQgqXRaCwGLVgajcZi0IKl0WgsBi1YGo3GYtCCpdFoLAYtWBqNxmLQgqXRaCwGLVgajcZi0IKl0WgsBi1YGo3GYtCCpdFoLAYtWBqNxmLQgqXRaCwGLVgajcZi0IKl+afh/v37OHPmDHbs2IG1a9dixYoVSEhIwJw5czB37lykpqYiLS0NERERWLRoEdatW4eKigrcvn37wTNoXjRasDS/em7evKkEKh/h4WGIi4tDYWEhdu3aJcJVUFCAjRs3Ij09HT4+PujRowfq1KmDmjVrom/fvggKCkJKSoocOTk52LNnj4jerVu3Hjy75nmiBUvzq+TOnTvYv3+/CJSTkxNGjx6t3FMqioqKcOLECXz//fcPHvkjFKGLFy/i7Nmz8jhfX1906dIFvXv3xowZMxAcHCwH3VdWVhZ2796NK1euPPhtzfNAC5bmV8P169exNi8PGcotUVBCQ0Ph7u6O8ePHK8GZLgLk7e0NV1dXDB48WO5bunQpjhw58uAZHubq1asSPnp5eaFZs2bo168fsrOzxZ0lJiaKeNGl0cVpnj1asDQWz61bN1VYtx6xsYvloGAx5DPnoi5cuID169cjMjJScleenp6wsbHBoEGDsGDBAhw6dOjBIx9m06ZN8PDwEMcVEBCAffv2obi4GIGBgZg2bZqElTrf9WzRgqWxOOhmKDxHjx7FqlWr4K3cU8+eVmjVqgV69eoJR0dHERbmn5YvX469e/fi0qVLD377pzAM3L59O8LDw9Vz9BQXxfCRosYkvSl3795FSUkJxo0bJ/muuLh4CT0TEuIRFBiA3JwcnDp16sGjNU8bLVgai+Ly5YvYsGE9kpKSsGb1ahEj5qROnT4tQnHs2DFs27ZNqn90PXZ2dujUqZOEcsxDsTLIyp85GP6xUjhs2DBxUQwf6dTMCRdfKzY2Ft27d8fAgQORtzYPq1auxBTl2JampKjzvCzipnm6aMHSvPScO3dOXI2PjzesrLrCzW0M4uPjsWTJEhGgsrKyB480DxPjzGkxZ8UkOsXLz89PnJU5GNaxvWHIkCHo0KEDpk+fjoMHD+LevXsPHlEJ/59ObMqUKSKMixcvRvnhw0iIj4PvzJnqvHY/eKTmaaEFS/NScvz4caxZs0baCSg2a9asVq4pUfJF8+fPR0xMDGbNmoURI0ZIDorhnLOzs+ShGKJVBcWPlcPOnTujRYsWkogvLS19cO9PoUtirosCx0oj2xrMQbfF5xlsbw9vHx85ZwopndaW4mKzuTTN46EFS/PScO3aNam+hYfPV8LkL0ns/Px8aR9gzsoczE2xN4piwpYDa2trESLmseiSqspdsZeKj6fjopPia51WYaU5Nm/eLMLYvn17qRbSbRlDp0UXRxHtp16fjoyiyMdGRUXJa5m6M83joQVL80JhzxMrc9u3bUNMdDRcXUfBZkB/9O3bR5yTvXItdE4jR46UnNTChQulzYAOzBwUPeawmHBv164d2rZtK6JRlRhRTNiawNdxcHAQd2Su0sfznD17tggcE+6sGJrC10hOToatOu+hSjDpEAuU2CUkJogQa54cLViaFwIdE3M8TKBzCczOnaUiCqawisdqIB0UBYOhWceOHdGtWzdpSWAOqSrozNiLxZ4rHtFKEKtqW6CgjBkzRpLtFLuqerMoQnxtdsHznNhoagwrmHwdihrzbDELY+Az0wf56/IfPELzJGjB0jw3KD4UBoZi3bp1Re3atZQDaoMBAwZg1KhRkghn7oc5qBs3bjz4rYehK6KTGTp0qCTFWdVjA2hVXecUQuaYGjZsKPkotjqYCxXPnz+PsLAwyW8xpFy5cuVDgsTzosPj/XwcRckYhn48P1Yb+VoODkOQmZmJ7du34cCBAz/7vjSPRguW5hlzXy7UZcuWYfHiWLmQ6Yo2by5AXl6edI3zPl7UvPgnTJgguSLmodgPlZGRIaGWuRYBigMbNydPnoyWLVuiT58+8nhzXecUSzquiRMnwsrKSloWzIVpDAf5nMyFsSeLlT9TcWObAwWSz0NHxvM2dYdMxFP86ArZgsHkPTvj2YKheXy0YGmeCSdPnsTqVatUeBWoRMJDWhLYG8WFxuXl5SIg5uDyGv4uE9usDrIDvXHjxrKcZsOGDVUugWFOi+JCt8Z8F1+HfVWmUHyYHGduiy6JfVamz0khZLjH16QgsamUuTFjKGwsCFBcmzdvLmGtMXR7FL558+aJ8DJ85fu5fNl8EUDzy9CCpXkq8CI/deo0tmzZgtWrVyNBuY7AgACMH++uRMdOktp0NzNnzpS+JTc3NxEENnMyL1RV6Z8CxvsZMlIcGP7RkZkL6SgiW7duxfDhw9GgQQNxa3R3XAhtDB9HoeL9bCpliMrQz7RBlO0OFEyKFh0VQ0ZjKHRM2LMowPE0dGymr0WRZtjq4uKsHOVa5bBOqrBQrzt8XLRgvWDOnj2DnaUl2KWOws0bER8Xi4iIcBUqrUBF+SHcu31DHbdw5yXt5WGoxnCoqKhQpiGkp6cpZ1H00MVtDMMi5oFCQkLkYucFzT4qru2jSJhe9AbYPMpQjpU6/h4dl7l2ATo0VvsYIjKPRAE1J4iGdgUm0JmcN60k0gUySc+GU7ooOi1j+NrsrOfvdu3aVaqY7N0yprR0p+TmXFycMGP6VOTk5lTZoqF5NFqwnhPXr9+QpsWKiqPYtHGD+uaNlX6j4OAgCRvC5ochKjISCyIi5Bvf13cWpkyejGleUzEvMAhRUZHqd+LVxbcKubm5yMxIl1uGTnxeXijmyvHPgmvXrksIxgueFzHdU+NGjVC3bh1pJejXz1qEgmLARk6OaqGomRMXwvdAJ8IlLvx9OiSGT6ZhmAGGX3xuPpYCRqExt3yGYSErfxRDVv4oosaP4/nwfVCQGCJyQTMFyvS5WAjg+6FIUvxM3R2nNXBdIbvd6bKM823nzp2X5P24saMxzGkIFsVES0hc1Weh+Xm0YD1jeNHt2rUTGWkpiA4PQVpyPA7u26n+Ud9WAqOck3ITvEDu3LmrXMAd+Yd87959CTcuPJjNdF59I7PMztAoUIkXO7zZWxQfFye37E1imESXU6qcGqtsDKWeBfv37xPh5FROOhy+P74Wz5POiev0eNFTLCi87G1iG0D//v0lJGTSvaqWAb5nDtebNGmSCMDYsWNFlM3lu/haFEOGa3xuPq85EWBIyPEyTOK7uLiY7Z+igDCka9KkieSbTBPoFEQ2oVK02B5h2hlPl8VzmTLFE4nqsykvP/zgnkooiiOHD0Ozxg3Vl4+/OnfzPWSaR6MF6xmxb+9eRCj34T5mFLwmjEVUqD9Sk+KQlJws+RB+a/NipFugAzl8+PAvdki8gNndzbV0hnG+y5ZlYlV2FlYsXy7hEBfm5uSsEdF7EiioO3fuFHEcNWokunbrApdhLvK6DOlYCeP7+LkQkNB5sPO7VatWclBEKHhV5a54H90Rwz/mvKrqn+Jnx+dironnY04MGYL5+/uLi6IYUtBNRZA5LTpFVgfZ9mDazsAEPt0cxZEtFXxOgxO7qZ6rrGwPpk6dApsB1urvN0V+zgopuaA+mzGjXdGsSWOEKkd95rSe5vC4aMF6SvAf72n1DzEvLxcx0QvgPX0qfH28sSw9Fdu2FkvjYHpGpvrHniL/4Fl+Z3jB8Si8QChgFCDmQ7isg/maqkIiU/hYihTDqqVLU+W56QjilGjFREep/09XF/zBX7ymjSENL2A+H0vxDEOT1LkxZApUoVV0dIyIJEv2TIaz2sYLne6Da/14PlW9Ft0L3yedEfNCDMeqykUxzGVLAIWE1T+2D5gTdYbEFBMm0ClufH3TsI4uhw2ddElM9nPKgzF0iQxx2fDJ0I5tFsbQ/bEFgy6RB8M8U9Hj59Po2waY5zdTfatcBr6/oj7Mm7hy/gTCQ/wxymUokhKX4NTpMw+kTPOPogXrCWE+h31FTJQvSYzDlsJN2L2zBCf/wX4bNhSyo5tOhCV1igUX+fIiZXmciWTThK4pdAEcKkchpPMJVY6DSfC83DXIXp6JZZnpEnJduvTw81Ck6BoOHNivxGghfHxmqNeOEzEpLz/yUOnfGDZK8hy5Ho8tBXQyFAb2HjF0MxUPwrI/RYGPY/WP4keRNAcFiE2ifF5WGc09jp8NRZ8OiKGfuSmgdIGsSvL1KDr8LIwT/DxPft4UU64HZDhpEF7eR2Hklw2bQQMC/NXf/U8bVdlX5uHuhjkzPFGwJhOn9peov1gV0h/dg1C/GRg7ahhWrczGteu6efRx0YL1GNANMK/EC2fVikysX7tKCcUuKanz4Lc3wygKGcWDFxIvTvbt8OKjKDGU4Z+rGvbGb2+GJRQgihcvaOZJ6Mb4M3MiYAwvYL4GE/oUvtzcHOSsWaMuuCVIT0uVXBcFjoLChkqGpnQIdEl0GIYWBDqggQMHyro+5pToAHlh8vfMQQfE984kNx0P80IUiapCOjobOi46NC5Cpjs0l3+j+NDVMYFOV8ccmamL43tmLouixccxr2cMPzP+nTE0bdSokbgp04od/07YFc9wdOHCReqL4qd/PwVK5Hr16o3hLo6oOLgTd28rF3yf53sLpTuKEOTnA4/RwxHqPxNFa7Nw/dQhHNpRgOkTxsB+4ACZ4HDRzBeG5pehBesxuHf/HvbuLsWK1ERkxEdj9Yo0rFJhU2x8AkJCQqWBkeNQKF78lua8JiZ7GXLwlt/iTPIyYc5Qjjkthj4s9f9cLoj30cWwTE4R4vM9CgoIXRIFJCJigZxXnhKvxESewxzMmjVTzqGi4tiD33gYhqYUHJ4nhYwhIJ0UL3wKcVVLYphP4nvkEha6I4pdVcLFxDc71plsp3CahmyE4kIR4lpCdqEzXDWt/BEKO+9nwp9Oy7SBlIJKx8b3QaE2vp9iyV4yVip5f0nJtgf3VMIEe+SCCHh7TUJqbCQObt+Ie1dPK726gM1KoCa4jYBN356Y7D4GK1JiUbFnG4rVz0c62qFX9y7qCyMJ1/XynMdGC9Y/yMmTJ5CxNAn+Pl6Y6zMFCbHR4jgYzj0OvAgpYgbRootg1Y+urKrnZFmdORSKHtsKKFzmckDGMOSkK2Eynvmt9evXYWV2lnqO2XAYYg9b24HicOiqHpVEp9uhCDLZTRdF90WRYJ7IHBQuhqjst6L7oUtkeGUKQ0u+d7oyVhZZFTUVQ75Pnj/FhKEfBcy0b4vhM98n+6v4GDpIY/g6dHV0jAz96ESNuaIEzGvqNNja9Me6NcvVG1aO6H5lvurUyQrELorE6OFOmDJ+DLKXxuNixV5cP3kIm9VjZ3iOR7+e3eA42EYKLTsL16rHxKF1s0aoU7uWtGvo/NXjowXrF8LwjPkLRxUy2fSxQkiADw4eLFPf7k+3n4YXPfNBdC5MYLMaR6dmzsXwZ8zDULjouih85sIpYxjK8WKOjIxSv1skjmfJkkT07dMb/VVYxuehENEVMaxiKMoyflUVTFYr+TtcV8ewjgWDqnJt7LdilY4tBnwNc5NCKawUKoaiTI6zKGEqSAwF+b4pRgwPKdimBQoKrsGxMaQ2rvrx+diqwEbPNm3aSI+bMVfVc8XGxWPMqJEInuOD0o2r8f0F5UDv38D5Y/uRsWQhRjoNhr1tPyyY54eDJYU4ppxUenwMRgy1R5cObdR91uoLbSoWhwUiyHcaJnmMQ4QS9WNViLrml6EF6xHcV//xIlquHE8z9c1v1bEttqzNVl/1vCh5IVGwnv53JsMcXvgMT1iSp/PhxWvajU0oUhQ5Po4HwyDTsrwxvOApCuwsT0pKxpHyIzh54hjW5uVK+8JGJXx7VEhGx8fQiS6KY12YXzK3JIawVYAhn6FrnQ7RnMga3I+hqsjzMPecdD1cvtOrVy8RRNOcGd8fz4cVRINrM4YCy+emMFLU6MpMk/DRMQvRvl07zFLCcuncMdy/V5kTu/39LSX+GxAw1xc+XhOQpsL+E3t34MaZcpw7tBvbN6zGnOmeGGTTFzOnTsTm3BXYsSkXYYGz0ceqK9q3bgEne1tMn+SOYfYDMdi2P7JX/PT8NI+HFqxHwCrg/LBwGSo3Y/J4FOetwC31D5c5C9xWF9q959NdzmQwwyW6Ll6oDLPMhYG80JmvYo6LIvZzrREUYiap+ZzM5TC3sy4/D0UFm3Dm1I8CwSIB3Yqh+kcXZS6ko8jS+TC3xaUqXPBLITOdtMDH8dwoJk2bNhWnw3Mxhu+NCXLmoeiCGCqzQGEuX8UEOh0Zm1aNE/EUcoba/P2Ryi2Z9qQVqy+DuUoMA3y9sWFVOi6fOqRe+Bbu376A8r3bsTA8CMMc7DBzygTs2JCDM4d2YXfROqQsjoTDwP5o3fw7jHJxQFZKPPKzUjFupDO+qvEZWjRpJC68S7uWcHFyEDHlGkLNk6MF6xEcPlwu0yM7tW2JlanxuHvxOK6dPIzb5ysqBes+Bev5ZSWYjGaymd3uvGUS2BSGPHQX7DRnaFlVotsAq44UOeZ1rl27iju3b+FExWHs27tHcnYG+Np8TvZEMRzja5iD4sPiAN0RRY5FCHPiyuczzLRiNZPnYQx/h2Euc00UQAqrqbBRTBkSsxjAz4P5KWP27Nkrv+/uPhbbthUoEfsxXGXHeVJyAka4DMXkcaNQsilHqdxp+UI6V74byYsWiGNyHGSD1RlJ2L99M3KXpyhXNQmdVdhHYRrhZI+IoDnwVT9r2rA+/uPf/y9ef/UP6NalE/zn+mGLCuc1Tw8tWD8DG/xWrVyFeSo0iAiYhc1rluH0wZ24cvwA7lxSF/L3/MfPb/Tnm0aly6DDYrWROSZ+g5uGgLzYWaHkKBU2TNKtVJWH4s8ZqjEEZEl/w8aNKny6jvIDZdi7q+ShkI0jiDnpgCLCWzozc4LEx9E9MSnP5zUVTjov5poovpxn5ePj85DgEIa4DPuYaOdzGr8POiq6OK7zY/8UHZ4xx4+fUO9/ISaOH4fI0LnYt4sJdoaGt3D3+yso3bYRw4bao0/3LliRHIvLx/fj2J7tyknlIyxgNjq3bwPrXlaIjwpFgQr94iJDRMBaN2+KHl06wlmFfnRTjb+tiyH2g6UYws/vUV8SmsdDC9bPwGTu7FkzETFvrhKrTJSpcKCibCsuH9uHO5dfnGAZ4AXPJL2h65w9XxQeY9jPxUZUCgaLBny8aYe2AXahs1eMif709AxcvHAe58+cwub1eSjbvRM3bt78ISRjfo1iSCFhnxbFzjQ5TtgywBwUl9gwRGQBwRQKK90Tc1/MW1GAjOF5MRymG+MGqXRdxvA1Zs+eA1tbGyQkMFw988N50pFt3boF06d6YbjDICVKi3H/igotryphVKHfMRX6uaift2jSGNEh/jhYUoDSzbnYpL6cWAlu27IZunZsi2A/H6xKS4Snuyvefbsafvs/r4ij4n3jxowWUa3qc9U8PbRg/QzLVDg1dPBAzJwyHoW5y7FPfRtXlG3DpQolWBdVKHZbuRopd78YwTLG4KYoXgy1TBPeTNaz85zhk7keJwN0LOwHi42Nk3aNQwcP4OjhA8qJFGPXzhJcN8mJsfJHIbK1tZW8mblWDIatXOfHXBMT7RQkU0dGoWW+imOMKU7Ga/UIHSQLD3RifB1jbt68pcR6DXzVl0twoB8KN+fjzi2+f36Z3MOdu9cRHhaMTu1aI8B7iuSiLh7di2unDqkwMA+9unXG59U/xUyvCSjOX4m85UsRr5zUiKGD0ah+XRGlyeNHY8xwR/S26oJ+ffvI+/Cb44fioiLl+H7Mm2meLVqwzMBvysPlR5AQtxjek8cjMmg2Nq1ehrLidThatgUXjuzB7fPqwrx5Xl0PzKm8HDv8Umzoslj9o6syFgVe/ExaG+ZQsR/IOEFtCgWECe3klBRcungJV86fwYGyUlQcKceVqz+KIZ+XCXg2e1JM2HDJsMy0vYKhHvNUDCO5UJm9XsbwM2dlkQ2prPwxH2Va1eN74zQFurH9B35cwMz3eVqF70sSl2Cky1CEB/ri6umD6q9FhbJ3r6oHXEdosD/q1v4Go10clIPKw4Ftm3G4tAi5mSno0bkDanz2KTzGDJccVdLCcAwa0Ac1v6yBhvXroMV336Lldw3Rr3dP+VIwPS/N80MLlhlOqgs7LiEBPtO8EBYwUzqaN6zKRGnBWhzeWYRzh3dVVgqvq7DiHrukHw6FXhQM1Qy7xVAg6KaMq3QMn+icmNdiQp4d5uZgnoj5JeZk2D9UsqMEF8+fU+FhLooLNuKWyUXLx7LfiQl09j6Za2alQFJs2BjKxco8V4OL4i3DN4oSK5HMjZk2r5YfLhfn5zlpAsLDQ2S2mDEMy3p27waXwQOUIG3CjTNH5Ivl7qUTCPP3Rf06taQ/amVqIjaqkK947UosVX+3dFBf1qiO4cpRLZwfgGkebvi2bi28/vrrqP3NN3AdOQJpS1MlnDZ2fZrnjxYsM1SoECYqcgGmTvJQguWL9LgorFuZhu0bc3CwZDPOHCzFDRVO3L96Sn2DG/JYLxd0SHRRdD50LqYXGi9uOi0KEpPqVbktJutZPVyzJgcnjh/DhTMnsL24AGtWr5KROMbQ8VAEWUFkeMecmWlLA5tQp06dKqLEJLvpOBgKLPNY7PvieZ81ap+4des2ircUw9nJEfaDBqBEiZK427sMU+9hS3EhevXsgT5WnbE8OVZC+NPq74rhH/NRNb/8QsI/Js6XJS1GbEQwJrm5ok2LpmigxMyqczu0a9kULZs1ge9sX3Uu+0Q0qypWaJ4/WrDMsH/fPnhNmQwXh8Hqm3kmMhMXYu2Kpdi6bpVcBCf27cDVEweUVjHxzurcy5lsZbKaosW2AvZZmS6dYV6IlUYum6lqMTNheMdmT7Y0HDlyVIWFh5GenID8vBwRFOMcDkWLvU/fffedtDWwqmfcisD7t2/fLrPZWT3kAnFjUWOvFM95ivr8p8+YpoT1p+slmdvibKlO7VphWWIMrpw9gltnldO6fRH7dmzGtEnu0m3OBPqajCXYVZSPA+rnzEF9/PcP0K51c0SHBiAtPkp6rN5752289vvfodZXNdCnl5VMYdiydYte7/eSogXLDNzU08V5qKwJC/HzRuaShViTmYSitdnYs2W9LMO4XLFPlmvcv6kcwD3max4u678s0E2xSsjeKLopg9tiVY+9T3RZdFEM48w5rbt370gyvbCoSAnfeiVa5bh84RxyVmUjecnDW1cxyc5WBUOHPMXSGAoY82O8j2LJxL1BtO6pc+M5MnS06tENsXEL+VN1VK4quHL5AuaHBmOI3QAEzpoq1TwuMP7+fAUKc1fAyX6gtBswgc5c1JqMJKxIiYO9jTXe/+t7aK3clNtwR9j264Ee3SuHEfrOni1rEh93Pajm+aEFywx79pRh/Dg3DLbpi3mzp2Pp4gXITo2Xi2NXYT6O7NqC8+VlslTjHsPCOwwLGTY8LFrUBuaJOFaE4RIvZnbPP08oEOwCp9OiUPDPxvCcmO9iXosJdNMwzgAfNz80FCnKQXHzjJItBUhPisdWFaZduPijEPKWuTKKFof0MZ9m/JwUxW3btsPfP0DWC8bGxSkX91NHExcXj25dO2O29xScOrQLt7iW7+4VXD13DIsWhIgwTZ04FqkqXN+xcY0K03dKx3kv9TvNGzfERLeRWByu3pNyWu6uLmjW+Ft8+Lf38FWN6ujasR1Gu45EthJqc/1jmpcXLVhm4IJeD/exGDygLwJmTsWS6DAsT1qM9SvTUbIpV/JYpw6U4Orx/bjDC+kWk8MUoZ9e6LfVhblFXZhxSijCAuZgmscYuI1wgc/0aRI2bVXh0pOOMP6l8MJkVzhHyXBdHRPzhouVtwzVmIynuHDZjDlYHaP4rsjKluc5dGAvDu0vQ2RYKJYmJ+P2g6qdAfZ0scucC55ZtTRuQKWo5ebmySLr0a6jcOWiIVfFc7ovu8uMGTVcKnfLVEh+SIV1TJ6zJSFynp9ySL0wdLCtclnTxP0eKi3EorAgyVNV//gjjBvlguA5M+A02AY1PquOTz75WBZ4BwfPk89Bb7VlmWjBMgOnCLiNdsWAPj0wZ5on4hYEIz0hBnkrlkqfDtsbKnazvaEMN+myrtFl8WLkBfvjNzZdxiIlVpMnjpffLyvKR1HeCqk6zpk2CePHjMK0qVOQpkI1JvqfBxQcLsPhnCr2Zhk7Hwo12wmY7Objqpr8kJ+/DnPn+ith24pjFUcRPT8IESGBOHjg4E+cEnNmXHfIhs9JkzwfWnpTXLwFvXr3xiCbftixYTWuXTyuNJ9u9TqKN+dhiocbhthaY5bXRFmrd+7wbuzftkkKIXb9e6ujD7wmuCEuKkTyVX4zJqNh/br44rNP0bVda3Rs0wIDrPtiYUwMDpkUCDSWiRYsM3CpifNQR3Tv3B4+k8djYVggUlRYuDItERtXZ8pC2IPbC3B6f6kk3+9cUhcaXZbksn5sceDC45ioSHio8CRlUYSU0TesylCh5XJsyV8lIWZCZLCsQ/OfM0t2SjYt5T9tmLdisp3tAwwPmRQ3hq0GbDBlzovNqOZg4rtMiVtG5jJkZ2Upl7UPJdu2Imv5Mtl8wxiGn0OHOqGLCtUKNuc/+Gll6Mj7IiPC4KVCu9iIIOzclIcbZ4/itvo8SwvyEKDcE4fhOavwLzFmvriogpwsjHJ2wLd1a6N3dxUyTvfEPN8ZsFdu+JMP38ebr7+Gml99iWEuzkhMSMC+/ft/CFU1lo8WLDPwQqXzsbOxhpf6lp/vP0sSuKvTl4jgFK/NllX7Fbu34nz5Htw6cwT3OXXyB5d1Xy4SNkvGLYyCj+d4cVWFedky5K0wNwvb1q/GVnXwz3ERwehr1QUN1EXo7OQkYvKsS+lcIsPhf9xYgQJkcFoUNLYe8Occ+EdRMZfTYh6KoWXMwkU4fuIEylV4mL4kFju2PjwMz0+5sSGD7ZCWEI2Lxw+qX+bndA/nz1YgLSVOhuGNdLLHkpgwmYN+obxMhd8ZMh2jZ7fOSrR6IcTPR31+WchaGo9BSpxq1/wKPbt2xFA7a/Tr0RV9e/eUBdArlq8QJ3dJCa/m14cWLDMwlGEf1piRwzFprKv6Bp8uyduoYD9J8lKwyrasl3VnP+SyOL3hBhfuVuZGjlQcw/IVyxETEYrUxZEqFMxSoeR6dZstUyo5GM7RzgaNv62Hv/7lXfzvK/+Fv6nbAf2tlVisfOaCxbwV3RyXwTDhbloh4/IZrgFkO4O5c6GwUdg5O2v9ho0o3LQeOwrXY//u7Th95gS+v1NZbbx1+3vk5uVipvdUeE/2wMqlcbiiXCnH81w6tg/rVqZj0jhX6SwPmj0duwvzcXBHgSw2HqRCvlbNmsDOujfmek+RvwO3YY748rNP8OYbr8mC457dumDE8OFYk5Mjr6f5daMFywyslLEFwNPDHe6uwxAyewZ8p3miW6f2shiW+wzmZ6fh+L4dOH2oFGcO7cS1kwdwl+sLJSwEioq3SPl9WXIctq1bhWTl0DhS17q3lXIHX6PaW29K/8/b1d7Epx/9HbXUz/r06S1hGlf6P48whi6JAwI5X4uJdjabGtwUe7josljZFMdiMrHBAMfvhIbOl40tzrOptHAdsjOTcOZkZc7o3r1bKNu1FQHKITFRztlSFCRWWMt3FknbwTQVEjraDZBWBC6N4VSEQN9p6NaxnXzeToNsMUmF1QP6WKFhg3roYdUd3t4zwC3NTBtPNb9utGCZgRWkbdt3IGCun8w7mq4uKOZKBg+wRvdOHeAyxA5+M6YgOzUBB0sLZRuni+q4rkSrsusaslZukG1/dG7bCpyl9XWNz1DtzTfw2h9+jz++9iq+/vIL9OndC05DHWFnN1AmHsxRjoaJ7+fdWU2BZN8Tm0iNmzzpwljpY5LedEKCgXIlGNxdZvXqHJw5fRpZGUsxf643dhWtVR/FOZkvdfPsESxPiYWtckqjXByxKWeZ9LKxr42VPefBtrKez22EM5IXL0B6YgwcBlrjL+/8SbmpT2HVqZ1yUp3gPs5NPlcd7v3zogXLDNJHdO064mIXY0DfHhg2xBbTPd0xdqQzolRYwvCOF9qksaNUmDgXOzbmyIwsXDsrvULXzh2H38xpeO/dd/DKb/4Tf3rrDfxJiVXdOrUxyM5OSv3cYmra9Oky9pgOxtBJXtXavmcJw0H2aHFEDJtAjZtHmevigl8KFn9uaIUwwJ8xib+5sAgpKcnIX52FnUX5yiUtx66CPKnsnVUHQ7wuHdrCpk8PZC5ZJCNcslLjlKuaiB5dO8pYYVclZrOnTZJWBOaoPnj/fbRp3UoG4RUU/vzYZ80/B1qwfgaGOT27d0bfHp1V2DIOwXO8kZuZjIuc1nDttCyGZil9qscYmbO0rbgI+TnLpXeoYb3a+Kz6J6hV6xtYW/fDjBnekhNisyS3kGdCnlVEuikeDL3YamC6Pu95QBGi8FRuCBvxkyF4DBE55YFhIwWNzaPmoCONT0hAWVkJLpw5ihVL45EWu0BmiHF1AD+7Niq8s1JOKiY0UJLqbE/g5M46SpzatmwqI4Xbt26O3j16SF6NGzZwQwhTkdT886IF62co5nxyz4nSVT1upAsCZnrJhgO3L59UVzlDp5vAnWvYUrgR8+eHYFFMFELnBaBzp47o3KULZs3ylflUnJvOWeusxlUFc2ac88RlKi8K5rPopky3vWI/Fh0YF1JXNUlzx44S6YDfuasERw/vQ3JsFBbND8DG1RnqM1sOXxVSN2/SCO1atcBcby8pXrg6DcGrv/8dfvfb36JLx/ZwsB8E/wD/hzrxNRoDWrB+BnaDB6oLyMXRHg4D+2HSeFfk5mSrb/yfrrfjAmDmenixx8cnyKxz/j/bA6pqvjTA/f04tYBiwDV/bDZ9UbBqyIXJXFvIczEk2um+6Lq43o49avy5qethwygT8AUb12PZ0gQVAoYgfkGwLI/xVWGebd+eaNKwPrp3agdnext0bNMczZt9Bw+P8TIyhoJ3VzspzSPQgvUzcMU+FwSPGzNSLjAXJ0d10S5XYdFxKekzROIUTIYvzEXxojY3TdMUTgM17MbMaZ2G32cuyTh/9CJg0p1zrXhOxm6KoSHdHzvXWT00Ts4b4OeVkZmO0KC5yFmWjJyMJZg0dqTMlnr/vT+jXq2aaNqogQoD24lI7zLZ4FSjeRRasB4BHU/A3Dlo2fQ7dGzfFq7cXFNdzJz1RIFi+MLu8EfBdXgUAC574fx1JtjZZc7nZwsBBYt5LNOZ7M8bChE3tWAoS4EyFl/+P6uJFC1z24ddU25yaVoaEmIX4ti+HTJHrH7tmnj33XfRtFkzjHd3F/dpboswjeaXoAXrEchQuowMDLK1UaLVCI72dkpYMn52fpQxFCCOV2EVkAuL6cpMZ6rzNShkFIIXnb+hQFFA2ZfFBdqsDho2l2DCnWNoOK/KnGBxtnreuvVIT1uK0qJ8hAfMgq11P1kordE8DbRgPQJewOVHjiIhPk4G+jWuVwvt27RAaEgIKlRoyPlN5mD+y5Co5i2XubAyaA7+nFM4OamTkwReBlit5IYV7IQ3iBOFi/krihnzXKa72/Cj4Oicg/t3I33JYowd5oARTkNkOqlG8zTQgvULoCQVFxehf9/eaNqwLuz69UKPzh0xcvgwbNu69YeudIZT7FtibophH3M9vPDpoIxhnopuxdBGwHwRK4msFHIDCc6lqmoN3/OC58ewl+saTTddYF6P45WZh/sRNrtWOrGTJyowb+5sdG/XEnbWvbAqS2/Trnk6aMH6hRw/cRxBgYEYOMBa1rg52fWHvU1f+f+Q4GBsLiiQkI6OikJkus0WYVsDL3Yuv+Hj+Hi2EBhPaGBzJIUuPDwCSUowdpSU4MjRo7h779kv1TGG58r3wc5y5t6Mk+zcecfPb47cVnJPqfBFpVfM5X2P40f3Yn6QHxxt+8nwvNTkJSqEPqmrgJonRgvWL+SOcjvMWwUHBaJjm5bo2bk93Ec5Y6TjYHRo3QI9e1hJmGQK3RTnazFHxYS1v7+/PM5cDsgAQ01W6oY5OcF+4AD4TPdC9IIIxKrQMnPZMuw/cKDKUPRpQXcnHexKYNk0yiVDBkpLd2Lp0hSUlhSpB15VH84lGa53j/1pty/gaNk2cNdkVyd7TJ3ghqiIMBQWFkkTqEbzJGjB+gfhzCrrPr1lKYnLkIEyine4w0A4DOwPf+U6SnfuxE0VAlLcKFIc4cKGULqpEuWWzEHpOXK0QglDJoIC/DF5gjt8pkxAQmQI1i5LwZr0RGnCnDXFQxZez/DylE1D2VLBaiOd0C+pVD4OTLrzNYzDv4rjx7Bx0zps37wWZw+W4NbpQ7h5+jCunjiIW2eP4MCOAiwMC8LkcaNk6c3CqEgUb9kqy500midBC9Y/yMmTp5CiQrUhgwaiTYsmspkBe40mjhkhc5o44XLyZE9ERUVLewAbMc0N5WMLAMv72VnZmOzpCfcxrtIBHjXPD1nJi2VO1pZ1q+S2OC8bW/NXylTNAN8ZcBxij0GD7CRPRlHkomW2ITB/Zi4UfRIYspp2v1++dAGl2wuRtmSRnGv5zkJZS3n64E6ZXFGyORcxSmA9x43E9EnuiI4MxxZ1bs97lr3m14cWrMeAlTIf7xlo1KAeOrdvhWEOgzBm+FCMGeagbp0wY5oXcnJyH2oC5TC7kpJSpKamYdZMH7iqx3Jn6Yz4aBkBvGFlOgpyVsh4FU4j3ayOtcuXIjE6DJ7jx8pUB2cXF+kMp4Njnmnrli0yHZSbOTCBv2fPTzdOfVLo3lhE4K0xVy+dQnrSYkSo0I/jcyhWHBvDg+sE5/p4KedphwlKyBkSbt++4yfjkzWax0EL1mPAVgc2US5QAsEdWJo2qiezxycqpzXEth/at22J0JBgeeydO/dkNhZzPrN8ZignxTBpgoxMXp+dLiNWuA0+/7x+ZSY2qj8X5FCoKrdM95rkAVtbWzgPG46ExEQcVaHj9WvXJOHNnBi3yaKLO3eO86tWIC8vx2wX+uPC9YXsIaN7M+bqxROIDPWXiRWcacUxO9xodvuG1ViRHIvJ48fApo+ViHlwUICEhFqwNE+KFqwngC0LI0cMR+MGddGzcwcZi8JBdBzZO3igDTwnTYKvclI+Uz1FpOLCg5Q4ZWLb+jXYrJzUOiVS+Vlpcss573RUOeriXxQxD54T3EWoRowaJdVCjp1hQyfX8zFxz7nrFBMDx45VICFehWhZGbh+w7AekQ6PBx0XD1bp/rFkPTeVZaMoq6DnL1z8ofP90okDmOc7DSOGDpbt3ilWHGqYuywFSxdHYuqEsejeoY1MZwgLDZEq4Z07L65NQ/PrQAvWE8CQj0LiPX2aLEFp3KAOnOxt4TbCCb26dZJq4iwlVMVrs7CrIF82oWC4lKfCPINQMQTknPfVaQmImR+IaZ4T4OzkDHePiVi2fLmEfjwoVAzNWD1kw6bpRNLjSrBSkxORoxzajetn1U9uV7YZ8LinBOz+NXVcVwddDvvC2DdFMWPvlEHMjI9K+P64bGiFcm+7ykpx42Zl68LpA6UImjVNNoSIVQK7dkUqMhMXIz0+BjHKeY0b6YwGdb5WYXNdxC5eVPlkGs0TogXrKcAdkbl9estm36FdyyayPVgX5S46tW2FIN/p4j4oVgahomjRYTGhnpUUi5A5M8VRcTusgXZ2KtQLkufkrPSFixYjKjpGckimDZzGHD1SLhteLF8aj2tnjyhNuYT7l0/i/pVTwLUzAEXsxjmlVeeVVrFn6pLSqSsPxMwgaAZRY3K80pmdPXdKObnNyFXnW7J1A66ePyatC4dLCjFv9gwZahgROBupsVFYrISLgw3nTJ8sg/qqf/QBGtSrLasENJqngRasp8QFFS5N85qCOrW+RosmDdFBuatObVopBzJERqzQgXADigIlUpxYmpEQLSV/bqrKNYZeXlMxcrgLPD3GITRgNub5zcIwR3s4O9gjakGEDBNMU8c6JVzs0zIN7E6dPIG4mAVIi4uSXWfuXTyOaycP4vqpQ7J34m0lYt+fOyrb6/M+9kyJmHG3H4OgGR9sBL17GVfUY/eXFWOzOueSjbm4cGSPbAvPsJb5K4ozWzC4QUSQ7wwEzpourqtxg3qyC9B493HYbrKVmEbzuGjBekowRONymoULY9CiWRPU+PTvSrRawKprR4wbNUy2COPkzayUWJle6uY6ApGRUdirwjtuohoaHAinwQMw388bq1LjZWed3GXJ8nju1sPRwb5TJyJACcL8oLkID52HeYEB0uOVmpYhm7GG+Cuns3gBju/ZhstsMzi0Sw6OKD5/pAwXju7FxYp90oLAnimK2Y3Th3HzdLlsVcaDwsaD7oxidupgKdavykBGonJ5KoQ9snuLjD3muTkPGYiOykVyl2VWBb08xsJz3GgM6G2Fb776HH1698DKlVm4evXptlpo/nnRgvWUOX/hgjSLduvSGV/V+BTv/fltdOvQVkKlRcppTXB3k6U5HHZnYNeuXZju5YlB1r0w1cNNCZS/ciwB8vjkRRFYnhwrDo3TO/NXLMXypEVIiglDYlSotDwsjghGXNR8ZCuh27JuJfZt3SibjnIbMt6W7yzGUSU0FUrIju/djhP7S3DqQOmDvqlKQTunXBmP88pB8bh2SgmZEq7dRflYqkSQiXVOW6Xocgdrbixrb2stY4+HDrKBx5gRkoBnM22rZo3w57erwdFhiOwurdE8LbRgPQPotlavXoXePXvgg7/+BX/9yzto3rQJoqIipQveFPZT+XhPlzBylJO9hFXc9ThYua2IoNmIme+P2AUhWBITjrT4aBGw1RlJSrxSletJw7qstMoerrwVkivbkr9SNmrl5hhs4txZsFY2ft1TvF7EbP/2TSJmh0XMinBkV6WgyVG2VQ46MwoYn5cbbSxPilVCtR7bN64R18dZ9n17dEPrFs1g3au77LHYx6ormqtwuEb1j1H7m5rwmzPnkRNXNZp/BC1YzxB2ss+ZPRtf1vgc71R7E+3btkZMdPRP3BVhMj0hMQHOQx2US7GH59iRsgbPZ4oH5ihhCFTiFTp3phKvOYgOrXRe8cpRJS2MQGpcpArXFoqIrUxNwJr0JGk2XaeEjMl9bq3PlonK3Fm2bJHPHadZCCjZlIvSzXkiaLsK8+WgsPE4rISMwkVn5TXeDXGRobLpBosG3DPQnv1mrVugTYumUmDo1b2zclbf4d2338KH7/8NrqNGSFPri5w4ofn1oQXrGXPh4iWszM5G3149Ue2N1+Ro2rghfHy8Za4UF1WTc+fOIzUlBUPtB6JPt45wdXbAJLdR8Bw3SrbLZ0c8N3LwnzkV82Z7Y36ALyLmzZVWCFbnElR4yM1auSV+ekIMli1ZLA2cWSnxWJWWKM2duZkpImaVlcp0bFylxIyCJs2qStR4qLCvUB0UsrLidbI914QxIzHf31d6rNjMOma4I9o0byrjjtu1aqZcVlN1NEGtr7/Av/+ff8Pnn30mS4a0WGmeNlqwnhPspZrrNxu1an6Ft17/PT5+/z00ql8PfZSQzZT55ruwedMm2PTvi4b1amGwTT+4DnOUKiOX/TCxPcFtpOwePX2iO2ZNnajc15QfQsewgFmIDPaTNXyLwoMQGxmsRGw+EmPCkLxogbQdpMXHiBtblqTELCVONoJdqcSMgsaiAA8KW05m0gNntky24qJ4ciOJhOj58PP2kh2wuVv1VzWqo2XTxmjSsAHefacafvfb/0G9enUREhJc5bBCjeZJ0IL1HKHj2LR5E4aq0O+jD/6K9//yDmp/XUMu+O8a1keDunXUbQN0bt9GtnVnUpsHk9pMZg93HFQpYCOcMH70cOW+XKWj3HuyhxKwSSJg/jOnIWj2DITM9UFYIF3YbMlBxahQcmEY3Vgw4iNDkKjEJykmXLmyCCQtipDQj0dljmwxUhZHKlc1S4njOBFJtmBwM9khA/vj27q18f7f3kP1Tz5GzS9r4AP15/9VYlWzZk3Zm1CjeVZowXoBHFduKzomGi1bNJNqWo3qH6Fx/bpo36o5unVsix5dOqJXty6S1O7f2wo2fXthkHJe9sp1UTAclYA5q9CR+a7RyoWNG+UsVTr2RVFc2DYxQ4WQM5UL4xb7bDmgE2OfVPAcHwnvwgNnS05sAY95fogKmSu7Wi9U7mxpXKTkzBzsBsBZtuWfLCEpz6XuN1/jow/fx8d//wB/f/+veP0Pv8Orf/g9HBwcZCchjeZZogXrBcH56Nzjz2uKF76p+TXefutNfKpEgFtiMR/EhHandq1lcTUFrHf3LujXUwlYLwpYT3Fgdv37iIhxFtfQwXRhdtJa4OriIMuD3F2HybQEOrEpHm6YOmmcuLGZUyaII/Od5qkEbbIk9kXUJD82A6HKWXm6u6rX7YCe3TrBxcFOXrNura9RTZ3n66/9AW+9+Tr++5XfKFf1NULnz38hW+xr/vnQgvWCuf3999KHxX36mjZpgnffeRt/eacavvnycwkTudyHvU4/ClhbWD0QEooYXZi1EjI2a1JUBlorNzZAuTEVSrLVwHmwCiUdBmGk0xAlZI4STnI5DcXMQ4WVzItxygQbPhn20Z3Z9u0tr2XTp6cSxd5SCfz4ow/wh9//Dr/5z//Av/3bv+LPf34X49zHaVelea5owXqJYOJ9vMd4cVzV3nwDb/3xNXzy9/dRv/Y3UlnkVu9sHWhrELC2rdClfRsJI7t3bi+OiIuue1spIVMiZq1EjEtn6MYGWvcWRzbIpi8G21hXujIVWtKZjXCyV47MGcMdB4sAtmreBM3Ua7VRt7VrfonXVMj3r//yL3jllVfw2WfV4eY2RkbamC7A1mieNVqwXkIOHTqMsLBwWFn1wIcf/BX/+9//hTf/+Cq++OwTNKhTCw3r18V339ZHMyViLZo2FoGhiLVr1bxyDWO7VpK479KhrVT0unfugB5dOypXpo6undRtZzl6W3VF/z6Vosb7+Zxff/E56tf5Bl99/il++9+v4D/+3/9D9erVZdQN9yTknHeN5kWhBeslhl3iBQUFCAoKRNu2bfD6q6/ilf/6Dd5560189MHf8MXn1fHNV1+gbu2aSsRqK8Gpp0TsWzT/TgmZckgGMWOfVDtxZc3FmXH9H3NjFDTeV7dWTXz68d8lmf7eu+/gld/8Bm//qRocHR2QlJQsM7E0mpcBLVgWwsVLl2Rr/LDwcAyys6tM1Fd7C2++8Tr+9NYbePftakps3palQJ9+9KH0SLGRs/Y3X0mynK6pgRy1pNL36ccf4k/V3pAE+huvvaoc3Gt44403ULPmV5g8ZYrk1TSalw0tWBYIBwdyrjxFJS4uFm5ubujZswdat26FOnVq44P3/6bE6E053n37T0rQ3hR39tqrf8AflTgxP/bRhx+gQf16aKecm4uzs+zwXFJaKsKo0bysaMH6lXH16lVZ8mPYJj8oaJ6ElH5+fjKxlLtKZ2Zmithx5x6NxpLQgqXRaCwGLVgajcZi0IKl0WgsBi1YGo3GYtCCpdFoLAYtWBqNxmLQgqXRaCwGLVgajcZi0IKl0WgsBi1YGo3GYtCCpdFoLAYtWBqNxmLQgqXRaCwGLVgajcZi0IKl0WgsBi1YGo3GYtCCpdFoLAYtWBqNxmLQgqXRaCwGLVgajcZi0IKl0WgsBi1YGo3GYtCCpdFoLAYtWBqNxmLQgqXRaCwGLVgajcZCAP4/FyBECpihG0QAAAAASUVORK5CYII=;clipPath=inset(24.31% 26% 15.28% 22.67%);aspect=fixed;" parent="1" vertex="1">
          <mxGeometry x="20" y="290" width="200" height="153.85" as="geometry" />
        </mxCell>
        <mxCell id="KAyXB3LFF11qL9irPbgj-11" value="M8x100 screw" style="shape=image;verticalLabelPosition=bottom;labelBackgroundColor=none;verticalAlign=top;imageAspect=0;image=data:image/png,iVBORw0KGgoAAAANSUhEUgAAASwAAACRCAYAAAB5XoVqAAAAAXNSR0IArs4c6QAAAARnQU1BAACxjwv8YQUAAAAJcEhZcwAAFxEAABcRAcom8z8AADNASURBVHhe7X0HlJX1tX0sYEGxIh3pfWjDDL0NMEzvvffee+8zDDAwgNixICqIoibqSzSJmsRYIiZqYp4a8xRjgRQbViz7/9vn++7MoHn5mxeFuXD2Wt8aYO6U61rutfc5+5zzAygUCoWTQAlLoVA4DZSwFAqF00AJS6FQOA2UsBQKhdNACUuhUDgNlLAUCoXTQAlLoVA4DZSwFAqF00AJS6FQOA2UsBQKhdNACUuhUDgNlLAUCoXTQAlLoVA4DZSwFAqF00AJS6FQOA2UsBQKhdNACUuhUDgNlLAUCoXTQAlLoVA4DZSwFAqF00AJS6FQOA2UsBQKhdNACUuhUDgNlLAUCoXTQAlLoThF8I9/vIPf//73ePyJJ/DMb3+H1147iM8+O2p/1jmghKVQnMT48MMP8dhjv8b6jg74eHnBzXUOAn3XoTg/Gw01Vbhi2zY8/PAjePfd9+yv6N9QwlIoTkL8/g9/wOYt3QgPD8eyJYvgsWwR4qNCUZidhpSEaCTGhKG6NA/bN7ahq6MZRfm5aGtrk6/rz1DCUihOAtDavfPOO3jqqSdRW10Jr7UeWLtqBSKC/JEcG4m4yDAkxkWhrDAX3YakOlsbkJGagNyMFHRvaMUNV25Ga10lsjPScM0118j3+uqrr+zv3n+ghKVQODEOHnwdjz7yKLq3bEagny+WLHBFVKg/ctISjIqKQHhIAFLio9FUU46rtmzA+pZ6JMdFoyA7HftuvQFXb+tCamIcWuursfv6q9DRVGMUWCzKy0vx+BOP2z+l/0AJS6FwQhw8+Br27rkdkeGhcJk+BYsNUcWEBRnFlIz0pFijqEKRn5WK63dswY1Xb0We+XOyIa7O1nrcftO16FrfjPjocHQaAnvwh/tQlJOJsOAA7N55FTZ3NBry80Z39xYcOnwYRz//3P6pJx5KWAqFk+Ctt97Cz376INpamuHjtQ4L3eYhLMgHFUU5qCkvRHZ6IjJSEtBUW4Frt3dhY3sjosODkZWWiPv234adV201fw9BZUkBbr72CmwwtrAgOwPlxiZesblTXh8XFY5sYxW3rG9ChXlde3s7/vTKK/ZvcOKhhKVQ9GO89977+OWvfoW29jb4G9Wz0G0uvNesQGpCFGrKCsXqFeZmCCl1NNXiqq0b0VJfhSrzuU0dzbjNqKntXZ1IS4ozBNWIB+7Zi9KCHCGum6/bYV7TggBfL9RXleDK7g2IjQwzCi0Onc21CPZbh6iIcDxz4ID925x4KGEpFP0MH3xwBM899zx27tyJzPQ0eK5eiXWrlyMhJgxVpfnyJMZGIsJYuCJDVldu2YCrt20S4irOz8TeXdfjhqu3yd8bq8tx3RVbsKWzVaIM+Tnp2LKhVdRUlKivJGzubEFacix81q02iitNiJAdxVVLF5rXZ+H5559Dfym/K2EpFP0AR48exQsv/AE/+uEPUV1VieXLFmPpIjeJH2SlxiMnPQkl+VlSh0qIicDWjW1Sb6oqLUBWSiK6OprwX/fswY3XbJfPNxrl9cD+PSgrzEFMRIhRWtcIaXl7rkGZUVhbDElFhQUhJTEG7U01CAnwxYqli1BRnCe1r/lzZmHerBkoNXbxV7/8JT755FP7Nz2xUMJSKE4g3n33Xdx9936UlZYgNMgfywxJLXCdjVXLF0vxnPWomvIiqU3lGDXUvaEF11+5xVjCWMRGheHWG6/BHbfsFKKpKMnH9s3rce32zaguL0ZORgquvWKzeX03og1ppcTHoKu9SSyft+dqKcTnZabAz2stfNetEaJLTYyVSMS0yZPgMm2yKLAfP/AA3nv/A/s3PrFQwlIojjM+/PAjPPnkk+jq2oSiglyxYRFBflhpFE5EsD/qKorQ2VIniio9OQ7tjTW4dscWtDZUoygvS2pUd+/ZJWQU6O8tr/vhvt0oL8pDaKCfsYidkq0iAVWXFaG5rgKBPl5IiA5HiyHAcEOMnh4rUGt+TnZaIubPnY0An7VIM2rLa80q+KxdjejQQCxfPB8JcVHmd30Cn/eTTqESlkJxHMBowB//+79x0003obAgD+GhQUbZrDFEsk4iCFUlBRIx4Mf05HgU5qRLEfyW63egWIgrHtft6BbLV2mUFB9avB3mNaVFuUiIjZSv579FhAQYBRYtNjHDfJ2vUVCF2elCjAE+nkZNrRabyJyWv7cnPJYvRWxkCJLiIrHEKLzxl482CmsCli9djPa2Vrz++kH7XZx4KGEpFN8j/va3v+MnP/kJ6uvrEBURigDvtQj1t9ROXkYyao3da6mrFPtGi1dXWYLrDTFt29RulFO2dPtYm7p7z82INCRXbBTW/ftvN2oqF2FGKV1nlBeT6xHmcxUleWgzKizQ1xtx5nu11FcgOjzIWLxVqC4tQE56MpYsdEOQ7zoZz1m7ajlc587CymWLjTLzxbrVKzHu8pG46MLBWLlyJW688UYcOnTYfif9A0pYCsX3gGeffQ7rOzuNpYpBUmwEMozdykiKldQ5lU69ISZ241ibSjK2a+umNtyz92YZnYkKC5ZaFLt97U210u1ra6iSIntNebHEENoaarBjcyf8jEJit086fUlxQjoFOWkoys2En1FTnmtWGjILEHvIutXSRe6irvh7LJg/z6ipMZg+dRJmTp+MKZPGY4H7fKxf3yGZr/4IJSyF4jsA5+4OHjyIe+65B00NdYYUQrFm5VKsXrHYkMpaiSAUZKVjY1sDaiuKkZYch4aqUtx49XaJJDCekJWaiD03XYc9N1+L0CA/5Gam4t69t8jrYo1tZGePaoyJdJIY1VmQv7cho3CpRwX6eYm9o/rKMN/fbd4ciSqwyM7PLXBzNc88rPNYYX6vJZg8cZxRU+dj6pTJyMzIkN/9lT+/go8+/th+V/0PSlgKxX+ADz74AL/85S+QmZmO5UsXwdvYL19PD/iu8zCWzRd5WWlYb1TSlvUtqDBEEm+UDovnd91+k6in3IxUY+laccM1W+Xf8wxJ1VUWGyLbJpGFAGPfWuurRE0xesC6E4mL8YY1K5cZEkw1ii1VbN/qFcvMz/STepTn6hVGQc01Vs8HRTnpQmCLF8zH0Esvwchhl2HalElYsMANDQ31ePnll/FxPyapvlDCUij+TTCK8NBDP0NVVRVWrVqFObNnGmWzGHFRIchOT5L4ARXPNds3iSKKiw6XrQhXdXfiFmPraPuomBhJ+OGdt4qlYw3rnr270FBdJp9jwZyhT3b9qL7qDYmFBBrCio1EnVFoAUYxMTdVbD7H+AOVE4vpyXGRhjQ9MMdlBmabZ8XShVhiiGrcmJEYOWI4PDw8UF9fj0cefQTvv+8cO7D6QglLofiWeP7559Hd3Y2wkBDMnDHNkMJ0hAf7S02KozFFeRnoaK7Blg0tEjFg9ml9Sx1+8sN9siUhJSEGG9oasev6K9HRVCfkw+T57huuQmNthdi3ptpyiSWwTuWwganm61Ybe8miOX8Wc1NrVi2TOUEGSvn3GdOnwmvNSmSkxInKmj1zGoYOMWpq+FC4u89HcnIS7rrrLkNS79vvxjmhhKVQ/AtwzxS7fMWFBYY0louSigkPRFlBJipL8oSoqJ7aGqvRXFsphMIQ5/audtx03RWoqyo1qitZCuZ3334zMpMTUVqQKxsTGAhlpIGdPdajWAxn/YnqjAoqITYcjTVl0g2k/SsvzEFSfJQhpylYvmSRIbwI6e5RXc2YNkUsIIOns2ZMxaQJ47B2zRp0b9mCF196CV9++aX9jpwbSlgKRR+weP7mW2/LwHFnZyeCAvykJpWdEo/KohxDOHEI8vMWdcMIwlXbNhpSqUBESKBsQdi3eyfWG/WUHB9jPl8qKfMdxgqya0ciu/WGq9FcX4ngAF/ZlnBV90Z4rl4l2altG9uQZuzdimVLkJWaIFksFstZjwo1r4+PChP1RMvHgGmM+R1WLVuMsaNHYsglF2PK5InwWueJ/Lw83HHHHTh06JD9rk4eKGEpFAYcOD5w4AA2b+5CiFE0C+bPkREZ9/mzMXXKRIwZNdIol+liy/bcfB12XtWNzNREiQts3dCGh//rHmxsb5LxGibQf3TnrVJgZ+DzFmMBG6rLJb7QYsiq3qguFs1L8rJRVpgtnT6qq2JjKdlRZKcvPztVunvLFi/EWo8VUnDnBtF1a1bJrioqvTkutKXTZAUyu3x79+zF4X6Wm/quoYSlOGVx9PMv8Pvf/wG7dt2CgrwcIYsQfy9j61LQWF2CDS112NLZjI1t9UYhpRuyWClWa9bM6TIe88QjP8YeY+3yMlIlgrBjSyd2XXelFN6TE6KlVsXOH7NQVGNXdK2XehMDoBuNuiLZLVuyEGmJsbJ4j/N8y83f+TEuKhRRoYHwNuou0NdLCIs2kHWpAQPOxMQJ45GSlIidO6/Hiy++aL+jkx9KWIpTDm+++RZ2796N4qJCo4IijcVbh7iIIFQUZaO9sQptDZVoNUqIYU2uDOYGziu3rMd1V3RJNMF9/lyMGD5MiIUW7947bpEAaH5WmozO1FQUm+8bjrqqEkmfs3iem5liiDDDWEEfo66ipP7l77MWq5YvQUl+JjKMmuJFG6bOGfT0Md97kbsrZrtMh8uMqZg8/nKxfqtWrsT69evx1FNP4aMPP7Tf0akDJSzFKYEjR47g6aeflhR3TGS45JMSeEUmKwUNlcXoaKwWguKz3pAUF9hRYW1srZdnU1sDtqxvNiqpA93mI+fu5s12gbvrXFQU50vAs9V87bq1HmiqqxC1tXb1SgQbu8ewKDuEq1cuQ3ZaErKNlaS9I1mFBftJ8JO2z2X6VFFcnO9baEhx6JCLcdGFF2C+6zyUlZXiRz/6EQ7/9a/2Ozo1oYSlOGnButRvf/tb3HrrbuTnZktOKcwQVWFOKuoqCtBcWyZKqt1WUusNSXFLwgabpGgFad34Z5LX+uYa87k6dLU3SC4qOiwIc2fNxNJFC1BakI1a828ceWHUgE9IoB+S46KkNsXIgseKpdJFZC2LKXQW0xnoTIqLkFT8FGPzhg25FCOGXSbkFR4Wgh1XXIEXXnjBfkcKJSzFSYdXX3sNt99+O0qKC2WMxd9rNZJjwlBTlo9Wo35azEM11G5UFUmqR0mRoOyHpEVy6mypFcXF1/LrGqtLUVdZZMiuHDWlBYgKDcK8ObOkIM8O36b2JiRER4i1S0+Mk20JzEwtWThfamS0hyQql5nTZOdVZEig5KcmjB2D4YaoPDxWYcOGTjzyCIOdzp2Z+j6ghKU4KfDxx5/gySeexJauTYiN4tqUtYiLDEJ5YZYoKVo9ISnziOUTJWWIqkdFmcdYtx41JSRlvqauEk01ZWioKkFteSGqSvJQVpAlmSgeJY0MCcBCN1fMnmmFSKm0gvy9JOiZm5ksxfOZ06fB1ZAa4xBhRnWxsD52zChcMPg8KaK7u81HTk62BDvffOtN+x0p/hmUsBROC55hP3DgGVx55Q5kpCYj2BBCRLAv8tIT0WBUUFt9hRTQ2wzx0PI5SEosH8lJHhKWw/LVipKiTSTJCUlVFMkOdRJUibF2nN3j0ruM5Fj7gnK4/Fx28BYtmC/jMnxImCyu+/t4Gns3DQtc58LTKC3WpkaNGIZJEyYgOSUF9977Q7zyyiv47LPP7Hel+FdQwlI4HWQrwt37kZuTJSMsMeFByEqJQ0VhNpqMZaOKojpiIZ11JxKVWD6jolg85yMkZVu+jqZq+RqxfEZNcfiY+6N4PosdvMKcNIkdZKYkyJgMSSo2PFjUFQOcjB7MnzdbVBbVFsnLa42HUVReWOQ2DyOGDpHa1NTJk7BmtQe2bt2Kt956G1+cJOnz4wklLIVT4O1Dh/Hzn/0MmzZuQGx0hKz0TY2PRFVxrighLqujmuoQNVUtRNRj+cxjEZWlpkhgVFxUXiQpWj7HfqrK4jyxdYU5GbLvnInztIRYJMVESv0pMjQAoQE+soiPtScPY/0Wus+T4ruP52rzO0UjxHzedY4Lpk4aj3HG+i1wd0dNdTUef/xxUYWK/zuUsBT9Fl988QUef+IJOcOel50pRBHs64mc1HgpektdyhCO1eUzJGUs3UabpBxKik9P8dyoLaouy/KV96lLWZaPWxF4MYaWjxsQ2OHjrB8DnGGBvgj0XSdjMYwnsA7FGb45s2Zg+tTJhpwmYPqUSZgxxfx58kTzuflITkqSlchc38L3ovjPoYSl6Ff43PyP/Y9/vIP9d+1HQW6OrFeJDgtERlKMqKk2xhAM6cjHBouk+nb5xO7ZSor/3mlISl5v1Fdvl89h+XIty5edKjEERgw4MsMT7pzTCw/xl7EZBkTZ2Vu5fLHslHKdOxsuM6Zh4vixUjQfdO7ZOPusAThv0CBMmTTJupb8pz/hgyNH7Hel+K6ghKXoF2D6/OGf/1yOHoSHBMLfay3SE2OkLkUl1KOkWJdiAV3UlEVSfQvovXUpq8snls+QVH1lUR/LlyWDxXmZyXLzLy0xWjYfxEaEyBAyLR2L5hzF8Vi+RNYKM91ONUX1NGb0KAw+/zz84Ac/wNlnn4VZs2YhJycHP7rvPvztFA92ft9QwlKcMPCSzGOPPYauTZusLp9RM9GhASiyZ/la6sqtYKejLkU11VOXOraA3puXqhL11VRDy1cqa1s4BsMhYy67y8881vJxA0J0WLCsJKbl8zGWj6tcuD2UBXSm2WcYyzd+7BhcNuRSmeMjUV188cUIDg7BDTfcgD//+c/2O1J831DCUhx3vPrqa9h9yy4UFeYhJNBH0uc5aQlST2p1RBFYQDcEJOlzIareupRDTfXUpQyZ8fWsS4nlq7Atn0QRMqUu5bB8KfFRMgrD9TDMTbGTR8vHCzIMe9Ly8U7fzOlTjeUbh+FDL8O555wtJHX6aadhzuzZUkB/+OGHNYpwAqCEpfje8eWXX4nle+CBB9DU2GgNHBs1Ex8VgnKjfISgjCpiEd1KnzsyUw7LZx7HiIytpqTLZ0cRrC5fsbF8hqSKc23Ll4a8jCRkpcTLjb4EY/liIo3lMwqux/KtXinzfD2Wz2UGpkyagFEjhmPweYNwmiGpgQMHYvyEiUhMSsKtt90mkQrFiYMSluJ7w7vvvYdnnnkGGzrXG7KIQLixXUlG3RRkpaDOqCmrcO5QU5bl68lM2bZPHhJVj+WzunxNtYak7C4fLV+pbfnyzPfmFlCubOGAsmNNCzdzBvj0dvm4Z2qh21zMnT0TM6ZNxtgxY3DxRRfi9NNPEzU1fPhw+Pr6iuV79dVXcfToUftdKU4klLAU3yn4P/Yf//jf2LfvDtkx5eu5GpHBvpISr6soFDVEwqE66mi0iudSl3KQlPlI22cpqd70Ocmt1/IVGctnRRGKHZYvg+nzeDnCYNWlgmQ7Jzd2cvB4rcdySaAvcp8vYzIzp9HyjcUwY/nOOmugkNSgcwfBzc0NJSUlckpe0f+ghKX4TvCaPXBcV1uNpPhosXxJMnBcIHWpZruA3ps+Zxyhj4qyrZ8jinCM5av+puXj6SqmzyXYmWgdK+3p8vl7w897DbyM5WOXb4mxfG7G8s2aOQOTjeUbPXK4rG1hTYpENXXaNOTm5uJOzvK9qbN8/RlKWIr/M6imuL6FUYSYyDBjvQKQEB2KQrvLJzum6q2BYxKQVZey1FTfDp9DTTmiCBLsrCmX9LnD8nHguDg33aipFGSnJUiXLymWli8MkUZN8QRWgLen3AXk4PGyxQvksvGcWTPlBh+jCBcZyzdgwBnG9p0ucYTAwEDs379fMlMa7HQOKGEp/i1wEd7zz/8eu3btQl5OlhxH4CxffmayIZcCUUTWLF91nwJ63wS69RxLUnaXz6iwYyxfkWX5uEMqRwaO2eWLNqRoBzuD/aTL57B8K5culAHkeXNnyZZOWj5GEQbaUYQLL7wQ7u7uqKurw1O/+Q0++ugj+10pnAVKWIpvhVde+TP27t2LmqpKRIeHGKLytmf58uy6lGOWrxqdTVb6vDcz9c26lCOK0JM+ZxTBtnwl+VawM8dYvgx2+RJtkooI7rV8XmvhKV2+xcbyuclCPA4fT5k4AaNGjpDUOUmKz7x586QupRs7nR9KWIr/FRwtefQXj2Lrls2Ii4mSBXTJseGGpHIMSZUKSUkCnUqKlo8FdENIDiXV1WP5+qbP7S6fw/KVFQrplRqSYl3KMXCcmhgrh0atgeNAO4rgCa81q2RzpyOKwOvGTJ9zvxQt3xlnnCEkdckllyAyMgI33ngj/vKXv9jvSOHsUMJSHINPPv0UzzzzW1xz7bUozMsRRRMR5ItcY8kcIzI9Xb6+JGWIqacuJZaPJPXPu3xMnzsGjsXysctHy5cUKzuk2OWLcnT5mD73dFi+3i4fowjjx43BZZdegrMGDpC61EUXXSSn49va2qTL98knn9jvSnGyQAlLgS+/+gpvvfUW7rrzThQV5iPKWL54o2wyDYEw2EmiYV3KyktVSRfPQVIOu0dFxToV81IkMUYWuOHz2ChC78Ax61Ls8onlsxfh0fIxfc4RHT+vPgPHC90wf+4cOa81acJ4WSXsSJ8PMtZvxowZKK+owGO//jXeffdd+10pTkYoYZ3CePvtQ6JEtm/rRlxUhOx4Sk+Mlo4cYwRSQG+0CuhUU1RLrEP98ygCSYp1KavL57B8HDjuTZ/3Wj5GEZiZiosMkWAnu3zczik7psTysctnpc/Z5Rt7+WhcMHhwT11q9OjRCAwIwK233oojumPqlIES1imGz44exZNPPYWrrtyBovwc2fMUFeIv+8lZPKciYm3KMXB8zJiMbfv6RhGOTZ/bO6a4VthYvjJ7xxRJ6usDx8daPg+sWbUcy5cuxEJ3a+CYO6bGj7scQy8bgoHG8pGkaPn8fH2xobMTTzzxBL7UjZ2nHJSwThH8/e//wF377kRpcZEUsqPDAozli0F1ibVjyvHQ8pGkaO0cUQTrsbt8Rkn1JakWsXxlVpevZ/e5HUXoO3AcHS7pc47nBHPg2Fg+3uLrHTiehZncMTXBGjgedM45QlKsTU2ZMgWNjY1CUu+99579jhSnIpSwTlJ88cWXeOvtt/HoL34hwc7YqHCjaHyRQcuXn2kV0G0lxUeUFC1fT23KKqBvopqi5TMkZQVBrShCs1FjDQ7LV2Qsn0QR0uRSjHT5uPuc6XMOHIcEINi/z44pY/mWLXKXwwxzXKZjCndMjRqBwYPPw+mn/UBGZWj5QkPDcNttt0l9TaEglLBOMnz00cd4+unfYNvWbqSlJImiSYgKQZEcDy0UReTIS/WNImywVZRFUg3oFDVljchIwd0QFe1i37XCZQXZ/9Ty9Q4c+yDAh+lzWr7etcJzHZZv7OW4bMglOPNMK4owdOhQBAQEYMeOHfjDH/6g6XPFN6CEdZKAS+Q4cFxZViy7nmJCA2S9So2xaSQpK4rwtVk+2/KRoLi+xZGX6mv5hKQYRTjm3BWjCEyfJyHTkT6PibC7fEyfr/ua5WOXz1i+6VMxyVi+EcOG4lzb8vGZN88V1dXVcjz06NHP7XekUHwTSlhOjL/85Q3ce++9aGttRmpSnLFd6xBvLFhlUY5NUnb63CikvmrKiiF8vctnWz7zWlo+FuC5+7xn4NhOn+emG5KSKALPXZGkHJbPSp9zx5THiiVYstAd7sbyMdhp7ZgahgsGn4/TjOUbMGCA1KXS09Oxe/duWd+iUHwbKGE5GY4c+VAGjrdv24rMtBS56kLLRzXFrBMJhyQlXT5DQH3rUj1EZdelrBEZbkWw6lLWIrwS1NhrhWUrAgeO+1g+bkXgz4wMYxTB79gdU8byOdYK0/KNHT1adkydecbpoqQuvfRS+Pn5ySUZDhzrjinFvwslLCfARx9/jBdffBH33HMPigryEejrhdiIIBRmpaC6NE8K4LRvvCLjsHxSl5Li+bFE1bfLR6JqrnXM8jl2TFmL8NjlyzaWr7fLZ+0+Z00syPx8WSvc1/LZO6YmjR+PYZcNkfQ5SYrBThcXFxQXF+PZZ5/VupTiP4ISVj/G//zPq7h7/360tbRIsNNvnYdROOFGARVaJGVsX3u9paTWNzFh3ktSDqKSulSrvfucJGVe36um7IFjx7mrngvHfdLn4cFy3ZiWz5eWTy7JWLN8HDh2mTkNkyeOx+iRI3HhBYNlrTC3ds6ePRvZ2dnYe8cd2uVTfGdQwuqHYN6orbUVCTFR0m1LNsTBjZ0kGakxsYDOKILjkoxdQBcVJQ+DnRZJWcVzps8NSRmC41phEp7j3BUHjsXypTq6fNZaYQ4cS5fPe629Y2q5vVbYunI8bfIkXD56FC4xlu8se30LC+mhYWG4fe8evPLKK/a7USi+Oyhh9QMwivDyy3/Crbt3Iz87U9RMTHggctMTpOgt6XNDVFZdyiIqR7Czx+4JSVldPibU+Vrp8tnnrmj5qkryeixf7yWZeOnyHbNW2HcdvI2a610r7Ip5MnA8FRPHXd5n4Pg0GZdxdZ2HxsYGHHj6AI58qMdDFd8flLBOIKwdU3tQVVGG6AijakL85ahnRXG2qCkeaDjmeKgjitCngE4LKFEEW01JAd0QHOtSYvn+ycCxWL5Eu8vnCHYG9N0xxS6fG+bPm41ZxvKxy8e1wucNOleU1ICBAzFnzhyUlpbiwQcfxN/+9jf7HSkU3y+UsI4z3n3vfTz66KPo2rQB0ZFhCPBZi9T4KBk4bqiyBo57unzNvQV0K31uEVVvl4/BTpuk7LpUQ98ogvmeXx845lphps8jHeeuOHDsScvHSzILenZMOQaOufv8DPuSzLBhQxFmLN/OnTu1LqU4IVDCOg74+ONP8NRTv8HVV1+F/LwcsXxhgd7S5WuuLTOKyFqER+KRKEKTUVLNxvK12AQlds8eNmYUwVZS/Borfc4dU/bu8z6WL9tYvvTkuN5zV2H2uStfz56B4xVLFhrLN++YC8dDL7sUZ9uXZDhwvGbNWjQ3t+Dxxx+335FCcWKghPU9gbN8b7/9Nm7dfStysrIQHhKIiCA/WStcUZTTE+psMx97LB9Jqo/dE6IypMV/t7Z12nWpPpavRixfzjGWLyvVCnb27D5nFMG+cCw7ppYtFsvnRsvXZ+D4vHPPkS7fOeecg+nTp6Oysgq/+MUv8Pe//91+VwrFiYUS1neMQ4cP44knn0RbWyuCA63NBLw+XJqfYQimSGbyWGsi+fSQVB/L93U1ZdWl/pcLx3b6PE9Iqq/lC+1Jn3PgmDumVnPHlFi+OcbyTRfLd/mYUT3p8zPOOB2jRo2SHVP79u3D+++/b78jhaL/QAnrO8AHHxzBY489hiu2b0dmeqpRMqsRHuiDktx02WhAopFgJ0mqj5qyMlOOUGeDRVLmc71dPlq+MjRUWzumKkvy7fT5sQPHKdwxJcFOR5fPy1orTMu3dFHvjqlpU2THFNWUI9jJ9Lm3tzc6OzvlSrNC0Z+hhPUf4PXX/4Ibb7wBWZkZomjCA72RkRRtFFC+VWMyhGMRVTU6mmuw3tHl67F8VpfPMSJjZaaM5fv6uavCbMlhWTumku0ogrVjipYvLMhfLJ8fLR/T50sdA8ezMXP6FGvgePhQnH/eIFFTJCpXV1fZfc4GgK4VVjgLlLD+DXzx5Zf4+z/+ITum6utqEeTvK10+zteVFWaJGpK6VCM3I1SJUrL2n9u1Kfvhn6mmHCTF17KATiXGgWOmz3mTj1sRHOnzrJRvWj7rkgwtX+8lGTdX69zVVIkijDCW7zyccfrpGDDgTAwfNgyRERHYs2ePXpJROCWUsL4F3nnnHSk+d3S0Iz42WmxXrFE2PB5KFdRKkrKDne09Gzs5JlNnkZRYPrsu1YekmFiXRXj2jqme9Lmxkj2WL5mXZOwuX2gAQu0ogje7fB72WmE3154dU+PGjsElF1+EAfaOqZEjRyIwIBDbt23Hc889h08//dR+VwqF80EJ61/gpRdfwu23346sjHTZ7xQZ4tezY4pqSjp9hqR6d58by2dIydHp40crL2UVzxkCdXT5etLn5ns5dp9LFMGQVEZKHFISuGMqHNHhvelz1sY4cCzpc144ZvpcdkyNlx1T59iXZM4880wsWLAANTU1OHDggP1uFArnhxLW1/Daawdx9/670dLchOiIMPh4rkJCdKhFUkYNtdTZRxp6LF9fkrLsHrt+nSye20rKsVa46Wvpc97ko+XLc6wVluOhjh1TjnNXtuWTgeMFcJs3V6IIMnA8aiQulmDn6TImM27ceMTFxQvJMlKhUJxsUMIy+Oyzz8Ty1dfXITYyXIZ+I4J9kZueCF44bmeanMVzkpQhIZKRpaZIUA32xs6vWT4HSRk11TNwbO+Y6ps+dwwc8w5ghJy7stPn3DG1ytoxxbXCc2a59EQRLrnoIpw1YIBEES6++GKEh0fIuasXXnhBLZ/ipMZJQVg8qf7Ou+/KCatvi48/+QSvvvqaqJHM9DQpXkeHBxpLloCqklyrgG7snhTPGUfoISmqKZKUpaZYUO9bl+pJnxs15Ygi0PIVS5fv2IFj2TFlLF9vsNO2fMssy+c610XWCk8cP07OXfXsmDpvEFxmzkRtXR2ee+55vXCsOGXgtIT1wgt/xL477sDGDZ1oqKtFU2M9tm/txt49t+P++36Ep558EocOHbZf3YsXX3wJd9yxD7U1NbIx09dYvrT4KIkPMErQwiiCIR4SELt4Vm3KcaTBQVJWXcra1mnVpRzBTunyOQaO7XNXMnBsSKpnrTDT59wxxSiC1xr7kswSLF3IHVOOgePxGDN6BM4/7zwhqYEDB8qOqeTkZEOyt+Gvf/2r/Y4UilMHTkVYf3njDdx3331oaWmSFPkit7nwXLUEaQmRchWGJ6w4o8eHnbWy4gLsvP56PPTQT7F//93o6tqE5MQ4GVHhZoSinLSeAw0kHHb5WJfqaKq1SEoyU3wc6XPO8Rk1ZUhKunw2SbHLd0z63JBUT/rcWD6JIti7z0MC7PQ5d0zx3NXi3gvHUydPxFhj+S69pLfLx45fdHS0nLvioQmF4lRGvyeso59/LgvtOtrbkBAbJaokxH8d0pNiJAog4ypVxVLMJoFQ/XR1NBpCqZQZO3bfkuKi4T6fdaAZskmT+6QsdcRwp51Ap5KyC+gkJymef8PyWcRmdfkYRTjW8jl2TDkuycRHhyMqLFgGjh0Xjpk+Xyk7puZbA8fTHBeOL8U5Z58lmxHOPusszJ0zB01NTTjw9NNal1IobPRLwvroo4/wilETt+zahaTEeDlywAxSulFQVEVUMyQMkhQ/krREIdHKNTA+YHXvSFxbN7RIkZyEwoL26pVLpRNHBbV1Y0tPHIHkZKXP+xTPzfdxWD7HwHFv+pwkRcuXaixf7yUZOXdlWz6pSxnL940dUzOmS5ePl2TOH2Sduzp30Lli+QoKCnDf/ffh8OFv2lmF4lRHvyIsXlK568470VBfg/DQQPitW43E6FAU56ZLqJKKhiTFh907K2LQmyqXwrghKhIQ95tzPQsJqLuzGVd3b5DPUflwY0GIv498v2u2bcS2jW3yOZIXu4COLl+zbfkc6XPWpcTy8dxV34HjuG/umLLWCluWT85dzbQGjrlj6uKLLpAYAomKwc7wsDDsMuSsJKVQ/Gv0C8L69a8fR0tLM/y8vTDX2LZF7nPN//heUrBurC6RzhvVDR8qHcfuKEdhnE9vB88iKT5UTH0DnNs3tePqrRskUsArxMw4USmRrPg6WsNey8cdU45zV/aF4yzHwHGcXDi2Bo7tHVM+tHyr+wwc88LxTOvC8bixMnDs2DE1+IILsHz5clRVVeGxX//a/q+gUCj+fzhhhPXpp5/hoYceRElxAVYsWwzXOTOxatkiRIUFIcuQAi1cplEwvCZMVUQb2KOgjBJa3+jo4BmikuL4sSTlICohK/N5S3VZpNa9sVViB9xZvmD+PKk9dXU0SYewN32ebUURzOfkeCijCEyfRzN93rtjiirQ2jFlLN8CN7jKwPFUTJgwVgaOub6FJMVz7LNmzUZtba153w/h0KFD9n8JhULxbXHcCeurryAzbWmpaRh3+RhMnzIRvp4eYq3SEmMtixUTgUC/dYgKDzIqp9iQSxly0o26McTBxDkJa3NHoyEjR9zAqj3Jw3+zH9aipB5l2z0qKCozkhdVGZUTT6tzPTCL47R9VFU9A8fS5YtBYp8uX++OKavL5xg4nmV3+caMGokLBw+W4vkZZ5yBIUOGwM/PF3ffffc/jVkoFIpvj+NKWJ9//jkOPPNbSZSzAL1isZuol8qiXIkCUM3w5BSfwuxUZCTHSgGbQcum2kpDTk2oM1aNVpEXYLasb8a2jS0WQRlicjyipmxS6gl02oVz6SpKDaxM1BeJid061plo9bhemD+Pls8aOHZYPg4cr8KaVcvETjJ9Tss3beokq8s3dAgGDrTOXQ0fPhyenp5ob++QK81fkaUVCsV/jONKWNy7xB1MK5YtRVxkCCoKc4SoHCTFh6TleEgefBKNDQs3pJGbkYItG9px/dVXoLWxVrJO7NhtNsTV1d4oJGUFOvuQFAvnrEmxw2eIigqKlq+qxDzmI1UWow7rjGIiiVI9ceiY1rSny+ex0thV7phi+nyWWD4OHI9kl++8QUJSfObPd0NTU7OM+Xz44Yf2u1YoFN8Vjithvffee2hvbTHKaiFijHIpZSzAVlW0YUyGl+ZlyKZOB1nxIbEV56Qj1lhEbtWsLCvCls0bsbmrEy0N1aKYaPVo+3jZ2KGkSFL1lSVSl2INjAV06fQVZMn3ZSSBe6zKi7IlJ8XjoDwUGuzvAz9DXKtWWFEEXjhm+nzypPEYNXKEXDg+09i9M08/w/x9JBITErF3714cPHjQfqcKheL7wHElLM77bVjfgbXGVsUZ8ikxpMHLw6X5WTIE7LFsCcaPZYhyCIYPuwwzpk2RrhsX5JHMOPKSlRyHsABvVJYXY9fNN6K9rQVZqYliERlFYNyBBEYlRZKikmICvcwoKeam5NKxnZ1ijYpBT3b+qKa4roXh0kVurkJc8zhwbEiMUQTHjqnTTjsNw4YNk7XC3d3dePbZZ/HpJxrsVCiOB44rYb362msoLy3BgvmzER0aIIRCpRNt1Jbb3Nmy02nIpZcIaU2bOhmTJ07A5WNGi/1iVIB1pepio5IM+UQE+0kBvLOtCTddd6UhoyykxEeiptwKlTK3xchCiSHDInb7jPVkvYqF+4yUeCnup8RFGzKMEgvILZ5UVbR7w83vMWb0SAl2nnu2tWPq3HPPlbXCjCJw9zk3PCgUiuOL40pYhw8dEktIhRUbESwdvyJDJAHenpg5bbLM0U2aOB6zZ84wSmembNFkQZz/xiOeXK3CxHi2UVQs1OcbAspINiopIxUlhblGSVljMqxL9e6aShEVxRXDVHG8eMygJ8dmYgxJRRqyZKcwzvyZ2zx55ZgqiiTFTt/YceMQFRUllk8vySgUJxbHlbCOfPA+tmzeBJ+1HoiLCBGlVJiVKp3AZYvdhSx4MGHWzOlCWFONHaPSoSWba/7O3BQT6lEhgchIipOie2Swvyiv7o3taK6vRmigH6LDgiVbRUXFQ6IkKb6GGSoSE+tgjCiw+0cryEJ7oI+ndAD58ydPmigDx1dfdTV+97vf4ei/sbZGoVB8fziuhMXO2U033Yh4Y8NSjMopyUkXwuICO5LR1CkTRUXREo4eNUIIjHN4ORlJElG47orNknKnFeTGBUYieOKdGzuTEqIRaYiP3T2SU2aKRVS0e4wnMIAaaUiK64aD/bwlmc79U7zZt2blclnt4u46B4sWuKGyshwvv/yy/VsrFIr+guNKWKz7/PKXv0JrSzNy0pKQl55obF0KQgJ8jYJykUV1vEK8yN1V1FBTbRm2dDJr1YruzhZ5SFy8ckylRALikVJuRwj09URcdBiqSguRbb53GLeGms8zlc4zWFzrwtdwHIfD1DyH5WHsJTNVixe6GRs6TU61L1m8CK3Gtr7++uv2b61QKPoLjithER99/DF+9tOfIjYqHOtWLTXElYC0hBg5n84BYZIX17twKJlDy0yx902sMyy61RAY61irly81xORnRRSMUqNF5F50bu3kLB9VGEdo/L05jGxIyqg1DiSvXLZIEursBHJ7wmyXGRh3+SiMMapu4QJ3uY6jEQWFov/huBMW8fJLL6G4MB8+xpLlpMaDh0LTDdEE+HjJk5mSKJ0+a0bwWMLaTMW1qQ3lRbmisOKjwqTAzkwXO38BvutENfHhJk+fdR5Ywx1UhhC5OYFXkJmrYk2MHUGO0zCpPuics3Hh4PMRFBSEe+65VzJjCoWif+GEEBZV1oEDz6CjrVXiCQlRwYawYqRLV19djn17d6OzowXpxu7xgANtIZPsmzuasL2r3fy9RcZnWHtih491rHLz8BqyDCR7r4GvsX5UU0sXu0tCfYHrHLjOcZEA6PSpk6S4zsjEqBHDJUrhiC5s3LgRH5vfT8dpFIr+hxNCWA7c/8D9iIoIE6Iqyk5BfkaSLMHLykhBS0sjtnV3oaOZy/Sqhay4+oVhT9ahXGZMk2BpiL+3hEarivOk80iS4hVkFvFJVJz3m+0yXV7LXNf4sWPkPBaDqZcNuaRn5cv555+H6JhoPPLII/Zvp1Ao+htOKGEdPvxXPPjgg8jOSIeXxzKkxEVILSolLsooLh4TjUMoj4ga1WRZvUVY6DZXCIlHG0hOnElkQJQPN4l6e67GGvvYKNXUxPFjMWH85Rhr1NRIo6aYor/wwsGy7oVExYdHR3fecAM+0cS6QtGvcUIJi6Dz+vGPf4LC/FzJY1kHJdKQk5Zo/h4En7WrJTzKrQisQ3GT5/y5s+XPDIKy4M4RHz5cS8PjDvwc91xNsBfnkaQ4WsOd6Q6SGjNmDNLS0rBv3z688cYb9m+jUCj6M044YTnAI6AlxUUSN4iLCEZBZooU40lIJC8GRTMMQfEjYwy56ckyF8htDxyMZtGdymzNymUSOp0w7nJceunFOOcci6R4HXnEiBEICwvDNddcIz+P624UCoXzoN8QFovcR44ckVuDPBG/zmM5kqLDhJC4rYEKin/m4yCq/MxkIS6SGsmNm0mXLV4oNSrH0dGLLroI7u7uaG1tw/PP69FRhcKZ0W8Iqy8OHT4sifjYqAiZOwwP9BHFVcmtCxxmNpaRtS6qqprSAukScoB6hrGN55w1AGedNRAuLi5IN5bv/vvvxxdffGF/Z4VC4czol4TlwMHXDmL//rtQVJgva4znz3WBpyGwhKhQZKfEIT4yFP5eazBl4nice/ZZmDJlMioqynHXXXfqaI1CcRKiXxOWA0eOfIgnn3oKdxoi6urqQkpyIlYsX4o5s2dhzpzZiAiPwDXXXosXX3rJ/gqFQnEywikIqy8Y53z33ffwxptv4o033pRbfnoZWaE4NeB0hKVQKE5dKGEpFAqngRKWQqFwGihhKRQKp4ESlkKhcBooYSkUCqeBEpZCoXAaKGEpFAqngRKWQqFwGihhKRQKp4ESlkKhcBooYSkUCqeBEpZCoXAaKGEpFAqngRKWQqFwGihhKRQKp4ESlkKhcBooYSkUCqeBEpZCoXAaKGEpFAonAfD/APYk1Fhns9ieAAAAAElFTkSuQmCC;clipPath=inset(16.9% 10.67% 12.07% 8%);aspect=fixed;" parent="1" vertex="1">
          <mxGeometry x="270" y="307" width="200" height="120.41" as="geometry" />
        </mxCell>
        <mxCell id="KAyXB3LFF11qL9irPbgj-12" value="M8 flat washer" style="shape=image;verticalLabelPosition=bottom;labelBackgroundColor=none;verticalAlign=top;imageAspect=0;image=data:image/png,iVBORw0KGgoAAAANSUhEUgAAASwAAACQCAYAAACyAlbPAAAAAXNSR0IArs4c6QAAAARnQU1BAACxjwv8YQUAAAAJcEhZcwAAFxEAABcRAcom8z8AADGDSURBVHhe7Z0HWJTnssfPufek2XtBuoAVe0Us2HvvHXvBgooNEWmCWBBBsAAqVUBR7CIqKFjB3ms0JrFryknP+d+Z2V3j9ZrcJMDC6vt/nnl2l12W7/t8vp8z88478w8oKSkpGYgUsJSUlAxGClhKSkoGIwUsJSUlg5EClpKSksFIAUtJSclgpIClpKRkMFLAUlJSMhgpYCkpKRmMFLCUlJQMRgpYSkpKBiMFLCUlJYORApaSkpLBSAFLSUnJYKSApaSkZDBSwFJSUjIYKWApKSkZjBSwlJSUDEYKWEpKSgYjBSwlJSWDkQKWkpKSwUgBS0lJyWCkgKWkpGQwUsBSUlIyGClgKSkpGYwUsJTequ+//wHf//CD9pWSUsGQAtZ7pO+//x7nzp1DeFg45s+dA+fpUzHTeRrmznbB/Hmz4eY6T2yuyyy4zJgOl1nOcJnpLJ9d6u+PhPh4HD9xAl988SV+/vkX7bcqKelPCljvqP5D9vzFC5w7fx5hYWFwmjwJfXv3RI8uHdGpnQPaOdijbctmaO/QHF3aO6BHp7bo3bUD+vfsgiH9emLk4L5wHNoPwwb0wuB+PeA4pD8mjhmBqRPHYMrEsXAim+I0EYvc3RAVGYmsrCw8ffpMgUwpT6WA9Y7p4cNHSEtLg5+fLwb074NmTRuiOVnXDq3Rt0cnDOrbA6OGDcKksSMFPtMnj8PMqRPhMn0S5jg7Ye7MKZg3cyrmz5qKBbOnw33eTHi4usBj/ix67gy32dMwf6YTfcYJri70Ofr8DKdxGDV8EMaPcURAwHKkpafh+o0b+Pbf/9YelZJS7kgB6x3QN998Kx5O2Pp1cBwxFC3sGqNdq2YYNrA3xjkOwaRxDKdRcCawzGI4TZuEWdMm0vMJBCuNudDrOc6TMW/GFILQVILRNLjNcYb73JlYRNDydJ0FL7fZ8HGfC99F8+HnuQBLvBbAn2ypjxsCl3hiKT13njQGI4b0Ew/M18cLmzfH4djx43j58ivt0Sop/X0pYBmw7t69iw0RERg5Yjjq1akFY6PysLY0Q5MG9dCcoNWsSUPY2zVCS/umcGjRTKytQwt079wBIwb3g/PksVg411lA5LVgNjzIPHVGXhU/8nveC+cQqOZhMZmfhyuWeLpqQOXtRrYQyxcvInPHyiUeCAnww9pV/gha6k0e2lTy5EZg2qRxWOg6D0GrApGRmYFfflFho9LfkwKWgembb7/F3r17MWzYMFStUgUlihcjKwqTSkaoYl0Z1arawNrKElaWFmKVLc3feG4pn7Mh48/x89q2NdCiWRP06tYJY0YMEQ/M03U2/L0XIMB3EVb4egiYlpBX5e9FkCKPigG1gt7j9wPIuwr090LgUi+sIlAFLfPB6hV+CF+9HBtCV9JzX/rd+QTAWeLlzZvjgh07duDrr7/RnpWS0p+TApYB6JtvvsHp06fh5+eHli1bokzpUihR7DdI1axeFbY1qqNWzT9ntjWqoTqBrYq1FWysCF4ELjYrApqFmQmM6Xv5/U7tW0uinfNYDCT2nNasXEJA8kaAn4cY/3wVASpouQ+Cly8WOLGXFUqfWxPoT7+zFGGrV2DjmkBErluFDSErCHYLybsbJyuQCQkJ+OzBA+2ZKin9sRSwCrBevHiBlJQUjB07RryjkuRJGVUohxrVqohXVPsVhKoJhP6qvQkxDfg0P69iYwVT40qoZFSRPDlrCiftJIycN3OKhHub1hJ81gQQlJYIpFYH+P4vSK0PWoaw4OXkZa1AREgAwkMDsGHtSkSuD0LchlBsiVpH8PPD7OmT4DJjKjZt3IBLly/jP7y8qaT0O1LAKoD6+ZdfcObMGThPn47KFhYoVbI4zEyMBCZ1atV8BZy8NoZiHdua4m2x11W+XFkBZ+OG9dCnRxfMneGEUPKmGEKbyHtiQK0jUK1nUJEnFcGQIs9q49pAARx/LjosGDHhIWJbYyKwa0s0eV0BsiLpPGUiglcFSq3Yjz/9rL0aSkq/SQGrgOnq1avw8FiEWgQKDagqiUfFoNJ5Qvo2/rv89xlgVcnzsjA3hYmxEYyNjNCwXh2MHj5Y8lgMofjIdQIlBpQmDAxCFL2ODluNmIgQ8q7WYPPGtYjftA6bN9Fj5HrsSIzC7q0xiKP3A3zd4bPIFWHr1yIrOxvfff+99sooKSlgFQj9h+Kgb7/9lsK//XBo2QIfffghwaCCeDYMifwC1duMj0V3TNWrVoGZqTHKly+H6tVsMLBfTyl1iCcQbY/fiITo9YgOXy0WFxGKeAJVAoEqMWo9EqPDxLbGRoht37xRoJWyM0G8rmU+CzHbeQo2bYjAvXv3tFdK6X2XAlYBEC/zh4aEoGGD+jAlz8XK0kzySQUJVG8zHbz4uaW5OYwqVpTVyM4d2mLhvJlIiFqH/ds3Yyd5UOx5xROotsSEC6CS4jZgG1ly/CaySOxIiJLP7SJo7dseh7R927AnKUY8N4+FroiLi5NiVKX3WwpY+axHjx5h+/bt6NyxI4oXLUzAqpiv4d/ftTq1NF6XNQGrEnmH5qYmkqh3mTYZseRdpe5MxF4CEXtS7H3pQLUzMVo8Kvau9m6LFVjtT45Hyo5EHNqzDZmpu7Bt8wYs8XbDEl9v7NmzR60qvsdSwMpnRUdHo5atLcqULikh4NtgYEimCxe53IJXGDnX1aRhPSljYC/ryP5kHNi5hbynWAEVP+7dtplAxZBKoPcSkbprC9lWAlYSeVrJOH54L06m7ZW8mIfrHKnov3L1Kn7+5VftVVR6X6SAlU968uQJIiMj0a1rF5hUqig5K77RDc2z+j3TnQuXRHC9mKlJJdjbNZaaLvagThzeg4O7twqk9icniEfFoOKfHd67Den7tiOd4HYkZQeOHtiJ44f24NyxQ8ig18HLfeHn4yE5v0ePHmuvqNL7IAWsfNKxY8fQulVLfPLRh7CubP4qF/SuGUOrDp0bF6ZWrFBekvQ9unbE2qBlOJm+n7ynfeJJselApYNUBoWDmQd3ix0jYJ1I24ezxw/h2tljSNubhFXLFiM0eJUU1T55+lR7ZZXeZSlg6Vm8Ivjlw4cIDQ1Fg7p1UKJoEe32GP3VV+WHMZDZuCSiYnkufrWB03hHCQWvnsnEKYIXQ0pApQUUh4IMqZNp+3H6SApOH01FVsZBZJOndTn7KK5kHUVMRCh8vT1w+NAh/KqKTt95KWDpWdxEb8vWLRjQv5/UV1mamcjjuxIK/n/G3lbN6tUkt8XJ+WZNG2Gxh6tA6dq548g6eoAgtV+MIcWv2bIzD+IM2VmC1Rmy8yfTcYmAdSU7Q0LH4IClWLt2DW7dvoVff1W5rXdVClh6FtdbLXRzoxu2EoyNK8JWux3mfTP2tngDtlHFCjA3M0XvHl0RGR6C6+dO4NqZY8jOSBVjSJ3JJEgdP0zh4GGcO5GGcwQrtgunjuD6+ZPyOxkHdiBy/WoEBQYgPf2I9morvWtSwNKjfvrpJ6lkHzpkCD7++ENUrFDOIEsYcst0K4qc16pAYWIteu3i7CSh4Oc3L+Di6aMar0oLqvNkF7SgYrtE7188dRRXzx7H/evncO7YYcRuWIO1IUGyB/Pe/fvaK6/0rkgBS4+6ceOG9EZv3aoFzE0rwdrS/L2F1etWl6DNJR1lSpWUUHHIgD7YErsBd69k4/61cxL+sUd1UQupS1kZYleyM8Uuk0d2hezetbP44vZF7NoSgyXei7AtaSseP3mKX1Ry652RApYetX//PvTt01tCIV41exfqrnLLGNwMLk7Kly5ZEg4t7LEmcBkukQf12Y3zuHHhlHhclxlSWkCxZ8V2jUJCCQ3Jbl48jS9uXcTlrKNYE7QCq1YGyH8UKq/1bkgBS4+KioqkG7MGeRIlFKzeYrW0xtemdMkSqGxhDvf5LgKpBzcv4valLFwjQOlgxbkrthsMKgIa2y0C1qdXz+I+Qe72pVM4tGc7NkasR9rhNAWtd0AKWHpUbEwM6tWpjXJlSilg/YGxt8XXh72tShUroH+fnji8dztefnkXn1KIeE3rTbHXxcZe1S2CGdudK2dw+3I27l0/h8f3b+AihZJRYSHYHL0J169fx1dffa3911AyRClg6VHsYdWsUV08rPwsZeC/y1bbVtM2hvcB8s85TDU3NYaluQlsKltIfRi3k6lWxRo1BLCaDdn6OG5OyFena2TM23sqGaF9m1aICA3El3cu4+UXtwVO4lHRIwOKQSXGz8n4ZzfpvQc3L4h3tm1zJPx9fZCRkaH911AyRClg6UlcfxUQsALGxkYoVrTwq5vyzRs1r0wDKM3fq1bFRroqcEdRrj4vUrgwChcqhOb29nB2doajoyOa2dnR52vCxtpKNjJzXy42BhqDjbuc6lb53vxbuWUcHtatbUsANUMpChEbNaiHJd7uuHDqKF58eYfgdUXjVWkBxabztNjrYu+L3+MQ8dzxw9idFIeYTRFIPXgIL1681P7LKBmSFLD0JK6/WrZ0qayCFS9WWNrH6ANYDBRd6QR3UuDygeLFiqEYWYnixQlWhQhaFdC5cydsjtuMf//73/jhhx/w8quv8Pz5czx8+BDZ2WcQHh6OcWPHwq5JY/F6SpcsTo/lxfvi88jLc+Fj5+tVijxTLoFwne2My1mZeHzvunhPDCUJC8n4UUwbLkqei8LHL25fklzXpnVBCFq5Qrqa8txE3nmgZDhSwNKTHj1+DB8fb/FQSpUophdgCUgYVBTelS9XhkBVVLqYcl94SwszGFeqiA/++7+kD9eWLVsEqv+fnj9/gW3btmHa1Cmws2si4RqfD2/g5r/JHtGbx5FbxmGpHDcBc1C/PrIP8btnD3Dv+nnNCqEWUgIqznNpk/K8isjGILt37QwO79uGpUt8sXVrEn7+WbViNiQpYOlBP/74o6ZHu/N0SSSXL1tabsC8Cqf4e+sROLgjKBen8hgwrnHijhDcHLCKtaXkqNh42s7MGc64c+eO9mj/vO7fvy/wcndfiFatWko5QrkypV/BOLfPj3Nt7NGVLV1KhmTwsNbU3Un44s5lPLx7VSDFq4gaSGlKHth0ZRDXz52U8DArIwXREaHYGL5WNqE/fPRIe0ZKBV0KWHoQL6ffvHULrq7zZYxWWQpt8qqjqM5r49wTD44oV7YsjAhU7GVVr2IjW4E0+/ls5LFDu7YUqi4T+OREFy5ehKenBxo3aihAMalU4dXCQm6eJ38Xg4u9wxIlimP4kAEEoFQ8uX9DclgMpatnfoMUG5dFiFEYeel0hoSOdy5nISl2A5b6+uBIejp+VaGhQUgBS0/i5XTOYVlQSMjjuvIqJOR8FT9y87yy5O1YWpijJr3m+q96dWzRqH5dNGlYH3VrVUdTenQcORzx8fF48iTn7VkYzDwyn/dK1q5lK+dpZqyZcZib4OLrVtXGWvYg8gLAwL69sGtrLJ5/fhsPbl6SKvhXkCLTVcazvV58evrIfuxLjkdS4mZkZGTi+YsX2jNRKqhSwNKTeBiqv5+f5F+KFSkkEMkLYDEcrMib4lwZD0blHFajBhpI2TVuIBOeWza3Q8N6tdDKvglcZs1AWlqaHF9uiRP3hw8fxlQnJylN4JyZDHzNxVIOXcjJISh3fRg/egQO7tkmXtbdK2cESOxNXSKviiH1yk4dxbkT6WLsaXHnh8Bli7FyxVJ8pvYeFngpYOlJvPF59epgKREoTsDi0Cy3bl42nQfD1eF8A1cjD6Rpowawb9IQ9k0boaV9U7RuaS/1TJ3atUbDurbyc28vD1y9ek2OL7f19ddfI/VgKvr37UthYkkYVywvnuXbjj8nxrk4nobduWM7pO5KwosvbksCXrNJ+qjY+ZNHNHsST6Th7LHDyM48JM9PH00h7ywKMRvXYkfydly6fEUl4guwFLD0qJjoaPIMakoOK7cr3V8Bi7wqbkfMRaGtWzZDm1b2ZM01oGrfRrp99u7WCfVr10Bzu0Z0TJHI6+wNl0YEBgZSmFhTvEsO43LLu+Tv4WvJiwvW9L1DB/VHQnQEbl/SVLszqLjbAxt7U1mZ3ATwgHQ75eaAp48ekAaCe5Li4O46RyZQ/5nVUqX8kQKWHhUbrdmaw6uEeQEsfuTQi1cBmzaqR4BqjS4d2qJrx7bo0aUDevfogoF9e2BQ315o1awx2rduiZDVQVJywaPG8lIvXr5EbGwsunTuhLJlSqJCudICm9wEFxfCct7OcfhgnCAgccsZ9qqyjzGkUgVOp46kaFsz75WupscO7cWp9AMyjownV0esD0VmZiaePH2mPXKlgiQFLD2Kh07I1pySue9h1ahWVSrYeSWwfp1aaEteVc+undCnR2f07dkF/fsQqPr1wtCBfTB8cD/07t4J/Xt3h7vbAqSlpedqDuuPdOLECTg6joR1ZUvJbdnQI8NGB9y/a/z7DGszE2N5PmbkMCQnREtOi3NZAqjD+wRQmal7cPTALhw5sBPpKTtwaN92HDu4WwZdrF7pjwXz5yA9PU17xEoFSQpYetTOnTvRqWMHWJqbys2VG/sJdVtkuD7JwsxUoNXS3k5gNbBvTwzu3wtDBvTGsEH9MGJwfzgOHYDRwwdh2MDeGDNiELw93HEwNRUvyQPSl54+fQo3NzfZcsO1YXzsmnPJ2bXQga90qZICroXzXXCBQsKLpzIEVNwr/giDav9OGR92mEB1aO82pO7ZKs/TyKLWB2G5ryfiYqJw9do1qYZXKjhSwNKjeLrLDGdnqSyvbKGBVs6BpdkjyHkhTrZzWUPfXt0wksA0nCDF5jh0IEFqMMaOHIzxjkMxcfQIsmGYQOY0cTzWr1+HB3oeTvrs+TMkJSWhadPGKFL4Yzp+Czp2vhZcAmFNVoWec4Keoc5AY4+U36NHNjl//rzufX7UANzCXLOBm3N4nm7zCEbJkoDn6Ts8mYchdXB3ksw+5BmJPGKMh2GwHd6TJBOofTzdELgyQHUtLWBSwNKjnj17jsSERPTs0R1GFctJEWluAYsTztyKpX7d2tKxc/yo4QKpMWTjKDyaMHo4Jo0dCafxozB14mhMmzQGUyeMxqTxoxEctCrHhaP/n7gVFS++vZ4q+/HH54iKikCnTu1li4+xkRFqVq9F1kDOrbYtX5/K5IE1IqC1I8C3Iq+0Dr3HK6w8acicPstdHRqiRnVb+pkFmSbEtLGuhlIlS0sZR1TYailpyEzdLaA6sJPnISbKPESGFA9y3b01Vox/tn3zJiz3WUjh4TJcvXJJdiooFQwpYOlZN27clJ7uH374L1QoX1Y8opxASwcs9tY46cyve3XrRN7UEAHU5HFsjgSpMZg+eSycp4zHrGkTMHeGE2ZNmQDHYQOx2NsTd+7c1h5h3uiHH3gsP8C1mTxC8OhR4MgR3psIxMVtJsA0RaGP6xPEB5L3ORTmpmMprJuEyuaD6fVAmJo4kU0l72korCz7oopVe1Sv2hhVbVrBqnJPAnYHWFfuQO8PQ2VL+oyVPXmcxvQZKwqF+0lrmqMpOwVaDCWGFK8MMqS4pfKOhGgkJ0TSY6SMxo/fuAZhqwOwNjQERzMyFbQKiBSw9Kyvv/oKLi4uKFu2DHlE5XMEK51xGMQTlrllDMOrS8e2Aixnp3GYMWUcPY7FrKkTMHvaJMxxnoz5M6fCc8FszJs5BX27d4LThLHIyjqtPcK8EXtY338PnDkDrFsHeHsDy5cDERHA7t2P6PEIOnWcheJFaxOoTAlgfVCxgj95ou4wM50ME+OZdH79yJtqQHDqRjCaS+8top87E9zGCNz4sxUr+Ai0bKtXR93aZlJAW7F8eQwfPEC8KV4hZFDtTIzGDrJkCv+2x28iSG3E1rgN2BITga2xG6Ryfs2qpZjuNBER4WH4TuWyCoQUsPQsXo0LDg5CM7umsr+PPaPcKKbkBD4n3LlbQod2DhjnOJS8qClis6dPFji5ukyH2xxnuM+bBe+Fc+FF0Jo9bSLc5s5CdFQkrt+8meflDZmZQEgIcOoU8OmnQEwMeVsZwOPHgI/PNpQvNxilSnCIOIKgtIDMncC+UJ5bW3UmONM1s2lD3tYkmJuNIiCNIs9yMkFtAtl4mNKjtVUX+lwV1K1lIde4UsWKUuk/a9pkxG1ah9TdidizLVYglRTHoIogUIUjISoc8ZFh9Bgm0ApduYSumxPWrF6FW7du4aefVEFpfksBS8/i0IK3wkyd4oQ6BBduy8IlDjn1tBh6vA2GjSvYR48YLGBaRLZg9nR6PhMeri7wcpsDH/d58PVYgKU+C7HCbxG86bW723zsSE6WRoN5Jd5fzKEh/wlde3V+zbktfu/Bg+dYHbyVrksXFClsSrCpSefVlEBsR0CuT8/5GlWlR1syCqVrWNPPa1FY2IyuYX3xqvi9GtVraa+LZjcBl3xwjoyHXHgumIP0fcnYvyMBidEMKQ2g4iPXI27jWhkTxtOkY8JDELkuCOuDl2PlUl+Ek5d1+fIVzUEr5ZsUsPQsbhj3+PETCovWomGDeihRTDeqPmcFlAws8bJsrGTP4PhRwwhK87F40XwJ/zSQcsUSLzcB1XJfDwQt9ZEb0sN1FkYOGYA1IcF5AiyOpm7c0HhX16//78T7m7p9+wamTJlAIa45bKxMUL0KJ9J51ZBXBnWeKK8g/raKaEvg0qwi8nPdo+a68HVlaHElPOf4eNV045pV2EZhIHtRm8nj0kGKk/OR64Olyd/GtasQTa+j6PWC2c5wnuqEgwdTtUeplF9SwMonHTlyBC3s7fHxh/+SsCWnwGJjaHFHTvbYRg0fhJVLPMWD8vN0JUi5C6QClniRx+CNoOW+kqPhZPSKxYswe+oErFruL504v/rqK+1R5kyffQbs3QsEBgKhoZpE+5dfajyq39N3332H48ePY9JECvFMjF/1Dsvp9alibSU9tLhbBa+aRqwJlGQ7e1UMKTaG1Ab6eUToSoSHBBDYNM/dXKbJgkX85hg8efqUgKum7+SXFLDySZcvX8aIEcNhSjcld1fQDHl4+832Z4y9CE6+c58oMxMT9OnRlbwrVwSSFxXo70WP3li1bDFWr/BD6Ep/rAtajjC6KfmG5GLJ2IgQ+sxiBK5cibNnz2mP8q+JF9K4D+C1awDXoX79NXD3rub1F1/8Fgb+GYWFrZeN3MWLFs6VLg8MPAZWubJlYNekoYCbk++xG0IJXivlOoStXiEe57qgZVhHMF8T6C95rNXLfbCCYL/YcxFiY+MIug+1R6mkbylg5ZO4X3piYgIG9O8H7gJqamwkN9bfvTF1v8feGheRNrdrggmjRyDAzxPhoQFYSzch34B8Q4r3QN4Eh0BR4SGScN6+eSP8KHzkxPTuXTv/cvcG9pySkwEXF8DdXZNUz4m4yHbKlCloUK9OrhTZMrB4JbV8ubLiiU4a60jXYyldAw4BV70C1VoB1RIClR+CyQsNXr4Ya+m6rVjsgcn0O14e7hS23tIepZK+pYCVj+IVQ27qZ1ShPIoW/uTVjfXmzfZXjG9G3urCJQ6d27fBcgr3OLm8cV2QeBGcn2FQcd5m86b1knDmlbLk+EgkRq6XkGhdSDD270uRQtffEyfLGUqpqcDnn2tW/E6c4LbJ2g/kUJxLO0V/oH+/vij08YeoVKGcJM1zAnS+Nhwa8vVp1qQxpk0ahw0UEseEhwrMQwLImyIPlCEVtIw9U28xfu3vuQCTRw/DItc5OHf2DIW1ebuaqvR2KWDls5KTt8OhVUtZxapKIUtO9xdyISp/T/HixegGrwFfT1fs2hJNcFqLaPKmOGfDK2Jcb5QUtwHbCVTJCVFSQHn0wE4pqHSbMwMeC91wkzPlvyNOpB84APISNWFfXogbAXp6ekrXVPZA+dq87Zz/rPF15f8QeIdBubKl0b1zB/GoGN4MqiAKiVdJCO2NlRQychjIwGcv1Y+ANXvaBJnYExcTQ17WHemwqqRfKWDls+7evYPVwcFo29oBvBeQw5+chj6cdDeqWIG+pxomjBmB9auXS/9yhhOvjCVt3oQdiVHYtTUGe7bFYe/2eBzYtQVp+5Nlr93OxEhERaxBTHQUTlFolhfN/f6MuAQkPT2dQkMn1NaWgLB3lNPrwzlDvj6cy5oxZTxWEqDYuwpathgr/DSQWubjTrZQVlWXeLrJCqu3mwsWzZ8pA1kPHjok49CU9CsFrAKgO3fuYvToURQWFpKWK3xT5eSm5NCHJ+ZwLqtenVqYMXUi9iRtxpH9O6S6eyd5U9zLPGVnIlJ3b5XNwAwrbrXCTe2unMmUqnCPBfMQuWkjvv02/6q8v/7maylqbdq4EYoXKZwrJSDsqTHUa1SzQZuW9pjtPFk8rSAO/bwXigmoPBbAd5GmNITNz2M+Zk+fhHGjR2LjhgjV6C8fpIBVAMS5rKXLlsrgBnNzbhGjabfyd00X+nCJQ+lSpdClU3tJsnP7lIMEqNchdSRlJzJSd+PY4b3S9I4b3fFGYW50x8v+sZER2Ld3Hz578Ln2aPUv7g/fsrk9Cn/0Qa6UgOj+M+Aw3IYAOGbEEPKw/LBqmQ9ByVW8KYGU+zx4L5wjxba8M4Dr2qaMd0Svrh2wcsVyCVmV9CsFrAIg3g5z7vw5mTbDOajyZUoJtHJ6Y1YjL8LK0pK+q4p0G+XaI00f81QC1Q7puHkibT/B6QCyMg/izPHD8j73kLpzKQufXT+PbXEb4ee1CCkp+/Mt0cy1YdzhgqdNM7Dedq5/xRhYPAafS0DMzUzo2nQWMC1f7C6w8uFtSwQpNt4dsGj+LHn0cZ+LKeNGolfndvBY6IqbN2/iJ5V816sUsAqIuAI+MyNDcllFCn2cK54E/z7fnGXIyzIxroQ5M6fiVHqKDGVgaLE3xX3Oz51Mk2kyPLfvSvYxXM0+jmtneWrySdy6cBIn0/dhXWgQNlAY9BlXg+pZt2/fhqurKxrWrycDJ6pQqPu28/2zxrk9fuSVVL7OLeybYuyoYfB0nS2hIIOKIcXbmhbOnSH7Lxdobfb0iZg+abT0f0+IT8C9+/q/Hu+zFLAKkBgGHh4eaNSwASpbmNHNZP5/bra/Yzzui4dT2Ns1xkK6CXnE+2c3LgicOPzjOX08fPR/mXZq8qfXzuLmxVPYt30zItYGI2lrIq7x/ho96sWLF9i2fTuGDR0iebmc1qzpjPN8smGcQnHu0Oo6axqWeruJN+VGoGJAuc6eBleXaZg3ayrmEvA5hzVzynhMnzwe/kt8ceZMtvYolfQhBawCJA4NufPnokXcJqU8ShQrLDdWbnhafKMXL1ZEvIltmyPx+N413L18Rjypt4FKZzzf78aFU/ji9mWcPpKCkMBliInaRHB9gB9/1N/q4eeffw4vL09pq1wmtyZnk6fFYbOZqQnsGjfEzKkTCFgLZaP4fAKUK9n8mdzxwgmznZ3gMn2ytOlxnjwWYx2HYN6cWeQVH9UeoZI+pIBVAMWz/Hr36imeEYcsOV3K59/llTFOwvN3chJ+w5ogPLh5EU/uX38Fpjdh9bpdO3dCBo/ySKzE6A0ICgzE6dNZ2iPOez179gyLF/tQaFsRJYoSyAlYOQU5j7zna1u6dCnpcuE0YRT8ycNymz0dc16DlAt5VbOmTRSg8fOZUyaga4c26NyxPRIT4rVHqKQPKWAVQHF9D28A7te3r+SzeABp3do570zKCX2GVsmSxdGhrQOiN4SK9/Tg1kXcupSlCQ3fAis2BtpNAtbdK9nIzkiV6viwNauxe/cePH7yRHvkeScu0uRBtDw5uyhdEz6nHHueNWvIHk4e68/bdvr27Eoe1ETMo9CPvSoXhhTBaYYThYBO4zBt0ljZBM0tpnt37YhB/ftg185k7REq6UMKWAVU3LUgcGUg6terK8Wk3DaGw6C33Xh/1dir4BHvHBKtWr4YnxOwPr996a2get0YWlcIancuZ+NqdoasIAatWILo6Ehcu/77VfG5JW7Jw8W1hQt9JOeRU2Cx6bYy8fMWdk0wbGBf8aK44aGAiiDFoGJITZkwWlpNc8vpbp3aoV/vHtiRvE17dEr6kAJWARWvGnI+a926dbC1rYlCn3wsRZPsJb150/0VY0+LrbI5b7iuhPp1a8l2Ey5lePnlnbd6Wgwq/hkn6HkwqawsnkjDNfp5+r7tUsO0Yqkv9u7dm2fTd/h6hLCHVSn3PCyd1WBokafFIWKvbh0xY+p48bCmEZx4aIfTeEeB1KSxI+Rx4pgR6NC6BTq1c5BJ0ariXX9SwCrg4lofR0dHmJqYSP4ptwaw1qGbvZqNNUqUKC5ehtfCecjOPCR5rfvXzwukLmVlvILU2eNp8n7W0VQpjeDBpBmpu+j5fvp5KuI3rYWP+3yEBK3CiRMn8XUuD2Z99OgRvL08YUaQLVW8KJ1DLiTdXzP+z8Cqsjnat2kpoOLVQAYVQ4oBNWHUcIx31Ewf4vbTHdu0QOf2DjKk4ukzNSVaX1LAKuD68aefcO78eUyfPk3CIV4h03lJb7vx/qoxrLhGi/fWOQ4fIhD68s5l3CZP6+KpIwIo3Yj3Ezw5+eAeZGinJr+qnN+1VSrm9ydvxip/b4LfAmyOi8OVK1fxfS54H9999z0yMjPhNHkSrC0tpHNDrqwSao2/hydRmxgboaV9UwEVrwZye55xBCkGFA/1GDNisLSe5klDndq2RI8u7bF+3RoFLD1KActAtGfPbpkazV04dZ5Wbtyw/B28gsjfyaUUjRrUwxLvheRVpeHmhZM4d/yweFPcyeFoyg6k70+WbT2HCFQHdvIAUh6XFYvdZHu3xWEfWUz4atnW4jbPBSEhwbK15tGjx9oz+ev69NNPxbuys2siq6a5Ue3+uvE14LIPrnpnYE0ij4qT62MJVAwonu84miDFU7N5KC2PDetMwOI81rKl/rh27Tp++qM2qkq5JgUsAxHnSU6fPoUB/fujSKFPxNvK6UxDnfF3aG7ayuJlsMfVq3sXxG5cK14We1e8leegTEpORMqOBAKTZvgod31I5jFZcRuwNVYzfYYfk8gi1wZiiSc3BZyEBa5zEUte142bf735HW/N6da1q/S/tyaw5sY5v266c+fur9zBgUf5c66KQcWQGjmkv4z5103SHjqgD4WELdGlQ1t4eixCVnZ2ng7vUPpNClgGJF7a37FjB/r16yuV6zzXkD2t3Eo+8/fUpEcLM1Pxtvg5d3rgrg68jefQniTxoniU+46EKJmQzO1qthKkEqPWy0CHuA2/DXPgR/a2NoQGwN/bVVq5TJsyCSsDAnA4Lf1P5bn+Q5aSkgL7ZnYolEubn183hhV/H0/ONqpQAfVq22JQv14SAjKshpM3xSuHDKnB/XvLVG1+v1WzxujQuiWCVgVIUSsvCijlvRSwDEx8Y5w4cQJdu3RGyeLFJJR72434d41vYPbceKmfvS2uUXJo0QxLvBbiMAHrCIWEHP6xB5UQSZAiLyyOp86Eh8iEmU08yEGGOKzQthz2F+Me6dx2eImnK+bOmIxpFHJNHDcKTpMnwH+JH1L2p+Dunbt4+fKl5Ky46p/7YXGr5Llz56JO7VrSeienRbRvmg5Y3LWBVyC5qynXYwmsyJsaMqC3AGpg314Y0KenPPbr1Q1NGtRBC4IWr1y+ePFS+6+jlNdSwDJAcXh4LPMYxowZLZ0zuYuB7sZ72035d4y/j41zOxwiVjY3R4e2reE2ZybiyZPamxSD5ISNMrxiE4V+DKmIkACErV6u6Yu+0l/TxXPZYqzy90IAN8bz5e6d9OizCD5uc2TrC28mnjZxtIRhDITRjsPhRWHWqsAAzJs7B+3atoGl7KvM2YbnP7LadJ5Vra1gbmoig2h7dOkgHtVQ8qgG9e2J/r27CaT6EMj60mPv7p1Rp2Y1mcATGrJatZnRoxSwDFiHDh9Gnz69ZKO0pbnJK++D7W035t8x3XdVtbGWui0OFbl2a9zIodL3nFsvx21cI/3iGVRck8U/X7XMW1oLM6S4c6e/1wLpMcV9pXhOIm8w5j173AmB9+3xdGreVOw8eQzGjxoKh+ZNJeTl1cvcKuX4PeNz5GvHU3q47UxbhxbkZXUhb6qHgKoXAapnt07o0bUjwawjunZsK8ByaGGPhPjN2n8NJX1IAcuAxWHTjRs3MHqUI4oVzZ1upX9kOg+OVyrLlSkDa0tLdO/UXray8Dgs9rLCgpcjmLwqnokoLYalGd48TW+p+bMIUpp2LfNdpmKOs2Yz8fTJ4zB1wmgp0uTwq3HDegIPbv/C3RRyG8JvGntY1apYycbq2rbV0aFNK+mRxaFhLwIV937vRufZhUDVpUMbdGzbCrVrVEXrVs2RoPYS6lUKWO+AMo8dA/c95xolDg/ZW8hpRfwfGRedMkC4NzqHixyy8WuHFnYSQs1wmiCA4sEN3PRO1wiPPSpu1cIbi3mPHm9z4UJMzhNxwSb3qeLOCRya8XQb/k4GyNuOIbdM8zc0MwtNTSrJzzq2dSBQdUYPBpVAqjU6tXegkLiVWFsCVVVrS2nbHBcbq/1XUNKHFLDeEV2/fl2KSzl5zMMadMv/bG/epLllOo+LAcllAbzSZkFeCkOMa5p4q0u71i1feSs9KaTi0WO88bp961Zo3qyJ7GdkQJkQLNir0oV/eXncr9srYGmT7tznneHZvXN7dGZvqh2Bil63a91CQNXK3g7NmjQUL3DYsCFIPaDG1+tTCljvkH759VeEh4eherWqKFm8KKraVH51U755o+amcd7n9b/B5RBcic7jxjjM4hCS+6eLGRtJvZOpqbF4ZgwKmeys/Q59gUpnr4BFx8rg5PCQvaiundoKuBhSPKiCV0rZGjeoi7rk9XXt3BErVizH9T8YhaaU+1LAesf0+PFj7Nu3D71796LwsIR4W/qGwOumgxBD4U3Tvfe239OX6Y6tShUKCQmi7PG1l43NrdGaQNWquZ1Uv7cgb7AVPdpUNkepEkUxcsRwXL16VbZOKelPCljvqM6ePYuZM2ZIgWnxooXF28nLvJah2itgkafHuweqErhat7BDO4cWAin7po2k+r1po/poVJ/H5puJJ8YDQ1Q5g/6lgPUO6969e/D19UXjRo1kBdHcxEhCHra33bzvo+mAxUDnpHu1qtZobtdEvKqmjRpICNiQQMX5OPau+HcG9O+HLVu2qO04+SAFrPdA3Keqbds2qFi+LCxM6aasohkhlt/hWEExvhZcPmFhZiadRxs1rIcm5FHVr1NLCkm522sVa0vp/speakjIajx8+FBtx8kHKWC9B2JP4Pz58xg3bhwqELQqlCsj0NJ4F+8vtPj8eXGAw0FeoeRSClv6Ge8nZEjxZ/j96nStzMj7KvTxR+jQvh1OnjihvbJK+pYC1nskTsgnJiaiTWsH2YfIq3a6zdPvo7fFYV7NGlUFRpqShioy2p9XOatTaMhQ51INXnHl+rbOnTshJiYWz54+1V5RJX1LAes91GcPHsDH2wc2VlYoXrSIJJJrVq/y3oFLtwjBwKpUsYKmxELrcXFXCEtzU0nEf/ThhxQq2iBy0yYVBuazFLDeU3311ddITU3FyBEjYGpiJPktGytNYzwG1+s39rtsHAbqPCzN8FoL6XfPsCpWpDD+8Y9/oFWrlkhO3i4eqlL+SgHrPRf3coqKikT7du1QoVxZmPNKmTa/9a56W7pz4/O0MDOR1UEef8bGJQvsbRUrWhiFC30CW1tbhISESC8ypfyXApaSiKfdLPHzk9WyYkUK0Y1rLBXoHDa9a+BiD5LPy9LCHGXKlEZ5AjXDiqvwy5YujY8++Bf++c9/opmdHfbv3y/1VioULBhSwFJ6Jb4pL1y4gJkzZ9DNbCEhkbFRBbnJeXn/zRvf0Iy3/zCoeKyXGXlW5XnFtHw5aWFTtnQpGaX2wQcfoHq1avDy9lbbbgqgFLCU3qozZ89ivqsrataogaKFP0H5smXkpjfk/BZ7inz8NpUrowx5UqVKlkDZMqXwCYHqn//8B0xMTODs7CwlINy6R6ngSQFL6Q917do1BAUFoYW9vSzt69oU6wDwJhQKqnHrY4YV56xKlyqJouQ9/heFff/9X/+EBXmTEyZMkEUIbtGsVHClgKX0p8SV3TGxsejarav0eedVRUu6+bl2iUFQUD0vPi5dHo7zVJ98/KGs/BUuXBh2Te3gTaHfqVOn8N1332nPVKkgSwFL6S+Jb+xtSUkYPGiQtGQpV6Y0ypYuKZ4LA4IrxAuC58XHoMu7cWvnTz7+CB/861+wsqqMIUOGYPfu3fj222+1Z6VkKFLAUvrb4mnMXl6e6NenjySyuSKcW69wDRODIr9WGDn8Y8+vQtkyKFK4EMzMzNC9e3cEBwfL6H8lw5UCllKO9dNPPyMrKwvhYeGYNHEimjRpjDKlS6FkiWJSjMnbf9i4ipyBwhDT2Zuw+Sv2+ncwoHg7DY89K0HgLFm8OBwcWmHZsmUyFk21gnk3pICllKviAss7d+8i/cgReCzyQMsWLSR3xOURpsYVparc1NhI6rysLM2krYttjaraXNP/bfLH/ePF6D2dMaQ48c+eHH8Ph3xG5ctJwWf9enWlLCM9PV1Vpr+DUsBSylPxqlt2djYiIiIwffp09OrVE21at5YBDrUpdLOxtoRRxXLijbGVKVVCcmL8yCFmyWJa4+cUbvJjGXqfwVfLtiYcWrXAmNGjERYWhvPnL+DZs2eqyPMdlgKWUr7o+fPnArL4+Hh4enpg/PjxGDlyJIYOHYJBAwdg2NChGDtmDMaNHYuxbxjXSq1btw4XL15S9VLvmRSwlJSUDEYKWEpKSgYjBSwlJSWDkQKWkpKSwUgBS0lJyWCkgKWkpGQwUsBSUlIyGClgKSkpGYwUsJSUlAxGClhKSkoGIwUsJSUlg5EClpKSksFIAUtJSclgpIClpKRkMFLAUlJSMhgpYCkpKRmMFLCUlJQMRgpYSkpKBiMFLCUlJYORApaSkpLBSAFLSUnJYKSApaSkZDBSwFJSUjIYKWApKSkZjBSwlJSUDEYKWEpKSgYi4H8AE4ib04rQo1gAAAAASUVORK5CYII=;clipPath=inset(16.67% 30% 15.97% 29.67%);" parent="1" vertex="1">
          <mxGeometry x="550" y="262" width="200" height="210.5" as="geometry" />
        </mxCell>
        <mxCell id="KAyXB3LFF11qL9irPbgj-13" value="M6 slide in nut" style="shape=image;verticalLabelPosition=bottom;labelBackgroundColor=none;verticalAlign=top;imageAspect=0;image=data:image/png,iVBORw0KGgoAAAANSUhEUgAAASwAAACQCAMAAACF3Kb9AAAAAXNSR0IArs4c6QAAAARnQU1BAACxjwv8YQUAAAL0UExURf////f398zMzIKCgl9fX4GBgb+/v/Hx8d7e3q+vr2pqakVFRVJSUnV1dWdnZ6enp9zc3Pb29rGxsaqqqs/Pz+bm5q2trXBwcERERJWVlaWlpaSkpJ2dnZycnIiIiG1tbY+Pj6urq9HR0f39/fT09MLCwk1NTTY2NkNDQ4qKirCwsNjY2P7+/sfHx4WFhVFRUVRUVH5+fp6enpubm5mZmZiYmJ+fn5KSkmtra3l5ebKysvn5+Zqaml1dXXd3d66urqOjo2lpaW9vb4aGhuLi4vr6+tnZ2VtbW1paWnp6epaWlpOTk46OjpSUlISEhGxsbG5ubtbW1vLy8uXl5UZGRk9PT6amppeXl4uLi319fXZ2domJic3NzaysrHR0dEhISKCgoJGRkbOzs9vb239/f0FBQWFhYaGhoWJiYnh4ePDw8PPz84eHh2BgYJCQkIyMjGRkZEBAQDs7O0lJSVhYWHx8fKKiomVlZWZmZt/f3/v7+9PT0z8/P1dXVz4+Pl5eXnFxccPDw3Jyck5OTunp6cDAwEtLS3Nzc1ZWVkJCQlNTU+Pj48rKyj09PVlZWUdHR1xcXMHBwdXV1UxMTOrq6ru7u2hoaI2NjXt7e0pKSqmpqfz8/GNjYzU1NTk5OcvLyzQ0NOTk5KioqFVVVYODg9ra2lBQULe3tzo6OsnJycjIyICAgLa2ttLS0sbGxjMzM/X19dDQ0Dc3Ny4uLiMjIxAQEBwcHC8vLyIiIioqKhoaGikpKSYmJjExMeHh4Tg4ODw8PCAgIBMTEyQkJB8fHx0dHSwsLAYGBhUVFTAwMB4eHjIyMigoKAoKChgYGCUlJRcXFwsLCxYWFi0tLSsrK+vr6wAAABQUFCEhIScnJxEREQgICAEBARsbGwcHBw8PDw0NDbm5ue3t7bS0tBkZGbq6ut3d3bi4uPj4+Ozs7MXFxe7u7gwMDAUFBRISEsTExA4ODuDg4Ly8vOjo6O/v7wICAgkJCefn576+vgMDA9TU1AAAAC9YD8cAAAD8dFJOU///////////////////////////////////////////////////////////////////////////////////////////////////////////////////////////////////////////////////////////////////////////////////////////////////////////////////////////////////////////////////////////////////////////////////////////////////////////////////////////////////////////////ANR6x34AAAAJcEhZcwAAFxEAABcRAcom8z8AABLRSURBVHhe7V3LdeO4Ep2jFLjRilFozbiUiCNQANoqEi8UgDZK4t1fAZDs7jPvjGzLNm+bhQ8hkLisKhRA2f3PihUrVqxYsWLFihUrVqxYsWLFihUrVqxYsWLFihUrPg+b+TC/JL/ib7hM++12mff73SU1d7hM0ybZ340rmdrvpmm3A13z9Javl3l73L575pdhM2+3h3kHpgzwtUw5J1x2h+1hAZd/YPLXoBEhmmaxJb52l6saSOuW2Q2meVn28+80x+u00PxIwsCUYCW6vLABTjS1Q2Y5LFOY/D2AH4L5RafEhBPnJ/B1PELrJhLEOrGJ4/eZ4wUe2+ZnbioZqNoe92Wfd2cBmuPviDOuu8NxCyI8bhPQaCDm/QGOKtZn++yisCzL7qe7r+tGfmgwv0FAwonD54/TIzHSJPZwdgajfwrLfgTA1JFEcKwct0bf0wnuW4FEqJqb30/rFNFuf4A/m3+uMW52DAPihsJQ54I/ON/ts06mCdBye3h+K+fyx5j/O+P6wjA95odxt4G33EJP9sY+hV6E64f5IZxIR9MOgdfPCiSuCZgwwBsaBsoOmP1QCpeAG/YGFDK/PkmyO9g1DBsV0+ZHqNgG5sU4QQMsohoLqKerhgdiA1SHoN5AOQrMki3c1+dA3faA5RGUkjHZ/PLN+dJ+QlbJGbKGmpwjKnkg1feTFHDwVYS9QanaJIlkOYiqZUEP+4Vnlj/vWnwDxFHVCAMTIjBO4IrntoHQaBKWg8wvJZyAsnJZidWiXVhVf9fgfsNVcsYh24LI6G1qYGCwTwLVb6wQeZlfa4eI4UBAncjUTQdozMXjN3P5YGoI0wWNPySU+ZkCE9SovGkKZYH5dUelEIsczXaFrELL4RM0x+n7TJHZzjMRNYaMxKPigqbMbzw9NiJoft2MSTF6pp6RMnCIyq6uToBpptF+h8WQFjS1nyDUKFpKpu6sp4+Z9c6CUjTrVNH8+Mkyv7GHzpRy0wxvtrw8uXpdwERb2cX/tJSI+YFLzZDcz8Ow9jA2EIAwgINEczFza344D6pgfUjAlDD0rFwvYvpE6PbE1njhgobbeUTdt9O4pf3BTMGgECWh9fZIs6K73psxccakonmMG6trhQmom9m0zuQS6rsupwwXmWiGazypcilM7+ZXN1+pdIOvHahRVC8CvFCtpFzUqABVGKs7QmuwWOYHxtSBoK7Tv5MoGhmlmeMq8xOSdd1wO6+7Yt58hqGUj5oNoFMaAyNuAspEFFvCLNLAj9wa/JMakkFtSLDHYeIExjxK9HSowqM5nU/PR9ZlknWJqthbCQ8EmkT7pEosh9MJVAEiIXSFJyqXDukXvbipAoHQNRimejPSsxMgFwbHyCx7MgU8GVlwVHqpRy3QXQO+b2UBLt3UAPa3xRjIFePRQbGKLrl3UiVJ62Pf5LoiiNZryzHl4RURnhmNHDzJ0HfPRJYdlceR+6+bt7D5pcFyfD1zCHeKZSskQUlMFpO4/IEpd90vEHlnfkc5xSfSrCviBC+CdbO56QGY/4+JE4T9+QzbCFmj0xpUq9EE6dIQKTR0rnxVejYwGvMjT8Gce/1iXLCgObY4oZhKKk3Yb09yIMY0b8VVkTVwVUwJ5qqYEujZyffN82gF7XLxpRnM73SS5hZOp+UJNAsLmvghwrc9SjKlBmWgGNNyeg1XYktOq5lho0ssmSrlFVlst+XbRdHNowFTclQyP3Uu0AxP5/OSG/46wFGN1lW3jgyyVCqYZ29Q8/z+LLKkWXLxjazGFajBIUmimCHouKjDuVBL0D0DMpTfmB89/ElR2Zfu2PQXpLrhkt1EMHvD/NSgKpksB1jh+2Y46pWtMNqlfyAL0yICD/fUrtMcFTwj4wSTRJXCD4pafsKp1vcmPh2MqBgn+GZzdECnuCnuySunTNgEu7UZNrK6GRImS7jXLC5/ZGnqr0DzY98M3GB+NLtASsU5AfaLW1kOyxfsN/ObHFAqBOF+vrp5j0CSL0iPJ4XpqvGpAjTrNVyJLLEVorpmSaeiW6qgz0L4kdjd/dKXY6GIUuKEQISRKVsmvT7uBLcLI/5cvrig8QpE8M1LZhzwG71BP125lxlB1sCWzPCWLWsSdUpUmS5gcPBCaZqYOjWdkvXBUeGKCLoQ07R74Up8+bQvKzFOaG/1Mv4RXPDxgaZBmhRPAppgdnqXLFqaaQlF7VDl3qGD7ZnhPL0R7L2Yb4A5Ut8Y+tfOYr9X8vUJ+/OOE3LN7rRz75S4cb+9Yw3FQFYTcFuvNESMKkYIrhpdBbp08GS6TNbhuFfXOKQxyMIfgHgpE2GdgjflKTW5eWiCPo3H+aF86QudXWUA3oBvAgrO/QTGCdWg7q4aGPoIXE9mLbmspliDzzJX5klMYYDNX8W2Yn4hCpIrwTP0mkqFCZJksnWE03QBKj/uu4N87wClig3Qr9dVnWpB46UbKlznlhaVepG7m2CJRVbYgveRZuHHeiTCYoNIuDDUc1CcQNcuJSqdIliOu1eTjrp8wBzvZNk9fgf1ijihh+kD2nNimN5nPyBn+v0ZHAVNY5qWI6NsUsV/ZPBGtaJUkmKKDLN30oAEFxxjz5if9M3XwEWI4TaGbIFXeujrsitmL20XFFV15Vy2zI8N6k6YOl/tVGPTUD+cxmlBTbGMwQ7DEwhjJCrn4w4YMI1xAgGmFCeQV94KL1FGoGyJ2wzTw3Z+ULAKptprP1mer9EuCX7AVLbz2vVvkqQcRVdOtkYMWQMGY2RKNkiWwBOGmn0ZjR7kcg6AbXFB0z4I0AwZJ8RR+VaAu7upjGTV0Zi5E/uQDXp4qtMJM5C/fwAkbcWsks3lIO7a0TTgo8MUUkYBIIhKQ4cMHqBiGLjJAaxw5M46TfMjHdxPMFUkiZI6ZhZJJseva1COd9Frq5p+FreFx7LMD2DrukNf8qx0qL7CeGUFn3RUdfmeQRb5aqd5LFT5acIJUYO4UpGnQ9OYnAgK0FjbqosnQixobq0POnXWtII+yRSvwQIbGywlHRKBD5CnoanbXUb8H3DFhOER6E6ClmNQqAvqFn2HowQ4UJoRm6iIsphiv+CwnVEaA3KVuuXBqyPneCMcGVQx6hubMCH6fRIuUcqJJK9AnvwzakW0cX7Eux9oFp6zAh1qQl2VoORrF1yNE1WN716WaRi4R3ZEgnkiD8Cyp2OuLWi0nTd6Klkjt4+tnm49fFBZirGumrlT3F1NFA/YoRdZVC2KNifxajhg8Vj38BT5qgc73pxcQmcKZXoqKSv91cCwPtNFQR3QG9kz0UvJU0GAqby9YU91jfRWnahQuarMA9RE0eh/EFmiynThKvIPBb5swpli8sa5ksobpmhGVEI0RsIWrB96u0djKo/fDl1A2TdCptCErSnukt55cnQKUkPeHTopqk4PI6vYgvBA+UBxec4lOisz1RnOSYKsbIwTyCZ1nyea1RakCRT80bgQStm2PKimTzY/RXW5Blvrgy2NXlXSBFP7Nm61oZvGPnp8DFkkouhwJl4E4M2aRRxWLykTR9GWiEh4jwgFbLBSQCLsDCJjYmDB3xZAklVyB6nSXilJ784QGDroGaUp8HH6k4j9m1IFj3ir+IIosfFBwZ+mRNx+VJ3O+gwVh6bRqGJrKpVP2jDfjqVqACqsvBHMj8+/FEDa4LdEctCNKn+2urlJJXVQU6lUmFIbUdHX0+tp/4hfObi8cORkQVRQJrfHUMDVUMMc9IuuqlNFbcO8gBOsv1GFGs8wLA7KbhHet7sUg4OUZXLceFTuKh9T4vyI1LTZzxNFB+g6n8+HBy0PLwtiR/FwI5QoqnAWApIZ0SWnxNkPKkWOuMPJUEngePFTI1MqweBHXgifu6eKTGnVZUc1cl4BVKH1rHp8Ah8hU3y8jamoK18zLY/b13L0EDa6CDfJKSMwpXagGhq/1eDp5JpdCh7OKAGZHxLNfjUcSPyIKTR0JJnmEmOJrLVyZbidgbxs+uZtBpXsfNw/9iu6m4XG1ikxXyyFmaqii29lEKW1H52EVcHDKZHUeZymQ9OgFPz0iUpj8sssT2XF+dhVkqGuTtimtfGM+KB6lHig+XVcL7PDqc6SM5Csco0kM6pGBr6Ky+LakOjgODKWAphSNA/zuwvTzRSbk6mYXz7t5K6rASZXmnpr0+j1dH49zh+yrYwp0ZZYzIST1IUpV6SKOVTTCVG9hjEOg4vRUKnAAxLqVJ58xsTZDy3oBt02H09aJR4+nzqrIUtvFpTo9hXm92HfmtzwO5xkoAsTohKSm3pmmBJkjM5dw8loKoOEcwDYlBW2iKrIavsJLeII9HklzqXsjAqxaWpqUyooutIzAoWP/F2Caw+3LCt3X3Q+aasCE+SLw824nCBQy6BgsmBqiKg0+3m2t4Y0sHllulTiPNwewNRGPADUnc/bjzG/ARPC5Yz9fVEpFa3V+nCFgnsjQ2NggZy87+2gqFRyN9S7HieEDKMVyjJTgyW65s0xTM9TgPltP+N3Ei8T4q0a+3ta1WpMTW/BAzmAS53wpWC1md/ofa1UiRPkoE3VoDudncoYWiUznGPSiXIC/l9Ph896Ez3DYDxwj76J4XBNsiWiaSpoaTiRItHWvW+GJJ9uSs0UG0kWRtIqA8kUvXMuwUNRRBWgZ/zAHx4+8StHl0nf1NfwOxESlbrQs3VCVa5nNM3VI3i48b4GmDqJIjnoMeIoUoKRJ8Ozn1bJUapSKSnV9pN/f+ftwicEhIV+4g1DTVLQVdG1vJ39EqY7knQUey+KnLsEShVHZf4bUfTx5/MX/C7KxTuBXXeYWrRaZynuivyR4IGl3zvmp9kPFirdIg2hoqXJyRJ7HUOLxAmlVIGYOj4+TP9XeEGYndHnMCVVEQZ7MVWRVYfFIqjqVkI74bdJ6G64kOvmZ256MjBUeeqpvnHLl5A3VGmV/HV/HOMKS7xdJ3YG2jFWuQ6yn2Bx1pt7s2VtkBF5H0VMhZ4SSt7U9TBdjio+vXWLBc3ypX8YY+Jb4xo5/mn4nZMckL3IRGmaUexLBTgmzH4YOMeNYYOqpkBMipeG4VzCVU8U7i9cMfgEU19ifgOw8OGgTRDH7dHrcNUdV61BpfosNIujIlOOSzX7mYege6aEU5ZOvPOlKZVxQlFlrYJOwfy+ming2nSLfHQC6lANM8PRapXiU9asZn4cd2JPlETGSMwgUg2KPPu17TyzpJQP4GvNb8ALlV9Dp9Dgx8zN0QRlP7NbMCIGn1AmqEb72omJaMJwFrLVSQ1RHl/7GTC/19Mz/Rbm9eKtJY7ePIiLosTkpJijBBKfxWzo/QTbUrO/0eDCTZJCN7+7iBbLP9jjefs1ccJfcN2Ar3qt7+GLDcs6bsRALOxn4ffe+Hu7bV9+MLEcJQWdrf0c6JbmUNqe7Y8LZegUVsm5w+fCddIj9uDFiHJ/LyqnLIOE4ZsOynTR8/xxVWeK3yPtOiXGTqfX1+NT/3HJjedujl1y4IIVLRPhM8rxR7/5KxoA8zEwVKiqclSIrLyfY40iFFGdDk//p1SuXFyPr35CR/EyRGCucZEpJENv0iCYoGaLKI/xOn0bznHn627pnfcOz86UcX3huwZxoYPC2Up6jY+qRFNMhFDN2/BqoAjQepqvXZHv+wmCdIu/A/TA134fjwsDJY+/0RDhSgkXxqKyUC9FpaEmghqmgna+GGGYqVAlnmh+D3/t9xnYxBzvaBkLlIPetViDeiNvFJ56Agyv/RJRdV/1jczvHnylQb5EhHgKGZRV3USKTrXfrIC8gwXOfl7Q3JgfCLNSffh7h4/E5UUbS6LKZOToOReYd84Z5rM/D/2Kk9dMi5I2nkFVqRRSvfb7fuZ3Dwb3XjpSaaQ45uR9MVCHtjZHEcb3DmRq3E8gWzw++rXfJ+L6IuvpJPxFhCsJVUG99I1eME7XTmsTVd1RaevlO5vfPa4b7eKVCzcPTfQic5W6wu7Lr8FqP2EAl36P+HL/k4EbOYy+pDYDHxT3dY1IpfgHxeRr12Z+0Cs6KobpP/gvAsccOyMqIjPWdeED+TdhOqk6/ew/Nc1fkaroKxxJSN7UWLSGB1DV3BT3Fz7/td9X4MK9CVIBEsxE+BgVKlVdwF2FJwCO6vTMf4LuocBiSOrVuAmKmWQgQxucVn1HT+9hP/Ot+xNgw99CKWbwj8SEl9RSJIuDZkicX19/GVPCdepbX0CxUjVOXFuaRfN7mvcOn43LC6JykhFScHTBMn9YoGZhkfwTFjT/BTBHLYbCifjpRKUCJ7eME341UwLW2oq+aG0DQaLIOb29+aX/VdNbyH15eiTMmWhS7nD4gQua/4KaHaVOZEgCCZTqdzuqd4G1Nt0XrZFERad+y3/N9P+DbzpsjlQqOapVqf4CBveKviC/6W76Z0LfA4CjWpXqX+JyXZlasWLFihUrVqxYsWLFihUrVqxYsWLFihU/Df/88z+9kvmEh7RKPgAAAABJRU5ErkJggg==;clipPath=inset(14.58% 10.33% 12.5% 10.33%);aspect=fixed;" parent="1" vertex="1">
          <mxGeometry x="830" y="313" width="200" height="114.29" as="geometry" />
        </mxCell>
        <mxCell id="KAyXB3LFF11qL9irPbgj-14" value="M3x10 countersunk screw" style="shape=image;verticalLabelPosition=bottom;labelBackgroundColor=none;verticalAlign=top;imageAspect=0;image=data:image/png,iVBORw0KGgoAAAANSUhEUgAAASwAAACQCAYAAACyAlbPAAAAAXNSR0IArs4c6QAAAARnQU1BAACxjwv8YQUAAAAJcEhZcwAAFxEAABcRAcom8z8AADZcSURBVHhe7V0HWFVX1p35k5mUSZ2YnkzaJJNkTC9julGjicbeG2BBREWRooBIkSJNURDBLlJsoIgV7AUVsaMiAqKCvfee9Z+173uIhkRMNPHBWd93PpRyuQ+9i732WWftv0BDQ0PDQqAJS0NDw2KgCUtDQ8NioAlLQ0PDYqAJS0NDw2KgCUtDQ8NioAlLQ0PDYqAJS0NDw2KgCUtDQ8NioAlLQ0PDYqAJS0NDw2KgCUtDQ8NioAlLQ0PDYqAJS0NDw2KgCUtDQ8NioAlLQ0PDYqAJS0NDw2KgCUtDQ8NioAlLQ0PDYqAJS0NDw2KgCUtDQ8NioAlLQ0PDYqAJS0NDw2KgCUtDQ8NioAlLQ0PDYqAJS0NDw2KgCUtDQ8NioAlLQ0PDYqAJS0NDw2KgCUtDQ8NioAlLQ0PDYqAJS0NDw2KgCUtDQ8NioAlLQ0PDYqAJS0NDw2KgCUuj0uPy5Ss4duw4Dh8+jE0bN2JachImTJiAhMREJCcnI2tNFg4fOqQ+5xjOnjtn+iqNPwOasDQqLY4cOSoEFTt+DNz7OMHZwQ5Rg/yxdG4yslcvwrrlafLn1EnjkDB2OEZFR2JKYjxWrlyBvPw8nD592nQljT8KmrA0KhVOKZLZvHkzUlOmIzw0CAHebhg3fBCWp01TJLUQeZsysCdnLQ4WbMKJohycP7wTV0/uBc4fAi4ewZ68zUiZNhkjRsQgISEB8+eno6Ag33R1jTsNTVgalQIFBTsxbVoyIoYMwqCBvqqSCsDMyeOwedUCFGxejcIta7AvbyOO7N6Kk3t34NyhAlw6uhtXTu2D+gtw6Zi6Ciuqn+R6Z8+eRXb2ZkyaNBH+/n7w9PREyvTpuHTpknxc485AE5ZGhcTVn34SyZaZmYmoyKHw9/ZA9JCBmBY/CivTZ2D7umXYvW0t9uZuwKGd2ThRvB1nDhTgIkmKFdXZg4qkjqgLnVRXO6vWBbWu8MpqGaRFXLlyBfn5+YiPj4eNtRWaN2+G2NjxuHD+vOkzNG4nNGFpVCgcPnIE6zdskMZ5WJA/ggb0Q8LoSCX5pmOzknwFm1ehaPt6JfmycXRPDk7t2yGy7/KJPfjpjKqmLh5WLHRccRKrKZLOZbVIUjfHunXr4OPjhdq1voV1+zaYn56mKrEzpo9q3A5owtKoEMjJycHUKZMxODRYkZQnRkWEYN70BCX52JdaqaqpLBwo2KRIaptIvvOHdiqVtxtXT7E/paqpy0cVSZ1SV+IuIGUdq6lbByuuuXNmo1NHG3xR7RO4OvdGbm4uLqv3a/x+aMLSsFgcO34CS5YsxojhwxDg0w+Rof5InTgWa5fOxfb1y1G4dQ2Kd6zH4cItSvLl4uyBfFw8sgtXTxQpXqLkUyRVIvkuqkVSuSb3fg/2HziAAD8/fPnZ/9CiaWOkp80zfUTj90ATloZF4eix41iRkYGxo0djkJJ8Q0IGIHFMJJalJSNnnSKpLZmG5NuZjWNF23Fmfz4uKJK6cqJYSb4DstOnGEtdiVLt9pLUjbh48SLGjx2Nb778DHVq1VD3PAoHDyqi1PjN0ISlcdfj/IWL0thOmjoFwQEDEOLfH3GjIpCekoANGemyy1eUuw7787nLtw2n9uUpyVeIy8f34OrpfcCFw0ryle5LUfJd3zy/Uzhy9CimJk1F3Tq18M0X1TBm1Cjps/30053/3hURmrA07kpcunwZefkFWLRoEcaMjEaAl4eSfH5In54oJJWrqqldSvLRinB411acVJLv3EFjl++qWBHMkq90X+qPIakbcfHiJSQmJKDBj/VQ89uvER01DBcvcNdR41ahCUvjrsLx4yewePFijIgejrCBfhgU6CWSL3PhLORvWoXC7EwU567HocItOC5WBEq+Qlw9XoSfzpok3xX2pSj5zFaEP7+aOXfunDTjG9Srg0b164ln69ChQ6aPapQXmrA0/nTwfF5h4S4kxE+Av48nBgcPwMSxUVg0c5K4z2nqZF9qf/4mHNuzDaeV5DtHKwJJ6vR+Q/JdZ0UwV1N3F/YWFyPA3w+f/e9TVW39gJmpM0wf0SgvNGFp/CkgSW3P3YE5quoYMigU/l7uGBUZjAWKpDasSMOODSuwZ1uWkNTRXdtwiu7zg7QimPpSYkU4Vobku3vBttXeffvg1tcVVd9+A64uTihWJHb16t1933cTNGFp/KE4cOAg0tPTMDwqAqGBvogM88O0hFFYs2S2WBF2Zq/G3h0bcHgXJV8uzuwvMKwIJ4sNyVfiPr/zu3y3D7y/az6smanT0LRRPTRqUA+jR4/G/v3qdWmUC5qwNO44zp49Ly7wuNixCAn0weAgHyQqyUf3+dY1SxRJ0YqwDgcKNivJl4PTJivC5eNmKwIl3wn13JfuS1lCVcJ7VJXfT2fVGyVZL6lqUK39hVsxfsRQfPft12jatAmysrKMT9e4KTRhadwRnD17Dlu2bEVy0lQMHRSiqilvjIwIwtxpcRLdwuY5z/Ltz1OSj1YEus/Nko+7fBbSl/o5WE1dVm+UTGXz/8IRJWH34+LRPTh7aKeQ8SVFxJlL5qDmN1/g3Xffxfz5C4wv1bgpNGFp3DbwUd29Z496AOcjnH0pbw+MjAxB6pRxyFw8C7kbVmB3zlol+Taa3OfbcfZAgVJ5u9SzbZJ8Yuws7T4nSVmK5FPV31VFsJeOqddyEJdPFOOcIqkTioxpvShWUneXIukT+/KwRVWWndu3RPWvvkBsbCxOnmQvTuNm0ISl8btx6PARJWvWYGJCPAZ4uSPAuy+mJ47G+hVp2Jq1BAXZq6QvdZ0V4TDd52Yrgqqmrqpq6i6zItwcJFNFqpSql0+oouqQJD3wtZ3cm48ju3OwL3+TVJL5m1dh29pl2LRqEbavz0DGgpkI6O+Krp2sER09HNt37NDN93JAE5bGbwIP87L3Mn7cOCX5gjF4oC9GDwvFgtTJyFEPJlMRdm817fLtofucB47pPi/C1TNlWRHKn4rw54L3yL4UJZ8iKfU6mJlFyXdaVYs8DnSgIBt7tm9QRL1GkdMKZGcuVuSdjtWLZ2N5+gwhq7nTEjAowBP9+jhizOhR2LotRx+QLgc0YWmUGwynYzU1Z/ZshAYFSCrC+OHhmD0lFmuXzDFFt6zD3rwNOKIkkFgRJBXB1JdiaietCEJStCKYd/nudpSWfEq6XTyqlN8BXDxWhLMHd+K4IilWj8W5G8QztmNDhki+DRkLsEb9XDLmz8CSOUlIS5mIWUlxmDU1HhPHRsPf0wVuzr3kuM7Wrds0YZUDmrA0fhVXrlxFUVExMjIyEDtuNAJ9PVU15Y2UiWOQuWgWtmUtlQPHYkWg5CvKEclnWBH2Gkdk1ANuHDi2pL4UYZJ8V5Xku3S8RPKdO7IbJ/bl4/AuQ/KxL5W3aRW2rl2OjUryZS1LU1XULCydl4IFM6dgzrR4pEwejylxI5EwNgqxIyMQHT4Q/v1cMMCzj6pSxyJ761YZhqHx69CEpVEmzp0/j9WZmRg3ZjRCB/ojLMAb8aMisWzuNKMvxWoqp7QVwXTgWFVTEoQnks9sRbCkXT6z5DOsCD+dNyTfBUVS3OE7ujtHJN/unPXI35yJnHUrsGn1Iqxdno5Vi2ZjWVoKFs6aKpIvdcoEJMWPQuK4aLExjIwMRdTggRgSPAADfdzh6eIAv/5uiJswAdtytmvCKgc0YWmU4LKqpnYW7sKMlBRxnwcN6I/R6iFbkDpJ0jrzN69WD+o6OXAsVoR9puxzktR1ko87Xn9sKsLvA++vlBVBJJ9hRThzQEm+4lwcLMwWybczew1y169E9pqlWK8kH+0J7EstFsk3Scm9OExLHINJ46MxYVQERg8bhOHhQYqk/BDq54VAb3f49nNFH8duskvYs5stxo0dix15ebrpXg5owqrkYCrCnqIipKWni/ucxs7IMH9Mix+NrMVzkL8xQ1IRzJLPCMIzuc9PFCuVR/d5WUF4dztK96VUFXixtBWhUFJJDxduxd68TSjcloUdm1aqynIpNqxcgDVL52HFgplYoqrN+amTMTs5DimTxmHKhJGIHx2FsdHhiBkaLIGCgwK9EeTrgQGKpPq5OsJVEZWzQ1d0aNcSX1b7CE0b1UdychJOnOTPT+Nm0IRVSXH06DFs3LgRY0ePRICvJyJC/ZA0IUZJmmnYsmYxCrcafSlWFmwqG0F4heKXEpKSVARKPjbQLdGKoMj1spJ8Zw+pl7EX5w/vUhWjYUXYn79ZKklWlAwFFMm3LE1JPvalpmOBknxzkhMwY9J4JMUpyTd2eInkGzYoEOFBvgge0E/Jvb7o79YbfXv3QO/utrDvbI2OVq1g3bY56n73LZ57+gnUqvENVq9eZdyaxk2hCasS4ey587J9npo6A+GhA0tm8i2dl4xNqnLIU9UUZ/KZs8+NAQ1GEJ7Rl1KSr8SKQJKyZPf5AVygFWG/YUVgQikTIQwrQkYpK4Ih+RYpkuIu38ypE5CcMAYTxynJN1JJvigl+YYEYahIvv4I8HKDt7szPJx7wsXBDj3sOqCzdVu0a9UMzRv/iPo/fIda1b/EJx++h3+/+hKs2rdFdna2cZsaN4UmrEqAnTt3Yvr06YiKHILBQX6IUpJvxsQxQlLGTD7TLt+urTix15R9ziA88wDRkr4UrQgW1pdiL43uc/alzhzApeOGFYHu80M7leTbsVFJ3izkKrIWySdWhLnImJ+KRXOSkT5jEmYnxWH6xLGYHDsCcaOGYczwcEQPCVZVqT/ClOQL9PGQvlQ/115w7WUPh66d0KVDO1i3aY6WTRqgYb06qFOzOr796nNU++QjPP/sU3jumafQpnVrzJ0zF6dOaZd7eaEJqwKCMSanT5+RA8fRUZEY0N8dUYMDlXwZoaqF6diuZI4ckTHP5CvKUQ+xYUWg+9zoS5U+IsNqig+/JZCUqS/F3Unu8rEvpWQsK0VWjEd2bcO+PLrP14kVYVsW3ecLkbVsHlYuZF9qOuanTlGSLx4pk8ZiKq0IY6IwLnoIRgwNRWRoAAYN9EHQAA/4ebqif19H9HXsDsdutuJa79CuFVo3b4TG9X/AD9/VwLdff4HP//cJPv7wfbz95n/wwnPP4p6//hWvvfYqxowegyu60X5L0IRVgcD88I0bN6lqKhkhA/0x0NcDiWOGGTP5Vi2QxE7zgAZjJl9eieQT9/l5Sz5wTCsCJd8JeR3c5TMkX756rdtxoETyGVaEzZlLSlkRpovkmzd9osmKYEi+2BFDMSoyDFGDBiI82MiS91eSz8vdCW7OPeDUowu6d7FBJ6s2aNeyCZo1/BH1vqfk+xpffvYpPv3ofXzwblW8+ca/8dSTVXDvvffg0UcfRXsrKyxbtgzn9bDVW4YmrF8Bhx8waO7iXT5+fHtuLpKSpiA8LFiRVD9VCRipCJsUSeVtyMAuUxCeMaDBPJPPHIRHyXfjTD5LISlVTf2kHvor6t7Zl1Kke5GSj1aEolxFzFtQlLseO7esQW6J+3w+MhfPxYp0Jflmm9znUydgOq0ISvJNGBV5zYoQ4oewAFoR3ODj4QIPl55w6dkVDnYdYWvTFu1bNTX1pWrjuxpf4+sv/of/ffIBPnivKv771ht45aUX8dCDD+Avf/kLXnjhBVi1b4+pU6di/371y0HjN0ETlsKZs2eRtXYtxo0bh7DQEPXgcwUjJNAf/r7qP6yfD8KClBQIGYiw4ECEBKnfuOHhmDRpkpJd63HiBF3cfyyOnziJpUuXYvTIGAT5eWFYmD9S1EOXtWQOctevMGbyqYf1ZzP5uMt3h2fy3VmQTCn5VBV42WRFOG5YEU4oMj6sSJlWBLP7nE78jZR8Sw3Jt1SsCJR8CWJFEMk3Vkm+mCGIiQhFRFgABputCJR8fRzFM9WrW2cl+drDpl1LtG7WCI2U5Pu+1reo/tXn+OzTj/DRB++i6ttv4tWX/4Uq/3wMf//bvXjgvr/jiy+/RFhYGNZkZurBE7cBlZawTqgHfsWKFRiqiKdXD3t062wDF4euqsy3g6N9Z7iq36TuvbvDTf1n7dvLHn162sHVwQ5O6j+uo30n2QGin6anvS1cezsoQgtEQnw8Vq1ahX379uPyZfZ8bi+OHT+urr8a48eOQejAARg80AcJoyKwbF4ytq9dhl2m7HNjJl8OTh/IM6wIP5vJZ4kkRclHK4Ih+a6c2ivu81P786RyZAXJHU5uItCKsHn1IqxbniYkRcnHIzJ0n8+YPB5T6T6nFSGGVgQl+QarX0BiRfAUK4KXW2+4OfVAbyX57G2t0bF9K7Rp3hhNGtRF3To1Jcfqi88+wScfvo/3qr6N1197RSTf/ffdh0ceeQRVq1ZF9+7dMWvWLD2H8DajUhEWZ8FxKsvcOXPg1scVnVVZT/LxVKU+j0qE+XtJ6sCgQFVRBXiXufixwaYV4ueJAPUfnM1X77694dy9Czq2a4XO1u1VpRYsv1V/b/l/4eIlFBQUyEy+oIABCPYzZvKlpSRi/fJ0U1/KmMlnDsIzss93X5N8V46pK1noLp9IPloRjAPHl44V4Yx6fcco+Qq3KslH93mmSL5sJfnWr1iA1UryLVeSbzEl33RD8k1LoPs8xpB8UYMQrSTf0OABCA3oj0D1b2+WfM4O9uihJB+tCO1bX7MiMB30q88p+T7Eh++9g7f/8waef/ZpPHj//fjbvffgtVdfld5UQkIiCgsLtWv9DqFSEdbWrVvh7eUJ67Yt4aF+gwarsp8kRSIKUUTA37C3uvh15kUfDq8XpB4AR/uOaN+qCbp3tcXImBisXbdOpGd5cFU9q7t278HixYvU10bB38dDrAjzpicokkozJhzTfW6eySdWBPNMPkq+0u5zM0lZSjXF+7xmRWBlSJISyVdsuM/37dioXn8W8jauEivCxpULlOSbixXzU8V9LlaEqbQijMOU2BjEjx6GscMHI6bEiuAlGxK+/VwMK4KjvaqUO6NLx3awatMCLZs2RMMfv0cdSr4vPxPJ9+H77+Kdqm/h5ZdexCMPP4R77/k/VKnyBGrWrImgoCBsz8kxbl/jjqJSEBaPn7CqcnVyRFf1n9K9dzchmEGBhgy4E4tnx8JVtebh1B1drNugm20HeHq4Iz4uHnn5+aY7ux7Hjh3H4kWLMWrkCAwJC5IHa0JMOFYumKEqqZXYaRrDfqgwW9I6jZl8pjHspd3nFhmEp0j1KiWfKRWB7vNDSvLty5O+lJGKsA55SvJtK0lFSEfGQrrPp5lSEUySL24kEmlFiKEVIUTc58yRN9znfcSK0EfJfUdxn1uhg5J8rZTkK21F+KLaJ/j4A0VSb78pku/pp6rgvr//HQ8/9BA+/fRTuLi4YF7aPJzUR2r+UFR4wmLfZ/ny5fDxdIOtVSv4ujuLlyaUlZBvv58Rze1avDZJMTxogBCXv2cfuPSwg436Dd6g3vdw6NEd8+al4eDBQzh0+DDmzJqJQcEBsn0eP2oo5s+YiM2rF0glZUg+zuQzpSL86kw+S/BLESaSYgVIyWdORVBVogTh0YpQYLYirJYgvM2Zi7HOFIS3LG0GFs5KwtzpiUidEovkhNEmK0KEWBGGhxupCJTt/t594eXhBHdnBzg52KF7F7rPaUVoimaN6uFHus+V5PtSJN8HeP+d/+KNf7+KZ59+Eo889A88+MAD+Ne/XoStbWfMnTsX+/Ypqa3xp6DCE1Z6ejrsbDtJUz3MX1VVSv6VRTB3cpG4zP0x3oOPIk2r1s3Ep/Of1/+N72vXlEbv7KmxMoKd5MR1IH8jjuzaIgdxS4LwSqwIFpyKIJJP3TslX6m+lJGKsAXFSvLt3JKFHRtWYoukIswX9zkl32KT+5ypCNMTx2Ly+BjEjYq8XvLRiqBkua+Hkny0ItB9brYisC/VpAEa1K2N2jW/wddfVEO1jz8UyVf1v2/hheefEysCd/meeeYZfFerFqKiolC8dy+u6IC9Px0VlrAuXbqMffv3Iy52nCIra/S271TSOC+LVP6oRfIicXFXyk9VXSSuLz/7RB6cju1bS1WwcsFMyT4XI6eqoK6e3W+SfOa+FCWfpe3y8cCx2X1+CJcZhHd4t2SfH6b7XJGzZJ/TimCWfEvT5GchqQgzJ5ccOJ4aN+qa+zyCki9AJF+QknwDlOTzNEk+WhHsOynJRytC84Zo/OP3+P67b03u84/x0Qfv4d3/vi3V1BOPP4r/++tf8Nhjj6GWIikfHx8sWbJEmzvvMlRYwioqKsKImBi4uzohyMdDScCyCeR2Lmm8q0qKb8v6uHlRLvLzKBe568jdqVZNG6Jm9a/EhNhJERd7Lcmq4tqxYxMuXyJBsTJhJcW3lrADZZJ8ZisC+1ImyXdK3OdM69yM3UrySV+qVCrC6lJBePMo+SYzFWE0EscyCI+Sb1CJ+zxYST5aEbzdnODm5IDeSnZ3s7VBR6vWaNOiCZo2rId6dWrKgeMvq30qVoR3qxqS75mnq+DBB++XBvqbb/4Hrq6uSqbPw9Fj3FXVuBtRYQlrx45cePR1lQrGX/2HZlVTFnncziU9MV9PqeLM9giSV1m9Mr6Pi5/DBj1lDI96NG1QV+RKh7Yt0aOLDSIGByF783pcsog0SlZ76j5LrAhHlPLbj4tKyp45WCBVo+E+3yDu8+1K8mVnLsW6FfNLBjQsmp0MBuHNnMJUhNFGEF6pVAS6z0NN7nNvD2e4ixWha4kVoR3d543qm9znSvJ9Xg3/o+R7j0dkXscLzz6Lh/7xIB544H5xnzdu3BgjR46UA+Iadz8qJGFduHARq1etgrNjD9i0aSZeqTtJWGzik3xoLqyh5Aabua69usHH3UUIiX0VI8itbOLiW5GJavmqr+GRD+5W2SjScu1pD5eedogZFo6crVtw8SKl4N0EkpRJ8v3aTL68jShUkm+HWBGWYePKhRKEJ5JvjjkILx4ptCJcF4QXUurnZ7jPPfsYQXi0Ith1bK9+Ts3RqplhRTDc54YVgZLvnf++hVde+hcee+Rh/P1v90hfqk6dOggJCZHD4VryWRYqHGHRYZ6dvQXjxoyBTz9X9BdTqMdNZdrvWSSskAH9FdE0E98OKyQ+QPxN36ppI/Ts2kkkILfXf6mHRuLix4Yomejf3w32nazRoF4dNGv0oziu6byn+zoxbjx2Fe7EVUYy/Kko1ZcyWxFMM/nMQXhlzeSTILyFs7CMQXhm9zmD8CawLzXcsCJEhiGSVoSBPkryma0IveHGIDxxn9ugg5LNPCLThFaE2jVQ45sv8YWSfB99+B7ee+e/YkWo8sTjYur8x4MP4oMPPoCTs5P0pTQsFxWOsFhdLV+xAhFDwiWnaKCSDmVVNrdzRZgqLPah6Ir2cHYQF3X/Pr3Ryao1Gqj3sWLq0qG9ONWHKllT1nV4DY7OilAfZ3/LxcEeLZo0RJOGdWWHq2/vblJt+Xr2wfSkSdhZULaf687BtMtXxhh280w+IwjPJPnKmMlnPnBsDsIT9zkl3zCT+9wk+RguyN1UdxcHkXyGFcEIwmvWuD5+FMn3lbjPP/2IVgQjFeFfL3CX737xTL366qto166dnBEt1JKvQqDCEdbZs2eRlJyEvq7O6reyk6p8+qn1c3K4nctMWPyNz9/2jt06y1Ef9s5oVmSFx2C35qpaIqH1UlLGbCwti0z5PlZkbCz7eriiReMGaKTkDpvJfZ26o6ddB3Tr1E5kYkH+nZ4YbOpL0YrAVISLx64F4SnJRysCZ/IV7VAktXWNBOFJKgKzz0vN5EtXJMUgvGm0IpiD8KJMVoQQYyoPf07iPu/Ty7AiqMrU1qYdrFo3Vz+D+mhY1wjC+6bEff4O3vrP63jx+efw+KOP4L5778U/H38c9evVw4QJE5CXl6clXwVDhSOsM2fOYGJCAhwdusHT1VF8TzQP3kgKt3OVrrBIWM4OdlJh0fNF0uIuIHOTPvvkI7zyrxfRpnkTDB8cJL2ZsgjLvChjSWp8mG1VdcHzbJSd7OGw2urW2Qp+Xu5YvXL5HfAI8XrsSxlWBNnlo/v8yG6cLJV9Lu5zsSIsK5nJt1Lc56aZfMnxJiuCKQhPST5z9jklHytK2jso+fr27m7KPrcyUhGaN1JEbXaff24E4X3wPt5Vku+1V14SkmJfim/ffecduDg7Y23WWk1SFRgVssJKmTYNHn2d4eXmpB78X5eDJAUSAtdv7XMZxOMpZMKeSh9VHTCWpF2LJvhaSZb/vP4qnqpSBX+792948oknVcXQUiqLyDCD6Mq6pnkZhlMfcH5d9y4dZZu+RZMGcGRfS32fnnYd4eXugtkzpuH07z4mwmrKbEU4XjKT7+KNM/m2r0c+g/DoPl+9GOtMQXjL01KMILxptCLEGgMa6D4fORSjhhkz+eg/E/c5g/BoRVDyubcieFaPDMJr29JsRaiFWtW/wpefG0F4dJ+zmnru2adx331/V5Lvb9KX6tGjB6ZOnaLd55UEFZOwpk9DPzeXXyUsg6iMOXEcv+Tt5iyHl7lbR/Lin29GYGayiQ4PBs8lUra8/eYbeOftt/DG66/hySpPyHpZVVX/fvUVVQk8hmeeflokDr+mPIRl/rhRkfiqSqsd6n1XUzxGJC1WJB3aNJU+z8yUZOwrLpJUivLD3Je6oIoq48AxJZ+MYTcH4Zln8kkQnuE+37CCM/nM7nNzEN4197k5FYFWBE7kCWMqgvpZc+fUCMKzR4+u19znLZrUl80KWhG+MlkRmNb51puvS1/q0Ucfxr333KN+nlXQonkLxMcnaCtCJUSFlISTJiaid8/uIp1Cy5CEJAFWLpRy7BG1atoA1T7+QBq47RWZeCnyolSRKBkTgZUmD/MioYWqj7HCoqThWbSHHnoIjz/+GF5SJPXqyy/h5RdflOMezz/7rJxJY24SvWEx4UHlIqzSS+45xB9uvR1UBfId6tetA8fuXdBHycPONq3RRT38k+JjyyGJzH0pRVIi+cqayWcE4TEV4caZfLQiGEF4JiuCzOQbIVYEs/ucr+1GK4LhPmf2uZJ8bVuiFYPwTO5zBuF9/unHSvLRivCmpCL887FH8cD996HKE0/g888/g6+vD9auXSu/lDQqJyokYSUkJqJXD6OHZVRK1z/4QliKaNjU9nDpJX2nH7+vJb4eGhDbtGiM1s0by29/uqdJTCQ3jnLiQ8hr8hokM76fc+cYRfLGv18TQnri8ceV9KuC5555RjxAbBDTo8WjN8zL4i4i87RIiKXv62aL35fNesYg88Fnz6y5quqY69W1Y3t0aKvIVlUw89Pm4MiRw6afSGmUcp9fOWFIvpP7IDP5lOT7+Uw+0xj2G2bymQ8cT40fjQTzTL4ISr5AhAf7lrjPjb7UtZl8TEUoHYRnWBE+wSdK8r33ztsm6fxP6Us9+OAD+PDDDyUVYcGCBer1HDFegkalRoUjrAsXLmDx4iUICw6Gn6cbBnq5qYf9+irGTFiUWZQnJCyaDpmRlBw3SsLehquHz7lnV+lLtWzSUKah9OzaWQiODyOrHUaXUNoxP+mRhx/GPUqyvKwIqpoiKBIJzaO8TlL8KBkTxV4UicbDtZfYFsyV260s3jvPG/LeSQKsTJo2qCdHUrir1rLxj7DraIU5s1JxqSSLnkTFXT6zFcGQfOYgvAM7t0iccsGWTGMmH4PwmH0uY9iNvpTZisBdvpIgvGGDZfNArAiqkhUrgoez/EydKfnoPqfkM7vPOaBBgvCq4VNV0Ur2uZLQ7Es9cP/98vN78cUX0KJFc8TGxuLw4bJIV6Myo8IRFgdGZK7JQvTwKPUAeSDAs4/IkuseerVIOMNUdcSHq2G979GqeSMZ3zQtcYykAfAc28KZU6V5zAY5t9odunaU5jCNoL3sbcUX1FhVCz+oaoEVGY+JjFWSiF9Pc2TGAiNdgGuJqk445CDA212kESUSezrlOXt44+LXsDojQfCALysWOc7TriXaquqwXasmCFfV45atGxRp8RziRTF2Xjq+R9JIZSZf4VZJReBMvh0bV2KLknzrRfLNlfteou55fmqpmXxK8sWVBOHRfR6AMHUPpWfyuTAIT5E63efWDMJTRM+frWFFMLLPP3j/Hbz91n/wyssv4vHH6D6/F08++SS+//57BAYORGbmGuMfUkOjDFQ4wqInqah4L5KTpsJdScLe3ToJMfDhKv3Qk7DoUHd37ikPO3eneAyEsmf9ivnIWp4mTWXmL21buxRb1cpaxujdGfI5JCFWHUwQ4O4YBz8wEoYDSfPY81mzVJrT3EXjEARmjNPxTTIgSTZvVE+c20ND/IWASt9beVeUqrIGBXhJFViz+pdiAzA3sXmmLjwsALsKt4kEPKdk35FdW6UvZczkM4Lw6D43rAjmVAQjCC/lZ6kIodKXMqci+Hn2haeSfOYgvK5mK0IzzuRTJF6SimBkn7/737ekp1fliX9KX4oV6fvvvwtvbx+sXp2J48ePm/4FNTR+GRWOsMzYuGEDXJ0cYN26iZwlpAQr/bCTJNgP4q4VKxM+9LQixCupw4SA2UkTVHU1FrOmxoqXiFWTVEpqsfqix2jRrCRJFeBElswl8zB3+kSpRvjQk8QyF89G3sYVOFaci8snD6i7uogLpw5idPRQ2LRtIf0xY5v/t9kpKMO408mKkRXfj0pycZF8aVBlc3ueuu+Diqgo+zhJRmbyKRIlKWeaxrAvnG2eyReLJI5hV5IvdmQERg0bZFgRlAQN8fMqGcPOIDzuStJ93kmC8JrIESIG4X337Vf46oaZfE8/9aRMkPnHgw/g5ZdfRuvWrTF9egpO6onHGreICktYudu3w6OviyKs5pL2KefSrnvYSVgDZJeQU1GaNqoPe7suGDY0HFMmxmPsqBGIihyKkTHDETt+DCar9yVNmYTEhHiMHjUSUVHDEB0TLcc++vf3QtNmzdG8RQu49umDiMgIxMXFYmLceEyfkoAZSZOk4lu0aDG25+5AWlo6Bg8KhZ8iAJIp+1K/hbTMvTj2kXgM6Ida30ojm9UVzzJSlrFRz+MwHNKwff1ymcknR2QU8aYzFWFqnHFEJtZsRRiM6KHBpiMy3oYVQQY0KMnHmXx0n3doKzudtHE0MKUifMMgPNOAhqpvvyHjrpiKwIypF194Ec2bN0dERASyN282/QtpaNw6Kixh0aMTFhIMB1V5+Hv1lekopR92EgRl4UD1QHq4OKBX9y7o6+okD1XGypXlinPJy8tHamqqIqc4OVRb1kgnjvxaumw5kqdNw6xZszFz5kxEDouCY69ecojXTUkq3s9vacBz8XXQDU9iYW+NplLaHdjXYtXTWhEXz+bRfc5G+oKZU00z+ZTkMx84VpIvJiLEmMknxE7JZ3KfO/YwWRGsS9znkn1euwaqf82+FIPwOJPvLXGfP/XkE9KXYsZUtWrVZCbf6tWr78KUCQ1LRIUlrP0HDiAxMRG+Xv3keMxAb+4WXv+ws0JhpUW5SOtDf9decOpui45WbdDRpj2ihg3D7j17SnbbmASxa9cuVSGlISYmRtbChQtvyWXNa+zIyxOSa9emlcgpnnVkP+3G+yvvMnYO/cQPxoY3SYTHeJhXXu/7WpJjzp3PBalTZFNhIoPwYkxj2GlFMM/k8+RMvmtBeCRUWjGuWRFqoaaq4BiExwPH5lQEWjm4y8e+FIPwbG1tkZKSoicca9x2VFjCuqB+o+cXFMhkZEYkO3XrJBXVL1UyUnGpj/H8H3cV2c/qpKRieyWrAgP85AFMmZGKxIkT5c+blbS5VQMjh7dyUvQkdY1hEeEI9PWUg9K21m3gqciSMoz+LBJQWff4a4ueMH59H8fuSt6yn1Rb+lmshGgvYBrC5PEjpJqKHmKWfF4I4Ew+cZ/3EhsHP7ck+1xJvvp0n9c0uc/NM/nefAPPP/cMHnyAaZ1/lb4UUxFIwpyhqLPPNe4UKixhmTFrZqq41ztbtRYyKpdZU5GXUXmpykORF2cMtlFSqFtXO8yZM8d05fLhylVge24eZs+ejSGDQxES4IMZk2OxJydLvE+xo4ejVauWaNKovmRe8ftT4pFA2Uz/2b39ymK/isTl5e4s5/HodaLviYZNmmiF1EL9pJo0UhGuD8KzbmvM5KP7XGbyyRj2j2VAw7tVGYT3Ih41zeR74p+Po0aNGvD38xPy1tD4I1DhCWvt2iwEBwWoh9NJyCfEr/zVi1kyUmoFermhh5JIXTt3QGRkBLZs2WL6DmVjT1GxjISKiR4uMwZZ4axckCrhdj+dPihWCeZAzZ05HTnbczEhPh5dbTuhZ9eO8PNwke/7W/paNJRyR48yjk3w2jW+kb4WNxZoo2Bvip6p3t1sJSSQhlh6yHhou66qxmpwDLvM5DPSOin5njHN5HvooX/g448/hpOTkxD3iROcgaih8cehwhMWBwosXbpUxryzUvJxc1JEYGStl/XAl7VIXKzM2Cdy7WkHq1ZN4ercGzNnzRKZZ8bJk6ewfv16REQMld7ZuJih4hLnEFQeIj5atB37C7JxvHiHuMhZQSXExUpf67KSUVlZWejbx1VC6vqqyocEy6qQxFXe++XxIVZQPKpDZzklXe0aX6OmIiIeuqYdwd7WWmKczflc12byfYj3360qAxqee/opmcnH7HO6z21sbDAjNRXFxcWmV6uh8cejwhMWwem8tCu0VZWEmyICNtlZwZT1wN9skbToR7Ju3Uw9+B2RnJykqq2tmD9/PkKDB4qc5KFgRgPTSHpIPFDZMnihcOtaMW6e3J8n2VFRQwZhypQp1/XCJG0iJUXkJ3OzHFUlxOqOBlPGJ7MP92s9Lr4u9qYYhtdNERN38jh84SMl6xrUrSOWh6YN68pMPgbh8RgRg/BYTf2LM/n+8aBUU8w+r/Htt1JNkqRIqhoafzYqBWExvSB1Rir6ufWRGJkQPvA3HIi+lcWKhzHGPF7DxAH2iEYNC5OkTSZwHt2zXYiJJLVn+/pSa4MchzlQsFmMpqNGRmO2ko1nz50z3ek1MLN91erVCAwIQMN6P+CHWtXRXUlSVmXiOB/4y2mlrMp4zpHNdO4Wvv7qK3iv6ttCUKy2mEpByUf3uczk++dj+L+//hUPP/wwvv76G3j27y82jXNl3JeGxp+JSkFYPK5z9OgxzE9Ph0NXW9i0bipVy43u9/IuyjOmNnCyMJMIaJuYlRwnyZs8oyfz9nLWCUntzjHIiuTFg8b7FVkxPyopcRxWr8rAkaNHy4w4PnX6NGbPmYPoYREYGTkIMUOC5Pt1tm4t/Sivvk6yo3ijVCShscqiTcKvXx9TL+sjISeSFiUf3efPPfMU/vHg/bjn//4Pb7z+OpydnWVj4MCBn3vJNDTuFlQKwjJj9+7dCPT3g10na0VYfdUD/9vMmuZFsuAyH2bmkZzjMtZqmxyDYUXFIzFHFVExuoVHdDZkzJehn3Th5+TkmO7sGg4fOYqkpCT4ensKoWakp+CUuuZPJ/chd90yRA0KgFXrFmjepBEc7LvIfYSX6eJX0tXbHV1s2uHbrz5XldQrePqpKiUz+Z5/7jk0bNgQI0aMQEF+gem7a2jc3ahUhHXm7Fls2rQZ0VGR4n9ilLH0fNQq/cCXd7HKYjNeAunatZQjLoxsOc2hoYpkTu0vEAm4eslccZR3VJ/z+acfon27tpiekqKqvqOmOwN27dptEJVXPwnpW7tkjiKqXJwo2o4NK9IwRknOwcH+mDs7FUuXLsOgweHS+A/wckfoDfLWqAB9RLp69ukts/pIVs8//zxq166NACUzMzMzteTTsDhUKsIyY/bMmWjfppV4j9jIZoXya43sX1oGYXkLYXFnj7uCzDynLMxYOAtR4UFGIGCzRmjdtD7q1v4WVu3aYOGCBaY74dGdfYqEZiF66CBMjY3BTiUrfzpRjKOFW7B8bjKGDwpEoJ+3mE1JasThw0cwUf3dp7+HIqy+CPJxL/P+WGXxcHStb77Aa6++IiSnoWHJqJSEdejgISyYPx9e/frCzqYNvPr2LjFrlvXg/9IyS0KSHQ9RM7CP+VS97DtJGgPP3bHH5axW+xaN4du/HzZu2iT2hwMHDmDMmDFo1rghvq9ZXY4ETRgxVKYeJzB3KnooxoyIVve5QMnE69M2WSmuXbcOo0cMl9l93n0dS+7HfG+8J1ocWK0xArr6N18hPi7OdAUNDctEpSQsgsmkY8eOQUfrtjK5hf2sWyUs82LUMl3mTNX8stonsG7TDAP6uSjS8ICPmyMcunSAQ/duYlcgmKienp6GDlZt0Ljed0qadpNBGO5ODpK60EGRXaP69dC/vyeWLV+OQ4cOXdeYP3X6jBwojhkeKf2wMglLLVaPXDwAXatGdU1YGhaPSktYnCxTXLwX05KT4KwIo3vn9uJdujGGpjzLPJeQ4XV0izOGJTLUH159HFGvdnV06mCF9evX4cqVq7iiiCc1dSbc+rgISXHQK3f7aFNgz4nER68VdzFde9rL4ePOHa0REhIsVRWrKyZJpKWnI2Sgv+xQcgOhrPsSyaquybOBVm1bS7KEhoYlo9ISlhlMXwj0HyBj5Af0c1VkcetVlpmw6MniMAsXh67o26srbFUF5ePliQULF5YcYzmoqqUAP180rFtbmv489nNj05+VEt9HsmFIH6u1LtZtYNWmBYIHBmDkyJFwcXWFQ7euBskqYir99deuo96q++IgCF91H6tWZsg9aGhYKio9YTGnqai4GKNHjhC7QPfONtLPKtchadO6RliNUV8IqwvsO7ZHJxtrmfhiBi0L6aoyCvL3hUuPLvB1dxZiupkU5cf5PXhfPBrUumlDyUvvaW8r0TTmeJgbl7nCslMVVof2beQguIaGJaPSE5YZO/J2IGp4FBx72EuTnFKLMq08fS2SCT+P1oYv/vcRvvvmcwQO8EH25mwZO2YGd/mmJSVjcEig7O4FlpHR9UuLhMi3vCfu/lFGUj7e+HmlFz+Xn2fTupnkWSVNnWy6Ew0Ny4QmrFI4ffo0YsePh12njujj2E36SySim5HWsLBABClp1vjHOhLp0sW2sxy4vhFFRcVITZmBwcGBGODhIqTFs4dlXfNmqzz3ZRyc9pI8sK6dO2Le3FuLxtHQuNugCesG8EgMLQ/dunSCVcsmstPHg8dlEQJ34kga3CVkRPEP39XA1199hYDAIKzIyEBhYeF10cC3k7DKsygX2cNiqJ9P/35YmbHCdCcaGpYJTVhl4NSpU1ixIgNBgf5y4Ni9dzeRVr+UT0Vpxl4UG+CMFm7ZrAms2reDr68vxo4dh1WrVkkKA6No0uelYUhokEFYSnbeScLifbFKdOnZDZ4efbFi+TLTK9TQsExowvoV0OQZIGcPreDiYCcDK0rSQE09JS7+me/jx+ia9/d0hYNdR9nVs7FqLweLAwcORFTUcEQPH47wkEBFbu5CcKUJ5nYv7hKSsPo4OsC7vycyVNWnoWHJ0IT1K2DEy7Fjx8RgatvJBj0VCfmJ9aHs84dm4uIOIysyEhKz2nt06YA2LZuhevXqsrrbdRIXOgkuyPf6a9yuxfug5PR26w0/H0/Ex8dLxr2GhiVDE1Y5kZubCy/PfrBp29JILfWnDPzlxjffz8XPoe2ABMXBFhw+ymnTlJe/JDF/7+L35Q5hP2cHdGrfEoOVBM3Lzy/X6DINjbsZmrDKCY76ojN+Qux42HW2QXdba5F1HBVPUiqLOG5cJChGxtwpojIvVn8kSNde9mjaoC4Gh4VIX05Dw9KhCesWcebMWWzavAl+Awagbcum6NW1o6QlmONcyiKQP2OF+HrIWPl+7n0wY8YMSV3V0LB0aML6jeDhae7+9e/nbgx36NFFiEty1xVxlW7K/5GLFRwz521aNRUnPC0ap0/f2vxEDY27FZqwfieYx56uSMHN1QVWrZoZFZevu8S6UJr90cRFiUq7BMeRBQYGoLBwl+lONTQsH5qwbhM4TmzhokXw8/WWIzr2ndpLpcP0h19rzt+ORQOreWfSwdZaEh7ixo/DwYMHS8bsa2hUBGjCus04d/68xDCHhgQrqdgStlatJbNKXO0mYrldvS6SIK83NHiARNnYtGmGHvZdkDgxEXv37jPdkYZGxYEmrDuEK1euKNLYi7gJE+DUqyfsO3eUydGO9p2EXHjOj5NteJC5TE/XDX8veb+SmCQ87gLyLa/V084GPew6wd9vABYtXoyLl/QMQY2KCU1YfwAuX76CvLx8TJk0GcEDA+Hq1FPy5Ns0a6AqMI7schQz6pAgI4lhaIgRbSzm0qAB4uMyXPTG8nHrDTvr1qqiag6nnt1lEhBDASlLNTQqMjRh/QkoKt6LuXPnIj5uAqKHRUrfq2f3rrBu2xJtWzRGy8b10bxhXbRu2kDG4jMehuTU2botejl0hXd/DwyLHCpzBPPzCyRyWUOjMkAT1l0ADpnYkZcn/q61WVnIyFiBxYsXyfTlZcuWYfnyZVizJhPZ2dnYnpuLQ4cPm75SQ6NyQROWhoaGxUATloaGhsVAE5aGhobFQBOWhoaGxUATloaGhsVAE5aGhobFQBOWhoaGxUATloaGhsVAE5aGhobFQBOWhoaGxUATloaGhsVAE5aGhobFQBOWhoaGxUATloaGhsVAE5aGhobFQBOWhoaGxUATloaGhsVAE5aGhobFQBOWhoaGxUATloaGhoUA+H/a6Dn0TASwDAAAAABJRU5ErkJggg==;clipPath=inset(22.22% 24.67% 13.89% 17.33%);aspect=fixed;" parent="1" vertex="1">
          <mxGeometry x="1120" y="280" width="200" height="137.93" as="geometry" />
        </mxCell>
        <mxCell id="KAyXB3LFF11qL9irPbgj-15" value="M2.5 heat set insert" style="shape=image;verticalLabelPosition=bottom;labelBackgroundColor=none;verticalAlign=top;aspect=fixed;imageAspect=0;image=data:image/png,iVBORw0KGgoAAAANSUhEUgAAASwAAACQCAYAAACyAlbPAAAAAXNSR0IArs4c6QAAAARnQU1BAACxjwv8YQUAAAAJcEhZcwAAFxEAABcRAcom8z8AACU6SURBVHhe7Z1nVBTptobbMYJKzrlpUAyAJFFHURRUFHNCUZKCIlEMmDErihkVI5gxoAJmEXOOmHOcGXMaMY763v1Vwzkznpm5c87quedi72etbzVdXVVd9YNnvbtq19cyMAzDlBBYWAzDlBhYWAzDlBhYWAzDlBhYWAzDlBhYWAzDlBhYWAzDlBhYWAzDlBhYWAzDlBhYWAzDlBhYWAzDlBhYWAzDlBhYWAzDlBhYWAzDlBhYWAzDlBhYWAzDlBhYWAzDlBhYWAzDlBhYWAzDlBhYWAzDlBhYWAzDlBhYWAzDlBhYWIzK+PwZePYMuHsX+PFH4OeflcsYRlWwsBiV8eUL8P49cPUqkJsLHDoEvHtX9CHDqAAWFqNSRKK6fx/YsgU4eJCFxagWFhajMj58AM6fB/bvB65f55KQUT0sLEZlvH0L7N4NbNgA3LtXtJBhVAgLi1EZHz8CFy8CW7cC27crr2X98kvRhwyjAlhYzN+CKAU/fSp6wzAqgoXFqAwhqIcPgStXgFu3gBcv+BoWo1pYWIzKEMJ68EB5dzAzU/kq2hwYRlWwsBiV8+gRsHkzsHev8kI8w6gKFhajMsQF9ps3gePHgQsXlOLi61iMKmFhMSqjuK0hO1tZGjKMqmFhMSpDNI6eOqXsw9qxQ3nhndsaGFXCwmJUiujFEh3uT58qX8XzhQyjKlhYjMoQLQxCUk+eAC9fKhMXC4tRJSwsRmWI8u/2bWDXLmDdOuXFdyEthlEVLCxG5Tx+DOTkKC/Ac1sDo0pYWIzKEC0MP/0EFBQAJ08Cd+7wRXdGtbCwGJUh0tSePcrJ+8QjOgyjalhYjMoQj+EcOQKsXQvs26dMW9w4yqgSFhajMsQdwVevlHO6i6llRPMoC4tRJSwsRqUIQbGkmL8LFhajMsQFdjE1suhyF3cJz51TNpIyjKpgYTEqR/zE18aNQF4etzUwqoWFxagM0ekuOtzF9SsxF9alS9w4yqgWFhajMsRPeglRiTndxR1ChlE1LCxGZQhhiZ/4Em0NonFU3DHkKZIZVcLCYlSGkJNoGD17Fjh2jKeXYVQPC4thmBIDC4tRGcVtDeKhZ3GH8No1TliMamFhMSpDdLoLQd24Aaxfz7M1MKqHhcWoDCEs8TyhmKVByEpMl8w/88WoEhYWozKEnE6cUJaD4nlC0eXOM44yqoSFxagMUf7l5yvLQfHrzywsRtWwsBiVIR56Fq0MYmoZURKKjne+6M6oEhYWwzAlBhYWozJEmhI/QnH0qLLT/YcfeKoZRrWwsBiVITrdxeM4otN9zRpg717l4zoMoypYWIzKEdPLbN8OHDrEwmJUCwuLURliKpnz55UPQIuOd/GjqvzwM6NKWFiMyhBtDeLu4IYNwL17RQsZRoWwsBiVIfquLl5UzoclSkJua2BUDQuL+VsQpSDfIWRUDQuLURlCUGI+LNHlLhpIX7zga1iMamFhMSpDPIbz6JHy7qCYdfTwYZ7TnVEtLCxGJYh0Ja5hiUQlGkY3bVI+BM13ChlVwsJi/hKvX4sJ+V7izJlbOHfuIpV951BQcAgnTuTRst04fXojCWoZMjLWIDU1l15zkJ29Gvn5y3Hy5CacPZtH6+6m14PSthcuXKb93KF9vpKkxjB/BRYW87s8fPgFR45cRm5uFnbsmIPNm0dg9eoQzJ/fCOnptShBVce2bebYs0cXp07p48YNbVy8aIqVK32xfHkM7tyJxtu3TXDzpikt1yFpGWD3bj3ajxk2bKhO67iT1HypdAyT9r1t2xzk5GTh2LGrePq06CAY5itYWMw/uHbtAbKysrBixUiSRyB27mxAwpKTaLRJQPq0hoKGIw0XGq40PGh40qhNwwlfvrhTaupC2wyhbYbSNgG03J2G2EasI9YV24hta9GoScOO1jOgdKZF3ymnV2+SVwhWrRqJNWvW4fJlqi8ZpggWlhqjvKv3liSRj7S0SCn1nDxZFVevWuLZM0taoyoNNxp1ioaQjRCQeBVDSKj4b7GeMz5/rkblY2M8f96XElYQLRNyql60ztfbFO+reP9iH1Wl775yxYKSWxVKbB5YuDCaBJgvHSu3Sqg3LCw1RDRzXr/+mMq6DCrx/LBunakkiDdvqtGnzjSESIrFIv4uFktxSnLHy5dOVO45oKCgKk6fdqCyrwbtowYOH64mpaRjxyIoHXWl1OaES5cUOHNGua7YRmyrlFNxOvu97xF/O5P0qtE+LKhsNMfSpa0ova2kfTxjcakpLCw14+nT11i/fjXmzWtBJZ8x7t0zp6UiBX2dfIqHUlLv37tJUtq6tQoJTgxHZGZ6Ij3dlxJQZ3rfk0q5QVTKTUdKyiokJa3D3LmpyM7uT+uFYMGCDliyxEfaRmwr9iH2JfYp9v1Pef36u4uPRwwX3L1rJh1zWlpLKl0z6VwKaTmjTrCw1ISPHz9TyinAxo1jsWVLNUo/erRUXEcSpdivJVE8hDxq48YNZ9rGHhkZcpJRFRKFC5VnTXD7djcq//rROqPw4sVE3Lo9BbduTcWjR5Nx/sICKi+3YueubbTOClonncZCGsk0+uHOnS60D2+sXVuLUlMVLFokp/3aUeoT6U75vb9/TOJYnSmxGVDiqoYNG0bSOZ2kxMh9E+oCC0sNKCz8gqtX79I/eBT9oxtSSSanpcUXwL+Wgge+kBju3XPBmkwFMtKtsW9fFVy4UItKMU+SSj1szvVA8kRHDB/miAljnTAj2Qmrl3oia30TTE7xR+KgMCSPG4KxI4MRE+WG+DhnTJncGKtXt6DysQ0dTzv6ntY0mlIZ6kXH5ort26tQcrKidRS4S9/95cuvr5n99vjEsb98aUvi1adziqRS9C5ev2ZpqQMsLDXg2LGTVLYNwqFDdfDpkz3JoPiu3dcy8MSHDx44eqwG1q9TIH+HAhfOOOD0qeokuqpU1imwaKE9du1ypORVF8+e+pBwWuPL5060rbgjGI5Tpydi775lePVqGb0fh59/7olnz7rg4cMOlIyak5jqU7JyJ9nUQkGBK5488aBjqit995WrTsjdbIdVq21x9GgNSoXimH7vOGvTOdSk7ezo3Opj2bJROHWqgJYz3zosLDXgxInVWLHCndKNBb0T16u+FkDxoOTywhUblssxb4IZdufYYucWBVaulOPMaSG572k0otGEhi/evW2Ms2e9SD71kbnKDUsWfI8Rg4MxsN84zEtNRu6mWBJKOyoT29P6wTTEXcOuNNpSgmuMvDxXqczct68q3r4TrRKeuHvHEQtSLZC5TE7HIpb9UXkoRi0qbeUkU29cvLiB3jPfOiysbxjxSIyYsvjcuSU4eLAm7twxoaXiAvfXpZZ474EXha64crkGzm9VYPtMc8webYJt2+zoMyGNBpR46uDkCUdMTrZBr17GCAs2QWyUNWKiFYiPUWBgvB0GJzhiyMCWGDqoN4YN7ohB/ashKtICET3lGNTPDsuXitLSi/bnR6MZJa8GOLDfETu22+Hu3ep499wJNw/Z48QOO+mu40s6puLj++0xi2Nyo22MsH9/FUpY8yit/cLT2XzjsLC+YcSzfT/++B6HD89Gfr49CcuIlhb/s//6n18phML3bjh9phrSRptibqIRCkgche/c8fatGzZk2SMmygjB3Q2QNFyO3BwPnDrZGE8et6LSrAttH0ojgkY4jcE05uLzlxQqCcNx/VpHHD7UCltyvTB0cFW0bWWEyAhTbM11RGGhF27frYOcbAecO1wV7y9Xw087FTi9WYGCczXw5OWfCcsd9+8bkYztceTITJLXW/6l6W8cFtY3jJg9obDwFxw4MJ9KLwecPWNMS0XC+qMyyxMPHtZCv75GCPTXxpl8O3yixHNohwJTxplh1gw5blwXF8ObSePtG19cudQYhw54Y5fUFe+D2andMWL4UEyZPBmbNiTi4rkuuH+vAz7+IspBIbXuePigJZalu2BYojXGjbXCll0kqQcueH+jJi4ss8KyocbIzrDB4ye16Bz+6FiVCev8eRNkZVUnYS2gc/0onTPz7cLC+sZ59eo9UqZMQotm2liaUZmWiLuDf9zK8O69B/L3OGASCWpSP0OsSTbF1b32+PhOCKIejh5xRto8BUaNtERCnDmi+1ghsrccPcMUCApSIDTUCt0DPODXtCcCOgQgMd4BgwdYoF98FSSNqI7Fi4RkvGlfrfHsaRPMm1cFA4eYIHWmJTInmyFjmDHmTDLH7r0OlJZEqlI2qv7rEOfgSSLWQru2epg2bRKeP3/LwvrGYWGpAWmpi1HHxRoJsRq4caMafvkk/uGFgL4us8QQy+pSeeWMmVMsMDbeEKunmyNtljUmTrBE/wRTDB9CKSjdEQcP1MfzF/60fiCNXjQiacTjdeEEXLq8GDdvT8XPr3vhpx/bY9eOZpTQPBAbrUDPUDPahzV257nixUsvLF3oADeH8mhcWwPLF1Oyeqy8AP/Hx1cbnz574NqN6oiOrIBa1a2QOmMRLWe+dVhYasCNa9cxe9oEdPRzRHSYJk4dV9A/vLKV4M+k8O59bVy57CSlH1/vivBvoYtNGx3x9Jk3fvnFF2/fNseL5/6UlNriyRN/Sk5tsXhxLObOnU5/z6PPxtDojTdvQmh/QmihlJoCcPyYD6amVEdwsAk6djRAVB9jLEqzxoXzjnj3QYj0z2TqSeVlPRw/WgW9QyrC53sFkoYlouDMWfqM+dZhYakBHz4BZ85eIFl1hmdVGXp1LovMFQrcuu2Cj5+EtIrFJa5vfS2I2pTIPKi0dMWFCzWQkWGLKSmUtiZaITjICN/X0YanqxZqOJSDoX5laGjWg6V5bzRv3gdeDRrAxloH7i6VERdth4x0N+zcWQfZObWQmmqHtDQbHD0qHnYWiUr5XX8mqi+U/O7/4Ir5c+VoXPc7mGrLEBQQgIJzV+gzRh1gYakJjx49RWhoOHTKy+BVQ4aYLjoYHmeMhSSNE6edSFzimlA9GkIaXwujWBr/TD9v3rhIbQfbd1SRutMXLrLCnDm2mD3bHXPndcWCBf0xf35nzE5VYOZMA6TNs8T6dbY4d86Bkpl4JEgpoT+WVPF31pU67y9ccsaKZbYYGm+Ers214Ggpg2ElOo+ocEp3PIGWusDCUhMuX7qK4G6B0C4nQ1ULGTo1qYR+nXUwqpc+RscaYWKSBdasrYL7PwmZFKeuYpkUj6+FIj4vXlcITyQ0expCfH1p9KQhlotnBJUXyZXbfL2fX39H8T7r4OdCV2zcWAVJg00xMFwfUZ100MGrIuo5asBUXwZdElZCXARevnxB6zPqAAtLTTh1ugBt2nSGPv2T+7qXQsv6FeFkXw5tSABjSAazEgwxe5ARUgYbY8JwM6QvkqPgfA08eeqKx8/c8KrQHZ9/IxTx+ushpOSGW7f8sXdvNPbsScTNm92kZcqJ+oq3LR7KfXyh8fqtO548d8Ojx244T2XnooU2GJVoikkDjTEmUh8DuumgVystNPXURE278nCwLQ9jPRkqUlrsHd4LDx8+pn0x6gALS024cuUaenTrKiWsmtYytG9cGd2otApoVhktG1REE5JBRHttLBxqjI3JpsicYIL00SZISTTGpGGmWJhqie2b7XHscHWcOulIYnHC5WtOuHLDGdduOePeT854+rIWnv9cCxevtsCa9bHI3R5Ey13w5EU1/PTIBddvOuPSFSdcvOiEs1SGHqV95W6yw9wZlhhNchrV1xBTYg0xPZ5GP0OMIpGGt9VGYzo2J4fy8HTRQHMSbJO6mjDWlUEmkyE4OIJKwmdFZ8l867Cw1IQ3ha8xbeJgVLXWgomODIHNNZFCYgj000btmhoIbaONAT100aVpZdR3roB2jSphGkljy0wL7Ey1QP5cS2Qnm2MBpbD5Q4yxOsUcmfRZxhRzLKTla+ZZYtdaa+RlWWBteh2kTe+JRTPbIyvdGttWGWHTYmssTbHAkglmyBhnhjkDjZBK+1850hjrxpsifYQJJTxjjI00QExnXfh5VYKHmyYJqhJ6+GuhY0stNKa/67pqoB6Jy7Eqlbb2MiQlReDVKy4J1QUWlhogmilv3bqJMUlRlFK04F5Nhi6+muhF6cWLpNDBpzJWTzTDLEo59Wtp0OcVEBOgKwmkJ63jYFMOLaiEnBxniMUjTbCI5JJG0hJpbOUYM2yeaobj6YY4tMACqfENMDW+Fw5l9sXFbB9sm2aCnEm6yEkxQ+ZYU2SI7YeZYNYAI4yIMEDfQF0khulhaJg+/Og4GnpVxiD6ewSlre4krqAOOoigEeCnhWYNK6GeB6UtOj65hUyS1sRxEXjxkhOWusDCUgPEQ9BHjhxD98A2UFjK4OUioxRF//hVyiOMhDStvxEGBevDo3oF1KpSDjMp/RxfZo1JsUbwpPTV0E0Di5JMsJNSVEhrbRjqlqHlFZA+ygQ75lgiiBKQW7Xv0MmnEiI7+CCqWyx6BYUisJMrwttXwuhwTSRRcgohCSZG6GMx7WtMjAECSUQhnXUwgj6bSQJMJgGOTDDCqBhDDAk3QC8SVitKfE0pWbXxroROVL42p+RXi77bkEpCU0MZovoE4ML5C/jMfQ1qAQtLDfjw4ROOnziJxEEd4Oslg3+DUvjeUQO1a1TAEEo346IM8D0lK5GuplCZuD3VEkmUfmzMyqKBiybWU9l3apWNVK452pWH3/cVkTXVAmcz5VLqcq9WHh2blMfGqabImlwbvTu1g3e9biSixji0xJLEpoXg9tqI6KaLhSSrLbMsMJHkNCTeCOuptFwy1gzRvQwwjPY/gUQWQamrF8mtf3dKWG214EfSatVUC96eFVFDUR41bMqjbk0ZOraQYe7M7rh58xr3YakJLCw1oLDwAw4ePIKIiLao5yZDUMvSGNhDj0pCHbSj5NKAROXlqiHJJ2+eFQbQZ1Wsy6GxhwbWTDJFwRobxHXVhZFuaXhTSbaZhHMjxxaDQ/Vhb1UWgc21sG+hNc6tsUJ0p1Jo4aOPnMxOeHiyI7KnWyAyoAL6BumR5MyxNtkcsZTmwrvpIZmS3fLxZkgZYoIYSlSjog0xpZ8RosNEGtNDTHc9JIToIaCVFlwoVVUjWfnQ9wdQ6disjgyuJK2EhB64fv1m0Zky3zosLDXhyeMniIkMh4GOjEoqGfqF6SN1kDGmUcqJo+TTo6UWQqncExfdbc3LwttdU0pC+xdbIrydNqrJy0ml3/EVNiQmuZR+XKqWly7WH19hjWPLTRHcqjJMDSzh16gFshdGYenUpmjVpCICW5dBxjhTkqElUkeaIq6PAZbQe7H/0SStREp4UwcaY1hfQ8SQBIdS2RhNsmrepDI8SabeJNMA38roR9LsF6iHrq104OYkQ02FDIMTgnDn9p2is2S+dVhYasKtW3cQGRYMPU0ZLM1k8K5fCeGddDA70QjrpphhOQlkxkAjDAnVQ6CfltQJP3eIsdT2oK9dmkSmhd1plti7yIrEpgWFRVkpdQl5nVxpgwHB2mjoUZ5KSXMsG+2L7k27o6ZdfXQmEW6crk1Cs0IySSmS0tvYGCPMo5JwUoIheofoY0ikIR2HMfr11EdLP210JGmGkwjF/gdTyTo+ipIXpb/YLsq7h818tFDHQwY7cxkGxYXj+bPnRWfJfOuwsNSE69dvo2tAEIy1ZfDzLIWOlFjcnTXg06ASBlLaSh9tit3zLHAk3QoHSEobUswxtZ+hlLw6Ugk2lUq1NJJMm4aVYW1aBv4NxHUsM2yaYQ7fupqwtSiHgcFauLBOH9vnOKKeaxu4VPfG9AHG2DhZG6MpRbVuoYUoEtbSMaaSrHp01EEQpTdx4T+8vTYSgvUwIc5IEuXyMSZYRRJNH2mCiVQq9mqvA6/amqhZvQI8Xem1igzmhpQUY8LxlH/bXm1gYakJ16/fQpeO3VCxlAy16Z+9azMttGlEaYUSS3NxB66lUhgLRphg3wIrXForx5V1NriSJcfpVTbImWGBZSSaNZPMsGK8qZSIJsUaStfCROIaGqaJuYMNMSzUDWHtOyExOgjzxjVCxigjTI6phJgAHYR30CGp6ZHEjJBBghT7E20Sq2h/W6k83D3XEntImnlzLUiYZphJJWscre9P6c6VJOXqpIGG7hrwonLV3EiGcqVl6BkaigcPHhWdJfOtw8JSEwoLf8aslJFwtDeAEaWsNl6aSArXRw8q/76npNWeElfXVtpo1aQy/a2F+EClvPYvscL1bFvc36bAva22+IFeH+2yw6M8e9zKVeBmtgIPdtjhx20m2LvAApOi/DAxPgEH1sbiyo5GOJRugFPLdXBtgyUur7PG5SwbaX9XNshxca0VDXMUrDajZGeBnSSqVJJeaNuKaNeiIrpTSdi1PZWBDSuhPqWrZt6V0ZZK1Lq1ykNfSwYj/XIYMiQer169LDpL5luHhaUmfPjwAfv25iE6MgjuNfXQql4pJARqoUX9SmhNQlg4zETqfBftDY725dHCqyIC22ijG0msa1H6SqM0tC3VEkeXWuPUKjnOr5MrZbZVged7LPBgpy0OLvbGuuQQbJwRgdxZwcie3h475zTG8WW1cHGdAgWZZiQxQ+TPN8CqCVUwrFcDdPVzRxd/fUT3roywoBpwq9kX9rad0LixDnq0K4PeHbQRTCVhR39teNcrT+VnKbg5mWFMUhzOnzuBT/y79WoDC0uNEL/+vCcvB91aO8PeVAbP6t9JXe4jKGmJrnZxh7CaTTkMDNJT3tEbbIwGrhpSP1ZYe22MJ6H5N64sdZqLR2ZCO1KJF24gzfYwId4YoyP1kNCtNGYNNcTRnJZYOj0WzevFwbVqFDo374iEcHdEBVVFax9n+DTyQLOmvvQaDE+nQXCrHo4WPjUREWSL+B6BiApoi5BOuujWvgzJTFyI14Jfg4pwdvgOmhWorPVwRm5OTtGZMeoCC0uN+PAR2L41Gx39nKGjKSM5lcKYSEPpInfzehXhVq08EilJ5aVZYv5wY0pa5SjNlMWEKENcWi+XerJcHMqjpqI8pvc3wvZUCwzvqQ+FeTm4Vy+DkX10MLSnOQmxMboFDEVkWBJ6tu2DOtX7w8khAF3bmWFAmA/6dJiCTq2C0aldXUR26YWITjEI7uyD4VFyDOnlhFbendCleVMMJRn27l4OrVpo0TFroyUlwVpVS8NSX4bWvk7Izd6At++5ZVSdYGGpEa8KPyN/ZxaGRDihpYcMTdzLwMezEuo4apAIymNImD52zrWULqaL9w42ZaUy8fomORYMN5EexxFDPEt4d7Ot9GiOl6smGrppYvkYAzzcZYW1yQo0rt0Rbg7zkRydiFMr5UijzwLbeyCmWwsMDmmJ3l0aoXuH+ggP8MXAHl0Q1LY3/P1CMCisPsb0cUHbFs3h37Qu+nXXw6Cemghoqw33WpqwtSqHKlQOOlrIqER0wtbcLPz8hn+iXp1gYakRQljbt2QhPsgJvf1lSAqvjIj2uqjrqCldtwpopiXN2ODjqUmJSxMrxpni2DJrKWFVtS4rSUz0a93MscWSIlk18ayITVPNUZBpi+RYPfjWk1ESssSU+J4ktk6UmLTRJ1AmdbVvmVkT80fbIDK0IsbF62P5eDlShtqgf7gCCcEOlLAskDzYAJMHmWJEjBl6UEno5lQBNuZlpO9u36Qygvw04OsioxTnhOxN6/GahaVWsLDUCCGsbZuzENvDCSFNSSLR2sgYbSa1KIjZGUR3u2gINdQtLfVZibIwrqse7CnZdKeyTMjrwU6F9LC0mPzPt44m1k02x90tCmkfLlRSdvYl0Y2VY9V4D8R2r4L2flqYOkAPu+aYY/4IAwyL1sUkWnftFFNkTjbGqER9TB6qi5Xj9TAyTg8t/bXQwJ3KTnkZ2NCxuFargC7NKmFQsC6GUfkZ5q8hTfHcrZUjC0sNYWGpEb8WVrCvDGMitDBrkDGWJJkgK8Vc6rVaTOVef0pZTWprwtqsLL77rhR0tMRMDJUpkRkgtJW29ACyeFBa9GSJTveRtFyksgQq4c6utsG1jTYYHqGNzi00MTnBEPlpVtgy2xIj4oyQ2NsAcwYbIznBCGFddOHbsBK8PCrCrboGqsjLwZ6GuFPZo4U2RvbSl6a8EX1bI3vrKx8hal4sLE5Y6ggLS434F2H11pLuDooOdtHpvpbS0s45FlKSOrTECmtJSHMSjTCcxNHWu5L0oLOeVmnoVi4NW5KZl4sGPGpUgHbF72CgXVqahqazj7JVwoWWO1M6Eg9W13PSQHVFOViY0zApCzlta2tZFtWr0OeuGtLdyYj2OpKgFgwzQc40C+RMt5CaS0WnvJglQjyiE9dNDz2oJGRhqS8sLDXiD4U1zBgZY6hEI0FtnGomzTK6h1LRyeWi0VOOqxttcX6tHMfo/f5FVlJX+rIxJtLzfWJ6GvHMn3hwWvRziQvwolTs3FT5SE+L7zXRybcyosWv9NC6E6MNMJMS05KRJthIqS5/viWOZFjjKA2xb/FAtJhMcNFIU0piJphKSWxcXwPl97Cw1B4WlhrxqhAkrA2I7U7C8lGWhL8WlijxNk0zk4SUN9cSexdY4iAlrWPLbHA200bqUr+Zo8CdLQrc22KLe1sVUtOoeL1L729vVkjjTi69ii74XFvcyJFLdxmvb7LFdSoVr26USxK8sF6OM6vlOEyiyp9vhW1UMmZPM8e6ZDOsHG9GZaop5g75rbDii4TVgITVlYQl2hoK33FbgzrBwlIjXhV+UQrrDxLW18Lat9ASh9KVwjq50poEY42CNSSbdXJcWm8jPV5zjdLXjWxb6c7hTZLULRKaeFxHzJd1jWR1ZZMQnRwXaZtza5T7OLHCBkeW2uDAEmvsXWglzcElhJUz3RzrJ/8vwmpOwqquvEu4OWcj3rwrOjlGLWBhqRGqEJa4yF4sLKlc3EBiImldowQlDfE3LRNl5GVKUxcplYn1z9N2BZnWOL3qn8I6+O8KK7AoYQlhUcJiYakfLCw14t8WFpWELCzm/xMsLDXiLwtrNglr3v9RwlrAwmL+OiwsNeLNeyBvRw7igpwRJC66/2VhWf99wppPwpr77wmrfjUZAls7Y/vWXLz/WHRyjFrAwlITxE993fvxJVYtX4K+XR3Q00+GsX20pcbRPxaWVZGwrEhYNiQs5Xzu/62EJdoaglpowttJhk5+DshYsgT3f3rJP/GlRrCw1IQPH37BvoMHkDQ8AiFtjBDZRoZxkTp/UVgiYf2XhRUi+r30ENyyInxdZWjTxASTJ0Xh3MUjPB+WGsHCUhM+fHyHvQc3YNSI1ghtq42+bUthfKTu3ycsGpfFrKL/kbBMSVgmJCzjfxFWUMtKaOYuQztfHRJWR5w9l4tfPn0oOkvmW4eFpSa8//AReXsOIHFgBLq2MEZEKxkJS+d/uYb1HwirSFpXs0hY9Pm/JyyLXwnLmIRl9BthxQboIcS/EvzrydDKWwcJ8R2xK38z3n9kYakLLCw14vnL11i+bAn8GtmjKZVVY3trIW2oyd8jrP8oYQlhmf9LwhpbJKwB3UVJqAlXWxnq17bBzJkpuHPvB3zmi1hqAwtLzThz9ix69w6ghKKN4aGaSB2oI/3YxNIxZv81Ye0iYW0lYYlfif49YYmEJaaW6R+ojc5NykJu8h2aNm2Mo8eOF50Voy6wsNSM14Vvsf/gQSqngtC0bhlEd5Bh2WgjZE4yx5pkc5UIS1xwv1IkrEskLPFYztfCOlokrD1FwvqzhDU5zgijInTRzE0Ge8vSCAnpjvy9++lc3hSdFaMusLDUlDPnCjBx0kg0a2SN9g1kSB2ggbw0c2yfY0HDUhKW6EL/K8ISgvqHrGhc+UpYv5ewhLDEs4RfC0tMCCh+93DJKFMsJmmljzLC0OAyaOgoQx1XCwwfMQInTxcUnQWjbrCw1Jw9+44hOjoGDWsbI9D3OywaqoH8NCMcTreQfs7rKMlKCEYIS/ygakHmb4UlxCQE9WcJS6wvRHf2dxKWmKlBCGvHHCtsnkVl4QwLZKWYYPlYPYwJL4uWdWSo52KE2NgYSobHio6aUVdYWIz0azpHT15G4pDRaN64Jto20kZSTw2sGlMJ++bp49RyE5KTFW7l2krTxtzIUUhTxkjXqn5nSLLKsiVZyXGRxCbm0hIJ6/waEh6NsyS9M6ttcXq1XBLhoSUW2JFqhA2T9TB7gCb6tq8ALxctNPy+JoYOH4dTZy/j4y9FB8uoNSws5h+Im20/PXqOHbv2YcTIJHRs1xwdmtdE/yADzEzQxIqkcsiaoIm82ZVxZrkBrm8wxf0tVniSZ4uX++zxcr8dnu+1w9P8orHHDk/yFXicZ4cftpHgssxxZoUR9s3Xw6bJlbB0RAXMHVAW4/tUQN/O+vD3qYHW/s0xeGgStm7fiwePXoDv/zG/hoXF/Cm37z7C0pWbEN8/CSEh4egd1h1xvXwQF1wNCUHmGBSkg8FBZTAsRIYxvUohOao0psSWwYQ+pTEu/DuM6lkKg3vIkNC1NPoF6iA+yAJxITUQH+6DyJ6BCA3rjYSBo7ByTTbu3n9Y9K0M8/uwsJh/m3s/vkD+gbNYk5WHRRnrMX32IkxKmYuU6fOQOm8+0hYswOw5aZgxMw3TZsxDMn02beYipC/fiOwte3H4+Hn88PBl0d4Y5q/DwmIYpsTAwmIYpsTAwmIYpsTAwmIYpsTAwmIYpsTAwmIYpsTAwmIYpsTAwmIYpsTAwmIYpsTAwmIYpsTAwmIYpsTAwmIYpsTAwmIYpsTAwmIYpsTAwmIYpsTAwmIYpsTAwmIYpoQA/A9E86qg3qlHLwAAAABJRU5ErkJggg==;clipPath=inset(43.75% 39.67% 10.42% 39.67%);" parent="1" vertex="1">
          <mxGeometry x="20" y="520" width="200" height="212.9" as="geometry" />
        </mxCell>
        <mxCell id="KAyXB3LFF11qL9irPbgj-16" value="M2x5.5 course screw" style="shape=image;verticalLabelPosition=bottom;labelBackgroundColor=none;verticalAlign=top;imageAspect=0;image=data:image/png,iVBORw0KGgoAAAANSUhEUgAAASwAAACQCAMAAACF3Kb9AAAAAXNSR0IArs4c6QAAAARnQU1BAACxjwv8YQUAAAL9UExURf///+vr69TU1MbGxrS0tKCgoI+Pj5aWlqSkpMvLy/r6+vb29urq6vT09N/f36ioqHd3d2hoaHBwcHR0dFhYWDw8PCUlJQoKCgAAAAMDAyEhIU1NTYuLi83Nzfn5+ezs7Nzc3MTExIyMjGdnZ0dHRzg4ODMzMysrKykpKTAwMCYmJgsLCwYGBhERERoaGjU1NTY2NicnJxgYGBISEgUFBXl5edDQ0Obm5qqqqlVVVSIiIhkZGSMjIy8vLzIyMi0tLSQkJA8PDxUVFRYWFhAQECAgIC4uLjc3NzExMRsbG6mpqenp6eDg4KysrH9/f3JycpKSkpCQkEFBQT4+PklJSU9PT1RUVFxcXGFhYRwcHExMTEBAQDk5OXV1dejo6AkJCRQUFBMTEw4ODg0NDUREREhISE5OTlJSUl1dXWpqamxsbEtLSygoKB0dHR8fH0ZGRnNzc1paWioqKiwsLM/Pz/f397CwsGBgYDo6Oj09PVBQUEVFRWRkZGVlZW5ubm1tbR4eHnx8fAwMDIiIiDQ0NENDQ1ZWVltbW19fXzs7Oz8/P0pKSnFxcW9vb2lpaVNTU4aGhpGRkeTk5MXFxQICAllZWWNjY0JCQgcHB7Ozs7KysgQEBFdXV2ZmZl5eXp+fn/X19djY2MHBwfv7+9HR0Wtra1FRUZqamv7+/oGBgWJiYpiYmLu7uxcXFwgICPDw8ISEhLW1tXp6etnZ2a6urgEBAf39/fLy8ra2tsjIyNPT06KiopSUlI6OjtbW1uPj46Wlpfz8/Kenp52dnZ6enqampre3t8rKyuXl5fHx8cPDw+fn597e3r29vXt7e7Gxsfj4+O/v76+vr8fHx9XV1e7u7ri4uH19fYqKitLS0r+/v42NjZmZmdvb2/Pz83h4eIWFhYmJiYCAgIODg3Z2dpubm5ycnJeXl5WVlYeHh6Ojo6urq62trczMzKGhobq6un5+fry8vLm5uc7Ozr6+vsnJycDAwNfX1+Hh4YKCgpOTk8LCwuLi4u3t7QAAADWsN1UAAAD/dFJOU///////////////////////////////////////////////////////////////////////////////////////////////////////////////////////////////////////////////////////////////////////////////////////////////////////////////////////////////////////////////////////////////////////////////////////////////////////////////////////////////////////////////////AGb8ilkAAAAJcEhZcwAAFxEAABcRAcom8z8AAAv2SURBVHhe7Zy9gavKEoQ3BEyZWHjygXjIhDjIgHTwSIEcXn3VPUh7znn33vdjLGhqVwgQIM231T09gParqqqqqqqqqqqqqqqqqqqqqqqqqqqqqqqqqqqqqqqqqqqqqqqqqqqqqqqq6qO1tUffz/veH7mi6jdt21fbN8vSDN34sJ7TXHm9CxvNy9R1IwpGz1GLT/QYm4ortfWDoIzBJjhZWtFNxvd8dP2WW3+k2n6el2Zp5rkTHrhM07AsstcocBASvmFKtz2fzcfS2vqle4aDwknjCCukbBVGM6+pmYcObOO4fGYoEnaYSXwEaBomk+mAJWspuTeTAMlsrB7mRpvjrTl3/yS1jTI4GSpDD0QDZLQkWOoJ4QWgwNUts2wodXObh/gYHQOoDAtUtpNibxnITs9uGBpwadmgiL9OCCcF5mP6JFjtsfazbOWE9PKVY0+EyObyzzSBisWk9RyxnpLbuH9Kkm9nUJDQ9SBlE3UYS1gEy8QUjcr0giY6+o1cRp7XtvSZy5oHu7O2dhYou0nVQCRulk5fnZrsoyVfCm/RNxKij0f3AdZqZ8qEV+DJNppneYh0XtK6RGKf7DFte1rLkQusPOJ9tU40NuiULBUJ3UGnSqGAIvjo+TpqU2+Nqwhe9HhM93bWtrU92UbGiNa/UrqAhHdI6Ij1eii1PUZCkB0YAQUpEvyNa4d2VXHpXKPGmlaiKmmqES5HpKZajNfApM3pGaNyeBX6w11r+LZvwlFEH/bAQt98ZTsN3RRu8itYzfzkLe+lnUzKrO7qK/V+ah1hlHzi7EFa6JvEiaLUuAKWlHSZGpY03fS8w7ZOYSonKeOCinM25bhMlTldCyBSoUDFrk21g/eiAywC1fO2w+g9uvrM6XaWqLgDxGHiVTI6v/IWZSjmY/sQhoJRSOnqhiF47PuuYS+tTFQRhmaDtKgOUAThZYoU8a7azdEZzs8Jy+nqcb901c6ceil28FmDX1gBiBVaHS94njiEqyg5U4UwlI4FrG6/GattH+jkzcc+ESxbSEpUIeiw7ltGh1UQYmqZldX1+R53Uc+JzxJ4OQ5mScslQ5UnIxJAMpjFPu4scVMqjSVdqbrajr5XIurX4y9CISqFkqUwDnbinFSYpgxpRJCfM6NbEYPsDBqCOKEx2w3rRSqGradDzz+wPvfS/OEUiQY062JUUnrFrBx9uEhJ21ZiMcV2IhZ43Qty3iqyVIpxc7NeJFmJVHDKDx8tmZb32nA7hoie2IpGByoMZFEvTAvmcmyGMqXrQS9gymbl7kFHirdUbXURVMfuoLCiNch/fdWH5rWtDQ1MQuRzcEUQBqlU8nNGx2ksC5TzFJ1migPwnv714xJXv7Z+4CMbFAkkW+NhniugaW+33lU6KwIGqUjNx0TBKPO5BCGevKmlGTY1+3wXG9RvG+56PMaf3wtySU+f1J84McUTXAKNmahQiJVufZjJ4SUSInWi4hW26DTvrdkCpU+/Kd/Y058/GHS/ZlMBKZ/Nxg2knYYDq4SVkQctETILn9MLa8VLyugCqVLdB0nhp3wz3ocJi/F4Dj/9fPux8DGLoSwvZesSlAQBvZSsYhk0mdHVh4IwUVmT1mh3AXpldCcpCMFJSlRo/OmDwTUyFYTMJ1DoOZZfnMxGNbh6S6CAJVFJQYuN9JJpQVNeFCncxPGLIu6cqgDGwGZvBqL4hxeigQouEpjefOQslQtho8DDpU8uxLyxssyTFGbbpQCvo0NLYPwXANCZ1SHWXaJabx2AaoCagKVoXTooFOcKTgWUvMhuMq/eTwvsjK84EJBSQSdQacI81iq4Hs/mCpUVtopGvEz1BsXi7BwmirXxUrPILOLh8r7QYgNhEq5FNWscz8rA442KABXAeLrE2Ib7D/TJHYO0KlGp4U3TzPkAF1XBu7RWoajttZ+2V74yKSQ74S5nPj3I63Kh6bzxOjkxna4QhKvbYFRBC1hEkxAJ1LzPkp5nzpQLUfgNIzXaZBjVdzk/sZdICbRmtQx3X4lOEYZAwUyJ6uTFtfkL2Gpbw1fRKNoXxgpWQmXpCWRcWE9MvGxaizCT4MSJbH+mdB3ItdSLlnNWoAGZ1PXtsWufpr/GOLDVuEUfPRplM4gWgQSNYNVbIBMu7AMiAzNQxRpXRadB3T6kUzqQWRWZlV0FLN5Tpce1rkNsvcqlbAyClWlBQnCC1bquAcyxuMw2ln/BRR4XQ73gOR8Ckasy4izRsqsCGLMXu2761hFaZ+FAuMlaYat1PeAlYpSN3eQQDGKejMryFFVcIPUhyOjR/YWJThlSwXWVkzCpbeGTh5IWClpYC2eJ03ocB8AEq59JUOEqh6LmGcc48KhfUwJ2sjrfA1Cp5+Wum26Z3TOllGbaWyUQHYXQApjNpcRlWNoAWFJUVMKl8iCP4iN6+AcZ84KQqg2Adj9+pPybWk7yBSwaRguZCVynt4AVrAjGlWuDvpnxRKVaXt4yK+/vY3A8DgsqP5gdXaRv7bXiL7TmeYaXaJ/WxFiQaDOtHlDt0bbGJW8RiS9WHuKoOhXl3N8KWsmKySXO6P1brW/GSnlZa8EV3sq0ZWdJ0SvKW8FKm1BoqGrgsqHofDtikEJ+vvR1eO7K+9a2fCBiMcqtt0i0t1xyMfYzK6OS4rrq+T2lolz007XvN/aZ9GKmaGF5cubyGYVvtCIOKbgG3/yZ0nZYC146AGDyQKrSNSDyimG/VlX1q4CVbWLKTD5pReT5Qgtcqh4oIFRvCVae5QtQiBh0gvcxOZAZ7V8tVtwvf1+2YRUThFiBaHj2iumtKCHEi+phV12qV7GWSaHOgF5H4FfVVL7X5eU7id9IRUM56+IzEZG43PEFLtNyd8jAx1eWy8lQbeiuMA4SoJi5zx3GcY+eG5VBQy9I/vH1G8zlXhFaRCIDnhj0iFWjUpQxTqAKWDAKxfM434bV17HE9T+lGkDZRpCa5jkC1IlLa9Xv5diHwsGwZqV3XjIm0wpYhZbU3er7ulwnpJY0ExlEGUgDlmHuDw2wMVvQ4gUi0QWqiIWxGrhiPINipIMdH4/hOGbOnV7mvo5/KO6VBYdDiVStFi87sdbvUdzbeEGr4CqwSO4CDas8x2BrPZY8+O3EWQcnKT8UTkvGWb9iutNb4EpaFudoFIbADUulBOu+33TbGllBSd2u6romsnekppmu0iqRSOYSL5ECFlWDKb1QwerGX5TPSotLNEpVuApb+Tm/9B2BeOJKUlG8i3B0mUgzz0d3o+7vN20+SSNeY6PyCVeZ1dxQi3I/WwSi81aaqyjMmCNCWNmFt/6W/OE7jISrWxjGCNS645pFudw3a0feIjFBK3l5/EyS8xCHiUlp21t/kznungUJ3lL4zb41Q5lJPzt1mF7GOY5E47I075rBlE5Ul7sG8R9qa4hCM1lUMKgAje7OtDQABKTtAxoQAczPZgWnwkrHiFOh91U5A6iWKlG9cXKRwAkWs3qjZQUqwzp1f1j+Fhe48BamojaAk6qDuDuBiXiBR/KVVM99Y6VNdJj7f+l7DiSadlFHgYqvwgPJqBxvaa5TsAJWgvbvZe7y/6/V7lkjqE5qGCNzSd6kTEBFmNLUL7AKKW8CUX4ucovV/6a4mc1gBi7HaxZS5sDl00E/Z0ElBSpUNvLu0v3/m4Boadhjc6AAhTyX56zgYj4nKW9SOJnV83Zf4fqj/M+HXrwsz0LB5/jEJswVk1O5G78f8T89LJdbNPp3aWXhY3/xiMXcRU/oeeeB4XdlBQEtzggyb50z3zClgpL3u9P59r+V7wEMXJMq9xPRi1XQOqVt89fM7vwfPf6g/DbKtDCEBlsQ+aNYzcZgsj4jt78Lc00qtRq+Q2CdXCAU0qwpvUAJ1eekq5faeZS1huV0FopZpkGIhTKPxuVuX5D/p/LXnbhlvfyYTTyzHKsMydPncOMTyX+vqLlgUX48/5qNFz2d6r/ybXfuRUqFr8qyF1Jd/R/RoZZ/a1EUeKD20nifWz7+Hzqc5lPJy1N5aqmm+k3+1+OqRJORpb7vo1P6X2pr25bb1xru8j6OtoKqqqqqqqqqqqqqqqqqqqqqqqqqqqqqqqqqqqq6tL6+/gWEF9aLp2AAXwAAAABJRU5ErkJggg==;clipPath=inset(23.61% 22.33% 13.19% 18%);aspect=fixed;" parent="1" vertex="1">
          <mxGeometry x="260" y="550" width="200" height="155.89" as="geometry" />
        </mxCell>
        <mxCell id="KAyXB3LFF11qL9irPbgj-17" value="M2.5x10 countersunk screw" style="shape=image;verticalLabelPosition=bottom;labelBackgroundColor=none;verticalAlign=top;imageAspect=0;image=data:image/png,iVBORw0KGgoAAAANSUhEUgAAASwAAACQCAYAAACyAlbPAAAAAXNSR0IArs4c6QAAAARnQU1BAACxjwv8YQUAAAAJcEhZcwAAFxEAABcRAcom8z8AADD7SURBVHhe7Z13WJTXFu7vP/c+56Qb0yw5J+2k996bsXejsZsYu6ioKCCggtKL0qT33nvvRapKlyYgoIgiINJs6Hv32jOjIxpL1CQz7N/z7EeEb2a+MZmXtdZ+91r/BwKBQKAgCMESCAQKgxAsgUCgMAjBEggECoMQLIFAoDAIwRIIBAqDECyBQKAwCMESCAQKgxAsgUCgMAjBEggECoMQLIFAoDAIwRIIBAqDECyBQKAwCMESCAQKgxAsgUCgMAjBEggECoMQLIFAoDAIwRIIBAqDECyBQKAwCMESCAQKgxAsgUCgMAjBEggECoMQLIFAoDAIwRIIBAqDECyBQKAwCMESCAQKgxAsgUCgMAjBEggECoMQLIFAoDAIwRIIBAqDECyBQKAwCMESCAQKgxAsgUCgMAjBEgjuggvn+nHqZCu6zpyRfkfwVyIESyC4DW1tp1BSUo6i0iPIO1CF0Kh4BAWHICoyEl6enrC3t4evry+7pgSXLl2SPkrwIBCCJRAMYuDSRXR396CoqBh2ds7Ya+OGlKxS1B/rRHtnL9o6zqDlxAnU19WhvJwJWVERKioqEBYWBltbW0RHR6O1tRV9fX3SZxTcL4RgCQRSOjpOMwGqQEJiBty9whEUloSyqjqc6erGpYEr0qv+mAsXLuAEE7K4uDg4OTnB29sbaWlpaGhowEX2M8G9IwRLMOSpqa5BTEwy/AJjWbqXhbyDtTh5ukf60z8HidfRo0fh7+8HbR0dmFtYITf/IPv+eekVgj+DECzBkOPKlcs8msrJKUBQaBx8gqKRuv8gjjZ34g4Cqbvi3LlzKCkthZa2LsaOm4Zly9ciMjJO1Lr+JEKwBEOCK5cH0NnRgZLiUsTEpbJ0LxmxSXks5WtAV0+/9KoHR3d3N0sVE/DLL0vw5ddjuYAVFBTSjUmvENwJQrAESs25/j40NDQiLj4F7l5BCI5IQ9HhFrR19mPg8n0Op+4AskTY7HPE1BnzsXSZCqKj49DH7lFwZwjBEigdlwcu4vixZhw4UIywqGR4+ocjOaMQbV3/jMJ3f38v8vMLobJBG3Pmr4K3TwCam5tx+bKItm6HECyB0kBmzry8fISFxyM0MgOxyYWoqG5E/6V/nhBQDSswMBSzZi/CuAk/w8HJA+fPi53E2yEES6DQUFH7RMsJRMcmwtUzBNGJTKRqW9B+ph9/fcJ351y5cgU9Pd1ITknHz3N+x9gJs2Dv4MQtEII/RgiWQOHo7+tBU+NRHDjIUr7IZASExCOroAxtZ3twaUB6kYJwhkWFXt4+mDBpFr4fMw1ePoEYGFCwN/EXIgRLoDCcbmtDbm4BQsMTEBSegqT0ItQ2nMKF++1F+Iu5eOE8AoLCsHDxamzcrIn09HS+qyi4ESFYgn80AwMXUFdXj9i4VPj4xyA6KR9lVc3ofvBOhL+UqsoqmJpa4OfZC6ChuQM1NUekPxHIIwRL8I+jn1sR6pGZlYOQsESER2cg92A5Wlrb/9F1qXuBanH5eXmYMvVnfP3tWKSmpvM6l+B6hGAJ/jGcOnUK+fmH4BcQAe/AGGTkVqKhuRPnzl+UXqHcdHaewSY1DXzx1fewsLBEc1OTEK1BCMES/K10n+1ERUUlUtNz4R8cg6iELNQ0nMb5IWhJou4O3r4BWKOiCl3d3cjOzhaHpgchBEvwlzNw6RJqqquRlJyBiJgMRMXnIKegDCdOd0mvGBpQ7ET7gefZFyTQPRcuo7LuJBzcArFWZQMcHe1F8X0QQrAEfwmXLw+gp6cXhYXFCAiKRkhkBgqKG9HcegZDJOO7CgWPFDf1MbXqOg+09QKtTKtPdAInzwKR8cX8kLSx0W50dYnOpvIIwRI8MK5cGUD76TYcOVKHjMw8lvLFIjohB3XN7eg/P7S6FZBI0TvuZ1+cZQLd3i8Rp+OngYYTQHXjAMqPXOQrOrEMpubWCA4OYGkiUzPBVYRgCe475CuqqqzkKV94dDrCY7JRcLAKnWeH1iHfqykfpXtMrTqYSJ1iGV5LB9DYChxpvswE6gIOlp/F/gMnkZJ1FDHJtfANzoS7hx/278/C+fPn+HMJJAjBEtw3enu6kZt3EIEh8QiNykD+oSqcZKEERRdDCZ7yMbWilO8MS/moFyCle82ngPrjQGXDJRRX9iK/qB3pOc2IT61GeGwxAsPz4R2YBTNLH2hq6SEwMFBEWIMQgiX40wwMXEJ7eztKSisQES05IpOcno+GphPoOze0ZIreLZXi+tgX1BSinepSZ5hIsZSvvgWoOjqA0qp+FJR0IjP/OBLTaxEZX8pFyisgHU7ucbBxCIOFdQA0tC2was0meHp6o7dXCJY8QrAEdw19iKqraxGXmIbgiBQkZ5ai8kgrS/l6cflv6DH1dyFL+Uibu6V1KUr5jrdLUr7apisor72IA2VnkV3YylK+esQkHWbR5wH4BmXB1TsR+5wjsMfaH0ZmbtixyxYbtxhjzXptaOvoISkpkaWEoqWyPEKwBHfIZbS0tCAvvxgh4fEIiUxATmEl2s9eHlIp39W6FPuC6lKd54A2JlInqC51Ejhy7Aoq6i7h0OFe5B5qQ1pOI+JSq1jKdwj+Ifvh4ZsMB9coWO4LhLGFJ3QNHLBt+x5s1TTBspXq+OaH6fh5zhKEhobjdNsp3s5ZcA0hWIJb0nbqFAoLDyIuIRORMVmIT85FVW2j9KdDB57yUV1KmvKdlqZ8x9qABkr5eF2qH/nFHcjIO4aEtBpExJewlC8PXv5pLOWLhbVdCMz2emO3sRO0da2gpmGMtRu2Y+kKNSxYooJxE+fghZfewoyZc1BWWiZ5YcF1CMES3EBvbx9qausRERUH38A4pGUflqR8XUNzl49SPnkrwjGW8h09AdQ0XkFZ7XkUlnYhu+AES43rEZ1UjuCoQvgEZsLFKwH7nMJhYe0HA1NXnvKpa5lh/SY9LF+tgUW/rsfsucswaepcfPDxN3jplbfw0SefY+dOXdTXi75YN0MIloDT19eDlhOtOHioHL4B0fALikF5dR16eqn3ufSiIYB8ytdNKR8TKUr5ZFYEqktVHLmIQxXd2H/gFFKzyYpwGKExB+Ebkg03nyTYuURir00AjMzdoatvB00dC2zcoo9VKlpYslQVc+Yux5Rp8/HT+Fn46NPv8Px/XsHDjzyOjz/+FD4+PrxuJdol3xwhWEOcxsajyMrMQUw8S/ni9iMjtwzNJ1gIMcQgeSArQi/7glsRZLt8MitC/QBL+fqQd6gd6bmU8lUjPI6sCLnw9E+Fo1sMrOyCYUopn5ETtHZYYrOGoSTlW74Z8xasxvSZi3ln0a+/HY+33/kETw4fgf/7//6Nl19+GTo6OqirEy1lbocQrCHIlcuXcPhwFSKjkxEUnshEqhi1Da3oG2IbUhRNydzn3IrAMl46IiOrS9U0XkZZ9TkUlpxBZn4LEjOOICq+FEER+fAOyICzZzxsHENhZuULA2MXbNe1wdZtpli/URfLVm3FgiVrMXPOb5gwaQ6++W4i3vvgC/z3xdfw0CNPMrF6FhMmTMS+fbYoKSnm7WUEt0cI1pDgCnq7u9HQwKKp7EKER6chOjEHRZX1Q7YudXWXj6wIdESG6lIs5avhVoQL3IogcZ83IDapAiHRB+ATnAUXL6kVwYasCJTy7YOGjjk2bN6FFWs0sfi39fh57u+YPG0efvhpKj785Gu88OLrPJoa9uSzeOutd7Fx4ybk5OTy9siCu0MIlhIzcOkijh5tRFp6NsIiEhEdn42DpUfR0taFCxfpYzt0uJrysbct7z5vYilf3TFK+S6h6HAPcg+dRnpOk9R9XoSAsBx4+KbA0ZWlfPuCYWLhCT1DR5by7cXmrSzlW6eD35Ztwi/zV2DqzIU85fvym7F47fX3MGz4c3j08WF48803sWjRInh6evHx9aLH1Z9HCJYSQnPvqqrrEZ+YDVfvEMQl5+BE+zkeXQwlSKRk7vOzUivCCapLsZRP5j4vqSIrQie3Ikjc52RFyIenzIrgEAIzS7IiOENb1xpbNI2goroDv69Qw/yFqzFj1q8s5ZuNb76fgHff/wwjRr2Efz30GJ57bjSmTpsOOzt71NfV8fsR3DtCsJSEvt5eHD5ciaSULETGZTCRykPp4QZ09w+tSIpEmepSMisCHTjmXRGupnyXuRXhQFkX9pP7PJPc5+UIiWIpXyBL+TxZyucUwa0IhmRF2M1SPu1rKR9ZEX7+5XdMmjIX3/84BR9/+h1P+R597Ek89viT+OTTz6G2ZSvS0tJwQTTfu+8IwVJgaBhne3snMrNyERKeiJTscpRVH8exE+04P4RSPhKpq3Up9gW5z692RTgJ1DYDFXUSK0LOQYkVITalEqHRB+Enb0WwJSuCB3T17a9aEVaraOHX31UxZx5L+aYvwJifpuPTz7/HK6++g+FPj8Kjjz6Bt958G6obVBETHc0nOAseHEKwFJCzZ8+irr4Rqen5iIzNRnZBFVpO9yn8uKu7hd4tT/mYSF11n3dJUr46lvJRV4SSqj6W8rUjg1sRahARx1K+sDye8jm6xcLKLoRbEXYZOUF7pxXU1FnKt2EHlq7YjHmLVmH6rMWYMHk2vvp2PF5/80M89fRoFkk9hVGjX2Ap3ww4OzujpeU4rgjf1F+CECwF4ezZMygrL0dGdiHikwsQl5SPkop6nLtICdDQgWRBZkXg7vM+lvKRFeFqI7zLKK05h8LSM8gqaEFSxhHeEC84soClfBks5YuHrWMYzK38YGDiiu16UisCuc9XqWPhEhWJFWHyHHz34yR89Mk3GDn6RTz08ON49rlR+HHMWGhr6yA7K5vfj+CvZcgKFhWmy8tLERISAkdHF7i6uCM4JBgxMTGIjIxg3w9GeloKmhobeEO6v4vTp08je38hwmMykJhRhAOltWg5eXZIFdDpvfK6FKV8UiuCzH1+lFI+7j6/gAPl3dhfeIo3wosl93m0rCsCS/mcI7FH6j7fqW8HDZbyqartxsq1mli8dANL+ZZJrAhjpvK61P9eexdPPjkC/37oMbz73gfQ1NBAcnISS8GZMgr+NoaMYLW2tiAxMREWe62hqbUL23XNYWTqjD3WfmwFwNI2mP/mdXCNhK1DKN++1jd2gp6+LbveAAaGZggLD0dl1WH+Py0dZXkQXLx4EWe7unDkSCOSUljKF7+fpTSVaD3ViSGW8fFoin5VyKwIbfJWhONXcJilfEWHe5F31YpAXRGKEBAqsyJEs5QvCKZ7vFjK5witnZbYrG6INet18NvyzZi7YCWmzViEcRNn4YuvxuC1N97D08+MxhPDnsHo51/AnDlzeRO9pqYmfj+Cvx+lF6yW480ICw3HTj1zaG23ho1DJLz8M+Hukw7vgCwEhecjJPIAX0ERBXxLOzBMsnxDcuAVkAkPv3Q4eSTA3NofWzVNobpJB6bmloiJjUNpaQnOnGG/6u+RM51nUFp2GPGJWexe0pGcUYzquhb09Q8t+zmJlMyKIN8VQWZFqD7KUr5qiRVBvhEeuc9ljfCs7UN5106yIujoWWPLNmOs27gDy1ZuwfxFa6RWBJby/TCJWxGeHfEf/JulfKNG/5e7z42NTXDgwAHRi+ofiNIKFk0biY6OwY6dxtiqtQc29pEIiy7izdMCw3L5ot/E1KPojxb9XHJtHm8TQn+SsAWGF8DZI4n91nbBFg0D6O0yZmlkFC++3i2Njc1ITd+PoLBYlsZko6SiEWfo1O0QQj7lo7d+1Yog2+WTuc957/NWpGSTFUHqPmcpH7nP7aTuc0NqhCe1IqjKuc9nkxVhKrnPp/GUjzojPPrYcDz2xHB89tln0NHZzucACivCPxulEyxKqQoLC2Fn78LbeVjui2AidQgRLFXwD8mGX3D2DcJ0t4uELJj9Rqdt8YCwApZ2hEFT2wJb1HVhb++E4uIiXL78B6Jz5QqvSxUUFiM8Khn+QdFIzchFUwv7ZA4hSKTIisDd51SXkrMiNFEjvGaW8pEVgbvP25C2vxFxKZUIizkEPxb5uvukwJ6lfJa2gTA294CetBEetyKsIyvCRon7fMYCjBk3HZ9/+SNL+T7AsOEj8PAjT+DlV17FokWL4e/vzxsTChQDpRIsmn13/Pgx2Ng6Q1XNkEVBibz4SlHS/RCqG1c2Fy8Sw1D2QXJyT2QpyD6sU9WBusZ2eHh6oqqqCr29PdyKkJmVBTOWSq5YqYJfl6lATVMX+xxckJKSjKbGo3zyb09PDwYG6KOsnFDKRzHMDb3PpV0RqhoGUFLZh/yiDqRTIzxK+ciKwCJc3hWB3Of2EivCtUZ4EisCuc/nkfv85yUYN3E2vvpmHN56+yOMGPkCF6lRo57HrFk/w8XFGWVlZeLAsQKiVIJVVFQEiz1WMN3jDu9AFgmxFC4g9GZCc38XiSG9TkhkgcTnE54PA1N33vvol7lLMH3mbEydNpt9wPaitKoeZ850oqe3D339/Th56iQqKipYVFaMjIwM+Pn5ITg4GCUlJejs7JS+M8VGlvLJrAjXuc+pER53n59DYVkXsngjvDpEJ5azf89ClvJd3wiPu8937bvWCG+VBhYtWYdZc5ZiEj9wPAXvffAlRj3/Ci+eD3/qOXz44cfcilBRXi7qUgqOUgjWhQvncbK1FUHBUdDQMmeC5c/SwIP8f3iKgm4mMg9yUURH3h9KGY3MPfHLgjUYM34WVquowS8glKWDhXwzYDDUtI3SxZSUFLi5uSE2NhbHjh1TyGZuspSPZvLJ6lLyM/lqWcrHZ/JdbYTXgNiUwwihRnjsF4CbzIrA3ecSKwJ3n6vtxqq1Wljy2wbMnrsck6fOx48/TcMXX/3ErQhUl3rk0WH44IOPsGLFKm5bEV0RlAelEKyWlmPw9vKCxV5HePmnswiHhOrmYnKvi1LAIJae0LpV0Z6iLrqGWpPQdVQInrdwLWb+sgJrWfqiu2sPjE0sEB8fj4sXb17oPXnyJK/HRUZGIj8/XyEKwldTPpkVQXrgmKwIkpTvmvucz+RLq2YpdTECQ3Ph6XetEZ6J1Iqgza0IRli7XtoIb+EqSSM89gvgy6/H4p13P8GIUS/iX/9+GM8+NxILFy7iUWptbS2/H4FyoRSC1dTYBDsHFxgYO/BdI4qubiYi97JIdGiREdE7IB0+ARn87xJLRCH7OvemjyPhop1J+lDas4hh01YDLF2xFSqqu7jNYtMWA6ht3Q5vb18WJbL8aBAkUtSSJCIiAp6enny7/Z9W4yKRIisCT/mYWsmOyFxznw+gpFoyky9L2ggvMqGUW0rIiuBMM/nsw2Bu6Qt9Yxfo6Npgi6YJVGSN8BYzoZ/9KyZO/oU3wnvnvc8xctRLPOV75pmR+OGHMdhjYYFynvKJupQyoxSCVVNbhx16pkwMjHknyPAY2hG8UTz+7CLRocI6dZukHt10Un/GrCV86gkZTN29kxEWfYibFimqkj1G/jkoTYyklrpM2AxNXLF+405ehzGz8oe5dRBUtxhj3YZt8PDwQHPzjVNpurq6eJRFZ9e8vb3/djOjfMrXw9SKN8JjKR+3IlDKR1YE6Rj2bGkjvJjkCon7nP3b8Jl8TmRFCIChGUv5drOUT1vqPqeuCEupEd4yTJk2D2PGTsMnn32P5//7Kh5+ZBgTqqd4V4RNmzbzCJX+bQRDA4UWLGqEdu5cHw4VFcNsjxv0DN3hEyiJaOTF4l4XiU9YzEEuONSve97CNdjAPlhG5m7cOb102SbeFpdc82RgJOGiArx/SM4g4crm349NOgx7l0j8umwjlvy+ERbW/tzEutvEHXPmr8Ky5av50aDm5utFiSwbVJgPDw/nta2/muusCJTysWCGu88p5WuTzOQ7zBvh9fFGeGlX3eeH4B9KM/lS4EDu831BkkZ4Bg4sytzLo84167TZv8cm/LJgJe+KMHb8DHzx9U94/c33MfypkVyoXn3tDaxYsQK+vr44ceLGaFSg/Ci0YF26dBFVVeUICY2EnXMYHN2TmEBQNCOJcu7Xkhcsaj0yd+FqaLIPGh2opYiBttnpQ0e9kujYh4WVL3tMFr8PiqyuPZfEBkFRGKWSNAqKoqw585bzrXl39oH28E3Dth02WM5SIYs91jh0sBB9vdcfAyKhJu8QWSYo0nrQ48x5ysdEilsRWDR1mnqfM5G6mvIdpbqU3Ey+9BqJFYG9/6sz+eSsCDo7rbCFRafcirBSDfMXUSO8JRg/YTYf0PAONcIb+QIvoD83YjQmTJwEC4s9fDdVMLRRaME6d64fyUkJ2GO5j6UXYfAJIlGgWtM1sbkfS16wKCqYu2A1tmqZ8/oL/YxEiSIrJ/cY3jaXZs1t2qrPHxuVUMb+zIG/XKRFjwmOKOB1LXqOXYYOvM3uslXqvNjsG5wDy30hLNpYi+Ur1/HCu3xhnmpY3d3dSEpKgp2dHU8V7zcUTZEV4aYz+VjKR1aEcprJV0Yz+Vr5TD5JIzzJTD7XQVaEnbttoa5thg2b9bBitSYWLmEpH1kRps7D92Mm44OPvuSN8IYNewZPDn8Kn3/+Bbbv2Im0tHR0dt770SeBcqDggnWO/Q+dCls7Vziz3+L+IfkScZAKw63W9anarZdMsCKkgkWR1C5DJ/7hdPWM5y1K6PjHZ1/+gNGjX8SLL73Gz61RUZlSIoqqBr+e7O8UiQRHFMLAxIV3Dli/SZcXnm0dw2HjFAWtnTZYq7IVXl7eONfPVEMOahZHFggqyFMxnkTsXrhal2JfyA9o4FaEUxIrgmQmXw9yqRHe/kbEJldy0yxFtm7eySzVjcJe20DeCG+nATXCk7jPV6lsY+kvNcJbzlO+n8bPxGef/4CXX3mb9z5/YtjTeOWV17Fi+Ur+37Sn597ei0A5UWjBoh2h7P3ZcHHzg7tPEhMGSd1IXhgki47kUIomKXyT1YAK6BTlUORzO/Gin4ezDyV5q2hSChWDf5m3gkVaq/DJZ99h1PMvYuSo/+LFl1/HK/97C2+98xFWrd2GYBKslMqbCpb8c9N9xCQdhoNLJK+HUbRFh3edPGLZB9+LfeBNoL7NAL5+frzdjTzkjvfy8oK5uTlPEf8MlPJRXUpmRZA/cFxHM/kaBlAsa4THe5+zlE86ht3TL03qPg+GyV4vXuPjjfBoDLuqZAw7uc+nz1yEsRNn8d7n77z3KYY/NQL/+vejeOGFlzFz5izY2u4TVgTBbVH4lDA1NZkfxXFyj4ZfCNWurhcsiSDk8yM69Nt//qK1mDjlF24ncPaI5x88KpJTvYWERf6x8s9BAkdCR+bF1954F4899gRGjPwvXuYC9TEvDo/+z0vsg/gM+96bTLA0uRDdiWDRz+laElRKK7doGLEobh33H9m7RMPBNRZLV2piyvR58PL2waVL16eHVIAnl39BQQEaGxt56+TbwetSbMmsCFdn8p0G6rkV4TLKpI3wMqkRXuYRlt4ykY8sgHegbCZfGMytfWFg6iJphKdpinUbJY3wyIowazY1wvsF334/Ce9/+AVP+R56+AkeTY0bPwFWVlbIy8t94DU4gfKg0ILVz1KkxIQ4Fl1YY59jiKSGFXp9FwYSBPJlUb8kYwtPvMTSjldff4enKVToXrNOh5/w9/RN5cXwsOiDfJG3ikQsmP3JC8jseU1YmjOFpTOj//Minn52BB+K+d8XXsWoUS/ijTc/xKw5y7B8jSbfRVTfZoYAJkAkdPIC9UeL/F20m0bCarbXmwmWCpav1sAuY2eY7KEWvq7Ywp5z1ZpNsGYf9GPHrnfK064ZWSJoB/FWZ+TkU74O2YHjdokVgdel5Nzn3IrARFpiRchiKV8i7FwisJfP5HPDTllXBLVd3Iqw+LcNmENWhOnzJTP5Pv4aL7z0ujTlewZvvvUuVFU3Yv/+/Upz7Ejw16LQgkWF6LLSIvgHBMPeOYz91k9mAiXxPMmEgASLxIf6JlEjt6++GYtFv61jqU0zDtd1s6gsi0VNJlitosnrLUZmHrzgbecUBUcW2fgEZCEhtRo29qH4+tsJePyJp3gkRaL3/Y/jsXaDBo/uMnKbUHvsAhIyqtjzmENDy4yLkKRLxI0C9UeL7p0E09kjjpsm6SAv3RdFh7r6jhg/cQEWLl7BoqkD/LC3DDrSk5mZieTkZJ5a9fZci1pkKd91jfCkVgTJTD4aw96LvKLTSGfvg9znNIadz+Qb7D6nmXzyjfBY+sob4bGUb9z4mfzA8etvvI9hTz6HR1gU+vrrb2DBgvlwc3MXM/kE94xCCxauXEZP9xnk5OTD0sYbxnv9udNd4oGSiYAkJaQdLFMWqUycPAeqm/XYB/Qsb7NLB3CpXlNS1QKf4DjsNtoHHV1LJlwuMDKnFjU2LN2xZo/RxdyFv2PFqjVwdvVAeU0T+thnj5KzXqYIVP8hYahpaGIRiCN0DWy5YFFrG3lButWSpY1U3KddR30TZ6xYrc7rYepaptBhadcWTQve50nf0AQZmTeOksrLy4ODvT3ycnP43+mebtYIj2bylVaf4+7zjLzjSMyQNMKjxoW0c+nIBNNm0Ew+NU1jqGzcyYR0C+azlG/Gz5KZfJTyvff+F9KZfI/jmWdHYtKkybC2thF1KcF9RbEFS0pVVQ12G1pBXXsvvAMyeYFcXgQkEVYNF6xvvpuA5as2o7SmnQsORRuUFnWxyIM++rTo+2fZ31vbu1BZXYvsnFwUlZSip5+qPtczOF443XYSkZHhsLX35LtmvkF3tmspv+ieSWTjWHpIu4U0YorEQWuHFU9rl/y+GZ998SN27NDj7WjkyczKxF6rvUjLzuLvpZvdMlkRrrrPa2Rj2FtZyidthBcl7X1OjfDIfW59rRGexIogncknHcM+adpcfD9GfibfU3ji8afw6WdfQE1tK1JSUsURGcEDQSkEq66+AUbGlvxoxx8JVnLGEZhYeOOLL8fi12VrUHy4Du2dnTjV1o7T7Z1o6+hCS8cZNLS2orqhHmXVlSguL0NxaQnKKypQWXmYN+aT2QiSk5JQXlbGu4y2tbXxPuyyM379fd2Iikrg92Nk4csL1XxHUk6UbrckO5ol3HhJBW0qZFOdiOpuq9Ztx5QZv2GDqgbvpdVx+hR/XaK6oRHRSVksrTuE4qp21DZf4gV0GsMumcnXyGfySRrh7Yebj8SKwBvhWXiwyNCBp6Abt9JMPpkVgWbyLcSYsZKZfP979V0+7urRR4exlO9NrF69BuFhYWImn+CBoxSC1cQ+KE7O7jAydYQPE6zgyGtHcySCVYCEtGqW4oTxHcJPP/scy5b9BjNTI3h4uMHX1xsBAf7wZ8vHx5sfMqbuD3Q8Jik5Genp6Vyk7FmqtXv3bm4hCAoKQnR0NGysraGvrw9XV1ekpqaiuroaFRXlcHRyxbIVG6Fn4Mh3IcPoQLY05bubRWcUqaZFVoHJU+dhweI1LOqxwAY1fRbxrMUWDQ3k5ElGTlGL4aa2yyyCOsUtBzTJOG1/EwqK25GUUcdTTUkjPJn7PJQX+Ln7XDaGfcP2q+5z6opAKd/X343HG299yFK9/+Dxx5/mFo5Jk6fCwcERx48fV+qGg4J/FkohWMePN3Mv0h4rVyZQ+5lgXd+tgXYNycRJ4kXRhIGJE3T1zHizv6SkRHSfPSN9puvp6OjgO1p02Jj6U1GbFxKkm/WnItPmoUOHuJDRtfr6u7Fl6zZY2foywSlmonmAv778fd1u0fXhMQe5nYA2DMjqsGTpBiYsxti01RCTpi7ApCk/s3QuHN0s/6P5fJX1V5Bd2Ao79j4pYvIL3Y/Y5Ar+XC6ecXwyELnPDfgYdttrjfBWS2bykRWBuiJQyvfRp99i1OiX+Uy+p54ege++/xFaWtrIzsqSvmuB4K9FKQTr/Pl+1LAULjAoircosXOK45aEwbuFsh24iLhSeAVms8jCjR9a1tLZzSIrX9TXSwrEHR3tvHmejY0Nj7ZoOMGpU9fSrjuhoqIUxiYmUNu6C6aWLHJjQkppGLdc3IVw0T2T2JKtwtouGL8v38ynEVOKOH3WEvw0bgYXoPLac9w3daC0C7GplXwnb8UaDX6w2tM/nRs76bA274ognclH7vPFS1X5UaIp06gR3lRuhH3t9ffw5PCRfCbf22+/BzW1Lfzfo5WlywLB34lSCJaM5JRMFn0YQt/YnXdsoNrVYAGQRDnZfBdO4nY/wKKOKGzXs4OGlhF27TZiEZILN6Q2NTXyDgl3CrU5OXjwIBc6R0cHlk4mwtXFFTo7DLglwMOPdjAPSOpZTMDuJOKSXUNHYKgWRkd3KK2lIQu0Uzdl2gJs2mLIa3d0TXJWPW/fQjuJC5es5ameuZUvr4NJrAjbJTP5qBEeE75xE3/m3TppQAONu3riyWfw7LMjMXXqdN4Ij4yoAsE/BaUSrNycHD7w1NzSi6eFdEaPxGmwCMiWLOqSNdjz8E2Hti4Trm2G8PH1x/Fjt+85RcMlKisreT3LhEVU1tbWPDWkFPHSpQFkZaVj9249qG7czITLAvZO0SzKom4NZEy98+EYFBnS9RRNkWhRejjj599YCreUe6FoQpCzZwL8WQRnxaKp1SramLdgFVRUd2CzhhE3oS5YtBYzyYoweTYfw/7+h1/iuREvcPf5iJGjMW7ceMlMvsLCW5pPBYK/C6USrNYTx/nunZNzEGwcolgqlMHd6/LO91stinyou4KzZyLU1E2YwBgiMTEBJ9jzDoamrgQEBMDFxQVOTk7cYV5XVyf9qYT+/nM8lQoKCkRD/RG+w7hhoya2bbeCXwilp4fYa9KBbXr92wuXxE9Wwbsg0Gj1r78dh6kzFvIzjdR2Wd/ElUdTNO6KTKdUOF+waA0fdzV5+jz8yBvhfYeXX3kLDzOReuihx/HxR59i+/YdSEtL49N9BIJ/MkolWERHewccHD2xbuMulupFXN0ZuxNBkC0aHhHOIi5jCx+obtrBRMmdCU4dus92IYdFcba2tjySIjEqLS3lR4QGQ+f5qOZDznNaVMDv6TnLrRGmZpZ8N07fhKb7ZHPhouI6RVCSe7jxXikS42cTU6vh6BaLeUyMxk6YyXuc05DQOUyUqO85FdCpCR7t7H386df49vsJ/MAx7fINe3IEHnn0Sbz66ptYtHARPD290NwkrAgCxUHpBKu/vw+BgUHQ3mHEj5SEx5bwM313I1i0KCoLjymGp18mn8SzVkUNtjY2iI+L5SkfCdCtqKmpQVRUFLdE0Na/fC2s/fRpfujXydkV6pq7sEndECZ7fHnXURJLMnJeEy/J4ukrE17yZrl7J3E/1oIla3m7ljHjZvBdPToeQxEXHY95+91P8NIrb+A5aoT36HCMHPkfTJ8+k1sRSGTFuCuBIqJ0gkVdSI8cqUFEZCz2WvvA0jYcvkGSdEpeAO5kkX+LdhsdXBOxx8oH7u7eKC8rkr7SraHOCRSJ0Q7jH1FWWgIXZ0doaKhj2fI10NQy4geLvVgqS+PwaXdQ/n5IRHlXh9Bc3g9dRXUnfvhxMhOnj/HRJ1/xc5LUNYKGhv7rX4/imWdH48MPP4G6ugbfDBDuc4Gio3SCJePIkTrs0DXkLVrIm0WRifyH/84WFeXzuA2C2r5ob9eHv7/fbduhUC/2wMAALljUWG8w9D2qe1lYSMZ8yQ4ENzbWQ01tM6ZNn8MixD18Nh8V568Jl6R3F/X0ik4o4wMxvvhqDD+M/dQzI/HQw4+xlO9xvPvuu/h96e8IDhYz+QTKhdIKVldXJ9+hc3JhUda+ELh4pnDxGZxq3XpJZguS2Fnbh/NBCY5OHnxi82D6+3p5p0w1NQ2MGTsZmzaro6io+LqzftTKmESMhIpc8dR8j6D0LDExCV5enoiLi4GriyO2btUETbCmw9NkhZCltCRY5JyPSSxnUZ8/Jk2ei+HDn8Po0c/j118Xc0GldFQgUEaUVrCIK1cuIzY2Aes2aEHP0Bk0/ot6Y92plYAWCVxYNIuI3OOho2cPZ1d/1NXVoqe7C81NjYiLjcHu3YZYr6qF9ZsNsH6TPjapaSMyMorfw8DAJVRUlMHObh9fJSXFV/uz0y5iTEwMjI2N+W7jkSO1vNZFJlh7ByfY2gew16e09FpqSPfOza+xJTAw9eBWhZWrVVg0FYizZ8W4K4Fyo9SCRdQxEQgICISljRfsXWL5rtzdRVmyIap0Ni8bDi5B0Dc0xsbNalijsgVqLOXcYxOEvfvCsGa9Li/2V9fUYuDSRZw62Qo7ewdoaNC8QW8WYR1g4nWYF+1jmdDZ29kiIjyMH56WP+5DguXnHwBH1xB4+WcxkSJbhsSaQYJFvjFyzRuZeTOx0oSuniGPJnt7RR90gXKj9IJFkB3BwdGdj5Wyd4lh6VQFE628O460eBrGBCIqvkQyl5BFNVs0TXlxnOpjFtbB0NazxZ69dsjOzkI3i74oqjIxMcc2HTPom3hBV98FW7aZY+2GnVi5ZhtUN++EqZkVIqOimKjWMMG61tb4SG01AgKDuTh6+KXzTYNrXjKJvYFqW1Z24dDU2QtjUyvetaHrjOjiKVBuhoRgXWJpFs33c3b25IeI7ZzjpDtud7ZzKBMs2VxC8jmpa5mzn+WwqGs/Ey8TrFu/GenpadJXBEsJ43jzPT0DF972mA4gUwtkGmSRkFaDwIhCmFkGQEN7D7R0jKBvYMzEKwLt7W2or6thEZkXHJyD2X3m8+hO/n6orhYUXoB9TlHQ03eEpZUTMjPScVYU2AVKzpAQLBlUjNbXN4X6NhNp3yxZ++JbR1q8biQ3SHXBYhXeNoaMqes27oahkSV77iruFCfBSUiIh62dB2wdIuDum84ER9pnnj0PPRc1yyNPFbVPJtOou08qzJl47dCzhrqmLlasXIlVq9bCwsqTvW4xQgbV3SilpQjR2TOJXeMPK2tn9pqx6Gg/LX2nAoFyMqQE69LFCzh6tA7uHr5QY1GRuXUQ3wEMjSq8ThAGL3nBop7mNGRi01YT3sFU39CCF95lvUePHm3gbWt27rJkj9vPzac3e05a9LyySI/bF1jU5eWfiT3WATAwdoG9cyRP/+ig9s0e7xOUwydFe3iHICWV3PRCsATKzZASLBk0v8/Z2Q2GJg78zCEV4kk0rtWJrl9csKIlgkUiNWf+akycPA96u8xRXX29haC+vh7mFpbQ0ZV0Pw2NvvMhFPT6FDmRSHGD6G02B+g8Ir2Gt28ES0dT0dnRLr0LgUA5GZKCRfT19bJIyxuqarostYvkNgHJmcObCAMTLDqTGJ1QDnWtPfj2u/FYvHgJYmKibjgwTIJFEdZ23T13LVh3uiQpYS5cWEpIU5adXX2RnZ2Js12ihiVQboasYJG7vLPjFFJT0/ikHH0TTwSE5cvVteQWEyyyEpBh09zKD78t24B58xdBU2MLvDzdUFxUxAWQaGlpgZX1vgcqWBQN0qLdSaqlxcanovtsJ/edCQTKzJAVLBlUJI8ID8cufXM+98/ZI4n3xqJmefJ1LdnXJFpBLF0z3euDDRu3Q2XdRqxatQLaWppISoxHQX4e9uy1ZkJiDV+Wat7NmK87XVTvokUiS9OWk5Mzpe9GIFBuhrxgyTh06CCMjE2hrklG0GAmUDm8bkV1JXnhokXRDdWzyIFubR8GQ1NnbN9hjN+WLsf48WMxZeo0aG034WnbnU5+vvMlmQIkESwPbN1mguRU0WNdMDQQgiXHhQvnERkRAe3thjA284SHXyY/eEy+p8HCQSJGgkSiRtYDMnfSFBoavKqhbQpzS292XQ5PJQc/9t6WzDh6AGaWPthlYIXs/XnSdyAQKDdCsAZBolVWVgpTs73cpe7EUsQQfgCZWhrfGG3xv0vFi8ylEWSTiD7E/i4Tueuvvy8rNA/egfthY+8HZ2dXdr8l0rsXCJQbIVh/ADUCTEpOYdGWMTS3W8LRLYFHNSRKN0sTJUvyPfr5H1kk7mWRKFKDPwfXOGjtsIWjsx/q6+pw8aLocyUYGgjBuhVXBtDU1ABfP39+fGb7Ljs4uifwCIoc6iQiNxeu+7/8giXu+JjEw3B0jcXGzTvh6uaJPiasAsFQQQjWHXGFD5Fwc/OAhpYBdPWd+G6ipF3NgQcSTQ1elJLSEZ+9tuEwMnOFn38wqqsqePsagWCoIATrLqCjPdXVlfD19YfODhOWKlpzpzy1M6Y+W1xUWNomEZl7j7woeiMxpF1Jeg17SgW3m8HK2hb19ddP6BEIhgJCsP4EAwMXeUsY6rOlt9uMRV2mMDb3gqNbPBOaPH5+kJr+kejQQee7TRv92GPoT34cKL6MPT4XWjtssGGTFmJi46W92SVnFwWCoYQQrHvlygAOFBbAzs4BurtMsUPXEtq6+2BlH8ntDrFJh7nZlE/C+YOjP/KLe7cSSnkfeVunGKhrWWKLhiFcXDxRUVYmmvQJhjRCsO4jnR2nkZ+Xg7CwCOy1cuBTcGhkPPW8MjT15AV7siQER5J4FVxd1KWBln9oPty8U7HL0AUb1XZBjwlgYGAwDh48gDOdtx4rJhAMBYRgPSCo53tl5WEUFRXx4RMRkdGwd3Dh7Wg0tQyweetubNysi3WqWuxPbR6dWVk7wcXVG+ER0fxxHe1t0mcTCASEEKy/jMs4d66PD4ro7Ozki4axdnS089XVdQa9Pd3smhsn8ggEAglCsAQCgcIgBEsgECgMQrAEAoHCIARLIBAoDEKwBAKBwiAESyAQKAxCsAQCgcIgBEsgECgMQrAEAoHCIARLIBAoDEKwBAKBwiAESyAQKAxCsAQCgcIgBEsgECgMQrAEAoHCIARLIBAoDEKwBAKBwiAESyAQKAxCsAQCgYIA/H+mnWN/xOMK4gAAAABJRU5ErkJggg==;clipPath=inset(22.92% 22% 12.5% 15.33%);aspect=fixed;" parent="1" vertex="1">
          <mxGeometry x="540" y="569" width="200" height="114.29" as="geometry" />
        </mxCell>
        <mxCell id="KAyXB3LFF11qL9irPbgj-18" value="M5 panhead screw" style="shape=image;verticalLabelPosition=bottom;labelBackgroundColor=none;verticalAlign=top;imageAspect=0;image=data:image/png,iVBORw0KGgoAAAANSUhEUgAAASwAAACQCAYAAACyAlbPAAAAAXNSR0IArs4c6QAAAARnQU1BAACxjwv8YQUAAAAJcEhZcwAAFxEAABcRAcom8z8AADUKSURBVHhe7d0H9F1VlcdxZ00fnXHUGWUcKyg4gEMZaVGkBimCEkR6M5EmREqAUBKkBZAeIi0QSEICpAApJCFAAENQIFQBRUAHZ0QGLFiRQTyzP+fluJ4hICoyefz3Xuus//9/3y3n3uR83++3z773vq5kZGRk9EgksDIyMnomElgZGRk9EwmsjIyMnokEVkZGRs9EAisjI6NnIoGVkZHRM5HAysjI6JlIYGVkZPRMJLAyMjJ6JhJYGRkZPRMJrIyMjJ6JBFZGRkbPRAIrIyOjZyKBlZGR0TORwMrIyOiZSGBlZGT0TCSwMjIyeiYSWBkZGT0TCayMjIyeiQRWRkZGz0QCKyMjo2cigZWRkdEzkcDKyMjomUhgZWRk9EwksDIyMnomElgZGRk9EwmsjIyMnokEVkZGRs9EAisjI6NnIoGVkZHRM5HAysjI6JlIYGVkZPRMJLAyMjJ6JhJYGRkZPRMJrIyMPzJ+/etf1/arX/2qPP/884uWZvwpIoGVkfEy4uc//3l55JFHyi233FKuuuqqcvnll5dLLrmkfPGLXywHH3xwGTx4cDn66KPLuHHjyu23314ee+yx8t3vfrc888wzi/aQ8UpEAisj4yWCclqwYEE55phjymc/+9nyuc99rhx22GFl+PDhZejQofXv7bffvmy66ablIx/5SPnwhz9c+vfvX/bee+9y1llnlfHjx5eZM2eW//qv/1q0x4w/JhJYGRmLxf/+7/+Wr3zlK+X000+vkNpoo43KWmutVTbbbLOyyy67lIEDB5ZDDjmknHfeeeWGG24od999d4Ua1XXccceV3XbbrWy88cZlvfXWKzvttFM56qijqvq68MILy3e+851FR/n94tlnS/nv/y7liSdAdNHCPhgJrIyMiJ/97GcBhP+uNm+PPfYoO+64YznggAPK4YcfXsE1duzYqpbOPffccsIJJ1Rw9evXr6y55ppl1113LV/60pfK/Pnzy7333lthd9FFF5X99tuvfOxjHysf//jHy4EHHlhVGetoH//zP/9Tc14twnGG5SwBwFJGjy5hNUu5+OJS7ryzlB/8oJSHHy4BxBKQLGFJS5kzp5S77irlpz/tbB+MLbfdVsqVV5Zy882lPPBAKXfcUcqUKZ11H3+8RL9KqL5Spk3r7Ne62sKFpXztayWgW8p113V+B8Z77uns84c/7BxjaYgEVkafjZ/GaL/vvvvK7Nmzy9lnn1323HPPstVWW5UtttiiWrzNN9+8bLPNNmX33Xeveaozzjij5q+oKVBi9cDHdmuvvXbZZJNNKsyuvfbaCq47ghhAxx6yi/Z9/PHH1waE16HDogCHSZNK9KeEfexA5aabSnn00RLwK3H8UsaNK+XWW0u55ZZS5s0roeyAtrO9XP/Xv9757PbbO5CaPLkDH+oM2EBqwoQOtIDviis6+xw1qvPTMS07//zO51df3dknmC4tkcDK6HPxve99r8ydO7eMGDGiKiWA2m677cqhhx5aAXR1jNQvf/nLNcE+Y8aMmlj/zGc+U7bccsu6Lpt3yimnVDt4Z1DAepODDnvttVdVXMAkf3X99ddXIN4ckufMM88sO+ywQwUhBfeFL3yhKq6xY8eUp556MhRXR+nEYeOYHWhMnVrK/fd3YGYZhQViIHLjjSXA2IHbc891oEJFBSfj3EqZNauzDrUFVMBnX7YPIVjB51hUGmUHlI7z0EMlAN5Rd4C4tEUCK6NPxA/D1wDL+UEC6oZFA5UrQlKwfKzavvvuWz71qU+Vddddt8JJ7mlSyB6zfsAEPKNCjgDWOuusUz75yU+Wk08+OdTOvLrOV7/61TpLaB+rr756hdzFMfJZxa+F1Jk4cWK1mh/72KY1z7Xddp8K27hnwGhKWLDHopfPV+sHJOAh3fX0053+C1ADF8uDueU//7MDHmqK4mLfAMd6LOIvftGBFCj9+Med3JdlguICSIBrE5nNoVqPKgPCpS0SWBmv2TDD9+MYqVTOscceWz70oQ+V5Zdfvnz0ox8tAwYMKPvvv3859dRTa7KcPbsp5AdFdcEFF9T1d9555womium0006r60iwAxOrxwqussoqZYMNNqiWkk3UgM1+JevNGJ5wwoiq2m65ZUE9xtChhwUU+4XS2qkccMDxsf3RAcyrQjn9fiUQwCK/9N3vlvLkk6X88peLPngNRwIr4zUXP/jBD2quSckBtUM9AY5ZOnC67LLLyjnnnFPzUhLibBywfP7zny8TJkyo0KGo5KJYRKrIOlQXEFFUFNON4bmACvw++MEP1lzXNddcU6HmM1DbZpttywc+8IGA227x2eWhnmaGVbwslNqY8uEPjy1vetNZZcMNh4TtPCE+u7H86Ec/WHQWGUuKBFbGayLkpeSdJMKHDRtWVY+aqK233rrWSW277bb1p5k7kJk1a1a1cRLotpEIBy8q7NOf/nRdh4W0DoBdeumlFX4UFUsIfj5/4IEHKhyptfXXX78eD9SoLFbw4ovPjc/2LBtvvE18NizAeUvs7/GA3i1lyJBjQoV1+rXttlsG8HatubWMF48EVkZPh4pyCW91UYDD7rFqyhNYOGCSO5JrUqaghsrMH7smx6T8AFwWLlxYAaM8QX7J5xQTMFkObOwcGKmxUq5w0kknlWnTppVbb7212j21Vv36rROfbRA28IiwgRNiv7dF/+4qm246syyzzPlhLy8IaF1SJk2aUObMmVJGjDi6rL76auVtb3tbBeLUqVNrvi1v8VlyJLAyei4UX1JFZuokz1k55QTtb2pKSQKAmbkbOXJktXegpNRAPsn6CkEpKrN38laAJN9FOQEXtfTv//7vdSbxyiuv/I0iAykwY/V22WXXCsy5c+fE9teGohoTFm+7suyy24SamxhgejAgdEsZM2ZGgPSQUGgrxn77l3HjxoZt7Mwe6qeyCP0YMmRItaxPSkplvCASWBk9EU888USFBZCwbOyX3JL8lHIEpQfyT3PmzKn5o+nTp9c8lRooFefsoar10aNHV+t42223VTCZxaNsgIvikneimO66664KJpXrgEJVHXfcsXXbBQtuDUhNKUceeVgoulXKlluuHQA6N/Z3d8DxjrB495WVVhofQNs6FN0OZcqUS8MGziujRp1Wtthis+jP+hWszoUSBC3nYmZRX6m4vJVnyZHAyliqA1gMbKUIBx10UP2pfgqg1DHJHak0lxBX4yQfJB8FNnJPZvRAjCWkmECBAgOqVooAXEobwILScQyKihqzDwl70JIXGzx4/wDjpbHdl2OdGQGkM8o66xwfwLkk+jWrXHrptWXevLmxvy8EBFeu1fAARIWB04knnlgtqdIJfVc2obGh//qv/1oVHaWo6j7jhZHAyliqwu0q3/zmNyswDFy1TtQPGAETlSRxDlryPYAGPKrVgY093HDDDSt4qCv2iiqSHAcf1eqf+MQnauX5PvvsU2EhRwVa8l3yXyuvvHLZaaedY9tOucOCBbeESro87N+nQ1GtFrZtnwDe5LB5D5SzzvpZQHJuefvbt4x9blTOPfeM6Mu0CqfDDz+iKjN9oQT1V5NHW2mllaqycz/imDFjag6Oanzf+95XC0tZ04wXRgIrY6mIp556qsJDYlzOCDiOPPLIOlunGFMzsCkheR5qCXTkoTw1gYKRo1JSAF4UmJyQXJY8lhwVcN1zzz0VTHJYVJnkuZor+StAmzVrdjnppJNDGX04QLlqgPHIANq0sJhzy7BhN4elGxfbDI5+Di3jx08J9Ta3XHTRqIDo7nGsjWvF/HHHHV+BO2XK5FrL9Z73vKfCid1kW9lBSX3HBlh9BWfrvuENb6jA1J+MF0YCK+P/LRR1PvTQQ1XFqECneCgS+SaKSq4KmICHTQMtt7tQQwY+uFkfuIAJyCxn88DLoAcmVs869kHh+IwqU2Nl35QNNaZG6847F0Z/ZoYNHB42b7uwgXtGHy4shx12Vxk58tGwoVeE6tsxgLNugHD3AOppYT87z8diR8EJtCg7AHZMdlLxKUvLXoKTc6UEnaccHOUHrO9617vq+cvXZbwwElgZr3p4EJ5yAnkbg5ZKoqjcXye3pDCTUmLVWCsgAi/FnQDFJhrkoCDPBEwGvPv8FHBSaBSX5DnV5J4/sPiP//iPqnQk3tU73XHHwlrZvvfee4VtW7Nsu+3WoeBOjmVzy8yZ34hj3Bv7mxxq6+Sae5o61X2GV0TfL6hQkm8aNGhQVVNmHvVJ/yi3I444oqpD/WJhQZGqogbZQOoRSPUJLKks2wMb1cXCZrwwElgZr0p8//vfr3AwiA1OA1rS3P18QCU/ZaZMQtxTD6gVSkTCXFU5KwcMDTyrrbZaVVgUEyjdf//9tdTBoAdAgAMLMAM+Kk6Oq3//TcLqrRHHHB77nhnLrynXXDMjbOCJAcKty4AB+5djjrm+jBr1jWg31WT9gAEbljXXXK3moVSya3JOEufyYWYSQcisJLhKzmvOkeJTr2Xdf/u3f6vKij1Vs0VJKY1w7v4GKtfA/kA944WRwMr4k4UH4amZMkABxO0tZukASfKcaqGolCAACmU1ZcqUCip1ThQV+LiFhppi45QbKPQEPTYQGFrtkgQ8xaVQFBgkuwFF7uvOO++q+58w4eKy//57xGcfDBBtG327plx77XdDyd0fSujiss46OwdcNi3Dhh0S608LCzq7gnG11Vav1s5x7a/dRO1cNPBlAeXYFK+usMIK9dYgeSvnyZJKqIMTkFJYgGU9cAYrilMD9SxrWHIksDJe8WBnQIdtaoNRrRGQeDoCNUJRGJwSzxprZRsqyX18LCFFBUYAAHYgRFEBFzhROkoDfAZM1BqrR43Zj88omwEDtgmldFJVUgsWfKWMGDGjLL/8qeWNbzwmLNiogMxlVcnNnDmj9uk973lHWMcBZdy48dVajhx5drV17B7LJi+mb8CjbMEN1ZQfaCphYAnXWGONui8Kzbnqn35SkJ4CAcJurAYsNtV+AYxldO6/aI9VyPitSGBlvCLhFhnV5BQFK0R1GIDyTQak5DaAsEdsEqtGDckvUWCAQIUAjFk0YGP1wAeY2EY5HyUOBjW1JEdl5k+ey4D3GcC5t8/nkvOnnnpC7HfFgOdH47iXhTJ6NAD6VBk48OEA4eFllVVWLnvvvWMtW5g+fVpA84v1XkH9BxxJcjVd7B41x8KBE5ABJNXFnloXrMCMrXMuIKU/ngFPDa666qo1zwbg8lb6+/73v7/uwyOY5cSot4wXjwRWxh8V3/jGN34DE4ACJqqCPaJ2DHaDUN2UgU59UBZ+ytWAkadzUk3soNwQxQV0trE9sFFdQCc53xSV+/xsp7J94sTLAnqfCwisEopqi1BHF4aauiks5/yy886zwwIeUbbeeptawnDNNdeFrZweMDoi+rF5KKf+FZhyXI7HkkmSr7jiijUnRk35TMEnsLCr1CB7CDxm+oDI87TceN2WUWRqqgCKvTUhYD22EKSUL7z5zW8u73jHOyokHfsPfeZ7X4kEVsbvFayKKXdQAiCAkcuRw6EkzNCBF0tEVfiMVbJNU1TyPwY1q8dSGdAS8qyQddgzoDCDyFZSMmqrqC3KiaUCANA75phjA4yzy4MP3h6qZ2wAYs9Yvn30Ry2UpPqD5aKL7gvLeXIopPUDdBvG9odWiE6delVVRfort+Yc1GiZRQQnyX3nA0zsH+XI4sqrKf4EP/0ETxCmJCkqast5Waa2Csj8ruRBv8Hw7W9/e61sdw5UaVa2v7xIYGX8zvCCBvVSbJrBSAFRBPJOZs4MXGUK8kaAxBpaF6wMUFYIvACBogIecKLC2Duqg6WjuGzLykmsq7sCBp/L+XjECyt5++13VIu2ySYbB/TWCGgeXM48c1I5+uiHyrbbPlXe974rou0a2+4Xymt0wHBiufzycfX4a665VoWT13ZRgJL+VCGguJdQro3CkhQHINCkiFhZqgrAWDclCgBGUXkelmXOVaKdJQRj2wIfNbXsssuW17/+9fVaAL2JhkcffbS+7zDj5UcCK+NFww3HFId78ygig9GgNxMmt2OwApiBSqUo8qQmPB0BuIAJfMAL2ORsKC8DVp7J7SfN6kmoG8xyR6ye5fJTAAdq7NNGG/WPz0aHypodbWYM+inRnwPj+J8MNTQywPNAKKZbKzyHDh0cwPhIhesXv3hKLTgFQEnvlsCn9EwAAA/ogBALR3VZbh1wAx6JcyBjSVk7OSq5NooKjC1zHcx+soJyXSyy3+0XFOW3AFmJR8YfFgmsjN+K5557rtoyQDLIQAZIDEaDnUUDJc82V4oASirLVXqzahQFeFEVclusnFIECXI5KhAADDkeOSqfy2FRTu1FDQY5GFBs+jJjxlWhcI6JffePfqwXFvLkANcjYd2eCBjNCmgcECpo01i+Syims8v8+fMqnDw73T17AKl/QKZPFJDjU4jgypJZhwUEJ2ChvOS1JMVBi911TeSv7JMicy4A5to4J3B03u9973vLX/zFX1SIATw16bpm/PGRwMqor7uSQ5HXYXnkaQCDqgARA90A9ju1Y9CycMAEYvI71BDFBDDjx4+vikoeh8qgYCgct8SAF3jI3ZjSty/AaDcoT5gwsRZwrrXWGqHoBsZnXwowzitTp94WSu/yUEDDAjhDAjCnh+KZXK6++rqwh18qnpGuzmnIkENCvV1dgcXW6Z8ck/64FUff5MwoNjOS8lNybHJxbB1Ag5MkOyBRSmYBbUNpssKWNQtJEbJ7ikJt61jyeyztgw8+WG8/ynjlIoHVR+PZZ58t3/rWtypIWDy5IhCSLzJ9Lwfjd/BiBQ1ss2WUErvGKrJOrSDUuhST5aDUXtRgW/uzHgsm+a7ynGUERJBYf/0NAjrnhl1SPDo39jG5Fnd+4ANrlrXXPiwg8bVQXk8FVB4MaJwX/dwotlkrjjcstvFE0QkBpM5MnNlFUGUr1X0Br9k+cHWeyhFa0aZ+UYXgRGFZBrJARWWxd8BGYVFS8misI4VFjUm+U5/vfve767ZA5Zpm/OkigdXHwiwfNSP3QiUYeGycv9u0Pihp7o8zCCWdDWT5J+uyRiwcqwNArJ4B7Xnn7JxtgJDCoDQkqwGNAgEws4CgN3v2nKp6ttzSFP8K5YADPhvbXRfL7wvLOT/U3oVlmWUGB7j2DTieHeptThxrQr1JmHUzAzdixIm1Dotqo5KoIX0wsyhPJs/mHJUjmARo9/GxhCBDUQInsJm9Ux3vfKlCP6k25+V3OTrq6q1vfWud5dMHVewA7Qsg408fCaw+EE8//XStDJfcBhsDt5UiUA0AIJ/DzlAifvpMVTmwABNFxBLK/wAXK0RRAZd9S66zWyACBOwSlQNYBjSosVXySvZx9tkjQ4XNj23dZuNRLwMCCIMCFJcGOO8pM2Y8VGurdt3V44NXjP7tFsvPqZaRcpNHo3Q22aR/hRAImvlrcAIlBalmMOXF5Jf0jaJybkBFYQGpglb5KhbR9mykvlKFyy23XIWU7cFQXsq1cq5yb1mR/upGAusPjF/+8pf1dVJeGPDtb3+7DlhT1XInEtLUiml49UXskUpw6z7T3lr5KoRnTCmqlJOhkOSMwEb+yICUcGbz1DYBixk5M2Fm/igN68rZWK8l2BVqUjSAZAAbyEoMnCNwUWYUloFvH8oBXANV67feuiCAdHDYqBUCNBsE8DwieGFA6Puhcu6LbQYFhFYP2Bwa20wJ+9a5jWfgwEGhclatlhUEzbQpgTBTBzqtrMKx9ItVAx1QZu2oOoC1LptHPcmd+dsMnmUg5Hz1m+1zjZyfok5qimrzb+qm5Ffz3zDjtyOB9XuExDS1oX7HN7V8iVkzg8QAMCXuP77m29yMEVDIc8iD+E9vXTNVvqElqJUOvJJvSJHkBRdAamUGAEJtSC5TWZLkLBzYsEEUiEFsOfhIvjfwskJyVGqSfAaAbVaPnaNUKBN5H8AGNGqMCnJtgGavvfYpM2deHdvOKpMmXRaq7uyy/PLDyrvedWbA5OYA09fC0l0VCumo6PPHw2qtH8v3rX1lLQFJrsu1BCW5Kfkzebf2ZAZwogBdWwqRytI367N8/i0ACMjYXyCmBPXdv5t1Jc4BinUFQ/++9qcPWYqwdEQC62WEx5sYwOyTJLT/7JK08hcGDpvlp1wNOGiS1P5uyymCZjPYLslcikcNj89YJo9I+UPiJz/5yaKc0Oxqi+RnDEQDl/1qjdIwqCXGwZIqbG+QATf5GoOaZaKUWLn2TCrbAxcIAZdt9Ve/1WhRU+yVa0FtUVRjx55fBg/eLfqzRgBj5zj/uXE9fliOP/72APwJpX//LQIKmwb8DwqQTQyld0P0ZUSF+0c+sm69bopL5aMAUR+BRf+oHdffMoCxHHABCpxcW4rMubkmrrNlPrMvoANAXyLUlzzVP/3TP9UyBoqLiku7t/RFAutFwjcqxSC3wSb4hpdwBh3LfCsbxBSTZQaRgcWaaBQNO2NgsVlsFcVimdkyA9t24CIv4tudPWn1Ry/HdigjsF/7oZJabVF7QB0wUToGvltI9NfgNFjlbZQqUErKDSTi9ct5NdtIQQGPBlxATLlQH91WD6DAg8XaZJMN41ocGoppfJk27e44/68G3I8Lm7VTwGJ4KKGxsfyKgNPUMnTokFqztNZaa8d659T+gg6oA64vBwrH9XQdwdK1stz1tZxi8pRO59S+PKhBXwgASnn5ogEmOS8Qo36B+Z3vfGf96bq16+Ga5jsBl95IYC0WbpcwcH1z+7b16BC2ycAwELSmsgwgEDPA/A0avunV/BjcBhRlZiBoQAICBp+fjkOtUFgS32DCPgKkPBIL96Mf/WhRzzrx+OOP129/cDTIANOgVCMEpPppUGqUhGPIUbFqVJOcFdiwO+Cj320dVg+Y9M956ot+mG2jyHwmEd+xTyvGZ3vE31PC6s0uCxbMjnO9IGzmVmXFFQfENZgb1+DpsJr3B1SvKcOGDS7rrLNcQGSDuC5jwmbNC5CPqtew5ZGoUtcJhF1TMGG1KTw21TKAo5aAzReB86UM7cOXBkXl3Py7sbwssX8v9o9ya4+qUYpA6foSMZvp2V0ZS38ksBYFUPl2VstjoAIWK2EAmTKXQNfkVdxqYuBSYAazRLDBYtDJq1A8BjpLZsAYXBSB7W0rf9UUGFj4Hcwc38PiDDgWi5qgitgi9kzJASjpo8Hrd7CioIBR0pxi0i81RyBoQEsi64fjSK43y+Zc7Acg5bT0D5TYSyrP4AcHwKZ0fNYpY5ha80Ibb7xuVVQjRpwTSs7ruBbEzwUB4Euij3sFwAcHdCeGeruhqp8NNtiwKieTAPpC/bGorpNaqQZpDfzdLEzpARPAy6eBDuXkepuldH0sU2IA4JQkxaSYE7B8bt9vetObqoq1LTVoAsE9khm9FX0eWGb6DFxKybcw6IAIqBhQGhj423oGE4AoQKRWAMvgNq0u2Q0WlBWFZfCwH6Agz2Oq3cAFBtvZn3XBCrwMYg3gJIZtx2bJtYAoK2ZQ+hxMAcv+KTPKwTkAi7wSsFBVEsYGKAjaF4g5JzkoigvggBKYDHD71TfbgprPttrqEwEBb6c5LD67PJTY/LCck0M9HRhg3T2U6Fnx+XUBkFvD1t0a25wQEFkx+rxyKKsj6/mOH39phSiAtttawFtjQ8EEWKk710A//Xuweq6jc7DMeVJTAAvWncT+KhWq9kOR+Z3Csk/XznlRovbtFWIZvRt9GlhgRSn5FjdgQYZa8m3eLJu/qSyDvEGL4jLQgAscGrgksKkckGCxgIydAQEgZKUMVAWOwGW2y3YGNMtjoAIXgDm2/lBGEsVgo58GJOUjf0QlsGpyPwaj/YIXy9OsFEVlPT/tnwX0ObUCuqAEXIDrWFQdqIwZc3Fd5rPJky8PpTIgILRanMOQsJTzArTfKrNnfzsgdV5ZaaV1Q+FsEmA/J84dsMcEzI6ssGG7TFC4Rq4V5eSxKs5Jf1xbeTtQsT47DU5UGADLPVFJ/gboNqEA5k2NSqaDmGVs5D/+4z+WZZZZpipR10VJScZrI/ossNw/J5fjP3WbPdPkhlgQuaUGLDDpBhaVBVoGPOBpDVpsG5UFKHJNQCGhbbkcDWCBF6VkoLJz9mcfwGUAG8iOTX3ph2pt6oF1MrCpBpMAfqeoHJeNk4MCGVbJupSGJLxzoKh8rh/teVIa+LF6bOL06TPK8cefENttGID8aCiiEdF/ynF2nOuV0fdLyjvfeU6oqokB1hsCytdHHz3BYKcAVudRxMcee1ztj+vhPKkfkGr5PFBly6gpEAJu9hJI2+1A1tFHoKLGQAtMnYtzsh44UU3gxe5JoIOW6+TfEYiVjGS8tqJPAst0tZwQSyFXZYD4T86ytGTu4sCiVgw4UKGMmspq0GoKqxtYFFazi+qX2DRqyHEMQAPOT/kYkLIv+wVHA5zaas3AplQMVAOTXaIsJI9ZRbYJ+ByD6jJgHYfCkVwHB/30Gbvn3Bokdttt9zi38WXhwtvCIs6Kcz61Dvx11tkhoMHC3hUq7TvRv6tCYQ2suai9996jjBx5epzztFCak2P5rrU/LGqzzWbnKENg1Xf2EqDZY/0ConbtWWDL5O6afdY/M5bOT27QubPG+gzIYOWYZgQBkDLNB+G9tqNPAouiaBbDt7sZNjYEFADLLBUr0fJK4NGA1a2yGrC6bWG3ygIrFlEDqgYu0KC+HI+tYYOoPGrJ/u3DT8cFlgZPIAVZUDALyP4BgtZyO/anTxRVA6T9gxbFAr5KHvRBH830rbHGKmEhtw5wnBHneH0A+WsBm1kBgmMCEJ4qelo9f+/kGz/+wvKpT21dE+I77LBjPZb+6hcwsXrgA0Jm4Bq0KCNQdR7UE9iAD8XZroN6KqUHku8mLpyjZbZnYW3zN3/zN9XyUYeKXR3fnQa//vWvF/3rZryWo08CC0gMXlaF3QIsNoplo0q6bWEDFqtm0DZgUVkNWi2X1azhkpQWcCjsBC2NVXQri/WVNbCIksoGsNxVA2GziAAKAAY8K0udyWkZ1GyUqXsApjQMcKpNQh20WFKgkiMyI3j00R4FTPnNDHBOjfM+K9TO0LL55heHpftmnP9DoYaujH4cFypn01A+a4VCOvA35wI8jiF/pAod2PWPijJbB5xg4hpRVCyscgSJctfS9QZYSXFwYksB22yfGT3KSg6OiqSwgArw7JvKckznlKUIfS/6FLB+9atfVcvA5lEpBgtgAYZBAxRsC3XQgGUwshoGPHg0W9idy2qzhg1aL2YPm9ICLgpLcl5Sm+oykD0WBXQoIsBxXPt1zAYF6k/fQJUqoWpYKeCS1LeMOmlV4SDrDcfXX+9Z6ufGee8QqsXjUnaJvs2Ivn49jnVHAGJK7GtIbLdjAHF48URPuat99/1crbmyf8dmV01IgBZLR+lQqa6Da0f1UUXyc47ti0D/zNoBkXXADIgUfAIQxQXAEuaS/pLtoOcFDW95y1tqoh34WNksRejb0aeApQgTMNoAkT/yu2/slwJWU1ndyffuXBZgdUOr2cOXUlrd0Gpqy7ps4aBBg6riAlOqqqm6prQasChCOSBFnpSTwS7XAywHHnhQAKV/KK6tY72jAooTy8KF18f5TIr1Tw51dHIoHbVlV0e/ZkUfp4bC2yMUzvtjm0/GsUZX9WhfVB+AgJbr5Pwcn/IBIoAFb1ChgignOTDrmCEFMXkmIAI3lhGw2ErLKEuztM6BwqK0gNg18CXhzTyppjJEnwIWdcVSGYASu5SIb3uQYFNYLYOu2UKwoCaAgioDrcVzWd0J+MWt4e9SWs0eyikpg2Bz3DjsOBQM+LBZ+uKYzR7qF6iCCchSZUoRJKIlrSkaeaHRo0eFDdw4QLBD7OvaUHD3x/p3xfbzA0r7lHe8Y9lQXNtHH6dEv6bXbSTPJdXVN7kW+g3cgAVEFBw46VOrqZJfoqTATJ+pLrks19d5gE+7Lcbfzf4p7tRnkDPTpxSBvXVOcmwZGYtHnwKWb2qKxGAy5S4hzIaxX1SWQWewvFjyvVlD0Fpcab2YPXw5aquBC6xMCFBd9msiACAMcH1zPA1AAEM/QQW8gJdKWXXVDxZvktlhh4+Hujku1NgNAYqZYa+8kfiC6N/ssHpXxXkOC/vXuYXHY4WdY1NOrZaL+tRv10BurNVvUXaOSxlZV26MWqUILQModhG8qK+musCI8nJMahCgVlhhhbpP19b18W+UkfFi0aeA5VVVZrMMGIMJDHzjG5isy0upLMqsWcOWywKpZgdBq9si/i5oaaC1pNyWvBa1RdWZzaSy2Khhw46qdtDxzz33vNrH004zUUDdDA1Fs1ec276hqA4IQOxatt/eEzZnhII8OaCxZtjA9WK9owK2l0R/plX7SyF5QJ3j6JNzlPuS5Jb4dj3AGxBNVDTYA7xtWDoJeJ/po20lyzvlErtVNevvdr8fG+kRLuqmWFkAznqpjJcbfQpYDz/8cM2hUAu+6eVIKC6D8aVUVje0Wl2WZpnP/Q5GoARY3RaxO6/VDS6tW211lz8AF5Wllsp6apK22+7TAYDdA6zHxvEuDJV3TqiSUwKqJwZwT4nzGh3Ka3KoskvD5n0hFI6bitcPFbVFbHNUBVsnT/Sheg0oOv02u9ivX78KIecCiK5Hm22kfig94AKg9hgZ64C8mVa5J6qKEmQllVAAFiD5cjBD+Jd/+ZdVTVnHObl3Mx/fkvH7Rp8ClvvIDDQqwUA0eJotpLJaLssAZXu6E/ANWpSVgd7qjsxsUSPgx1ZRVAC1JGgtSXFpL6a65LauvXZu3eass0aGGjwkFMvAgOxB5bjjziv77Xd99OG20r///LBiUwO0IwMsh8Xvu8U5bha2a+Xy7ne/q04wnH9+RzmpfVJeoK8ADDqWs3XW6+S+Rte8mGp64AE4atNkgGUKOc0CNrBZxgKCHvtHTYEgRWV7eSrX1znlg/Ay/pjoU8BSYEg9UQGm2A2wZgu7VZbk8eLWsOWzJNqpLJbSTJe8jgSypLLBKWfDsoEQWLGNDVxLsopLglc3wK67ziziTQHJ88OCqQAfFP08M+ByU1i8ewI2c6Lv50RfhwfEjoj+HxPrDa01Um6LWX31zttd2DsQ8hNAQMt5gS9w6z/rBthsmutiBtA+WD/nbxuzeM7bpIUmh0VhAZa6MJX3f/VXf1WXuZ7sbSqpjFcq+hSwnnzyyQoPaogVoiwM4m6VRU10W8MGLUqLypIMp07YHQOa/WGdKK32SBOKjLVzrO56rW7VtWR4uQfvqgDVlbH9lFAkk8MeTq2K6/TTFwZY7glld1lAa0jYs0E1tzVmjBu2Tw/Anljtov47F7kjfTRjSPGAKlVIUYGsXJJz0zf7ASL1U9ZxnsDbclGukf2qXZM8l/cCPvVR9t22pVztXx7u61//er1fMyPjlYw+BSx1WAa/AUplmJY3sNkbA5Ul1AxOxaTd1rAl4NkoQKMs3va2t9XH6r7hDW+ot4yoKzKorUMtgQG10sofGrhAqxtc7sWbNGlqKKtJYQMnBrQmBYRmhjW7Ln6/qdx441cCXHfFsi9Hny4IwO4f6nCnAO++0c/jo3+n135SR2bqqEV5L4qIfaN6KCWKkioCF8ACaPB1/oBGFZntA2vrARsggxPIU23qqSgs+TDbOGeQBnUPwstbZDL+lNGngGUwqcWSTJdfUS8EWOyPwc3mScIbsGxhN7QASw7L7/JfnkbqdeSSya973esqsAxu9pLNAiSwajVblJnW4NUNsKlTJ4aqGhufXR7QuT6U0X1h4x6JfT0c630lLCPb6A08kwO40wJcFwV0D67ApRIBCjD0FbDAl40DHzkmcAIfyogaBBuV8JLowEZhtse2sMrOwaQEyDknxwAr6sobZKgqfzumm8i9QSgj49WIPgUs8dxzz1WItMeUtPv3/G02y6Blh1qJQ5shk78y5W9d1k+e5s///M9rA6w3vvGNdRCzjmq0HEO9VqvZ8neDlzZx4riAlXXc5ExxzQggzo/93xl9ujX2MzM+nxAKa2xYR2C7otpHVtP2VKLjubUFcIAUaAGLJbQMiJ2fWT3KyK0wICSnZfZOk79yvoDFArKRCj6VKbSH4FGT1JRGabGwSkSy+jzj1Y4+ByxhwLEx4EQtURNUh8SzYkZ1SRQIKLCIcllyM2bRzIj93d/9XX1iAGtE5RjccmKUDahRWBLzrTrew/AuueTiAM2FoaJGR3Nf4rgA1GXRbo7f7w/1NT8UF5s4Nvp3SQXVFVcoSr1sUfvt4lRqTZ8ct9WVsXhAqx9sHmDJPzkXoALaNvMH0BQmm2hbSkrJgv1Z33osr4ftSaY7F5MWCamM/8/ok8DysDq2pykU0DLLJR9DhbSiSdP4YOQnq8RSGfgAoUhSCYDGflEy1AcbqRIdqJQHXHjh6IDV+aGyziujRo0P+HmBxO3R7ijHHntDKKMrQ3ldGjACtIsDRGOjsZKUWMdGdjfqCrDMLMqpOa5kdwMmK0thgZX+yEX5jAUGWLVQzdYBFtso72Y5OFnHeQI4AHrssxfAZmQsDdEngSX5rpLcYGaDgEv9kKQze0SBKehkv9QOUUzUDPtkIMsHtUJJCXi2EbSAb+DAz5ZTTjk1AHVhtJEBmTMCThfFurMDHPeG5Xsw1qeqJsRnXsRwfvzeKUZVDtFsZLOSS2pt5pFNlXMDHFCillhBfaEOwQhsKUhWj4J661vfWvNuwMzqOXfqSuW52T7XROFqPhUhY2mMPgksYUBSJPI01IdBb1C71QQEmpox+KkrtkhjseS0qA8W0WcHH3xQAO3oUGU7x99bB5CGh9WbHHby2lA6cwJSMwNYMwNunrhwdsDorFBe51b1JYFOjbUGXK0B2JKazwCNPbQNNSUHBUAS6fpPAYKPPmpqzyinf/mXf6l2FrCACnipNPtUipCRsTRHnwXWz3/+8zr45WtYI9aQEnGrCRVl8EtWg5hlQCWhrnZq1qzZ5cYbb4rtx8Rg/0x8PqBCYbPNtgsLuWfd76xZ88Ma3hAWcVIAzm09Z8TyMwNY5wTMzqvtvPPO/03FudyX1rGRnfyX37vb4svltYALeNlU8AFeKguwgIi1pfych9wVJWWCgJpUvuEBf6mmMnol+iywWokDuFAnCj8NarOAVIpl8loslUJQ1tBtMldfPT0smQfqnVaGDz+o7LKL9w/uF8A4P9b/allvvTnx+2EBjH0CWKcGYL4U1q3zKJiRI8+OfY2quSdNrktTLgFcDV5a9++tAVr331QRcMmbga1clkmANvPHIoKVPBzlyPbKXynHsJ5X8Gdk9FL0WWC1MGjlf0zfm+43uM2ayf9QX5a5xeSKKyYFeLzB5uDy+c8PDOu3V6gZT/28uey//3Xx+8kBt30DFrsE8LaruSHKzLZAA0zqv6i0Drw6Nxq3+xRbk5fSGsxeqjWo+ek4IMTeOjZlBVhqqKhHy6hGEwtyWApnPcEzI6OXos8D66mnnqoJbKpKmYMB7+UKFMugQQNDoXikiid3bhCg2q3sueeo+HtuQOD6gME5YRs/GyD4WPzcIBRMp45p+PCjq90CC7bSvs3egQsYNVCBloLUdq/i4iBbvHWDzd/WtT820WwlW8r2qW6nqKhDFlHxqPwby2g2sBW5yn9973vfW3QlMjKW/ujzwBLPPvtstVZsoVosjxXecccdYsDvGsDap/Trd0jYvFPCuo0LlTQ6IHRoWXvtT5bNN/ccqK3KwQcPLocccmhAYtua/1ID5XYe9VsKOdkyMNRaZXr3I2wAi/JSOd5UWPv5uxpoUVjtgXqOD0zUFlBSj/JblCKFZSZQHZmyBlXuaQszeikSWIvCwKWK+vffJBTKWlVVbbXVZ2KQnxSDf1ooqtFlvfWUP6wequUTYRkH1dnBww/3lIeja6KbqgEMt/nIK2lySQCiEBM4/G0dt/YoM6CKlEaAFchprb7L793Ll9RAi8qi4ADKsewfsMxgtj6ZWJDDMiv613/91xVYbOQDDzyw6ApkZCz9kcDqCkl4JQLvfe+yZY011ozBLg+1TUBl+/hpNnHjGPxbVCCZmVOgKddFQbFcbn+hYIAJPOTAJO5bLsvMHaCYobO+4lVqDFiaKgMqZRMaFeaWm5dqlBVoARaFZb+UlAQ8WLXZQ/cQsopuP3JbEWACtBuWMzJ6JRJYXeE1YN7lp0Jcjse9c3JQktZyQSAECIpN5bp8xubJC6lrol7c1qNiXL2T7SXxqSjgUgfFornnT2GqZ7iDjv2DDUBp4KNZT1Gqny/WfG6bVhsGjv369avNTKemr/qsit0sofsf/S13lw/Uy+ilSGAtITyBAGgAiCpp0JJ/olg8nsVnbBVAUUztth2QMiNHeVFNGtDJIQGHBLjZOzZQOQPIUFjWByn3Aqqq16zT3ZrN7G7Wt53fqT5ABCvV+FQVGwiqYMWWetefm7UVkuYLHzJ6LRJYS4hnnnmmvidQsWiDEmixWHJDVJb8EwCAAxB5UJ7frUehARHLp+pctTz76Kdcl/02y9hKENjF9jwu9lFj2X5Xs34DnP3ro8kD8KSiAJda9LfzkHAHLMdMdZXRa5HAeolgDykWAx2cKBbAAhmKRc4KqPxOcflcKYHCzdbAyeNa5MZaBTqQaSDWHrbXcmJ+apa3Bn6a9ZbUfAZe1qWcPLddLk2/NH/rH6v6t3/7t/XWHCD98Y9/vOhMMzJ6IxJYvyMee+yxChdJaiUPbRaO5aK+lltuuZrIBgSKhnUELTmp1tg9DbyoLzOFIMYuukm5gUwDEq1BrbtRUIu3bsjZJ/XnnX8Nsu13uSsFo179Droq95VzZGT0UiSwXkawToozKRWPRGYH5YUoLM1NxkoLwIktpMBUyys+lXAHMDOLPnfrj0Z9gVc3wBrEWgOz7gZsizeQAy6fs3mS+0Clcp/KAlrV7VQVKwiwas6efvrpRWeXkdE7kcB6meGRNJ5D5ZYWLwKlWjw3i6qiulS4+2kZYEmkm1lss4tgAl5AJukOYECnAVi3CmtKbPHWoNYa0LGaoOVzdlClO2DpHwWor2Cluv31r399XSeLRTN6NRJYv2fccccdVSmBQXvgHVXTktuUlxooAGO9AEKpQQOYmq3FAUaBaUDWbGQD2eKtOz/WAEeNAaASBrbVExna25U9/4qyUntl/fvvvz+fwZ7Rs5HA+gPiJz/5Sb2dRjmDRyqDFyuompzKAg5lDPJJ1JZSBgCT35LEBzBlEwCmVKIBrEGsNTBbHGiLN2CjtthPsGyKSvmCn6ra/+Ef/qFC1YtZMzJ6ORJYf2BIWHuVPLB4jVZ7FjxwmTlU/wRg4KXUgepiJ8FL6UEDWFNgANYg1hqYaVRZU2bdreXIgM7+5dP++Z//uYLKM68oqz/7sz+r+/DW61RWGb0eCaw/MkDAuw4BpqkbM4bARfE0eFE4bYYRwKgvRahNgTWQsZHNSmpNkXVDrbUGK7fiOCZYUVPt1WPsoPzW3Xffvai3GRm9HQmsVyi8Psy7CBWDetsMhQMiquK74aVWS6Fps4+sY1NgAEaFaUBmX92KrLUGNNACPkn2v//7v6+Q0rzY1X49jdTjczIyXiuRwHqFw2uwvKqd+lFOQPFIfkuGg5eSCDOLLwawdv9fN8g0YNLArIFLop+Kau9GNAlA6U2fPj3fdJPxmowE1p8o5Ljck+jmZHaQXVS0CSpqoQBM0r5bfWnKIto9gLZj97oB5m8zk26uNvMHiMDlnkJPEP3FL36xqAcZGa+9SGC9CvHTn/603HvvvfXxMVSS6nPQAh2FqHJPnvbgqQ9A5r4/MHMjtXUVgbKXlJqKddv6TB3WvHnzao1YRkZfiATW/0M88cQTZc6cOfXRMuqpJM4l4ykrCorSoqI8AUIhKAUGdOqzPMtd4efzzz+/aG8ZGX0nElhLSbgR+ZFHHqmNGvP6rYULF5aHH364PP744zWpn5HR1yOBlZGR0TORwMrIyOiZSGBlZGT0TCSwMjIyeiYSWBkZGT0TCayMjIyeiQRWRkZGz0QCKyMjo2cigZWRkdEzkcDKyMjomUhgZWRk9EwksDIyMnomElgZGRk9EwmsjIyMnokEVkZGRs9EAisjI6NnIoGVkZHRM5HAysjI6JlIYGVkZPRMJLAyMjJ6JhJYGRkZPRMJrIyMjJ6JBFZGRkbPRAIrIyOjZyKBlZGR0SNRyv8BK6MMUchAvHUAAAAASUVORK5CYII=;clipPath=inset(22.92% 23% 15.28% 19.67%);aspect=fixed;" parent="1" vertex="1">
          <mxGeometry x="840" y="569" width="200" height="141.12" as="geometry" />
        </mxCell>
        <mxCell id="KAyXB3LFF11qL9irPbgj-19" value="M6 flat washer" style="shape=image;verticalLabelPosition=bottom;verticalAlign=top;imageAspect=0;image=https://www.mcmaster.com/mvD/Contents/gfx/ImageCache/947/94744A289p1-b01-digitall@100p_636840396713000544.png?ver=ImageNotFound;strokeColor=#DDA15E;fontColor=#000000;fillColor=#BC6C25;aspect=fixed;" parent="1" vertex="1">
          <mxGeometry x="1130" y="590" width="200" height="100" as="geometry" />
        </mxCell>
        <mxCell id="KAyXB3LFF11qL9irPbgj-20" value="M8 lock nut" style="shape=image;verticalLabelPosition=bottom;verticalAlign=top;imageAspect=0;image=https://www.mcmaster.com/mvD/Contents/gfx/ImageCache/946/94645a230-@100p_637691221302212883.png?ver=ImageNotFound;strokeColor=#DDA15E;fontColor=#000000;fillColor=#BC6C25;aspect=fixed;" parent="1" vertex="1">
          <mxGeometry x="10" y="820" width="200" height="182" as="geometry" />
        </mxCell>
      </root>
    </mxGraphModel>
  </diagram>
</mxfile>
